%TF.GenerationSoftware,KiCad,Pcbnew,(6.0.10)*%
%TF.CreationDate,2023-02-02T18:01:59-08:00*%
%TF.ProjectId,netrazr_rev2-Left,6e657472-617a-4725-9f72-6576322d4c65,2*%
%TF.SameCoordinates,Original*%
%TF.FileFunction,Soldermask,Top*%
%TF.FilePolarity,Negative*%
%FSLAX46Y46*%
G04 Gerber Fmt 4.6, Leading zero omitted, Abs format (unit mm)*
G04 Created by KiCad (PCBNEW (6.0.10)) date 2023-02-02 18:01:59*
%MOMM*%
%LPD*%
G01*
G04 APERTURE LIST*
G04 Aperture macros list*
%AMRoundRect*
0 Rectangle with rounded corners*
0 $1 Rounding radius*
0 $2 $3 $4 $5 $6 $7 $8 $9 X,Y pos of 4 corners*
0 Add a 4 corners polygon primitive as box body*
4,1,4,$2,$3,$4,$5,$6,$7,$8,$9,$2,$3,0*
0 Add four circle primitives for the rounded corners*
1,1,$1+$1,$2,$3*
1,1,$1+$1,$4,$5*
1,1,$1+$1,$6,$7*
1,1,$1+$1,$8,$9*
0 Add four rect primitives between the rounded corners*
20,1,$1+$1,$2,$3,$4,$5,0*
20,1,$1+$1,$4,$5,$6,$7,0*
20,1,$1+$1,$6,$7,$8,$9,0*
20,1,$1+$1,$8,$9,$2,$3,0*%
G04 Aperture macros list end*
%ADD10C,3.802000*%
%ADD11C,1.803800*%
%ADD12C,3.531000*%
%ADD13C,1.092600*%
%ADD14C,2.134000*%
%ADD15O,0.902000X0.902000*%
%ADD16O,2.102000X1.552000*%
%ADD17O,1.902000X1.252000*%
%ADD18RoundRect,0.051000X0.850000X0.850000X-0.850000X0.850000X-0.850000X-0.850000X0.850000X-0.850000X0*%
%ADD19O,1.802000X1.802000*%
G04 APERTURE END LIST*
D10*
X185420000Y-64262000D03*
D11*
X135645000Y-135600000D03*
D12*
X130145000Y-135600000D03*
D13*
X135365000Y-131400000D03*
D11*
X124645000Y-135600000D03*
D14*
X130145000Y-141500000D03*
X125145000Y-139400000D03*
D13*
X78215000Y-74250000D03*
D11*
X78495000Y-78450000D03*
D12*
X72995000Y-78450000D03*
D11*
X67495000Y-78450000D03*
D14*
X72995000Y-84350000D03*
X67995000Y-82250000D03*
D11*
X192795000Y-78450000D03*
D13*
X192515000Y-74250000D03*
D12*
X187295000Y-78450000D03*
D11*
X181795000Y-78450000D03*
D14*
X187295000Y-84350000D03*
X182295000Y-82250000D03*
D11*
X162745000Y-78450000D03*
D12*
X168245000Y-78450000D03*
D11*
X173745000Y-78450000D03*
D13*
X173465000Y-74250000D03*
D14*
X168245000Y-84350000D03*
X163245000Y-82250000D03*
D11*
X116595000Y-154650000D03*
D13*
X116315000Y-150450000D03*
D11*
X105595000Y-154650000D03*
D12*
X111095000Y-154650000D03*
D14*
X111095000Y-160550000D03*
X106095000Y-158450000D03*
D11*
X59445000Y-135600000D03*
D13*
X59165000Y-131400000D03*
D12*
X53945000Y-135600000D03*
D11*
X48445000Y-135600000D03*
D14*
X53945000Y-141500000D03*
X48945000Y-139400000D03*
D11*
X181795000Y-135600000D03*
D13*
X192515000Y-131400000D03*
D11*
X192795000Y-135600000D03*
D12*
X187295000Y-135600000D03*
D14*
X187295000Y-141500000D03*
X182295000Y-139400000D03*
D13*
X154415000Y-131400000D03*
D11*
X154695000Y-135600000D03*
X143695000Y-135600000D03*
D12*
X149195000Y-135600000D03*
D14*
X149195000Y-141500000D03*
X144195000Y-139400000D03*
D10*
X185420000Y-173990000D03*
D12*
X53945000Y-78450000D03*
D13*
X59165000Y-74250000D03*
D11*
X59445000Y-78450000D03*
X48445000Y-78450000D03*
D14*
X53945000Y-84350000D03*
X48945000Y-82250000D03*
D10*
X43180000Y-173990000D03*
D13*
X87740000Y-93300000D03*
D11*
X77020000Y-97500000D03*
X88020000Y-97500000D03*
D12*
X82520000Y-97500000D03*
D14*
X82520000Y-103400000D03*
X77520000Y-101300000D03*
D13*
X116315000Y-93300000D03*
D12*
X111095000Y-97500000D03*
D11*
X116595000Y-97500000D03*
X105595000Y-97500000D03*
D14*
X111095000Y-103400000D03*
X106095000Y-101300000D03*
D10*
X43180000Y-64262000D03*
D13*
X154415000Y-93300000D03*
D11*
X143695000Y-97500000D03*
D12*
X149195000Y-97500000D03*
D11*
X154695000Y-97500000D03*
D14*
X149195000Y-103400000D03*
X144195000Y-101300000D03*
D11*
X59445000Y-116550000D03*
D12*
X53945000Y-116550000D03*
D11*
X48445000Y-116550000D03*
D13*
X59165000Y-112350000D03*
D14*
X53945000Y-122450000D03*
X48945000Y-120350000D03*
D13*
X192515000Y-112350000D03*
D11*
X192795000Y-116550000D03*
D12*
X187295000Y-116550000D03*
D11*
X181795000Y-116550000D03*
D14*
X187295000Y-122450000D03*
X182295000Y-120350000D03*
D12*
X72995000Y-154650000D03*
D13*
X78215000Y-150450000D03*
D11*
X78495000Y-154650000D03*
X67495000Y-154650000D03*
D14*
X72995000Y-160550000D03*
X67995000Y-158450000D03*
D11*
X143695000Y-116550000D03*
D12*
X149195000Y-116550000D03*
D11*
X154695000Y-116550000D03*
D13*
X154415000Y-112350000D03*
D14*
X149195000Y-122450000D03*
X144195000Y-120350000D03*
D11*
X116595000Y-135600000D03*
D12*
X111095000Y-135600000D03*
D13*
X116315000Y-131400000D03*
D11*
X105595000Y-135600000D03*
D14*
X111095000Y-141500000D03*
X106095000Y-139400000D03*
D11*
X97545000Y-154650000D03*
D13*
X97265000Y-150450000D03*
D12*
X92045000Y-154650000D03*
D11*
X86545000Y-154650000D03*
D14*
X92045000Y-160550000D03*
X87045000Y-158450000D03*
D13*
X97265000Y-74250000D03*
D12*
X92045000Y-78450000D03*
D11*
X86545000Y-78450000D03*
X97545000Y-78450000D03*
D14*
X92045000Y-84350000D03*
X87045000Y-82250000D03*
D11*
X59445000Y-97500000D03*
D13*
X59165000Y-93300000D03*
D12*
X53945000Y-97500000D03*
D11*
X48445000Y-97500000D03*
D14*
X53945000Y-103400000D03*
X48945000Y-101300000D03*
D12*
X82520000Y-135600000D03*
D13*
X87740000Y-131400000D03*
D11*
X77020000Y-135600000D03*
X88020000Y-135600000D03*
D14*
X82520000Y-141500000D03*
X77520000Y-139400000D03*
D12*
X82520000Y-116550000D03*
D13*
X87740000Y-112350000D03*
D11*
X88020000Y-116550000D03*
X77020000Y-116550000D03*
D14*
X82520000Y-122450000D03*
X77520000Y-120350000D03*
D12*
X168245000Y-154650000D03*
D11*
X162745000Y-154650000D03*
X173745000Y-154650000D03*
D13*
X173465000Y-150450000D03*
D14*
X168245000Y-160550000D03*
X163245000Y-158450000D03*
D11*
X135645000Y-97500000D03*
D13*
X135365000Y-93300000D03*
D12*
X130145000Y-97500000D03*
D11*
X124645000Y-97500000D03*
D14*
X130145000Y-103400000D03*
X125145000Y-101300000D03*
D13*
X135365000Y-150450000D03*
D11*
X135645000Y-154650000D03*
X124645000Y-154650000D03*
D12*
X130145000Y-154650000D03*
D14*
X130145000Y-160550000D03*
X125145000Y-158450000D03*
D13*
X116315000Y-74250000D03*
D12*
X111095000Y-78450000D03*
D11*
X105595000Y-78450000D03*
X116595000Y-78450000D03*
D14*
X111095000Y-84350000D03*
X106095000Y-82250000D03*
D11*
X116595000Y-116550000D03*
X105595000Y-116550000D03*
D12*
X111095000Y-116550000D03*
D13*
X116315000Y-112350000D03*
D14*
X111095000Y-122450000D03*
X106095000Y-120350000D03*
D11*
X59445000Y-154650000D03*
D13*
X59165000Y-150450000D03*
D11*
X48445000Y-154650000D03*
D12*
X53945000Y-154650000D03*
D14*
X53945000Y-160550000D03*
X48945000Y-158450000D03*
D11*
X181795000Y-97500000D03*
D12*
X187295000Y-97500000D03*
D11*
X192795000Y-97500000D03*
D13*
X192515000Y-93300000D03*
D14*
X187295000Y-103400000D03*
X182295000Y-101300000D03*
D11*
X173745000Y-97500000D03*
D12*
X168245000Y-97500000D03*
D11*
X162745000Y-97500000D03*
D13*
X173465000Y-93300000D03*
D14*
X168245000Y-103400000D03*
X163245000Y-101300000D03*
D13*
X135365000Y-112350000D03*
D12*
X130145000Y-116550000D03*
D11*
X135645000Y-116550000D03*
X124645000Y-116550000D03*
D14*
X130145000Y-122450000D03*
X125145000Y-120350000D03*
D11*
X124645000Y-78450000D03*
X135645000Y-78450000D03*
D12*
X130145000Y-78450000D03*
D13*
X135365000Y-74250000D03*
D14*
X130145000Y-84350000D03*
X125145000Y-82250000D03*
D11*
X154695000Y-78450000D03*
X143695000Y-78450000D03*
D12*
X149195000Y-78450000D03*
D13*
X154415000Y-74250000D03*
D14*
X149195000Y-84350000D03*
X144195000Y-82250000D03*
D11*
X162745000Y-116550000D03*
X173745000Y-116550000D03*
D12*
X168245000Y-116550000D03*
D13*
X173465000Y-112350000D03*
D14*
X168245000Y-122450000D03*
X163245000Y-120350000D03*
D11*
X162745000Y-135600000D03*
D13*
X173465000Y-131400000D03*
D12*
X168245000Y-135600000D03*
D11*
X173745000Y-135600000D03*
D14*
X168245000Y-141500000D03*
X163245000Y-139400000D03*
D15*
X193226000Y-152023000D03*
X193226000Y-157023000D03*
D16*
X192176000Y-158248000D03*
D17*
X195976000Y-158398000D03*
D16*
X192176000Y-150798000D03*
D17*
X195976000Y-150648000D03*
D18*
X173010000Y-62170000D03*
D19*
X170470000Y-62170000D03*
X173010000Y-64710000D03*
X170470000Y-64710000D03*
X173010000Y-67250000D03*
X170470000Y-67250000D03*
G36*
X192884786Y-157307792D02*
G01*
X192926741Y-157357704D01*
X193032709Y-157428243D01*
X193067360Y-157439068D01*
X193068715Y-157440539D01*
X193068119Y-157442448D01*
X193066550Y-157442966D01*
X193000719Y-157435889D01*
X192938790Y-157466890D01*
X192903450Y-157526453D01*
X192905923Y-157595698D01*
X192935210Y-157640445D01*
X192935322Y-157642442D01*
X192933649Y-157643537D01*
X192932454Y-157643221D01*
X192795142Y-157554730D01*
X192704083Y-157521587D01*
X192702797Y-157520055D01*
X192703481Y-157518176D01*
X192705385Y-157517806D01*
X192775321Y-157540529D01*
X192844849Y-157542515D01*
X192904159Y-157506750D01*
X192934716Y-157444598D01*
X192926802Y-157375623D01*
X192911110Y-157348667D01*
X192881668Y-157310297D01*
X192881407Y-157308314D01*
X192882994Y-157307096D01*
X192884786Y-157307792D01*
G37*
G36*
X192934688Y-151406277D02*
G01*
X192934392Y-151407396D01*
X192903972Y-151456774D01*
X192905291Y-151526019D01*
X192943837Y-151583559D01*
X193007400Y-151611137D01*
X193060286Y-151603982D01*
X193062136Y-151604741D01*
X193062404Y-151606723D01*
X193061104Y-151607887D01*
X193042666Y-151613157D01*
X192935009Y-151681083D01*
X192886265Y-151736275D01*
X192884369Y-151736911D01*
X192882870Y-151735587D01*
X192883179Y-151733733D01*
X192911010Y-151697464D01*
X192936091Y-151632589D01*
X192922175Y-151564742D01*
X192873788Y-151515190D01*
X192806129Y-151499626D01*
X192775473Y-151505421D01*
X192702070Y-151529271D01*
X192700114Y-151528855D01*
X192699496Y-151526953D01*
X192700794Y-151525480D01*
X192785431Y-151496006D01*
X192931629Y-151404651D01*
X192933628Y-151404581D01*
X192934688Y-151406277D01*
G37*
M02*
