%TF.GenerationSoftware,KiCad,Pcbnew,(6.0.10)*%
%TF.CreationDate,2023-02-02T18:01:59-08:00*%
%TF.ProjectId,netrazr_rev2-Left,6e657472-617a-4725-9f72-6576322d4c65,2*%
%TF.SameCoordinates,Original*%
%TF.FileFunction,Legend,Top*%
%TF.FilePolarity,Positive*%
%FSLAX46Y46*%
G04 Gerber Fmt 4.6, Leading zero omitted, Abs format (unit mm)*
G04 Created by KiCad (PCBNEW (6.0.10)) date 2023-02-02 18:01:59*
%MOMM*%
%LPD*%
G01*
G04 APERTURE LIST*
G04 Aperture macros list*
%AMRoundRect*
0 Rectangle with rounded corners*
0 $1 Rounding radius*
0 $2 $3 $4 $5 $6 $7 $8 $9 X,Y pos of 4 corners*
0 Add a 4 corners polygon primitive as box body*
4,1,4,$2,$3,$4,$5,$6,$7,$8,$9,$2,$3,0*
0 Add four circle primitives for the rounded corners*
1,1,$1+$1,$2,$3*
1,1,$1+$1,$4,$5*
1,1,$1+$1,$6,$7*
1,1,$1+$1,$8,$9*
0 Add four rect primitives between the rounded corners*
20,1,$1+$1,$2,$3,$4,$5,0*
20,1,$1+$1,$4,$5,$6,$7,0*
20,1,$1+$1,$6,$7,$8,$9,0*
20,1,$1+$1,$8,$9,$2,$3,0*%
G04 Aperture macros list end*
%ADD10C,0.150000*%
%ADD11C,0.200000*%
%ADD12C,3.802000*%
%ADD13C,1.803800*%
%ADD14C,3.531000*%
%ADD15C,1.092600*%
%ADD16C,2.134000*%
%ADD17O,0.902000X0.902000*%
%ADD18O,2.102000X1.552000*%
%ADD19O,1.902000X1.252000*%
%ADD20RoundRect,0.051000X0.850000X0.850000X-0.850000X0.850000X-0.850000X-0.850000X0.850000X-0.850000X0*%
%ADD21O,1.802000X1.802000*%
G04 APERTURE END LIST*
D10*
X69621952Y-168803761D02*
X69145761Y-168803761D01*
X69145761Y-166803761D01*
X69955285Y-167756142D02*
X70288619Y-167756142D01*
X70431476Y-168803761D02*
X69955285Y-168803761D01*
X69955285Y-166803761D01*
X70431476Y-166803761D01*
X71193380Y-167756142D02*
X70860047Y-167756142D01*
X70860047Y-168803761D02*
X70860047Y-166803761D01*
X71336238Y-166803761D01*
X71574333Y-166803761D02*
X72145761Y-166803761D01*
X71860047Y-168803761D02*
X71860047Y-166803761D01*
X73241000Y-168803761D02*
X73241000Y-166803761D01*
X73241000Y-167756142D02*
X73812428Y-167756142D01*
X73812428Y-168803761D02*
X73812428Y-166803761D01*
X74241000Y-168232333D02*
X74717190Y-168232333D01*
X74145761Y-168803761D02*
X74479095Y-166803761D01*
X74812428Y-168803761D01*
X75621952Y-168803761D02*
X75145761Y-168803761D01*
X75145761Y-166803761D01*
X76288619Y-167756142D02*
X75955285Y-167756142D01*
X75955285Y-168803761D02*
X75955285Y-166803761D01*
X76431476Y-166803761D01*
X65645761Y-170023761D02*
X66217190Y-170023761D01*
X65931476Y-172023761D02*
X65931476Y-170023761D01*
X66550523Y-172023761D02*
X66550523Y-170023761D01*
X66550523Y-170976142D02*
X67121952Y-170976142D01*
X67121952Y-172023761D02*
X67121952Y-170023761D01*
X67598142Y-172023761D02*
X67598142Y-170023761D01*
X68026714Y-171928523D02*
X68169571Y-172023761D01*
X68407666Y-172023761D01*
X68502904Y-171928523D01*
X68550523Y-171833285D01*
X68598142Y-171642809D01*
X68598142Y-171452333D01*
X68550523Y-171261857D01*
X68502904Y-171166619D01*
X68407666Y-171071380D01*
X68217190Y-170976142D01*
X68121952Y-170880904D01*
X68074333Y-170785666D01*
X68026714Y-170595190D01*
X68026714Y-170404714D01*
X68074333Y-170214238D01*
X68121952Y-170119000D01*
X68217190Y-170023761D01*
X68455285Y-170023761D01*
X68598142Y-170119000D01*
X69788619Y-172023761D02*
X69788619Y-170023761D01*
X70217190Y-171928523D02*
X70360047Y-172023761D01*
X70598142Y-172023761D01*
X70693380Y-171928523D01*
X70741000Y-171833285D01*
X70788619Y-171642809D01*
X70788619Y-171452333D01*
X70741000Y-171261857D01*
X70693380Y-171166619D01*
X70598142Y-171071380D01*
X70407666Y-170976142D01*
X70312428Y-170880904D01*
X70264809Y-170785666D01*
X70217190Y-170595190D01*
X70217190Y-170404714D01*
X70264809Y-170214238D01*
X70312428Y-170119000D01*
X70407666Y-170023761D01*
X70645761Y-170023761D01*
X70788619Y-170119000D01*
X71836238Y-170023761D02*
X72407666Y-170023761D01*
X72121952Y-172023761D02*
X72121952Y-170023761D01*
X72741000Y-172023761D02*
X72741000Y-170023761D01*
X72741000Y-170976142D02*
X73312428Y-170976142D01*
X73312428Y-172023761D02*
X73312428Y-170023761D01*
X73788619Y-170976142D02*
X74121952Y-170976142D01*
X74264809Y-172023761D02*
X73788619Y-172023761D01*
X73788619Y-170023761D01*
X74264809Y-170023761D01*
X75788619Y-170976142D02*
X75455285Y-170976142D01*
X75455285Y-172023761D02*
X75455285Y-170023761D01*
X75931476Y-170023761D01*
X76883857Y-172023761D02*
X76550523Y-171071380D01*
X76312428Y-172023761D02*
X76312428Y-170023761D01*
X76693380Y-170023761D01*
X76788619Y-170119000D01*
X76836238Y-170214238D01*
X76883857Y-170404714D01*
X76883857Y-170690428D01*
X76836238Y-170880904D01*
X76788619Y-170976142D01*
X76693380Y-171071380D01*
X76312428Y-171071380D01*
X77502904Y-170023761D02*
X77693380Y-170023761D01*
X77788619Y-170119000D01*
X77883857Y-170309476D01*
X77931476Y-170690428D01*
X77931476Y-171357095D01*
X77883857Y-171738047D01*
X77788619Y-171928523D01*
X77693380Y-172023761D01*
X77502904Y-172023761D01*
X77407666Y-171928523D01*
X77312428Y-171738047D01*
X77264809Y-171357095D01*
X77264809Y-170690428D01*
X77312428Y-170309476D01*
X77407666Y-170119000D01*
X77502904Y-170023761D01*
X78360047Y-172023761D02*
X78360047Y-170023761D01*
X78931476Y-172023761D01*
X78931476Y-170023761D01*
X79264809Y-170023761D02*
X79836238Y-170023761D01*
X79550523Y-172023761D02*
X79550523Y-170023761D01*
D11*
X62820761Y-176664571D02*
X62820761Y-175164571D01*
X63582666Y-175164571D01*
X63773142Y-175236000D01*
X63868380Y-175307428D01*
X63963619Y-175450285D01*
X63963619Y-175664571D01*
X63868380Y-175807428D01*
X63773142Y-175878857D01*
X63582666Y-175950285D01*
X62820761Y-175950285D01*
X65201714Y-175164571D02*
X65582666Y-175164571D01*
X65773142Y-175236000D01*
X65963619Y-175378857D01*
X66058857Y-175664571D01*
X66058857Y-176164571D01*
X65963619Y-176450285D01*
X65773142Y-176593142D01*
X65582666Y-176664571D01*
X65201714Y-176664571D01*
X65011238Y-176593142D01*
X64820761Y-176450285D01*
X64725523Y-176164571D01*
X64725523Y-175664571D01*
X64820761Y-175378857D01*
X65011238Y-175236000D01*
X65201714Y-175164571D01*
X66725523Y-175164571D02*
X67201714Y-176664571D01*
X67582666Y-175593142D01*
X67963619Y-176664571D01*
X68439809Y-175164571D01*
X69201714Y-175878857D02*
X69868380Y-175878857D01*
X70154095Y-176664571D02*
X69201714Y-176664571D01*
X69201714Y-175164571D01*
X70154095Y-175164571D01*
X72154095Y-176664571D02*
X71487428Y-175950285D01*
X71011238Y-176664571D02*
X71011238Y-175164571D01*
X71773142Y-175164571D01*
X71963619Y-175236000D01*
X72058857Y-175307428D01*
X72154095Y-175450285D01*
X72154095Y-175664571D01*
X72058857Y-175807428D01*
X71963619Y-175878857D01*
X71773142Y-175950285D01*
X71011238Y-175950285D01*
X73011238Y-175878857D02*
X73677904Y-175878857D01*
X73963619Y-176664571D02*
X73011238Y-176664571D01*
X73011238Y-175164571D01*
X73963619Y-175164571D01*
X74820761Y-176664571D02*
X74820761Y-175164571D01*
X75296952Y-175164571D01*
X75582666Y-175236000D01*
X75773142Y-175378857D01*
X75868380Y-175521714D01*
X75963619Y-175807428D01*
X75963619Y-176021714D01*
X75868380Y-176307428D01*
X75773142Y-176450285D01*
X75582666Y-176593142D01*
X75296952Y-176664571D01*
X74820761Y-176664571D01*
X79011238Y-175878857D02*
X79296952Y-175950285D01*
X79392190Y-176021714D01*
X79487428Y-176164571D01*
X79487428Y-176378857D01*
X79392190Y-176521714D01*
X79296952Y-176593142D01*
X79106476Y-176664571D01*
X78344571Y-176664571D01*
X78344571Y-175164571D01*
X79011238Y-175164571D01*
X79201714Y-175236000D01*
X79296952Y-175307428D01*
X79392190Y-175450285D01*
X79392190Y-175593142D01*
X79296952Y-175736000D01*
X79201714Y-175807428D01*
X79011238Y-175878857D01*
X78344571Y-175878857D01*
X80725523Y-175950285D02*
X80725523Y-176664571D01*
X80058857Y-175164571D02*
X80725523Y-175950285D01*
X81392190Y-175164571D01*
X84916000Y-176807428D02*
X84725523Y-176736000D01*
X84535047Y-176593142D01*
X84249333Y-176378857D01*
X84058857Y-176307428D01*
X83868380Y-176307428D01*
X83963619Y-176664571D02*
X83773142Y-176593142D01*
X83582666Y-176450285D01*
X83487428Y-176164571D01*
X83487428Y-175664571D01*
X83582666Y-175378857D01*
X83773142Y-175236000D01*
X83963619Y-175164571D01*
X84344571Y-175164571D01*
X84535047Y-175236000D01*
X84725523Y-175378857D01*
X84820761Y-175664571D01*
X84820761Y-176164571D01*
X84725523Y-176450285D01*
X84535047Y-176593142D01*
X84344571Y-176664571D01*
X83963619Y-176664571D01*
X85677904Y-176664571D02*
X85677904Y-175164571D01*
X86344571Y-176236000D01*
X87011238Y-175164571D01*
X87011238Y-176664571D01*
X87963619Y-176664571D02*
X87963619Y-175164571D01*
X89106476Y-176664571D02*
X88249333Y-175807428D01*
X89106476Y-175164571D02*
X87963619Y-176021714D01*
D10*
X97831380Y-115500619D02*
X96831380Y-115500619D01*
X97307571Y-115500619D02*
X97307571Y-114357761D01*
X97831380Y-114357761D02*
X96831380Y-114357761D01*
X97545666Y-113500619D02*
X97545666Y-112548238D01*
X97831380Y-113691095D02*
X96831380Y-113024428D01*
X97831380Y-112357761D01*
X97736142Y-110548238D02*
X97783761Y-110643476D01*
X97831380Y-110929190D01*
X97831380Y-111119666D01*
X97783761Y-111405380D01*
X97688523Y-111595857D01*
X97593285Y-111691095D01*
X97402809Y-111786333D01*
X97259952Y-111786333D01*
X97069476Y-111691095D01*
X96974238Y-111595857D01*
X96879000Y-111405380D01*
X96831380Y-111119666D01*
X96831380Y-110929190D01*
X96879000Y-110643476D01*
X96926619Y-110548238D01*
X97831380Y-109691095D02*
X96831380Y-109691095D01*
X97831380Y-108548238D02*
X97259952Y-109405380D01*
X96831380Y-108548238D02*
X97402809Y-109691095D01*
X96831380Y-106453000D02*
X96831380Y-105310142D01*
X97831380Y-105881571D02*
X96831380Y-105881571D01*
X97831380Y-104643476D02*
X96831380Y-104643476D01*
X97307571Y-104643476D02*
X97307571Y-103500619D01*
X97831380Y-103500619D02*
X96831380Y-103500619D01*
X97307571Y-102548238D02*
X97307571Y-101881571D01*
X97831380Y-101595857D02*
X97831380Y-102548238D01*
X96831380Y-102548238D01*
X96831380Y-101595857D01*
X97831380Y-99214904D02*
X96831380Y-99214904D01*
X96831380Y-98453000D01*
X96879000Y-98262523D01*
X96926619Y-98167285D01*
X97021857Y-98072047D01*
X97164714Y-98072047D01*
X97259952Y-98167285D01*
X97307571Y-98262523D01*
X97355190Y-98453000D01*
X97355190Y-99214904D01*
X97831380Y-96262523D02*
X97831380Y-97214904D01*
X96831380Y-97214904D01*
X97545666Y-95691095D02*
X97545666Y-94738714D01*
X97831380Y-95881571D02*
X96831380Y-95214904D01*
X97831380Y-94548238D01*
X97831380Y-93881571D02*
X96831380Y-93881571D01*
X97831380Y-92738714D01*
X96831380Y-92738714D01*
X97307571Y-91786333D02*
X97307571Y-91119666D01*
X97831380Y-90833952D02*
X97831380Y-91786333D01*
X96831380Y-91786333D01*
X96831380Y-90833952D01*
X96831380Y-90262523D02*
X96831380Y-89119666D01*
X97831380Y-89691095D02*
X96831380Y-89691095D01*
X102977142Y-177017761D02*
X102977142Y-175017761D01*
X104691428Y-177017761D01*
X104691428Y-175017761D01*
X106120000Y-175970142D02*
X107120000Y-175970142D01*
X107548571Y-177017761D02*
X106120000Y-177017761D01*
X106120000Y-175017761D01*
X107548571Y-175017761D01*
X108405714Y-175017761D02*
X110120000Y-175017761D01*
X109262857Y-177017761D02*
X109262857Y-175017761D01*
X112834285Y-177017761D02*
X111834285Y-176065380D01*
X111120000Y-177017761D02*
X111120000Y-175017761D01*
X112262857Y-175017761D01*
X112548571Y-175113000D01*
X112691428Y-175208238D01*
X112834285Y-175398714D01*
X112834285Y-175684428D01*
X112691428Y-175874904D01*
X112548571Y-175970142D01*
X112262857Y-176065380D01*
X111120000Y-176065380D01*
X113977142Y-176446333D02*
X115405714Y-176446333D01*
X113691428Y-177017761D02*
X114691428Y-175017761D01*
X115691428Y-177017761D01*
X116405714Y-175017761D02*
X118405714Y-175017761D01*
X116405714Y-177017761D01*
X118405714Y-177017761D01*
X121262857Y-177017761D02*
X120262857Y-176065380D01*
X119548571Y-177017761D02*
X119548571Y-175017761D01*
X120691428Y-175017761D01*
X120977142Y-175113000D01*
X121120000Y-175208238D01*
X121262857Y-175398714D01*
X121262857Y-175684428D01*
X121120000Y-175874904D01*
X120977142Y-175970142D01*
X120691428Y-176065380D01*
X119548571Y-176065380D01*
X126548571Y-177017761D02*
X125548571Y-176065380D01*
X124834285Y-177017761D02*
X124834285Y-175017761D01*
X125977142Y-175017761D01*
X126262857Y-175113000D01*
X126405714Y-175208238D01*
X126548571Y-175398714D01*
X126548571Y-175684428D01*
X126405714Y-175874904D01*
X126262857Y-175970142D01*
X125977142Y-176065380D01*
X124834285Y-176065380D01*
X127834285Y-175970142D02*
X128834285Y-175970142D01*
X129262857Y-177017761D02*
X127834285Y-177017761D01*
X127834285Y-175017761D01*
X129262857Y-175017761D01*
X130120000Y-175017761D02*
X131120000Y-177017761D01*
X132120000Y-175017761D01*
X133120000Y-176827285D02*
X133262857Y-176922523D01*
X133120000Y-177017761D01*
X132977142Y-176922523D01*
X133120000Y-176827285D01*
X133120000Y-177017761D01*
X136691428Y-175208238D02*
X136834285Y-175113000D01*
X137120000Y-175017761D01*
X137834285Y-175017761D01*
X138120000Y-175113000D01*
X138262857Y-175208238D01*
X138405714Y-175398714D01*
X138405714Y-175589190D01*
X138262857Y-175874904D01*
X136548571Y-177017761D01*
X138405714Y-177017761D01*
X189611095Y-63063380D02*
X189611095Y-62063380D01*
X189611095Y-62539571D02*
X190182523Y-62539571D01*
X190182523Y-63063380D02*
X190182523Y-62063380D01*
X190563476Y-62063380D02*
X191230142Y-62063380D01*
X190801571Y-63063380D01*
X128930714Y-127797380D02*
X128930714Y-126797380D01*
X129502142Y-127797380D02*
X129073571Y-127225952D01*
X129502142Y-126797380D02*
X128930714Y-127368809D01*
X130359285Y-127130714D02*
X130359285Y-127797380D01*
X130121190Y-126749761D02*
X129883095Y-127464047D01*
X130502142Y-127464047D01*
X131025952Y-127225952D02*
X130930714Y-127178333D01*
X130883095Y-127130714D01*
X130835476Y-127035476D01*
X130835476Y-126987857D01*
X130883095Y-126892619D01*
X130930714Y-126845000D01*
X131025952Y-126797380D01*
X131216428Y-126797380D01*
X131311666Y-126845000D01*
X131359285Y-126892619D01*
X131406904Y-126987857D01*
X131406904Y-127035476D01*
X131359285Y-127130714D01*
X131311666Y-127178333D01*
X131216428Y-127225952D01*
X131025952Y-127225952D01*
X130930714Y-127273571D01*
X130883095Y-127321190D01*
X130835476Y-127416428D01*
X130835476Y-127606904D01*
X130883095Y-127702142D01*
X130930714Y-127749761D01*
X131025952Y-127797380D01*
X131216428Y-127797380D01*
X131311666Y-127749761D01*
X131359285Y-127702142D01*
X131406904Y-127606904D01*
X131406904Y-127416428D01*
X131359285Y-127321190D01*
X131311666Y-127273571D01*
X131216428Y-127225952D01*
X72256904Y-70647380D02*
X72256904Y-69647380D01*
X72828333Y-70647380D02*
X72399761Y-70075952D01*
X72828333Y-69647380D02*
X72256904Y-70218809D01*
X73780714Y-70647380D02*
X73209285Y-70647380D01*
X73495000Y-70647380D02*
X73495000Y-69647380D01*
X73399761Y-69790238D01*
X73304523Y-69885476D01*
X73209285Y-69933095D01*
X186556904Y-70647380D02*
X186556904Y-69647380D01*
X187128333Y-70647380D02*
X186699761Y-70075952D01*
X187128333Y-69647380D02*
X186556904Y-70218809D01*
X187461666Y-69647380D02*
X188128333Y-69647380D01*
X187699761Y-70647380D01*
X167506904Y-70647380D02*
X167506904Y-69647380D01*
X168078333Y-70647380D02*
X167649761Y-70075952D01*
X168078333Y-69647380D02*
X167506904Y-70218809D01*
X168935476Y-69647380D02*
X168745000Y-69647380D01*
X168649761Y-69695000D01*
X168602142Y-69742619D01*
X168506904Y-69885476D01*
X168459285Y-70075952D01*
X168459285Y-70456904D01*
X168506904Y-70552142D01*
X168554523Y-70599761D01*
X168649761Y-70647380D01*
X168840238Y-70647380D01*
X168935476Y-70599761D01*
X168983095Y-70552142D01*
X169030714Y-70456904D01*
X169030714Y-70218809D01*
X168983095Y-70123571D01*
X168935476Y-70075952D01*
X168840238Y-70028333D01*
X168649761Y-70028333D01*
X168554523Y-70075952D01*
X168506904Y-70123571D01*
X168459285Y-70218809D01*
X109880714Y-146847380D02*
X109880714Y-145847380D01*
X110452142Y-146847380D02*
X110023571Y-146275952D01*
X110452142Y-145847380D02*
X109880714Y-146418809D01*
X111309285Y-145847380D02*
X111118809Y-145847380D01*
X111023571Y-145895000D01*
X110975952Y-145942619D01*
X110880714Y-146085476D01*
X110833095Y-146275952D01*
X110833095Y-146656904D01*
X110880714Y-146752142D01*
X110928333Y-146799761D01*
X111023571Y-146847380D01*
X111214047Y-146847380D01*
X111309285Y-146799761D01*
X111356904Y-146752142D01*
X111404523Y-146656904D01*
X111404523Y-146418809D01*
X111356904Y-146323571D01*
X111309285Y-146275952D01*
X111214047Y-146228333D01*
X111023571Y-146228333D01*
X110928333Y-146275952D01*
X110880714Y-146323571D01*
X110833095Y-146418809D01*
X111737857Y-145847380D02*
X112356904Y-145847380D01*
X112023571Y-146228333D01*
X112166428Y-146228333D01*
X112261666Y-146275952D01*
X112309285Y-146323571D01*
X112356904Y-146418809D01*
X112356904Y-146656904D01*
X112309285Y-146752142D01*
X112261666Y-146799761D01*
X112166428Y-146847380D01*
X111880714Y-146847380D01*
X111785476Y-146799761D01*
X111737857Y-146752142D01*
X52730714Y-127797380D02*
X52730714Y-126797380D01*
X53302142Y-127797380D02*
X52873571Y-127225952D01*
X53302142Y-126797380D02*
X52730714Y-127368809D01*
X54159285Y-127130714D02*
X54159285Y-127797380D01*
X53921190Y-126749761D02*
X53683095Y-127464047D01*
X54302142Y-127464047D01*
X55159285Y-126797380D02*
X54683095Y-126797380D01*
X54635476Y-127273571D01*
X54683095Y-127225952D01*
X54778333Y-127178333D01*
X55016428Y-127178333D01*
X55111666Y-127225952D01*
X55159285Y-127273571D01*
X55206904Y-127368809D01*
X55206904Y-127606904D01*
X55159285Y-127702142D01*
X55111666Y-127749761D01*
X55016428Y-127797380D01*
X54778333Y-127797380D01*
X54683095Y-127749761D01*
X54635476Y-127702142D01*
X186080714Y-127797380D02*
X186080714Y-126797380D01*
X186652142Y-127797380D02*
X186223571Y-127225952D01*
X186652142Y-126797380D02*
X186080714Y-127368809D01*
X187556904Y-126797380D02*
X187080714Y-126797380D01*
X187033095Y-127273571D01*
X187080714Y-127225952D01*
X187175952Y-127178333D01*
X187414047Y-127178333D01*
X187509285Y-127225952D01*
X187556904Y-127273571D01*
X187604523Y-127368809D01*
X187604523Y-127606904D01*
X187556904Y-127702142D01*
X187509285Y-127749761D01*
X187414047Y-127797380D01*
X187175952Y-127797380D01*
X187080714Y-127749761D01*
X187033095Y-127702142D01*
X188556904Y-127797380D02*
X187985476Y-127797380D01*
X188271190Y-127797380D02*
X188271190Y-126797380D01*
X188175952Y-126940238D01*
X188080714Y-127035476D01*
X187985476Y-127083095D01*
X147980714Y-127797380D02*
X147980714Y-126797380D01*
X148552142Y-127797380D02*
X148123571Y-127225952D01*
X148552142Y-126797380D02*
X147980714Y-127368809D01*
X149409285Y-127130714D02*
X149409285Y-127797380D01*
X149171190Y-126749761D02*
X148933095Y-127464047D01*
X149552142Y-127464047D01*
X149980714Y-127797380D02*
X150171190Y-127797380D01*
X150266428Y-127749761D01*
X150314047Y-127702142D01*
X150409285Y-127559285D01*
X150456904Y-127368809D01*
X150456904Y-126987857D01*
X150409285Y-126892619D01*
X150361666Y-126845000D01*
X150266428Y-126797380D01*
X150075952Y-126797380D01*
X149980714Y-126845000D01*
X149933095Y-126892619D01*
X149885476Y-126987857D01*
X149885476Y-127225952D01*
X149933095Y-127321190D01*
X149980714Y-127368809D01*
X150075952Y-127416428D01*
X150266428Y-127416428D01*
X150361666Y-127368809D01*
X150409285Y-127321190D01*
X150456904Y-127225952D01*
X184658095Y-169742380D02*
X184658095Y-168742380D01*
X184658095Y-169218571D02*
X185229523Y-169218571D01*
X185229523Y-169742380D02*
X185229523Y-168742380D01*
X186134285Y-168742380D02*
X185943809Y-168742380D01*
X185848571Y-168790000D01*
X185800952Y-168837619D01*
X185705714Y-168980476D01*
X185658095Y-169170952D01*
X185658095Y-169551904D01*
X185705714Y-169647142D01*
X185753333Y-169694761D01*
X185848571Y-169742380D01*
X186039047Y-169742380D01*
X186134285Y-169694761D01*
X186181904Y-169647142D01*
X186229523Y-169551904D01*
X186229523Y-169313809D01*
X186181904Y-169218571D01*
X186134285Y-169170952D01*
X186039047Y-169123333D01*
X185848571Y-169123333D01*
X185753333Y-169170952D01*
X185705714Y-169218571D01*
X185658095Y-169313809D01*
X53206904Y-70647380D02*
X53206904Y-69647380D01*
X53778333Y-70647380D02*
X53349761Y-70075952D01*
X53778333Y-69647380D02*
X53206904Y-70218809D01*
X54397380Y-69647380D02*
X54492619Y-69647380D01*
X54587857Y-69695000D01*
X54635476Y-69742619D01*
X54683095Y-69837857D01*
X54730714Y-70028333D01*
X54730714Y-70266428D01*
X54683095Y-70456904D01*
X54635476Y-70552142D01*
X54587857Y-70599761D01*
X54492619Y-70647380D01*
X54397380Y-70647380D01*
X54302142Y-70599761D01*
X54254523Y-70552142D01*
X54206904Y-70456904D01*
X54159285Y-70266428D01*
X54159285Y-70028333D01*
X54206904Y-69837857D01*
X54254523Y-69742619D01*
X54302142Y-69695000D01*
X54397380Y-69647380D01*
X42418095Y-169742380D02*
X42418095Y-168742380D01*
X42418095Y-169218571D02*
X42989523Y-169218571D01*
X42989523Y-169742380D02*
X42989523Y-168742380D01*
X43989523Y-169742380D02*
X43418095Y-169742380D01*
X43703809Y-169742380D02*
X43703809Y-168742380D01*
X43608571Y-168885238D01*
X43513333Y-168980476D01*
X43418095Y-169028095D01*
X81305714Y-89697380D02*
X81305714Y-88697380D01*
X81877142Y-89697380D02*
X81448571Y-89125952D01*
X81877142Y-88697380D02*
X81305714Y-89268809D01*
X82829523Y-89697380D02*
X82258095Y-89697380D01*
X82543809Y-89697380D02*
X82543809Y-88697380D01*
X82448571Y-88840238D01*
X82353333Y-88935476D01*
X82258095Y-88983095D01*
X83162857Y-88697380D02*
X83829523Y-88697380D01*
X83400952Y-89697380D01*
X109880714Y-89697380D02*
X109880714Y-88697380D01*
X110452142Y-89697380D02*
X110023571Y-89125952D01*
X110452142Y-88697380D02*
X109880714Y-89268809D01*
X111404523Y-89697380D02*
X110833095Y-89697380D01*
X111118809Y-89697380D02*
X111118809Y-88697380D01*
X111023571Y-88840238D01*
X110928333Y-88935476D01*
X110833095Y-88983095D01*
X111975952Y-89125952D02*
X111880714Y-89078333D01*
X111833095Y-89030714D01*
X111785476Y-88935476D01*
X111785476Y-88887857D01*
X111833095Y-88792619D01*
X111880714Y-88745000D01*
X111975952Y-88697380D01*
X112166428Y-88697380D01*
X112261666Y-88745000D01*
X112309285Y-88792619D01*
X112356904Y-88887857D01*
X112356904Y-88935476D01*
X112309285Y-89030714D01*
X112261666Y-89078333D01*
X112166428Y-89125952D01*
X111975952Y-89125952D01*
X111880714Y-89173571D01*
X111833095Y-89221190D01*
X111785476Y-89316428D01*
X111785476Y-89506904D01*
X111833095Y-89602142D01*
X111880714Y-89649761D01*
X111975952Y-89697380D01*
X112166428Y-89697380D01*
X112261666Y-89649761D01*
X112309285Y-89602142D01*
X112356904Y-89506904D01*
X112356904Y-89316428D01*
X112309285Y-89221190D01*
X112261666Y-89173571D01*
X112166428Y-89125952D01*
X48387095Y-64714380D02*
X48387095Y-63714380D01*
X48387095Y-64190571D02*
X48958523Y-64190571D01*
X48958523Y-64714380D02*
X48958523Y-63714380D01*
X49387095Y-63809619D02*
X49434714Y-63762000D01*
X49529952Y-63714380D01*
X49768047Y-63714380D01*
X49863285Y-63762000D01*
X49910904Y-63809619D01*
X49958523Y-63904857D01*
X49958523Y-64000095D01*
X49910904Y-64142952D01*
X49339476Y-64714380D01*
X49958523Y-64714380D01*
X147980714Y-89697380D02*
X147980714Y-88697380D01*
X148552142Y-89697380D02*
X148123571Y-89125952D01*
X148552142Y-88697380D02*
X147980714Y-89268809D01*
X148933095Y-88792619D02*
X148980714Y-88745000D01*
X149075952Y-88697380D01*
X149314047Y-88697380D01*
X149409285Y-88745000D01*
X149456904Y-88792619D01*
X149504523Y-88887857D01*
X149504523Y-88983095D01*
X149456904Y-89125952D01*
X148885476Y-89697380D01*
X149504523Y-89697380D01*
X150123571Y-88697380D02*
X150218809Y-88697380D01*
X150314047Y-88745000D01*
X150361666Y-88792619D01*
X150409285Y-88887857D01*
X150456904Y-89078333D01*
X150456904Y-89316428D01*
X150409285Y-89506904D01*
X150361666Y-89602142D01*
X150314047Y-89649761D01*
X150218809Y-89697380D01*
X150123571Y-89697380D01*
X150028333Y-89649761D01*
X149980714Y-89602142D01*
X149933095Y-89506904D01*
X149885476Y-89316428D01*
X149885476Y-89078333D01*
X149933095Y-88887857D01*
X149980714Y-88792619D01*
X150028333Y-88745000D01*
X150123571Y-88697380D01*
X52730714Y-108747380D02*
X52730714Y-107747380D01*
X53302142Y-108747380D02*
X52873571Y-108175952D01*
X53302142Y-107747380D02*
X52730714Y-108318809D01*
X53635476Y-107747380D02*
X54254523Y-107747380D01*
X53921190Y-108128333D01*
X54064047Y-108128333D01*
X54159285Y-108175952D01*
X54206904Y-108223571D01*
X54254523Y-108318809D01*
X54254523Y-108556904D01*
X54206904Y-108652142D01*
X54159285Y-108699761D01*
X54064047Y-108747380D01*
X53778333Y-108747380D01*
X53683095Y-108699761D01*
X53635476Y-108652142D01*
X55206904Y-108747380D02*
X54635476Y-108747380D01*
X54921190Y-108747380D02*
X54921190Y-107747380D01*
X54825952Y-107890238D01*
X54730714Y-107985476D01*
X54635476Y-108033095D01*
X186080714Y-108747380D02*
X186080714Y-107747380D01*
X186652142Y-108747380D02*
X186223571Y-108175952D01*
X186652142Y-107747380D02*
X186080714Y-108318809D01*
X186985476Y-107747380D02*
X187604523Y-107747380D01*
X187271190Y-108128333D01*
X187414047Y-108128333D01*
X187509285Y-108175952D01*
X187556904Y-108223571D01*
X187604523Y-108318809D01*
X187604523Y-108556904D01*
X187556904Y-108652142D01*
X187509285Y-108699761D01*
X187414047Y-108747380D01*
X187128333Y-108747380D01*
X187033095Y-108699761D01*
X186985476Y-108652142D01*
X187937857Y-107747380D02*
X188604523Y-107747380D01*
X188175952Y-108747380D01*
X71780714Y-146847380D02*
X71780714Y-145847380D01*
X72352142Y-146847380D02*
X71923571Y-146275952D01*
X72352142Y-145847380D02*
X71780714Y-146418809D01*
X73209285Y-145847380D02*
X73018809Y-145847380D01*
X72923571Y-145895000D01*
X72875952Y-145942619D01*
X72780714Y-146085476D01*
X72733095Y-146275952D01*
X72733095Y-146656904D01*
X72780714Y-146752142D01*
X72828333Y-146799761D01*
X72923571Y-146847380D01*
X73114047Y-146847380D01*
X73209285Y-146799761D01*
X73256904Y-146752142D01*
X73304523Y-146656904D01*
X73304523Y-146418809D01*
X73256904Y-146323571D01*
X73209285Y-146275952D01*
X73114047Y-146228333D01*
X72923571Y-146228333D01*
X72828333Y-146275952D01*
X72780714Y-146323571D01*
X72733095Y-146418809D01*
X74256904Y-146847380D02*
X73685476Y-146847380D01*
X73971190Y-146847380D02*
X73971190Y-145847380D01*
X73875952Y-145990238D01*
X73780714Y-146085476D01*
X73685476Y-146133095D01*
X147980714Y-108747380D02*
X147980714Y-107747380D01*
X148552142Y-108747380D02*
X148123571Y-108175952D01*
X148552142Y-107747380D02*
X147980714Y-108318809D01*
X148885476Y-107747380D02*
X149504523Y-107747380D01*
X149171190Y-108128333D01*
X149314047Y-108128333D01*
X149409285Y-108175952D01*
X149456904Y-108223571D01*
X149504523Y-108318809D01*
X149504523Y-108556904D01*
X149456904Y-108652142D01*
X149409285Y-108699761D01*
X149314047Y-108747380D01*
X149028333Y-108747380D01*
X148933095Y-108699761D01*
X148885476Y-108652142D01*
X150409285Y-107747380D02*
X149933095Y-107747380D01*
X149885476Y-108223571D01*
X149933095Y-108175952D01*
X150028333Y-108128333D01*
X150266428Y-108128333D01*
X150361666Y-108175952D01*
X150409285Y-108223571D01*
X150456904Y-108318809D01*
X150456904Y-108556904D01*
X150409285Y-108652142D01*
X150361666Y-108699761D01*
X150266428Y-108747380D01*
X150028333Y-108747380D01*
X149933095Y-108699761D01*
X149885476Y-108652142D01*
X109880714Y-127797380D02*
X109880714Y-126797380D01*
X110452142Y-127797380D02*
X110023571Y-127225952D01*
X110452142Y-126797380D02*
X109880714Y-127368809D01*
X111309285Y-127130714D02*
X111309285Y-127797380D01*
X111071190Y-126749761D02*
X110833095Y-127464047D01*
X111452142Y-127464047D01*
X111737857Y-126797380D02*
X112404523Y-126797380D01*
X111975952Y-127797380D01*
X90830714Y-146847380D02*
X90830714Y-145847380D01*
X91402142Y-146847380D02*
X90973571Y-146275952D01*
X91402142Y-145847380D02*
X90830714Y-146418809D01*
X92259285Y-145847380D02*
X92068809Y-145847380D01*
X91973571Y-145895000D01*
X91925952Y-145942619D01*
X91830714Y-146085476D01*
X91783095Y-146275952D01*
X91783095Y-146656904D01*
X91830714Y-146752142D01*
X91878333Y-146799761D01*
X91973571Y-146847380D01*
X92164047Y-146847380D01*
X92259285Y-146799761D01*
X92306904Y-146752142D01*
X92354523Y-146656904D01*
X92354523Y-146418809D01*
X92306904Y-146323571D01*
X92259285Y-146275952D01*
X92164047Y-146228333D01*
X91973571Y-146228333D01*
X91878333Y-146275952D01*
X91830714Y-146323571D01*
X91783095Y-146418809D01*
X92735476Y-145942619D02*
X92783095Y-145895000D01*
X92878333Y-145847380D01*
X93116428Y-145847380D01*
X93211666Y-145895000D01*
X93259285Y-145942619D01*
X93306904Y-146037857D01*
X93306904Y-146133095D01*
X93259285Y-146275952D01*
X92687857Y-146847380D01*
X93306904Y-146847380D01*
X91306904Y-70647380D02*
X91306904Y-69647380D01*
X91878333Y-70647380D02*
X91449761Y-70075952D01*
X91878333Y-69647380D02*
X91306904Y-70218809D01*
X92259285Y-69742619D02*
X92306904Y-69695000D01*
X92402142Y-69647380D01*
X92640238Y-69647380D01*
X92735476Y-69695000D01*
X92783095Y-69742619D01*
X92830714Y-69837857D01*
X92830714Y-69933095D01*
X92783095Y-70075952D01*
X92211666Y-70647380D01*
X92830714Y-70647380D01*
X52730714Y-89697380D02*
X52730714Y-88697380D01*
X53302142Y-89697380D02*
X52873571Y-89125952D01*
X53302142Y-88697380D02*
X52730714Y-89268809D01*
X54254523Y-89697380D02*
X53683095Y-89697380D01*
X53968809Y-89697380D02*
X53968809Y-88697380D01*
X53873571Y-88840238D01*
X53778333Y-88935476D01*
X53683095Y-88983095D01*
X55111666Y-88697380D02*
X54921190Y-88697380D01*
X54825952Y-88745000D01*
X54778333Y-88792619D01*
X54683095Y-88935476D01*
X54635476Y-89125952D01*
X54635476Y-89506904D01*
X54683095Y-89602142D01*
X54730714Y-89649761D01*
X54825952Y-89697380D01*
X55016428Y-89697380D01*
X55111666Y-89649761D01*
X55159285Y-89602142D01*
X55206904Y-89506904D01*
X55206904Y-89268809D01*
X55159285Y-89173571D01*
X55111666Y-89125952D01*
X55016428Y-89078333D01*
X54825952Y-89078333D01*
X54730714Y-89125952D01*
X54683095Y-89173571D01*
X54635476Y-89268809D01*
X81305714Y-127797380D02*
X81305714Y-126797380D01*
X81877142Y-127797380D02*
X81448571Y-127225952D01*
X81877142Y-126797380D02*
X81305714Y-127368809D01*
X82734285Y-127130714D02*
X82734285Y-127797380D01*
X82496190Y-126749761D02*
X82258095Y-127464047D01*
X82877142Y-127464047D01*
X83686666Y-126797380D02*
X83496190Y-126797380D01*
X83400952Y-126845000D01*
X83353333Y-126892619D01*
X83258095Y-127035476D01*
X83210476Y-127225952D01*
X83210476Y-127606904D01*
X83258095Y-127702142D01*
X83305714Y-127749761D01*
X83400952Y-127797380D01*
X83591428Y-127797380D01*
X83686666Y-127749761D01*
X83734285Y-127702142D01*
X83781904Y-127606904D01*
X83781904Y-127368809D01*
X83734285Y-127273571D01*
X83686666Y-127225952D01*
X83591428Y-127178333D01*
X83400952Y-127178333D01*
X83305714Y-127225952D01*
X83258095Y-127273571D01*
X83210476Y-127368809D01*
X81305714Y-108747380D02*
X81305714Y-107747380D01*
X81877142Y-108747380D02*
X81448571Y-108175952D01*
X81877142Y-107747380D02*
X81305714Y-108318809D01*
X82210476Y-107747380D02*
X82829523Y-107747380D01*
X82496190Y-108128333D01*
X82639047Y-108128333D01*
X82734285Y-108175952D01*
X82781904Y-108223571D01*
X82829523Y-108318809D01*
X82829523Y-108556904D01*
X82781904Y-108652142D01*
X82734285Y-108699761D01*
X82639047Y-108747380D01*
X82353333Y-108747380D01*
X82258095Y-108699761D01*
X82210476Y-108652142D01*
X83210476Y-107842619D02*
X83258095Y-107795000D01*
X83353333Y-107747380D01*
X83591428Y-107747380D01*
X83686666Y-107795000D01*
X83734285Y-107842619D01*
X83781904Y-107937857D01*
X83781904Y-108033095D01*
X83734285Y-108175952D01*
X83162857Y-108747380D01*
X83781904Y-108747380D01*
X167030714Y-146847380D02*
X167030714Y-145847380D01*
X167602142Y-146847380D02*
X167173571Y-146275952D01*
X167602142Y-145847380D02*
X167030714Y-146418809D01*
X168459285Y-145847380D02*
X168268809Y-145847380D01*
X168173571Y-145895000D01*
X168125952Y-145942619D01*
X168030714Y-146085476D01*
X167983095Y-146275952D01*
X167983095Y-146656904D01*
X168030714Y-146752142D01*
X168078333Y-146799761D01*
X168173571Y-146847380D01*
X168364047Y-146847380D01*
X168459285Y-146799761D01*
X168506904Y-146752142D01*
X168554523Y-146656904D01*
X168554523Y-146418809D01*
X168506904Y-146323571D01*
X168459285Y-146275952D01*
X168364047Y-146228333D01*
X168173571Y-146228333D01*
X168078333Y-146275952D01*
X168030714Y-146323571D01*
X167983095Y-146418809D01*
X169459285Y-145847380D02*
X168983095Y-145847380D01*
X168935476Y-146323571D01*
X168983095Y-146275952D01*
X169078333Y-146228333D01*
X169316428Y-146228333D01*
X169411666Y-146275952D01*
X169459285Y-146323571D01*
X169506904Y-146418809D01*
X169506904Y-146656904D01*
X169459285Y-146752142D01*
X169411666Y-146799761D01*
X169316428Y-146847380D01*
X169078333Y-146847380D01*
X168983095Y-146799761D01*
X168935476Y-146752142D01*
X128930714Y-89697380D02*
X128930714Y-88697380D01*
X129502142Y-89697380D02*
X129073571Y-89125952D01*
X129502142Y-88697380D02*
X128930714Y-89268809D01*
X130454523Y-89697380D02*
X129883095Y-89697380D01*
X130168809Y-89697380D02*
X130168809Y-88697380D01*
X130073571Y-88840238D01*
X129978333Y-88935476D01*
X129883095Y-88983095D01*
X130930714Y-89697380D02*
X131121190Y-89697380D01*
X131216428Y-89649761D01*
X131264047Y-89602142D01*
X131359285Y-89459285D01*
X131406904Y-89268809D01*
X131406904Y-88887857D01*
X131359285Y-88792619D01*
X131311666Y-88745000D01*
X131216428Y-88697380D01*
X131025952Y-88697380D01*
X130930714Y-88745000D01*
X130883095Y-88792619D01*
X130835476Y-88887857D01*
X130835476Y-89125952D01*
X130883095Y-89221190D01*
X130930714Y-89268809D01*
X131025952Y-89316428D01*
X131216428Y-89316428D01*
X131311666Y-89268809D01*
X131359285Y-89221190D01*
X131406904Y-89125952D01*
X128930714Y-146847380D02*
X128930714Y-145847380D01*
X129502142Y-146847380D02*
X129073571Y-146275952D01*
X129502142Y-145847380D02*
X128930714Y-146418809D01*
X130359285Y-145847380D02*
X130168809Y-145847380D01*
X130073571Y-145895000D01*
X130025952Y-145942619D01*
X129930714Y-146085476D01*
X129883095Y-146275952D01*
X129883095Y-146656904D01*
X129930714Y-146752142D01*
X129978333Y-146799761D01*
X130073571Y-146847380D01*
X130264047Y-146847380D01*
X130359285Y-146799761D01*
X130406904Y-146752142D01*
X130454523Y-146656904D01*
X130454523Y-146418809D01*
X130406904Y-146323571D01*
X130359285Y-146275952D01*
X130264047Y-146228333D01*
X130073571Y-146228333D01*
X129978333Y-146275952D01*
X129930714Y-146323571D01*
X129883095Y-146418809D01*
X131311666Y-146180714D02*
X131311666Y-146847380D01*
X131073571Y-145799761D02*
X130835476Y-146514047D01*
X131454523Y-146514047D01*
X110356904Y-70647380D02*
X110356904Y-69647380D01*
X110928333Y-70647380D02*
X110499761Y-70075952D01*
X110928333Y-69647380D02*
X110356904Y-70218809D01*
X111261666Y-69647380D02*
X111880714Y-69647380D01*
X111547380Y-70028333D01*
X111690238Y-70028333D01*
X111785476Y-70075952D01*
X111833095Y-70123571D01*
X111880714Y-70218809D01*
X111880714Y-70456904D01*
X111833095Y-70552142D01*
X111785476Y-70599761D01*
X111690238Y-70647380D01*
X111404523Y-70647380D01*
X111309285Y-70599761D01*
X111261666Y-70552142D01*
X109880714Y-108747380D02*
X109880714Y-107747380D01*
X110452142Y-108747380D02*
X110023571Y-108175952D01*
X110452142Y-107747380D02*
X109880714Y-108318809D01*
X110785476Y-107747380D02*
X111404523Y-107747380D01*
X111071190Y-108128333D01*
X111214047Y-108128333D01*
X111309285Y-108175952D01*
X111356904Y-108223571D01*
X111404523Y-108318809D01*
X111404523Y-108556904D01*
X111356904Y-108652142D01*
X111309285Y-108699761D01*
X111214047Y-108747380D01*
X110928333Y-108747380D01*
X110833095Y-108699761D01*
X110785476Y-108652142D01*
X111737857Y-107747380D02*
X112356904Y-107747380D01*
X112023571Y-108128333D01*
X112166428Y-108128333D01*
X112261666Y-108175952D01*
X112309285Y-108223571D01*
X112356904Y-108318809D01*
X112356904Y-108556904D01*
X112309285Y-108652142D01*
X112261666Y-108699761D01*
X112166428Y-108747380D01*
X111880714Y-108747380D01*
X111785476Y-108699761D01*
X111737857Y-108652142D01*
X52730714Y-146847380D02*
X52730714Y-145847380D01*
X53302142Y-146847380D02*
X52873571Y-146275952D01*
X53302142Y-145847380D02*
X52730714Y-146418809D01*
X54159285Y-145847380D02*
X53968809Y-145847380D01*
X53873571Y-145895000D01*
X53825952Y-145942619D01*
X53730714Y-146085476D01*
X53683095Y-146275952D01*
X53683095Y-146656904D01*
X53730714Y-146752142D01*
X53778333Y-146799761D01*
X53873571Y-146847380D01*
X54064047Y-146847380D01*
X54159285Y-146799761D01*
X54206904Y-146752142D01*
X54254523Y-146656904D01*
X54254523Y-146418809D01*
X54206904Y-146323571D01*
X54159285Y-146275952D01*
X54064047Y-146228333D01*
X53873571Y-146228333D01*
X53778333Y-146275952D01*
X53730714Y-146323571D01*
X53683095Y-146418809D01*
X54873571Y-145847380D02*
X54968809Y-145847380D01*
X55064047Y-145895000D01*
X55111666Y-145942619D01*
X55159285Y-146037857D01*
X55206904Y-146228333D01*
X55206904Y-146466428D01*
X55159285Y-146656904D01*
X55111666Y-146752142D01*
X55064047Y-146799761D01*
X54968809Y-146847380D01*
X54873571Y-146847380D01*
X54778333Y-146799761D01*
X54730714Y-146752142D01*
X54683095Y-146656904D01*
X54635476Y-146466428D01*
X54635476Y-146228333D01*
X54683095Y-146037857D01*
X54730714Y-145942619D01*
X54778333Y-145895000D01*
X54873571Y-145847380D01*
X186080714Y-89697380D02*
X186080714Y-88697380D01*
X186652142Y-89697380D02*
X186223571Y-89125952D01*
X186652142Y-88697380D02*
X186080714Y-89268809D01*
X187033095Y-88792619D02*
X187080714Y-88745000D01*
X187175952Y-88697380D01*
X187414047Y-88697380D01*
X187509285Y-88745000D01*
X187556904Y-88792619D01*
X187604523Y-88887857D01*
X187604523Y-88983095D01*
X187556904Y-89125952D01*
X186985476Y-89697380D01*
X187604523Y-89697380D01*
X187985476Y-88792619D02*
X188033095Y-88745000D01*
X188128333Y-88697380D01*
X188366428Y-88697380D01*
X188461666Y-88745000D01*
X188509285Y-88792619D01*
X188556904Y-88887857D01*
X188556904Y-88983095D01*
X188509285Y-89125952D01*
X187937857Y-89697380D01*
X188556904Y-89697380D01*
X167030714Y-89697380D02*
X167030714Y-88697380D01*
X167602142Y-89697380D02*
X167173571Y-89125952D01*
X167602142Y-88697380D02*
X167030714Y-89268809D01*
X167983095Y-88792619D02*
X168030714Y-88745000D01*
X168125952Y-88697380D01*
X168364047Y-88697380D01*
X168459285Y-88745000D01*
X168506904Y-88792619D01*
X168554523Y-88887857D01*
X168554523Y-88983095D01*
X168506904Y-89125952D01*
X167935476Y-89697380D01*
X168554523Y-89697380D01*
X169506904Y-89697380D02*
X168935476Y-89697380D01*
X169221190Y-89697380D02*
X169221190Y-88697380D01*
X169125952Y-88840238D01*
X169030714Y-88935476D01*
X168935476Y-88983095D01*
X128930714Y-108747380D02*
X128930714Y-107747380D01*
X129502142Y-108747380D02*
X129073571Y-108175952D01*
X129502142Y-107747380D02*
X128930714Y-108318809D01*
X129835476Y-107747380D02*
X130454523Y-107747380D01*
X130121190Y-108128333D01*
X130264047Y-108128333D01*
X130359285Y-108175952D01*
X130406904Y-108223571D01*
X130454523Y-108318809D01*
X130454523Y-108556904D01*
X130406904Y-108652142D01*
X130359285Y-108699761D01*
X130264047Y-108747380D01*
X129978333Y-108747380D01*
X129883095Y-108699761D01*
X129835476Y-108652142D01*
X131311666Y-108080714D02*
X131311666Y-108747380D01*
X131073571Y-107699761D02*
X130835476Y-108414047D01*
X131454523Y-108414047D01*
X129406904Y-70647380D02*
X129406904Y-69647380D01*
X129978333Y-70647380D02*
X129549761Y-70075952D01*
X129978333Y-69647380D02*
X129406904Y-70218809D01*
X130835476Y-69980714D02*
X130835476Y-70647380D01*
X130597380Y-69599761D02*
X130359285Y-70314047D01*
X130978333Y-70314047D01*
X148456904Y-70647380D02*
X148456904Y-69647380D01*
X149028333Y-70647380D02*
X148599761Y-70075952D01*
X149028333Y-69647380D02*
X148456904Y-70218809D01*
X149933095Y-69647380D02*
X149456904Y-69647380D01*
X149409285Y-70123571D01*
X149456904Y-70075952D01*
X149552142Y-70028333D01*
X149790238Y-70028333D01*
X149885476Y-70075952D01*
X149933095Y-70123571D01*
X149980714Y-70218809D01*
X149980714Y-70456904D01*
X149933095Y-70552142D01*
X149885476Y-70599761D01*
X149790238Y-70647380D01*
X149552142Y-70647380D01*
X149456904Y-70599761D01*
X149409285Y-70552142D01*
X167030714Y-108747380D02*
X167030714Y-107747380D01*
X167602142Y-108747380D02*
X167173571Y-108175952D01*
X167602142Y-107747380D02*
X167030714Y-108318809D01*
X167935476Y-107747380D02*
X168554523Y-107747380D01*
X168221190Y-108128333D01*
X168364047Y-108128333D01*
X168459285Y-108175952D01*
X168506904Y-108223571D01*
X168554523Y-108318809D01*
X168554523Y-108556904D01*
X168506904Y-108652142D01*
X168459285Y-108699761D01*
X168364047Y-108747380D01*
X168078333Y-108747380D01*
X167983095Y-108699761D01*
X167935476Y-108652142D01*
X169411666Y-107747380D02*
X169221190Y-107747380D01*
X169125952Y-107795000D01*
X169078333Y-107842619D01*
X168983095Y-107985476D01*
X168935476Y-108175952D01*
X168935476Y-108556904D01*
X168983095Y-108652142D01*
X169030714Y-108699761D01*
X169125952Y-108747380D01*
X169316428Y-108747380D01*
X169411666Y-108699761D01*
X169459285Y-108652142D01*
X169506904Y-108556904D01*
X169506904Y-108318809D01*
X169459285Y-108223571D01*
X169411666Y-108175952D01*
X169316428Y-108128333D01*
X169125952Y-108128333D01*
X169030714Y-108175952D01*
X168983095Y-108223571D01*
X168935476Y-108318809D01*
X167030714Y-127797380D02*
X167030714Y-126797380D01*
X167602142Y-127797380D02*
X167173571Y-127225952D01*
X167602142Y-126797380D02*
X167030714Y-127368809D01*
X168506904Y-126797380D02*
X168030714Y-126797380D01*
X167983095Y-127273571D01*
X168030714Y-127225952D01*
X168125952Y-127178333D01*
X168364047Y-127178333D01*
X168459285Y-127225952D01*
X168506904Y-127273571D01*
X168554523Y-127368809D01*
X168554523Y-127606904D01*
X168506904Y-127702142D01*
X168459285Y-127749761D01*
X168364047Y-127797380D01*
X168125952Y-127797380D01*
X168030714Y-127749761D01*
X167983095Y-127702142D01*
X169173571Y-126797380D02*
X169268809Y-126797380D01*
X169364047Y-126845000D01*
X169411666Y-126892619D01*
X169459285Y-126987857D01*
X169506904Y-127178333D01*
X169506904Y-127416428D01*
X169459285Y-127606904D01*
X169411666Y-127702142D01*
X169364047Y-127749761D01*
X169268809Y-127797380D01*
X169173571Y-127797380D01*
X169078333Y-127749761D01*
X169030714Y-127702142D01*
X168983095Y-127606904D01*
X168935476Y-127416428D01*
X168935476Y-127178333D01*
X168983095Y-126987857D01*
X169030714Y-126892619D01*
X169078333Y-126845000D01*
X169173571Y-126797380D01*
X123145000Y-142600000D02*
X124145000Y-142600000D01*
X137145000Y-128600000D02*
X136145000Y-128600000D01*
X124145000Y-128600000D02*
X123145000Y-128600000D01*
X137145000Y-141600000D02*
X137145000Y-142600000D01*
X123145000Y-129600000D02*
X123145000Y-128600000D01*
X136145000Y-142600000D02*
X137145000Y-142600000D01*
X123145000Y-142600000D02*
X123145000Y-141600000D01*
X137145000Y-128600000D02*
X137145000Y-129600000D01*
X65995000Y-85450000D02*
X66995000Y-85450000D01*
X78995000Y-85450000D02*
X79995000Y-85450000D01*
X79995000Y-84450000D02*
X79995000Y-85450000D01*
X65995000Y-85450000D02*
X65995000Y-84450000D01*
X66995000Y-71450000D02*
X65995000Y-71450000D01*
X79995000Y-71450000D02*
X79995000Y-72450000D01*
X65995000Y-72450000D02*
X65995000Y-71450000D01*
X79995000Y-71450000D02*
X78995000Y-71450000D01*
X180295000Y-85450000D02*
X181295000Y-85450000D01*
X193295000Y-85450000D02*
X194295000Y-85450000D01*
X194295000Y-84450000D02*
X194295000Y-85450000D01*
X180295000Y-85450000D02*
X180295000Y-84450000D01*
X194295000Y-71450000D02*
X194295000Y-72450000D01*
X180295000Y-72450000D02*
X180295000Y-71450000D01*
X194295000Y-71450000D02*
X193295000Y-71450000D01*
X181295000Y-71450000D02*
X180295000Y-71450000D01*
X161245000Y-85450000D02*
X161245000Y-84450000D01*
X162245000Y-71450000D02*
X161245000Y-71450000D01*
X161245000Y-85450000D02*
X162245000Y-85450000D01*
X174245000Y-85450000D02*
X175245000Y-85450000D01*
X175245000Y-71450000D02*
X174245000Y-71450000D01*
X161245000Y-72450000D02*
X161245000Y-71450000D01*
X175245000Y-84450000D02*
X175245000Y-85450000D01*
X175245000Y-71450000D02*
X175245000Y-72450000D01*
X104095000Y-161650000D02*
X105095000Y-161650000D01*
X118095000Y-160650000D02*
X118095000Y-161650000D01*
X118095000Y-147650000D02*
X117095000Y-147650000D01*
X105095000Y-147650000D02*
X104095000Y-147650000D01*
X104095000Y-161650000D02*
X104095000Y-160650000D01*
X104095000Y-148650000D02*
X104095000Y-147650000D01*
X118095000Y-147650000D02*
X118095000Y-148650000D01*
X117095000Y-161650000D02*
X118095000Y-161650000D01*
X46945000Y-142600000D02*
X47945000Y-142600000D01*
X60945000Y-141600000D02*
X60945000Y-142600000D01*
X46945000Y-142600000D02*
X46945000Y-141600000D01*
X60945000Y-128600000D02*
X59945000Y-128600000D01*
X46945000Y-129600000D02*
X46945000Y-128600000D01*
X47945000Y-128600000D02*
X46945000Y-128600000D01*
X59945000Y-142600000D02*
X60945000Y-142600000D01*
X60945000Y-128600000D02*
X60945000Y-129600000D01*
X180295000Y-142600000D02*
X180295000Y-141600000D01*
X194295000Y-128600000D02*
X194295000Y-129600000D01*
X194295000Y-128600000D02*
X193295000Y-128600000D01*
X180295000Y-142600000D02*
X181295000Y-142600000D01*
X181295000Y-128600000D02*
X180295000Y-128600000D01*
X193295000Y-142600000D02*
X194295000Y-142600000D01*
X194295000Y-141600000D02*
X194295000Y-142600000D01*
X180295000Y-129600000D02*
X180295000Y-128600000D01*
X142195000Y-142600000D02*
X143195000Y-142600000D01*
X142195000Y-129600000D02*
X142195000Y-128600000D01*
X156195000Y-128600000D02*
X156195000Y-129600000D01*
X156195000Y-141600000D02*
X156195000Y-142600000D01*
X143195000Y-128600000D02*
X142195000Y-128600000D01*
X156195000Y-128600000D02*
X155195000Y-128600000D01*
X155195000Y-142600000D02*
X156195000Y-142600000D01*
X142195000Y-142600000D02*
X142195000Y-141600000D01*
X59945000Y-85450000D02*
X60945000Y-85450000D01*
X46945000Y-85450000D02*
X46945000Y-84450000D01*
X46945000Y-72450000D02*
X46945000Y-71450000D01*
X46945000Y-85450000D02*
X47945000Y-85450000D01*
X60945000Y-84450000D02*
X60945000Y-85450000D01*
X47945000Y-71450000D02*
X46945000Y-71450000D01*
X60945000Y-71450000D02*
X59945000Y-71450000D01*
X60945000Y-71450000D02*
X60945000Y-72450000D01*
X76520000Y-90500000D02*
X75520000Y-90500000D01*
X89520000Y-90500000D02*
X89520000Y-91500000D01*
X89520000Y-90500000D02*
X88520000Y-90500000D01*
X75520000Y-104500000D02*
X76520000Y-104500000D01*
X89520000Y-103500000D02*
X89520000Y-104500000D01*
X75520000Y-104500000D02*
X75520000Y-103500000D01*
X88520000Y-104500000D02*
X89520000Y-104500000D01*
X75520000Y-91500000D02*
X75520000Y-90500000D01*
X104095000Y-104500000D02*
X104095000Y-103500000D01*
X117095000Y-104500000D02*
X118095000Y-104500000D01*
X104095000Y-104500000D02*
X105095000Y-104500000D01*
X104095000Y-91500000D02*
X104095000Y-90500000D01*
X118095000Y-90500000D02*
X117095000Y-90500000D01*
X105095000Y-90500000D02*
X104095000Y-90500000D01*
X118095000Y-103500000D02*
X118095000Y-104500000D01*
X118095000Y-90500000D02*
X118095000Y-91500000D01*
X156195000Y-103500000D02*
X156195000Y-104500000D01*
X142195000Y-91500000D02*
X142195000Y-90500000D01*
X142195000Y-104500000D02*
X142195000Y-103500000D01*
X156195000Y-90500000D02*
X156195000Y-91500000D01*
X142195000Y-104500000D02*
X143195000Y-104500000D01*
X156195000Y-90500000D02*
X155195000Y-90500000D01*
X143195000Y-90500000D02*
X142195000Y-90500000D01*
X155195000Y-104500000D02*
X156195000Y-104500000D01*
X60945000Y-109550000D02*
X60945000Y-110550000D01*
X46945000Y-123550000D02*
X47945000Y-123550000D01*
X60945000Y-122550000D02*
X60945000Y-123550000D01*
X46945000Y-110550000D02*
X46945000Y-109550000D01*
X60945000Y-109550000D02*
X59945000Y-109550000D01*
X47945000Y-109550000D02*
X46945000Y-109550000D01*
X46945000Y-123550000D02*
X46945000Y-122550000D01*
X59945000Y-123550000D02*
X60945000Y-123550000D01*
X194295000Y-109550000D02*
X194295000Y-110550000D01*
X180295000Y-123550000D02*
X181295000Y-123550000D01*
X180295000Y-123550000D02*
X180295000Y-122550000D01*
X194295000Y-109550000D02*
X193295000Y-109550000D01*
X180295000Y-110550000D02*
X180295000Y-109550000D01*
X194295000Y-122550000D02*
X194295000Y-123550000D01*
X193295000Y-123550000D02*
X194295000Y-123550000D01*
X181295000Y-109550000D02*
X180295000Y-109550000D01*
X79995000Y-160650000D02*
X79995000Y-161650000D01*
X79995000Y-147650000D02*
X78995000Y-147650000D01*
X78995000Y-161650000D02*
X79995000Y-161650000D01*
X65995000Y-148650000D02*
X65995000Y-147650000D01*
X65995000Y-161650000D02*
X65995000Y-160650000D01*
X66995000Y-147650000D02*
X65995000Y-147650000D01*
X65995000Y-161650000D02*
X66995000Y-161650000D01*
X79995000Y-147650000D02*
X79995000Y-148650000D01*
X143195000Y-109550000D02*
X142195000Y-109550000D01*
X156195000Y-122550000D02*
X156195000Y-123550000D01*
X156195000Y-109550000D02*
X155195000Y-109550000D01*
X155195000Y-123550000D02*
X156195000Y-123550000D01*
X142195000Y-110550000D02*
X142195000Y-109550000D01*
X142195000Y-123550000D02*
X143195000Y-123550000D01*
X142195000Y-123550000D02*
X142195000Y-122550000D01*
X156195000Y-109550000D02*
X156195000Y-110550000D01*
X118095000Y-128600000D02*
X117095000Y-128600000D01*
X118095000Y-128600000D02*
X118095000Y-129600000D01*
X117095000Y-142600000D02*
X118095000Y-142600000D01*
X105095000Y-128600000D02*
X104095000Y-128600000D01*
X104095000Y-142600000D02*
X104095000Y-141600000D01*
X104095000Y-142600000D02*
X105095000Y-142600000D01*
X118095000Y-141600000D02*
X118095000Y-142600000D01*
X104095000Y-129600000D02*
X104095000Y-128600000D01*
X86045000Y-147650000D02*
X85045000Y-147650000D01*
X99045000Y-147650000D02*
X99045000Y-148650000D01*
X99045000Y-147650000D02*
X98045000Y-147650000D01*
X85045000Y-148650000D02*
X85045000Y-147650000D01*
X85045000Y-161650000D02*
X86045000Y-161650000D01*
X85045000Y-161650000D02*
X85045000Y-160650000D01*
X99045000Y-160650000D02*
X99045000Y-161650000D01*
X98045000Y-161650000D02*
X99045000Y-161650000D01*
X85045000Y-72450000D02*
X85045000Y-71450000D01*
X85045000Y-85450000D02*
X85045000Y-84450000D01*
X99045000Y-71450000D02*
X98045000Y-71450000D01*
X99045000Y-71450000D02*
X99045000Y-72450000D01*
X85045000Y-85450000D02*
X86045000Y-85450000D01*
X99045000Y-84450000D02*
X99045000Y-85450000D01*
X86045000Y-71450000D02*
X85045000Y-71450000D01*
X98045000Y-85450000D02*
X99045000Y-85450000D01*
X60945000Y-90500000D02*
X60945000Y-91500000D01*
X59945000Y-104500000D02*
X60945000Y-104500000D01*
X60945000Y-90500000D02*
X59945000Y-90500000D01*
X46945000Y-104500000D02*
X47945000Y-104500000D01*
X46945000Y-104500000D02*
X46945000Y-103500000D01*
X60945000Y-103500000D02*
X60945000Y-104500000D01*
X46945000Y-91500000D02*
X46945000Y-90500000D01*
X47945000Y-90500000D02*
X46945000Y-90500000D01*
X89520000Y-128600000D02*
X88520000Y-128600000D01*
X89520000Y-141600000D02*
X89520000Y-142600000D01*
X76520000Y-128600000D02*
X75520000Y-128600000D01*
X75520000Y-142600000D02*
X76520000Y-142600000D01*
X88520000Y-142600000D02*
X89520000Y-142600000D01*
X89520000Y-128600000D02*
X89520000Y-129600000D01*
X75520000Y-129600000D02*
X75520000Y-128600000D01*
X75520000Y-142600000D02*
X75520000Y-141600000D01*
X76520000Y-109550000D02*
X75520000Y-109550000D01*
X75520000Y-123550000D02*
X75520000Y-122550000D01*
X89520000Y-122550000D02*
X89520000Y-123550000D01*
X89520000Y-109550000D02*
X88520000Y-109550000D01*
X88520000Y-123550000D02*
X89520000Y-123550000D01*
X75520000Y-123550000D02*
X76520000Y-123550000D01*
X89520000Y-109550000D02*
X89520000Y-110550000D01*
X75520000Y-110550000D02*
X75520000Y-109550000D01*
X175245000Y-160650000D02*
X175245000Y-161650000D01*
X175245000Y-147650000D02*
X174245000Y-147650000D01*
X161245000Y-161650000D02*
X162245000Y-161650000D01*
X175245000Y-147650000D02*
X175245000Y-148650000D01*
X161245000Y-148650000D02*
X161245000Y-147650000D01*
X161245000Y-161650000D02*
X161245000Y-160650000D01*
X174245000Y-161650000D02*
X175245000Y-161650000D01*
X162245000Y-147650000D02*
X161245000Y-147650000D01*
X124145000Y-90500000D02*
X123145000Y-90500000D01*
X137145000Y-103500000D02*
X137145000Y-104500000D01*
X136145000Y-104500000D02*
X137145000Y-104500000D01*
X123145000Y-91500000D02*
X123145000Y-90500000D01*
X123145000Y-104500000D02*
X124145000Y-104500000D01*
X137145000Y-90500000D02*
X137145000Y-91500000D01*
X123145000Y-104500000D02*
X123145000Y-103500000D01*
X137145000Y-90500000D02*
X136145000Y-90500000D01*
X123145000Y-161650000D02*
X123145000Y-160650000D01*
X136145000Y-161650000D02*
X137145000Y-161650000D01*
X123145000Y-148650000D02*
X123145000Y-147650000D01*
X137145000Y-147650000D02*
X136145000Y-147650000D01*
X124145000Y-147650000D02*
X123145000Y-147650000D01*
X137145000Y-160650000D02*
X137145000Y-161650000D01*
X137145000Y-147650000D02*
X137145000Y-148650000D01*
X123145000Y-161650000D02*
X124145000Y-161650000D01*
X118095000Y-71450000D02*
X117095000Y-71450000D01*
X104095000Y-85450000D02*
X104095000Y-84450000D01*
X118095000Y-84450000D02*
X118095000Y-85450000D01*
X117095000Y-85450000D02*
X118095000Y-85450000D01*
X105095000Y-71450000D02*
X104095000Y-71450000D01*
X104095000Y-85450000D02*
X105095000Y-85450000D01*
X104095000Y-72450000D02*
X104095000Y-71450000D01*
X118095000Y-71450000D02*
X118095000Y-72450000D01*
X118095000Y-109550000D02*
X118095000Y-110550000D01*
X104095000Y-123550000D02*
X105095000Y-123550000D01*
X118095000Y-109550000D02*
X117095000Y-109550000D01*
X104095000Y-123550000D02*
X104095000Y-122550000D01*
X117095000Y-123550000D02*
X118095000Y-123550000D01*
X104095000Y-110550000D02*
X104095000Y-109550000D01*
X118095000Y-122550000D02*
X118095000Y-123550000D01*
X105095000Y-109550000D02*
X104095000Y-109550000D01*
X46945000Y-161650000D02*
X47945000Y-161650000D01*
X60945000Y-147650000D02*
X59945000Y-147650000D01*
X60945000Y-160650000D02*
X60945000Y-161650000D01*
X46945000Y-161650000D02*
X46945000Y-160650000D01*
X60945000Y-147650000D02*
X60945000Y-148650000D01*
X46945000Y-148650000D02*
X46945000Y-147650000D01*
X47945000Y-147650000D02*
X46945000Y-147650000D01*
X59945000Y-161650000D02*
X60945000Y-161650000D01*
X194295000Y-90500000D02*
X193295000Y-90500000D01*
X193295000Y-104500000D02*
X194295000Y-104500000D01*
X180295000Y-91500000D02*
X180295000Y-90500000D01*
X180295000Y-104500000D02*
X181295000Y-104500000D01*
X194295000Y-103500000D02*
X194295000Y-104500000D01*
X194295000Y-90500000D02*
X194295000Y-91500000D01*
X181295000Y-90500000D02*
X180295000Y-90500000D01*
X180295000Y-104500000D02*
X180295000Y-103500000D01*
X174245000Y-104500000D02*
X175245000Y-104500000D01*
X162245000Y-90500000D02*
X161245000Y-90500000D01*
X175245000Y-90500000D02*
X175245000Y-91500000D01*
X161245000Y-104500000D02*
X161245000Y-103500000D01*
X161245000Y-91500000D02*
X161245000Y-90500000D01*
X161245000Y-104500000D02*
X162245000Y-104500000D01*
X175245000Y-90500000D02*
X174245000Y-90500000D01*
X175245000Y-103500000D02*
X175245000Y-104500000D01*
X123145000Y-123550000D02*
X123145000Y-122550000D01*
X123145000Y-123550000D02*
X124145000Y-123550000D01*
X137145000Y-109550000D02*
X137145000Y-110550000D01*
X137145000Y-109550000D02*
X136145000Y-109550000D01*
X123145000Y-110550000D02*
X123145000Y-109550000D01*
X124145000Y-109550000D02*
X123145000Y-109550000D01*
X137145000Y-122550000D02*
X137145000Y-123550000D01*
X136145000Y-123550000D02*
X137145000Y-123550000D01*
X137145000Y-84450000D02*
X137145000Y-85450000D01*
X123145000Y-72450000D02*
X123145000Y-71450000D01*
X123145000Y-85450000D02*
X124145000Y-85450000D01*
X136145000Y-85450000D02*
X137145000Y-85450000D01*
X124145000Y-71450000D02*
X123145000Y-71450000D01*
X137145000Y-71450000D02*
X137145000Y-72450000D01*
X123145000Y-85450000D02*
X123145000Y-84450000D01*
X137145000Y-71450000D02*
X136145000Y-71450000D01*
X142195000Y-85450000D02*
X143195000Y-85450000D01*
X156195000Y-71450000D02*
X156195000Y-72450000D01*
X142195000Y-85450000D02*
X142195000Y-84450000D01*
X143195000Y-71450000D02*
X142195000Y-71450000D01*
X142195000Y-72450000D02*
X142195000Y-71450000D01*
X156195000Y-71450000D02*
X155195000Y-71450000D01*
X155195000Y-85450000D02*
X156195000Y-85450000D01*
X156195000Y-84450000D02*
X156195000Y-85450000D01*
X175245000Y-109550000D02*
X175245000Y-110550000D01*
X174245000Y-123550000D02*
X175245000Y-123550000D01*
X175245000Y-122550000D02*
X175245000Y-123550000D01*
X161245000Y-110550000D02*
X161245000Y-109550000D01*
X161245000Y-123550000D02*
X161245000Y-122550000D01*
X162245000Y-109550000D02*
X161245000Y-109550000D01*
X175245000Y-109550000D02*
X174245000Y-109550000D01*
X161245000Y-123550000D02*
X162245000Y-123550000D01*
X175245000Y-141600000D02*
X175245000Y-142600000D01*
X161245000Y-142600000D02*
X162245000Y-142600000D01*
X175245000Y-128600000D02*
X174245000Y-128600000D01*
X161245000Y-129600000D02*
X161245000Y-128600000D01*
X162245000Y-128600000D02*
X161245000Y-128600000D01*
X161245000Y-142600000D02*
X161245000Y-141600000D01*
X175245000Y-128600000D02*
X175245000Y-129600000D01*
X174245000Y-142600000D02*
X175245000Y-142600000D01*
%LPC*%
D12*
X185420000Y-64262000D03*
D13*
X135645000Y-135600000D03*
D14*
X130145000Y-135600000D03*
D15*
X135365000Y-131400000D03*
D13*
X124645000Y-135600000D03*
D16*
X130145000Y-141500000D03*
X125145000Y-139400000D03*
D15*
X78215000Y-74250000D03*
D13*
X78495000Y-78450000D03*
D14*
X72995000Y-78450000D03*
D13*
X67495000Y-78450000D03*
D16*
X72995000Y-84350000D03*
X67995000Y-82250000D03*
D13*
X192795000Y-78450000D03*
D15*
X192515000Y-74250000D03*
D14*
X187295000Y-78450000D03*
D13*
X181795000Y-78450000D03*
D16*
X187295000Y-84350000D03*
X182295000Y-82250000D03*
D13*
X162745000Y-78450000D03*
D14*
X168245000Y-78450000D03*
D13*
X173745000Y-78450000D03*
D15*
X173465000Y-74250000D03*
D16*
X168245000Y-84350000D03*
X163245000Y-82250000D03*
D13*
X116595000Y-154650000D03*
D15*
X116315000Y-150450000D03*
D13*
X105595000Y-154650000D03*
D14*
X111095000Y-154650000D03*
D16*
X111095000Y-160550000D03*
X106095000Y-158450000D03*
D13*
X59445000Y-135600000D03*
D15*
X59165000Y-131400000D03*
D14*
X53945000Y-135600000D03*
D13*
X48445000Y-135600000D03*
D16*
X53945000Y-141500000D03*
X48945000Y-139400000D03*
D13*
X181795000Y-135600000D03*
D15*
X192515000Y-131400000D03*
D13*
X192795000Y-135600000D03*
D14*
X187295000Y-135600000D03*
D16*
X187295000Y-141500000D03*
X182295000Y-139400000D03*
D15*
X154415000Y-131400000D03*
D13*
X154695000Y-135600000D03*
X143695000Y-135600000D03*
D14*
X149195000Y-135600000D03*
D16*
X149195000Y-141500000D03*
X144195000Y-139400000D03*
D12*
X185420000Y-173990000D03*
D14*
X53945000Y-78450000D03*
D15*
X59165000Y-74250000D03*
D13*
X59445000Y-78450000D03*
X48445000Y-78450000D03*
D16*
X53945000Y-84350000D03*
X48945000Y-82250000D03*
D12*
X43180000Y-173990000D03*
D15*
X87740000Y-93300000D03*
D13*
X77020000Y-97500000D03*
X88020000Y-97500000D03*
D14*
X82520000Y-97500000D03*
D16*
X82520000Y-103400000D03*
X77520000Y-101300000D03*
D15*
X116315000Y-93300000D03*
D14*
X111095000Y-97500000D03*
D13*
X116595000Y-97500000D03*
X105595000Y-97500000D03*
D16*
X111095000Y-103400000D03*
X106095000Y-101300000D03*
D12*
X43180000Y-64262000D03*
D15*
X154415000Y-93300000D03*
D13*
X143695000Y-97500000D03*
D14*
X149195000Y-97500000D03*
D13*
X154695000Y-97500000D03*
D16*
X149195000Y-103400000D03*
X144195000Y-101300000D03*
D13*
X59445000Y-116550000D03*
D14*
X53945000Y-116550000D03*
D13*
X48445000Y-116550000D03*
D15*
X59165000Y-112350000D03*
D16*
X53945000Y-122450000D03*
X48945000Y-120350000D03*
D15*
X192515000Y-112350000D03*
D13*
X192795000Y-116550000D03*
D14*
X187295000Y-116550000D03*
D13*
X181795000Y-116550000D03*
D16*
X187295000Y-122450000D03*
X182295000Y-120350000D03*
D14*
X72995000Y-154650000D03*
D15*
X78215000Y-150450000D03*
D13*
X78495000Y-154650000D03*
X67495000Y-154650000D03*
D16*
X72995000Y-160550000D03*
X67995000Y-158450000D03*
D13*
X143695000Y-116550000D03*
D14*
X149195000Y-116550000D03*
D13*
X154695000Y-116550000D03*
D15*
X154415000Y-112350000D03*
D16*
X149195000Y-122450000D03*
X144195000Y-120350000D03*
D13*
X116595000Y-135600000D03*
D14*
X111095000Y-135600000D03*
D15*
X116315000Y-131400000D03*
D13*
X105595000Y-135600000D03*
D16*
X111095000Y-141500000D03*
X106095000Y-139400000D03*
D13*
X97545000Y-154650000D03*
D15*
X97265000Y-150450000D03*
D14*
X92045000Y-154650000D03*
D13*
X86545000Y-154650000D03*
D16*
X92045000Y-160550000D03*
X87045000Y-158450000D03*
D15*
X97265000Y-74250000D03*
D14*
X92045000Y-78450000D03*
D13*
X86545000Y-78450000D03*
X97545000Y-78450000D03*
D16*
X92045000Y-84350000D03*
X87045000Y-82250000D03*
D13*
X59445000Y-97500000D03*
D15*
X59165000Y-93300000D03*
D14*
X53945000Y-97500000D03*
D13*
X48445000Y-97500000D03*
D16*
X53945000Y-103400000D03*
X48945000Y-101300000D03*
D14*
X82520000Y-135600000D03*
D15*
X87740000Y-131400000D03*
D13*
X77020000Y-135600000D03*
X88020000Y-135600000D03*
D16*
X82520000Y-141500000D03*
X77520000Y-139400000D03*
D14*
X82520000Y-116550000D03*
D15*
X87740000Y-112350000D03*
D13*
X88020000Y-116550000D03*
X77020000Y-116550000D03*
D16*
X82520000Y-122450000D03*
X77520000Y-120350000D03*
D14*
X168245000Y-154650000D03*
D13*
X162745000Y-154650000D03*
X173745000Y-154650000D03*
D15*
X173465000Y-150450000D03*
D16*
X168245000Y-160550000D03*
X163245000Y-158450000D03*
D13*
X135645000Y-97500000D03*
D15*
X135365000Y-93300000D03*
D14*
X130145000Y-97500000D03*
D13*
X124645000Y-97500000D03*
D16*
X130145000Y-103400000D03*
X125145000Y-101300000D03*
D15*
X135365000Y-150450000D03*
D13*
X135645000Y-154650000D03*
X124645000Y-154650000D03*
D14*
X130145000Y-154650000D03*
D16*
X130145000Y-160550000D03*
X125145000Y-158450000D03*
D15*
X116315000Y-74250000D03*
D14*
X111095000Y-78450000D03*
D13*
X105595000Y-78450000D03*
X116595000Y-78450000D03*
D16*
X111095000Y-84350000D03*
X106095000Y-82250000D03*
D13*
X116595000Y-116550000D03*
X105595000Y-116550000D03*
D14*
X111095000Y-116550000D03*
D15*
X116315000Y-112350000D03*
D16*
X111095000Y-122450000D03*
X106095000Y-120350000D03*
D13*
X59445000Y-154650000D03*
D15*
X59165000Y-150450000D03*
D13*
X48445000Y-154650000D03*
D14*
X53945000Y-154650000D03*
D16*
X53945000Y-160550000D03*
X48945000Y-158450000D03*
D13*
X181795000Y-97500000D03*
D14*
X187295000Y-97500000D03*
D13*
X192795000Y-97500000D03*
D15*
X192515000Y-93300000D03*
D16*
X187295000Y-103400000D03*
X182295000Y-101300000D03*
D13*
X173745000Y-97500000D03*
D14*
X168245000Y-97500000D03*
D13*
X162745000Y-97500000D03*
D15*
X173465000Y-93300000D03*
D16*
X168245000Y-103400000D03*
X163245000Y-101300000D03*
D15*
X135365000Y-112350000D03*
D14*
X130145000Y-116550000D03*
D13*
X135645000Y-116550000D03*
X124645000Y-116550000D03*
D16*
X130145000Y-122450000D03*
X125145000Y-120350000D03*
D13*
X124645000Y-78450000D03*
X135645000Y-78450000D03*
D14*
X130145000Y-78450000D03*
D15*
X135365000Y-74250000D03*
D16*
X130145000Y-84350000D03*
X125145000Y-82250000D03*
D13*
X154695000Y-78450000D03*
X143695000Y-78450000D03*
D14*
X149195000Y-78450000D03*
D15*
X154415000Y-74250000D03*
D16*
X149195000Y-84350000D03*
X144195000Y-82250000D03*
D13*
X162745000Y-116550000D03*
X173745000Y-116550000D03*
D14*
X168245000Y-116550000D03*
D15*
X173465000Y-112350000D03*
D16*
X168245000Y-122450000D03*
X163245000Y-120350000D03*
D13*
X162745000Y-135600000D03*
D15*
X173465000Y-131400000D03*
D14*
X168245000Y-135600000D03*
D13*
X173745000Y-135600000D03*
D16*
X168245000Y-141500000D03*
X163245000Y-139400000D03*
D17*
X193226000Y-152023000D03*
X193226000Y-157023000D03*
D18*
X192176000Y-158248000D03*
D19*
X195976000Y-158398000D03*
D18*
X192176000Y-150798000D03*
D19*
X195976000Y-150648000D03*
D20*
X173010000Y-62170000D03*
D21*
X170470000Y-62170000D03*
X173010000Y-64710000D03*
X170470000Y-64710000D03*
X173010000Y-67250000D03*
X170470000Y-67250000D03*
M02*
