M48
; DRILL file {KiCad (6.0.10)} date Thu Feb  2 18:02:53 2023
; FORMAT={-:-/ absolute / metric / decimal}
; #@! TF.CreationDate,2023-02-02T18:02:53-08:00
; #@! TF.GenerationSoftware,Kicad,Pcbnew,(6.0.10)
; #@! TF.FileFunction,NonPlated,1,2,NPTH
FMAT,2
METRIC
; #@! TA.AperFunction,NonPlated,NPTH,ComponentDrill
T1C0.800
; #@! TA.AperFunction,NonPlated,NPTH,ComponentDrill
T2C0.991
; #@! TA.AperFunction,NonPlated,NPTH,ComponentDrill
T3C1.702
; #@! TA.AperFunction,NonPlated,NPTH,ComponentDrill
T4C3.429
; #@! TA.AperFunction,NonPlated,NPTH,ComponentDrill
T5C3.700
%
G90
G05
T1
X193.226Y-152.023
X193.226Y-157.023
T2
X59.165Y-74.25
X59.165Y-93.3
X59.165Y-112.35
X59.165Y-131.4
X59.165Y-150.45
X78.215Y-74.25
X78.215Y-150.45
X87.74Y-93.3
X87.74Y-112.35
X87.74Y-131.4
X97.265Y-74.25
X97.265Y-150.45
X116.315Y-74.25
X116.315Y-93.3
X116.315Y-112.35
X116.315Y-131.4
X116.315Y-150.45
X135.365Y-74.25
X135.365Y-93.3
X135.365Y-112.35
X135.365Y-131.4
X135.365Y-150.45
X154.415Y-74.25
X154.415Y-93.3
X154.415Y-112.35
X154.415Y-131.4
X173.465Y-74.25
X173.465Y-93.3
X173.465Y-112.35
X173.465Y-131.4
X173.465Y-150.45
X192.515Y-74.25
X192.515Y-93.3
X192.515Y-112.35
X192.515Y-131.4
T3
X48.445Y-78.45
X48.445Y-97.5
X48.445Y-116.55
X48.445Y-135.6
X48.445Y-154.65
X59.445Y-78.45
X59.445Y-97.5
X59.445Y-116.55
X59.445Y-135.6
X59.445Y-154.65
X67.495Y-78.45
X67.495Y-154.65
X77.02Y-97.5
X77.02Y-116.55
X77.02Y-135.6
X78.495Y-78.45
X78.495Y-154.65
X86.545Y-78.45
X86.545Y-154.65
X88.02Y-97.5
X88.02Y-116.55
X88.02Y-135.6
X97.545Y-78.45
X97.545Y-154.65
X105.595Y-78.45
X105.595Y-97.5
X105.595Y-116.55
X105.595Y-135.6
X105.595Y-154.65
X116.595Y-78.45
X116.595Y-97.5
X116.595Y-116.55
X116.595Y-135.6
X116.595Y-154.65
X124.645Y-78.45
X124.645Y-97.5
X124.645Y-116.55
X124.645Y-135.6
X124.645Y-154.65
X135.645Y-78.45
X135.645Y-97.5
X135.645Y-116.55
X135.645Y-135.6
X135.645Y-154.65
X143.695Y-78.45
X143.695Y-97.5
X143.695Y-116.55
X143.695Y-135.6
X154.695Y-78.45
X154.695Y-97.5
X154.695Y-116.55
X154.695Y-135.6
X162.745Y-78.45
X162.745Y-97.5
X162.745Y-116.55
X162.745Y-135.6
X162.745Y-154.65
X173.745Y-78.45
X173.745Y-97.5
X173.745Y-116.55
X173.745Y-135.6
X173.745Y-154.65
X181.795Y-78.45
X181.795Y-97.5
X181.795Y-116.55
X181.795Y-135.6
X192.795Y-78.45
X192.795Y-97.5
X192.795Y-116.55
X192.795Y-135.6
T4
X53.945Y-78.45
X53.945Y-97.5
X53.945Y-116.55
X53.945Y-135.6
X53.945Y-154.65
X72.995Y-78.45
X72.995Y-154.65
X82.52Y-97.5
X82.52Y-116.55
X82.52Y-135.6
X92.045Y-78.45
X92.045Y-154.65
X111.095Y-78.45
X111.095Y-97.5
X111.095Y-116.55
X111.095Y-135.6
X111.095Y-154.65
X130.145Y-78.45
X130.145Y-97.5
X130.145Y-116.55
X130.145Y-135.6
X130.145Y-154.65
X149.195Y-78.45
X149.195Y-97.5
X149.195Y-116.55
X149.195Y-135.6
X168.245Y-78.45
X168.245Y-97.5
X168.245Y-116.55
X168.245Y-135.6
X168.245Y-154.65
X187.295Y-78.45
X187.295Y-97.5
X187.295Y-116.55
X187.295Y-135.6
T5
X43.18Y-64.262
X43.18Y-173.99
X185.42Y-64.262
X185.42Y-173.99
T0
M30
