%TF.GenerationSoftware,KiCad,Pcbnew,(6.0.10)*%
%TF.CreationDate,2023-02-02T18:03:20-08:00*%
%TF.ProjectId,netrazr_rev2-Left,6e657472-617a-4725-9f72-6576322d4c65,2*%
%TF.SameCoordinates,Original*%
%TF.FileFunction,Drillmap*%
%TF.FilePolarity,Positive*%
%FSLAX45Y45*%
G04 Gerber Fmt 4.5, Leading zero omitted, Abs format (unit mm)*
G04 Created by KiCad (PCBNEW (6.0.10)) date 2023-02-02 18:03:20*
%MOMM*%
%LPD*%
G01*
G04 APERTURE LIST*
%ADD10C,0.050000*%
%ADD11C,0.200000*%
%ADD12C,0.040000*%
%ADD13C,0.055000*%
%ADD14C,0.085000*%
%ADD15C,0.100000*%
%ADD16C,0.127000*%
G04 APERTURE END LIST*
D10*
X19796300Y-6019800D02*
G75*
G03*
X19716500Y-5940000I-79800J0D01*
G01*
X3768900Y-17878000D02*
X20355100Y-17878000D01*
X20444000Y-15985700D02*
X20444000Y-15985700D01*
X19716500Y-5940000D02*
X3768900Y-5940000D01*
X20355100Y-15985700D02*
X19796300Y-15985700D01*
X3680000Y-6028900D02*
X3680000Y-17789100D01*
X19796300Y-14931600D02*
X19796300Y-6019800D01*
X3768900Y-5940000D02*
G75*
G03*
X3680000Y-6028900I0J-88900D01*
G01*
X20355100Y-17878000D02*
G75*
G03*
X20444000Y-17789100I0J88900D01*
G01*
X20444000Y-16074600D02*
G75*
G03*
X20355100Y-15985700I-88900J0D01*
G01*
X20444000Y-15985700D02*
X20444000Y-15985700D01*
X3680000Y-17789100D02*
G75*
G03*
X3768900Y-17878000I88900J0D01*
G01*
X19796300Y-15985700D02*
X19796300Y-14931600D01*
X20444000Y-17789100D02*
X20444000Y-16074600D01*
D11*
D12*
X6339700Y-15267200D02*
X6379700Y-15307200D01*
X6379700Y-15267200D02*
X6339700Y-15307200D01*
X6784200Y-9730000D02*
X6824200Y-9770000D01*
X6824200Y-9730000D02*
X6784200Y-9770000D01*
X6809600Y-13667000D02*
X6849600Y-13707000D01*
X6849600Y-13667000D02*
X6809600Y-13707000D01*
X6822300Y-11647700D02*
X6862300Y-11687700D01*
X6862300Y-11647700D02*
X6822300Y-11687700D01*
X9438500Y-9717300D02*
X9478500Y-9757300D01*
X9478500Y-9717300D02*
X9438500Y-9757300D01*
X9540100Y-13324100D02*
X9580100Y-13364100D01*
X9580100Y-13324100D02*
X9540100Y-13364100D01*
X9578200Y-11698500D02*
X9618200Y-11738500D01*
X9618200Y-11698500D02*
X9578200Y-11738500D01*
X10149700Y-15241800D02*
X10189700Y-15281800D01*
X10189700Y-15241800D02*
X10149700Y-15281800D01*
X12955550Y-16853000D02*
X12995550Y-16893000D01*
X12995550Y-16853000D02*
X12955550Y-16893000D01*
X12982181Y-16609681D02*
X13022181Y-16649681D01*
X13022181Y-16609681D02*
X12982181Y-16649681D01*
X13143069Y-16910569D02*
X13183069Y-16950569D01*
X13183069Y-16910569D02*
X13143069Y-16950569D01*
X13155500Y-16782950D02*
X13195500Y-16822950D01*
X13195500Y-16782950D02*
X13155500Y-16822950D01*
X13335500Y-16943000D02*
X13375500Y-16983000D01*
X13375500Y-16943000D02*
X13335500Y-16983000D01*
X13543920Y-17073920D02*
X13583920Y-17113920D01*
X13583920Y-17073920D02*
X13543920Y-17113920D01*
X13616370Y-16990400D02*
X13656370Y-17030400D01*
X13656370Y-16990400D02*
X13616370Y-17030400D01*
X13911900Y-16730500D02*
X13951900Y-16770500D01*
X13951900Y-16730500D02*
X13911900Y-16770500D01*
X14216700Y-16820200D02*
X14256700Y-16860200D01*
X14256700Y-16820200D02*
X14216700Y-16860200D01*
X14426500Y-15548000D02*
X14466500Y-15588000D01*
X14466500Y-15548000D02*
X14426500Y-15588000D01*
X14456868Y-15643225D02*
X14496868Y-15683225D01*
X14496868Y-15643225D02*
X14456868Y-15683225D01*
X14486259Y-16614612D02*
X14526259Y-16654612D01*
X14526259Y-16614612D02*
X14486259Y-16654612D01*
X14609115Y-16594215D02*
X14649115Y-16634215D01*
X14649115Y-16594215D02*
X14609115Y-16634215D01*
X14645500Y-14746500D02*
X14685500Y-14786500D01*
X14685500Y-14746500D02*
X14645500Y-14786500D01*
X14699300Y-16495550D02*
X14739300Y-16535550D01*
X14739300Y-16495550D02*
X14699300Y-16535550D01*
X14730569Y-15672931D02*
X14770569Y-15712931D01*
X14770569Y-15672931D02*
X14730569Y-15712931D01*
X14756881Y-14825619D02*
X14796881Y-14865619D01*
X14796881Y-14825619D02*
X14756881Y-14865619D01*
X14780298Y-15457981D02*
X14820298Y-15497981D01*
X14820298Y-15457981D02*
X14780298Y-15497981D01*
X14803644Y-15604740D02*
X14843644Y-15644740D01*
X14843644Y-15604740D02*
X14803644Y-15644740D01*
X14804105Y-16104534D02*
X14844105Y-16144534D01*
X14844105Y-16104534D02*
X14804105Y-16144534D01*
X14848700Y-15368800D02*
X14888700Y-15408800D01*
X14888700Y-15368800D02*
X14848700Y-15408800D01*
X14858481Y-14927219D02*
X14898481Y-14967219D01*
X14898481Y-14927219D02*
X14858481Y-14967219D01*
X14940500Y-16493000D02*
X14980500Y-16533000D01*
X14980500Y-16493000D02*
X14940500Y-16533000D01*
X14990069Y-14741431D02*
X15030069Y-14781431D01*
X15030069Y-14741431D02*
X14990069Y-14781431D01*
X15043050Y-15479230D02*
X15083050Y-15519230D01*
X15083050Y-15479230D02*
X15043050Y-15519230D01*
X15088436Y-16783000D02*
X15128436Y-16823000D01*
X15128436Y-16783000D02*
X15088436Y-16823000D01*
X15203500Y-14723950D02*
X15243500Y-14763950D01*
X15243500Y-14723950D02*
X15203500Y-14763950D01*
X15320500Y-14723950D02*
X15360500Y-14763950D01*
X15360500Y-14723950D02*
X15320500Y-14763950D01*
X15359700Y-14966000D02*
X15399700Y-15006000D01*
X15399700Y-14966000D02*
X15359700Y-15006000D01*
X15397800Y-16831488D02*
X15437800Y-16871488D01*
X15437800Y-16831488D02*
X15397800Y-16871488D01*
X15517908Y-16724796D02*
X15557908Y-16764796D01*
X15557908Y-16724796D02*
X15517908Y-16764796D01*
X15525707Y-16824442D02*
X15565707Y-16864442D01*
X15565707Y-16824442D02*
X15525707Y-16864442D01*
X15610500Y-16511750D02*
X15650500Y-16551750D01*
X15650500Y-16511750D02*
X15610500Y-16551750D01*
X15649748Y-15579350D02*
X15689748Y-15619350D01*
X15689748Y-15579350D02*
X15649748Y-15619350D01*
X15715300Y-16147100D02*
X15755300Y-16187100D01*
X15755300Y-16147100D02*
X15715300Y-16187100D01*
X15728000Y-17074200D02*
X15768000Y-17114200D01*
X15768000Y-17074200D02*
X15728000Y-17114200D01*
X15732881Y-15651800D02*
X15772881Y-15691800D01*
X15772881Y-15651800D02*
X15732881Y-15691800D01*
X15783225Y-16971765D02*
X15823225Y-17011765D01*
X15823225Y-16971765D02*
X15783225Y-17011765D01*
X15867700Y-15000400D02*
X15907700Y-15040400D01*
X15907700Y-15000400D02*
X15867700Y-15040400D01*
X15943900Y-15299150D02*
X15983900Y-15339150D01*
X15983900Y-15299150D02*
X15943900Y-15339150D01*
X16032800Y-16017550D02*
X16072800Y-16057550D01*
X16072800Y-16017550D02*
X16032800Y-16057550D01*
X16392200Y-17063730D02*
X16432200Y-17103730D01*
X16432200Y-17063730D02*
X16392200Y-17103730D01*
X16601300Y-15229100D02*
X16641300Y-15269100D01*
X16641300Y-15229100D02*
X16601300Y-15269100D01*
X17070950Y-14653950D02*
X17110950Y-14693950D01*
X17110950Y-14653950D02*
X17070950Y-14693950D01*
X17112300Y-16921800D02*
X17152300Y-16961800D01*
X17152300Y-16921800D02*
X17112300Y-16961800D01*
X17141400Y-16511700D02*
X17181400Y-16551700D01*
X17181400Y-16511700D02*
X17141400Y-16551700D01*
X17176206Y-16605394D02*
X17216206Y-16645394D01*
X17216206Y-16605394D02*
X17176206Y-16645394D01*
X17310910Y-16547450D02*
X17350910Y-16587450D01*
X17350910Y-16547450D02*
X17310910Y-16587450D01*
X17355500Y-14583950D02*
X17395500Y-14623950D01*
X17395500Y-14583950D02*
X17355500Y-14623950D01*
X17391700Y-16357550D02*
X17431700Y-16397550D01*
X17431700Y-16357550D02*
X17391700Y-16397550D01*
X17428535Y-16562615D02*
X17468535Y-16602615D01*
X17468535Y-16562615D02*
X17428535Y-16602615D01*
X17455448Y-14584550D02*
X17495448Y-14624550D01*
X17495448Y-14584550D02*
X17455448Y-14624550D01*
X17588650Y-16612950D02*
X17628650Y-16652950D01*
X17628650Y-16612950D02*
X17588650Y-16652950D01*
X17720000Y-13480000D02*
X17760000Y-13520000D01*
X17760000Y-13480000D02*
X17720000Y-13520000D01*
X17887000Y-15639100D02*
X17927000Y-15679100D01*
X17927000Y-15639100D02*
X17887000Y-15679100D01*
X18026700Y-15740700D02*
X18066700Y-15780700D01*
X18066700Y-15740700D02*
X18026700Y-15780700D01*
X18166400Y-16850450D02*
X18206400Y-16890450D01*
X18206400Y-16850450D02*
X18166400Y-16890450D01*
X18241706Y-16941971D02*
X18281706Y-16981971D01*
X18281706Y-16941971D02*
X18241706Y-16981971D01*
X18260074Y-16797021D02*
X18300074Y-16837021D01*
X18300074Y-16797021D02*
X18260074Y-16837021D01*
X18327183Y-16722950D02*
X18367183Y-16762950D01*
X18367183Y-16722950D02*
X18327183Y-16762950D01*
X18331500Y-15308900D02*
X18371500Y-15348900D01*
X18371500Y-15308900D02*
X18331500Y-15348900D01*
X18331500Y-15486700D02*
X18371500Y-15526700D01*
X18371500Y-15486700D02*
X18331500Y-15526700D01*
X18420400Y-15677200D02*
X18460400Y-15717200D01*
X18460400Y-15677200D02*
X18420400Y-15717200D01*
X18839500Y-14800900D02*
X18879500Y-14840900D01*
X18879500Y-14800900D02*
X18839500Y-14840900D01*
X19021220Y-15629719D02*
X19061220Y-15669719D01*
X19061220Y-15629719D02*
X19021220Y-15669719D01*
X19090500Y-16016500D02*
X19130500Y-16056500D01*
X19130500Y-16016500D02*
X19090500Y-16056500D01*
X19341150Y-16064550D02*
X19381150Y-16104550D01*
X19381150Y-16064550D02*
X19341150Y-16104550D01*
D13*
X19625100Y-15064800D02*
G75*
G03*
X19625100Y-15064800I-27500J0D01*
G01*
D11*
X19630100Y-15037300D02*
X19565100Y-15037300D01*
X19630100Y-15092300D02*
X19565100Y-15092300D01*
X19565100Y-15037300D02*
G75*
G03*
X19565100Y-15092300I0J-27500D01*
G01*
X19630100Y-15092300D02*
G75*
G03*
X19630100Y-15037300I0J27500D01*
G01*
D13*
X19625100Y-15839800D02*
G75*
G03*
X19625100Y-15839800I-27500J0D01*
G01*
D11*
X19630100Y-15812300D02*
X19565100Y-15812300D01*
X19630100Y-15867300D02*
X19565100Y-15867300D01*
X19565100Y-15812300D02*
G75*
G03*
X19565100Y-15867300I0J-27500D01*
G01*
X19630100Y-15867300D02*
G75*
G03*
X19630100Y-15812300I0J27500D01*
G01*
D14*
X19217600Y-15037300D02*
X19217600Y-15122300D01*
X19175100Y-15079800D02*
X19260100Y-15079800D01*
D11*
X19245100Y-15037300D02*
X19190100Y-15037300D01*
X19245100Y-15122300D02*
X19190100Y-15122300D01*
X19190100Y-15037300D02*
G75*
G03*
X19190100Y-15122300I0J-42500D01*
G01*
X19245100Y-15122300D02*
G75*
G03*
X19245100Y-15037300I0J42500D01*
G01*
D14*
X19217600Y-15782300D02*
X19217600Y-15867300D01*
X19175100Y-15824800D02*
X19260100Y-15824800D01*
D11*
X19245100Y-15782300D02*
X19190100Y-15782300D01*
X19245100Y-15867300D02*
X19190100Y-15867300D01*
X19190100Y-15782300D02*
G75*
G03*
X19190100Y-15867300I0J-42500D01*
G01*
X19245100Y-15867300D02*
G75*
G03*
X19245100Y-15782300I0J42500D01*
G01*
D15*
X17082356Y-6252356D02*
X17082356Y-6181644D01*
X17011644Y-6181644D01*
X17011644Y-6252356D01*
X17082356Y-6252356D01*
X17082356Y-6506356D02*
X17082356Y-6435644D01*
X17011644Y-6435644D01*
X17011644Y-6506356D01*
X17082356Y-6506356D01*
X17082356Y-6760356D02*
X17082356Y-6689644D01*
X17011644Y-6689644D01*
X17011644Y-6760356D01*
X17082356Y-6760356D01*
X17336356Y-6252356D02*
X17336356Y-6181644D01*
X17265644Y-6181644D01*
X17265644Y-6252356D01*
X17336356Y-6252356D01*
X17336356Y-6506356D02*
X17336356Y-6435644D01*
X17265644Y-6435644D01*
X17265644Y-6506356D01*
X17336356Y-6506356D01*
X17336356Y-6760356D02*
X17336356Y-6689644D01*
X17265644Y-6689644D01*
X17265644Y-6760356D01*
X17336356Y-6760356D01*
D16*
X4894500Y-8288500D02*
X4958000Y-8225000D01*
X4894500Y-8161500D01*
X4831000Y-8225000D01*
X4894500Y-8288500D01*
X4894500Y-10193500D02*
X4958000Y-10130000D01*
X4894500Y-10066500D01*
X4831000Y-10130000D01*
X4894500Y-10193500D01*
X4894500Y-12098500D02*
X4958000Y-12035000D01*
X4894500Y-11971500D01*
X4831000Y-12035000D01*
X4894500Y-12098500D01*
X4894500Y-14003500D02*
X4958000Y-13940000D01*
X4894500Y-13876500D01*
X4831000Y-13940000D01*
X4894500Y-14003500D01*
X4894500Y-15908500D02*
X4958000Y-15845000D01*
X4894500Y-15781500D01*
X4831000Y-15845000D01*
X4894500Y-15908500D01*
X5394500Y-8498500D02*
X5458000Y-8435000D01*
X5394500Y-8371500D01*
X5331000Y-8435000D01*
X5394500Y-8498500D01*
X5394500Y-10403500D02*
X5458000Y-10340000D01*
X5394500Y-10276500D01*
X5331000Y-10340000D01*
X5394500Y-10403500D01*
X5394500Y-12308500D02*
X5458000Y-12245000D01*
X5394500Y-12181500D01*
X5331000Y-12245000D01*
X5394500Y-12308500D01*
X5394500Y-14213500D02*
X5458000Y-14150000D01*
X5394500Y-14086500D01*
X5331000Y-14150000D01*
X5394500Y-14213500D01*
X5394500Y-16118500D02*
X5458000Y-16055000D01*
X5394500Y-15991500D01*
X5331000Y-16055000D01*
X5394500Y-16118500D01*
X6799500Y-8288500D02*
X6863000Y-8225000D01*
X6799500Y-8161500D01*
X6736000Y-8225000D01*
X6799500Y-8288500D01*
X6799500Y-15908500D02*
X6863000Y-15845000D01*
X6799500Y-15781500D01*
X6736000Y-15845000D01*
X6799500Y-15908500D01*
X7299500Y-8498500D02*
X7363000Y-8435000D01*
X7299500Y-8371500D01*
X7236000Y-8435000D01*
X7299500Y-8498500D01*
X7299500Y-16118500D02*
X7363000Y-16055000D01*
X7299500Y-15991500D01*
X7236000Y-16055000D01*
X7299500Y-16118500D01*
X7752000Y-10193500D02*
X7815500Y-10130000D01*
X7752000Y-10066500D01*
X7688500Y-10130000D01*
X7752000Y-10193500D01*
X7752000Y-12098500D02*
X7815500Y-12035000D01*
X7752000Y-11971500D01*
X7688500Y-12035000D01*
X7752000Y-12098500D01*
X7752000Y-14003500D02*
X7815500Y-13940000D01*
X7752000Y-13876500D01*
X7688500Y-13940000D01*
X7752000Y-14003500D01*
X8252000Y-10403500D02*
X8315500Y-10340000D01*
X8252000Y-10276500D01*
X8188500Y-10340000D01*
X8252000Y-10403500D01*
X8252000Y-12308500D02*
X8315500Y-12245000D01*
X8252000Y-12181500D01*
X8188500Y-12245000D01*
X8252000Y-12308500D01*
X8252000Y-14213500D02*
X8315500Y-14150000D01*
X8252000Y-14086500D01*
X8188500Y-14150000D01*
X8252000Y-14213500D01*
X8704500Y-8288500D02*
X8768000Y-8225000D01*
X8704500Y-8161500D01*
X8641000Y-8225000D01*
X8704500Y-8288500D01*
X8704500Y-15908500D02*
X8768000Y-15845000D01*
X8704500Y-15781500D01*
X8641000Y-15845000D01*
X8704500Y-15908500D01*
X9204500Y-8498500D02*
X9268000Y-8435000D01*
X9204500Y-8371500D01*
X9141000Y-8435000D01*
X9204500Y-8498500D01*
X9204500Y-16118500D02*
X9268000Y-16055000D01*
X9204500Y-15991500D01*
X9141000Y-16055000D01*
X9204500Y-16118500D01*
X10609500Y-8288500D02*
X10673000Y-8225000D01*
X10609500Y-8161500D01*
X10546000Y-8225000D01*
X10609500Y-8288500D01*
X10609500Y-10193500D02*
X10673000Y-10130000D01*
X10609500Y-10066500D01*
X10546000Y-10130000D01*
X10609500Y-10193500D01*
X10609500Y-12098500D02*
X10673000Y-12035000D01*
X10609500Y-11971500D01*
X10546000Y-12035000D01*
X10609500Y-12098500D01*
X10609500Y-14003500D02*
X10673000Y-13940000D01*
X10609500Y-13876500D01*
X10546000Y-13940000D01*
X10609500Y-14003500D01*
X10609500Y-15908500D02*
X10673000Y-15845000D01*
X10609500Y-15781500D01*
X10546000Y-15845000D01*
X10609500Y-15908500D01*
X11109500Y-8498500D02*
X11173000Y-8435000D01*
X11109500Y-8371500D01*
X11046000Y-8435000D01*
X11109500Y-8498500D01*
X11109500Y-10403500D02*
X11173000Y-10340000D01*
X11109500Y-10276500D01*
X11046000Y-10340000D01*
X11109500Y-10403500D01*
X11109500Y-12308500D02*
X11173000Y-12245000D01*
X11109500Y-12181500D01*
X11046000Y-12245000D01*
X11109500Y-12308500D01*
X11109500Y-14213500D02*
X11173000Y-14150000D01*
X11109500Y-14086500D01*
X11046000Y-14150000D01*
X11109500Y-14213500D01*
X11109500Y-16118500D02*
X11173000Y-16055000D01*
X11109500Y-15991500D01*
X11046000Y-16055000D01*
X11109500Y-16118500D01*
X12514500Y-8288500D02*
X12578000Y-8225000D01*
X12514500Y-8161500D01*
X12451000Y-8225000D01*
X12514500Y-8288500D01*
X12514500Y-10193500D02*
X12578000Y-10130000D01*
X12514500Y-10066500D01*
X12451000Y-10130000D01*
X12514500Y-10193500D01*
X12514500Y-12098500D02*
X12578000Y-12035000D01*
X12514500Y-11971500D01*
X12451000Y-12035000D01*
X12514500Y-12098500D01*
X12514500Y-14003500D02*
X12578000Y-13940000D01*
X12514500Y-13876500D01*
X12451000Y-13940000D01*
X12514500Y-14003500D01*
X12514500Y-15908500D02*
X12578000Y-15845000D01*
X12514500Y-15781500D01*
X12451000Y-15845000D01*
X12514500Y-15908500D01*
X13014500Y-8498500D02*
X13078000Y-8435000D01*
X13014500Y-8371500D01*
X12951000Y-8435000D01*
X13014500Y-8498500D01*
X13014500Y-10403500D02*
X13078000Y-10340000D01*
X13014500Y-10276500D01*
X12951000Y-10340000D01*
X13014500Y-10403500D01*
X13014500Y-12308500D02*
X13078000Y-12245000D01*
X13014500Y-12181500D01*
X12951000Y-12245000D01*
X13014500Y-12308500D01*
X13014500Y-14213500D02*
X13078000Y-14150000D01*
X13014500Y-14086500D01*
X12951000Y-14150000D01*
X13014500Y-14213500D01*
X13014500Y-16118500D02*
X13078000Y-16055000D01*
X13014500Y-15991500D01*
X12951000Y-16055000D01*
X13014500Y-16118500D01*
X14419500Y-8288500D02*
X14483000Y-8225000D01*
X14419500Y-8161500D01*
X14356000Y-8225000D01*
X14419500Y-8288500D01*
X14419500Y-10193500D02*
X14483000Y-10130000D01*
X14419500Y-10066500D01*
X14356000Y-10130000D01*
X14419500Y-10193500D01*
X14419500Y-12098500D02*
X14483000Y-12035000D01*
X14419500Y-11971500D01*
X14356000Y-12035000D01*
X14419500Y-12098500D01*
X14419500Y-14003500D02*
X14483000Y-13940000D01*
X14419500Y-13876500D01*
X14356000Y-13940000D01*
X14419500Y-14003500D01*
X14919500Y-8498500D02*
X14983000Y-8435000D01*
X14919500Y-8371500D01*
X14856000Y-8435000D01*
X14919500Y-8498500D01*
X14919500Y-10403500D02*
X14983000Y-10340000D01*
X14919500Y-10276500D01*
X14856000Y-10340000D01*
X14919500Y-10403500D01*
X14919500Y-12308500D02*
X14983000Y-12245000D01*
X14919500Y-12181500D01*
X14856000Y-12245000D01*
X14919500Y-12308500D01*
X14919500Y-14213500D02*
X14983000Y-14150000D01*
X14919500Y-14086500D01*
X14856000Y-14150000D01*
X14919500Y-14213500D01*
X16324500Y-8288500D02*
X16388000Y-8225000D01*
X16324500Y-8161500D01*
X16261000Y-8225000D01*
X16324500Y-8288500D01*
X16324500Y-10193500D02*
X16388000Y-10130000D01*
X16324500Y-10066500D01*
X16261000Y-10130000D01*
X16324500Y-10193500D01*
X16324500Y-12098500D02*
X16388000Y-12035000D01*
X16324500Y-11971500D01*
X16261000Y-12035000D01*
X16324500Y-12098500D01*
X16324500Y-14003500D02*
X16388000Y-13940000D01*
X16324500Y-13876500D01*
X16261000Y-13940000D01*
X16324500Y-14003500D01*
X16324500Y-15908500D02*
X16388000Y-15845000D01*
X16324500Y-15781500D01*
X16261000Y-15845000D01*
X16324500Y-15908500D01*
X16824500Y-8498500D02*
X16888000Y-8435000D01*
X16824500Y-8371500D01*
X16761000Y-8435000D01*
X16824500Y-8498500D01*
X16824500Y-10403500D02*
X16888000Y-10340000D01*
X16824500Y-10276500D01*
X16761000Y-10340000D01*
X16824500Y-10403500D01*
X16824500Y-12308500D02*
X16888000Y-12245000D01*
X16824500Y-12181500D01*
X16761000Y-12245000D01*
X16824500Y-12308500D01*
X16824500Y-14213500D02*
X16888000Y-14150000D01*
X16824500Y-14086500D01*
X16761000Y-14150000D01*
X16824500Y-14213500D01*
X16824500Y-16118500D02*
X16888000Y-16055000D01*
X16824500Y-15991500D01*
X16761000Y-16055000D01*
X16824500Y-16118500D01*
X18229500Y-8288500D02*
X18293000Y-8225000D01*
X18229500Y-8161500D01*
X18166000Y-8225000D01*
X18229500Y-8288500D01*
X18229500Y-10193500D02*
X18293000Y-10130000D01*
X18229500Y-10066500D01*
X18166000Y-10130000D01*
X18229500Y-10193500D01*
X18229500Y-12098500D02*
X18293000Y-12035000D01*
X18229500Y-11971500D01*
X18166000Y-12035000D01*
X18229500Y-12098500D01*
X18229500Y-14003500D02*
X18293000Y-13940000D01*
X18229500Y-13876500D01*
X18166000Y-13940000D01*
X18229500Y-14003500D01*
X18729500Y-8498500D02*
X18793000Y-8435000D01*
X18729500Y-8371500D01*
X18666000Y-8435000D01*
X18729500Y-8498500D01*
X18729500Y-10403500D02*
X18793000Y-10340000D01*
X18729500Y-10276500D01*
X18666000Y-10340000D01*
X18729500Y-10403500D01*
X18729500Y-12308500D02*
X18793000Y-12245000D01*
X18729500Y-12181500D01*
X18666000Y-12245000D01*
X18729500Y-12308500D01*
X18729500Y-14213500D02*
X18793000Y-14150000D01*
X18729500Y-14086500D01*
X18666000Y-14150000D01*
X18729500Y-14213500D01*
D11*
X3935119Y-18190976D02*
X3935119Y-17990976D01*
X3982738Y-17990976D01*
X4011309Y-18000500D01*
X4030357Y-18019548D01*
X4039881Y-18038595D01*
X4049405Y-18076690D01*
X4049405Y-18105262D01*
X4039881Y-18143357D01*
X4030357Y-18162405D01*
X4011309Y-18181452D01*
X3982738Y-18190976D01*
X3935119Y-18190976D01*
X4135119Y-18190976D02*
X4135119Y-18057643D01*
X4135119Y-18095738D02*
X4144643Y-18076690D01*
X4154167Y-18067167D01*
X4173214Y-18057643D01*
X4192262Y-18057643D01*
X4258929Y-18190976D02*
X4258929Y-18057643D01*
X4258929Y-17990976D02*
X4249405Y-18000500D01*
X4258929Y-18010024D01*
X4268452Y-18000500D01*
X4258929Y-17990976D01*
X4258929Y-18010024D01*
X4382738Y-18190976D02*
X4363690Y-18181452D01*
X4354167Y-18162405D01*
X4354167Y-17990976D01*
X4487500Y-18190976D02*
X4468452Y-18181452D01*
X4458929Y-18162405D01*
X4458929Y-17990976D01*
X4716071Y-18190976D02*
X4716071Y-17990976D01*
X4782738Y-18133833D01*
X4849405Y-17990976D01*
X4849405Y-18190976D01*
X5030357Y-18190976D02*
X5030357Y-18086214D01*
X5020833Y-18067167D01*
X5001786Y-18057643D01*
X4963690Y-18057643D01*
X4944643Y-18067167D01*
X5030357Y-18181452D02*
X5011310Y-18190976D01*
X4963690Y-18190976D01*
X4944643Y-18181452D01*
X4935119Y-18162405D01*
X4935119Y-18143357D01*
X4944643Y-18124310D01*
X4963690Y-18114786D01*
X5011310Y-18114786D01*
X5030357Y-18105262D01*
X5125595Y-18057643D02*
X5125595Y-18257643D01*
X5125595Y-18067167D02*
X5144643Y-18057643D01*
X5182738Y-18057643D01*
X5201786Y-18067167D01*
X5211310Y-18076690D01*
X5220833Y-18095738D01*
X5220833Y-18152881D01*
X5211310Y-18171929D01*
X5201786Y-18181452D01*
X5182738Y-18190976D01*
X5144643Y-18190976D01*
X5125595Y-18181452D01*
X5306548Y-18171929D02*
X5316071Y-18181452D01*
X5306548Y-18190976D01*
X5297024Y-18181452D01*
X5306548Y-18171929D01*
X5306548Y-18190976D01*
X5306548Y-18067167D02*
X5316071Y-18076690D01*
X5306548Y-18086214D01*
X5297024Y-18076690D01*
X5306548Y-18067167D01*
X5306548Y-18086214D01*
D12*
X3637500Y-18500500D02*
X3677500Y-18540500D01*
X3677500Y-18500500D02*
X3637500Y-18540500D01*
D11*
X3973214Y-18410976D02*
X3992262Y-18410976D01*
X4011309Y-18420500D01*
X4020833Y-18430024D01*
X4030357Y-18449071D01*
X4039881Y-18487167D01*
X4039881Y-18534786D01*
X4030357Y-18572881D01*
X4020833Y-18591929D01*
X4011309Y-18601452D01*
X3992262Y-18610976D01*
X3973214Y-18610976D01*
X3954167Y-18601452D01*
X3944643Y-18591929D01*
X3935119Y-18572881D01*
X3925595Y-18534786D01*
X3925595Y-18487167D01*
X3935119Y-18449071D01*
X3944643Y-18430024D01*
X3954167Y-18420500D01*
X3973214Y-18410976D01*
X4125595Y-18591929D02*
X4135119Y-18601452D01*
X4125595Y-18610976D01*
X4116071Y-18601452D01*
X4125595Y-18591929D01*
X4125595Y-18610976D01*
X4306548Y-18477643D02*
X4306548Y-18610976D01*
X4258929Y-18401452D02*
X4211310Y-18544310D01*
X4335119Y-18544310D01*
X4449405Y-18410976D02*
X4468452Y-18410976D01*
X4487500Y-18420500D01*
X4497024Y-18430024D01*
X4506548Y-18449071D01*
X4516071Y-18487167D01*
X4516071Y-18534786D01*
X4506548Y-18572881D01*
X4497024Y-18591929D01*
X4487500Y-18601452D01*
X4468452Y-18610976D01*
X4449405Y-18610976D01*
X4430357Y-18601452D01*
X4420833Y-18591929D01*
X4411310Y-18572881D01*
X4401786Y-18534786D01*
X4401786Y-18487167D01*
X4411310Y-18449071D01*
X4420833Y-18430024D01*
X4430357Y-18420500D01*
X4449405Y-18410976D01*
X4639881Y-18410976D02*
X4658929Y-18410976D01*
X4677976Y-18420500D01*
X4687500Y-18430024D01*
X4697024Y-18449071D01*
X4706548Y-18487167D01*
X4706548Y-18534786D01*
X4697024Y-18572881D01*
X4687500Y-18591929D01*
X4677976Y-18601452D01*
X4658929Y-18610976D01*
X4639881Y-18610976D01*
X4620833Y-18601452D01*
X4611310Y-18591929D01*
X4601786Y-18572881D01*
X4592262Y-18534786D01*
X4592262Y-18487167D01*
X4601786Y-18449071D01*
X4611310Y-18430024D01*
X4620833Y-18420500D01*
X4639881Y-18410976D01*
X4792262Y-18610976D02*
X4792262Y-18477643D01*
X4792262Y-18496690D02*
X4801786Y-18487167D01*
X4820833Y-18477643D01*
X4849405Y-18477643D01*
X4868452Y-18487167D01*
X4877976Y-18506214D01*
X4877976Y-18610976D01*
X4877976Y-18506214D02*
X4887500Y-18487167D01*
X4906548Y-18477643D01*
X4935119Y-18477643D01*
X4954167Y-18487167D01*
X4963690Y-18506214D01*
X4963690Y-18610976D01*
X5058929Y-18610976D02*
X5058929Y-18477643D01*
X5058929Y-18496690D02*
X5068452Y-18487167D01*
X5087500Y-18477643D01*
X5116071Y-18477643D01*
X5135119Y-18487167D01*
X5144643Y-18506214D01*
X5144643Y-18610976D01*
X5144643Y-18506214D02*
X5154167Y-18487167D01*
X5173214Y-18477643D01*
X5201786Y-18477643D01*
X5220833Y-18487167D01*
X5230357Y-18506214D01*
X5230357Y-18610976D01*
X5620833Y-18401452D02*
X5449405Y-18658595D01*
X5877976Y-18410976D02*
X5897024Y-18410976D01*
X5916071Y-18420500D01*
X5925595Y-18430024D01*
X5935119Y-18449071D01*
X5944643Y-18487167D01*
X5944643Y-18534786D01*
X5935119Y-18572881D01*
X5925595Y-18591929D01*
X5916071Y-18601452D01*
X5897024Y-18610976D01*
X5877976Y-18610976D01*
X5858928Y-18601452D01*
X5849405Y-18591929D01*
X5839881Y-18572881D01*
X5830357Y-18534786D01*
X5830357Y-18487167D01*
X5839881Y-18449071D01*
X5849405Y-18430024D01*
X5858928Y-18420500D01*
X5877976Y-18410976D01*
X6030357Y-18591929D02*
X6039881Y-18601452D01*
X6030357Y-18610976D01*
X6020833Y-18601452D01*
X6030357Y-18591929D01*
X6030357Y-18610976D01*
X6163690Y-18410976D02*
X6182738Y-18410976D01*
X6201786Y-18420500D01*
X6211309Y-18430024D01*
X6220833Y-18449071D01*
X6230357Y-18487167D01*
X6230357Y-18534786D01*
X6220833Y-18572881D01*
X6211309Y-18591929D01*
X6201786Y-18601452D01*
X6182738Y-18610976D01*
X6163690Y-18610976D01*
X6144643Y-18601452D01*
X6135119Y-18591929D01*
X6125595Y-18572881D01*
X6116071Y-18534786D01*
X6116071Y-18487167D01*
X6125595Y-18449071D01*
X6135119Y-18430024D01*
X6144643Y-18420500D01*
X6163690Y-18410976D01*
X6420833Y-18610976D02*
X6306548Y-18610976D01*
X6363690Y-18610976D02*
X6363690Y-18410976D01*
X6344643Y-18439548D01*
X6325595Y-18458595D01*
X6306548Y-18468119D01*
X6601786Y-18410976D02*
X6506548Y-18410976D01*
X6497024Y-18506214D01*
X6506548Y-18496690D01*
X6525595Y-18487167D01*
X6573214Y-18487167D01*
X6592262Y-18496690D01*
X6601786Y-18506214D01*
X6611309Y-18525262D01*
X6611309Y-18572881D01*
X6601786Y-18591929D01*
X6592262Y-18601452D01*
X6573214Y-18610976D01*
X6525595Y-18610976D01*
X6506548Y-18601452D01*
X6497024Y-18591929D01*
X6677976Y-18410976D02*
X6811309Y-18410976D01*
X6725595Y-18610976D01*
X6877976Y-18410976D02*
X6877976Y-18449071D01*
X6954167Y-18410976D02*
X6954167Y-18449071D01*
X7249405Y-18687167D02*
X7239881Y-18677643D01*
X7220833Y-18649071D01*
X7211309Y-18630024D01*
X7201786Y-18601452D01*
X7192262Y-18553833D01*
X7192262Y-18515738D01*
X7201786Y-18468119D01*
X7211309Y-18439548D01*
X7220833Y-18420500D01*
X7239881Y-18391929D01*
X7249405Y-18382405D01*
X7306548Y-18410976D02*
X7439881Y-18410976D01*
X7354167Y-18610976D01*
X7611309Y-18410976D02*
X7516071Y-18410976D01*
X7506548Y-18506214D01*
X7516071Y-18496690D01*
X7535119Y-18487167D01*
X7582738Y-18487167D01*
X7601786Y-18496690D01*
X7611309Y-18506214D01*
X7620833Y-18525262D01*
X7620833Y-18572881D01*
X7611309Y-18591929D01*
X7601786Y-18601452D01*
X7582738Y-18610976D01*
X7535119Y-18610976D01*
X7516071Y-18601452D01*
X7506548Y-18591929D01*
X7858928Y-18610976D02*
X7858928Y-18410976D01*
X7944643Y-18610976D02*
X7944643Y-18506214D01*
X7935119Y-18487167D01*
X7916071Y-18477643D01*
X7887500Y-18477643D01*
X7868452Y-18487167D01*
X7858928Y-18496690D01*
X8068452Y-18610976D02*
X8049405Y-18601452D01*
X8039881Y-18591929D01*
X8030357Y-18572881D01*
X8030357Y-18515738D01*
X8039881Y-18496690D01*
X8049405Y-18487167D01*
X8068452Y-18477643D01*
X8097024Y-18477643D01*
X8116071Y-18487167D01*
X8125595Y-18496690D01*
X8135119Y-18515738D01*
X8135119Y-18572881D01*
X8125595Y-18591929D01*
X8116071Y-18601452D01*
X8097024Y-18610976D01*
X8068452Y-18610976D01*
X8249405Y-18610976D02*
X8230357Y-18601452D01*
X8220833Y-18582405D01*
X8220833Y-18410976D01*
X8401786Y-18601452D02*
X8382738Y-18610976D01*
X8344643Y-18610976D01*
X8325595Y-18601452D01*
X8316071Y-18582405D01*
X8316071Y-18506214D01*
X8325595Y-18487167D01*
X8344643Y-18477643D01*
X8382738Y-18477643D01*
X8401786Y-18487167D01*
X8411310Y-18506214D01*
X8411310Y-18525262D01*
X8316071Y-18544310D01*
X8487500Y-18601452D02*
X8506548Y-18610976D01*
X8544643Y-18610976D01*
X8563690Y-18601452D01*
X8573214Y-18582405D01*
X8573214Y-18572881D01*
X8563690Y-18553833D01*
X8544643Y-18544310D01*
X8516071Y-18544310D01*
X8497024Y-18534786D01*
X8487500Y-18515738D01*
X8487500Y-18506214D01*
X8497024Y-18487167D01*
X8516071Y-18477643D01*
X8544643Y-18477643D01*
X8563690Y-18487167D01*
X8639881Y-18687167D02*
X8649405Y-18677643D01*
X8668452Y-18649071D01*
X8677976Y-18630024D01*
X8687500Y-18601452D01*
X8697024Y-18553833D01*
X8697024Y-18515738D01*
X8687500Y-18468119D01*
X8677976Y-18439548D01*
X8668452Y-18420500D01*
X8649405Y-18391929D01*
X8639881Y-18382405D01*
D13*
X3677500Y-18784500D02*
G75*
G03*
X3677500Y-18784500I-27500J0D01*
G01*
D11*
X3973214Y-18674976D02*
X3992262Y-18674976D01*
X4011309Y-18684500D01*
X4020833Y-18694024D01*
X4030357Y-18713071D01*
X4039881Y-18751167D01*
X4039881Y-18798786D01*
X4030357Y-18836881D01*
X4020833Y-18855929D01*
X4011309Y-18865452D01*
X3992262Y-18874976D01*
X3973214Y-18874976D01*
X3954167Y-18865452D01*
X3944643Y-18855929D01*
X3935119Y-18836881D01*
X3925595Y-18798786D01*
X3925595Y-18751167D01*
X3935119Y-18713071D01*
X3944643Y-18694024D01*
X3954167Y-18684500D01*
X3973214Y-18674976D01*
X4125595Y-18855929D02*
X4135119Y-18865452D01*
X4125595Y-18874976D01*
X4116071Y-18865452D01*
X4125595Y-18855929D01*
X4125595Y-18874976D01*
X4316071Y-18674976D02*
X4220833Y-18674976D01*
X4211310Y-18770214D01*
X4220833Y-18760690D01*
X4239881Y-18751167D01*
X4287500Y-18751167D01*
X4306548Y-18760690D01*
X4316071Y-18770214D01*
X4325595Y-18789262D01*
X4325595Y-18836881D01*
X4316071Y-18855929D01*
X4306548Y-18865452D01*
X4287500Y-18874976D01*
X4239881Y-18874976D01*
X4220833Y-18865452D01*
X4211310Y-18855929D01*
X4506548Y-18674976D02*
X4411310Y-18674976D01*
X4401786Y-18770214D01*
X4411310Y-18760690D01*
X4430357Y-18751167D01*
X4477976Y-18751167D01*
X4497024Y-18760690D01*
X4506548Y-18770214D01*
X4516071Y-18789262D01*
X4516071Y-18836881D01*
X4506548Y-18855929D01*
X4497024Y-18865452D01*
X4477976Y-18874976D01*
X4430357Y-18874976D01*
X4411310Y-18865452D01*
X4401786Y-18855929D01*
X4639881Y-18674976D02*
X4658929Y-18674976D01*
X4677976Y-18684500D01*
X4687500Y-18694024D01*
X4697024Y-18713071D01*
X4706548Y-18751167D01*
X4706548Y-18798786D01*
X4697024Y-18836881D01*
X4687500Y-18855929D01*
X4677976Y-18865452D01*
X4658929Y-18874976D01*
X4639881Y-18874976D01*
X4620833Y-18865452D01*
X4611310Y-18855929D01*
X4601786Y-18836881D01*
X4592262Y-18798786D01*
X4592262Y-18751167D01*
X4601786Y-18713071D01*
X4611310Y-18694024D01*
X4620833Y-18684500D01*
X4639881Y-18674976D01*
X4792262Y-18874976D02*
X4792262Y-18741643D01*
X4792262Y-18760690D02*
X4801786Y-18751167D01*
X4820833Y-18741643D01*
X4849405Y-18741643D01*
X4868452Y-18751167D01*
X4877976Y-18770214D01*
X4877976Y-18874976D01*
X4877976Y-18770214D02*
X4887500Y-18751167D01*
X4906548Y-18741643D01*
X4935119Y-18741643D01*
X4954167Y-18751167D01*
X4963690Y-18770214D01*
X4963690Y-18874976D01*
X5058929Y-18874976D02*
X5058929Y-18741643D01*
X5058929Y-18760690D02*
X5068452Y-18751167D01*
X5087500Y-18741643D01*
X5116071Y-18741643D01*
X5135119Y-18751167D01*
X5144643Y-18770214D01*
X5144643Y-18874976D01*
X5144643Y-18770214D02*
X5154167Y-18751167D01*
X5173214Y-18741643D01*
X5201786Y-18741643D01*
X5220833Y-18751167D01*
X5230357Y-18770214D01*
X5230357Y-18874976D01*
X5620833Y-18665452D02*
X5449405Y-18922595D01*
X5877976Y-18674976D02*
X5897024Y-18674976D01*
X5916071Y-18684500D01*
X5925595Y-18694024D01*
X5935119Y-18713071D01*
X5944643Y-18751167D01*
X5944643Y-18798786D01*
X5935119Y-18836881D01*
X5925595Y-18855929D01*
X5916071Y-18865452D01*
X5897024Y-18874976D01*
X5877976Y-18874976D01*
X5858928Y-18865452D01*
X5849405Y-18855929D01*
X5839881Y-18836881D01*
X5830357Y-18798786D01*
X5830357Y-18751167D01*
X5839881Y-18713071D01*
X5849405Y-18694024D01*
X5858928Y-18684500D01*
X5877976Y-18674976D01*
X6030357Y-18855929D02*
X6039881Y-18865452D01*
X6030357Y-18874976D01*
X6020833Y-18865452D01*
X6030357Y-18855929D01*
X6030357Y-18874976D01*
X6163690Y-18674976D02*
X6182738Y-18674976D01*
X6201786Y-18684500D01*
X6211309Y-18694024D01*
X6220833Y-18713071D01*
X6230357Y-18751167D01*
X6230357Y-18798786D01*
X6220833Y-18836881D01*
X6211309Y-18855929D01*
X6201786Y-18865452D01*
X6182738Y-18874976D01*
X6163690Y-18874976D01*
X6144643Y-18865452D01*
X6135119Y-18855929D01*
X6125595Y-18836881D01*
X6116071Y-18798786D01*
X6116071Y-18751167D01*
X6125595Y-18713071D01*
X6135119Y-18694024D01*
X6144643Y-18684500D01*
X6163690Y-18674976D01*
X6306548Y-18694024D02*
X6316071Y-18684500D01*
X6335119Y-18674976D01*
X6382738Y-18674976D01*
X6401786Y-18684500D01*
X6411309Y-18694024D01*
X6420833Y-18713071D01*
X6420833Y-18732119D01*
X6411309Y-18760690D01*
X6297024Y-18874976D01*
X6420833Y-18874976D01*
X6611309Y-18874976D02*
X6497024Y-18874976D01*
X6554167Y-18874976D02*
X6554167Y-18674976D01*
X6535119Y-18703548D01*
X6516071Y-18722595D01*
X6497024Y-18732119D01*
X6677976Y-18674976D02*
X6811309Y-18674976D01*
X6725595Y-18874976D01*
X6877976Y-18674976D02*
X6877976Y-18713071D01*
X6954167Y-18674976D02*
X6954167Y-18713071D01*
X7249405Y-18951167D02*
X7239881Y-18941643D01*
X7220833Y-18913071D01*
X7211309Y-18894024D01*
X7201786Y-18865452D01*
X7192262Y-18817833D01*
X7192262Y-18779738D01*
X7201786Y-18732119D01*
X7211309Y-18703548D01*
X7220833Y-18684500D01*
X7239881Y-18655929D01*
X7249405Y-18646405D01*
X7363690Y-18674976D02*
X7382738Y-18674976D01*
X7401786Y-18684500D01*
X7411309Y-18694024D01*
X7420833Y-18713071D01*
X7430357Y-18751167D01*
X7430357Y-18798786D01*
X7420833Y-18836881D01*
X7411309Y-18855929D01*
X7401786Y-18865452D01*
X7382738Y-18874976D01*
X7363690Y-18874976D01*
X7344643Y-18865452D01*
X7335119Y-18855929D01*
X7325595Y-18836881D01*
X7316071Y-18798786D01*
X7316071Y-18751167D01*
X7325595Y-18713071D01*
X7335119Y-18694024D01*
X7344643Y-18684500D01*
X7363690Y-18674976D01*
X7668452Y-18874976D02*
X7668452Y-18674976D01*
X7754167Y-18874976D02*
X7754167Y-18770214D01*
X7744643Y-18751167D01*
X7725595Y-18741643D01*
X7697024Y-18741643D01*
X7677976Y-18751167D01*
X7668452Y-18760690D01*
X7877976Y-18874976D02*
X7858928Y-18865452D01*
X7849405Y-18855929D01*
X7839881Y-18836881D01*
X7839881Y-18779738D01*
X7849405Y-18760690D01*
X7858928Y-18751167D01*
X7877976Y-18741643D01*
X7906548Y-18741643D01*
X7925595Y-18751167D01*
X7935119Y-18760690D01*
X7944643Y-18779738D01*
X7944643Y-18836881D01*
X7935119Y-18855929D01*
X7925595Y-18865452D01*
X7906548Y-18874976D01*
X7877976Y-18874976D01*
X8058928Y-18874976D02*
X8039881Y-18865452D01*
X8030357Y-18846405D01*
X8030357Y-18674976D01*
X8211309Y-18865452D02*
X8192262Y-18874976D01*
X8154167Y-18874976D01*
X8135119Y-18865452D01*
X8125595Y-18846405D01*
X8125595Y-18770214D01*
X8135119Y-18751167D01*
X8154167Y-18741643D01*
X8192262Y-18741643D01*
X8211309Y-18751167D01*
X8220833Y-18770214D01*
X8220833Y-18789262D01*
X8125595Y-18808310D01*
X8297024Y-18865452D02*
X8316071Y-18874976D01*
X8354167Y-18874976D01*
X8373214Y-18865452D01*
X8382738Y-18846405D01*
X8382738Y-18836881D01*
X8373214Y-18817833D01*
X8354167Y-18808310D01*
X8325595Y-18808310D01*
X8306548Y-18798786D01*
X8297024Y-18779738D01*
X8297024Y-18770214D01*
X8306548Y-18751167D01*
X8325595Y-18741643D01*
X8354167Y-18741643D01*
X8373214Y-18751167D01*
X8620833Y-18798786D02*
X8773214Y-18798786D01*
X8697024Y-18874976D02*
X8697024Y-18722595D01*
X9011310Y-18694024D02*
X9020833Y-18684500D01*
X9039881Y-18674976D01*
X9087500Y-18674976D01*
X9106548Y-18684500D01*
X9116071Y-18694024D01*
X9125595Y-18713071D01*
X9125595Y-18732119D01*
X9116071Y-18760690D01*
X9001786Y-18874976D01*
X9125595Y-18874976D01*
X9354167Y-18865452D02*
X9373214Y-18874976D01*
X9411310Y-18874976D01*
X9430357Y-18865452D01*
X9439881Y-18846405D01*
X9439881Y-18836881D01*
X9430357Y-18817833D01*
X9411310Y-18808310D01*
X9382738Y-18808310D01*
X9363690Y-18798786D01*
X9354167Y-18779738D01*
X9354167Y-18770214D01*
X9363690Y-18751167D01*
X9382738Y-18741643D01*
X9411310Y-18741643D01*
X9430357Y-18751167D01*
X9554167Y-18874976D02*
X9535119Y-18865452D01*
X9525595Y-18846405D01*
X9525595Y-18674976D01*
X9658929Y-18874976D02*
X9639881Y-18865452D01*
X9630357Y-18855929D01*
X9620833Y-18836881D01*
X9620833Y-18779738D01*
X9630357Y-18760690D01*
X9639881Y-18751167D01*
X9658929Y-18741643D01*
X9687500Y-18741643D01*
X9706548Y-18751167D01*
X9716071Y-18760690D01*
X9725595Y-18779738D01*
X9725595Y-18836881D01*
X9716071Y-18855929D01*
X9706548Y-18865452D01*
X9687500Y-18874976D01*
X9658929Y-18874976D01*
X9782738Y-18741643D02*
X9858929Y-18741643D01*
X9811310Y-18674976D02*
X9811310Y-18846405D01*
X9820833Y-18865452D01*
X9839881Y-18874976D01*
X9858929Y-18874976D01*
X9916071Y-18865452D02*
X9935119Y-18874976D01*
X9973214Y-18874976D01*
X9992262Y-18865452D01*
X10001786Y-18846405D01*
X10001786Y-18836881D01*
X9992262Y-18817833D01*
X9973214Y-18808310D01*
X9944643Y-18808310D01*
X9925595Y-18798786D01*
X9916071Y-18779738D01*
X9916071Y-18770214D01*
X9925595Y-18751167D01*
X9944643Y-18741643D01*
X9973214Y-18741643D01*
X9992262Y-18751167D01*
X10068452Y-18951167D02*
X10077976Y-18941643D01*
X10097024Y-18913071D01*
X10106548Y-18894024D01*
X10116071Y-18865452D01*
X10125595Y-18817833D01*
X10125595Y-18779738D01*
X10116071Y-18732119D01*
X10106548Y-18703548D01*
X10097024Y-18684500D01*
X10077976Y-18655929D01*
X10068452Y-18646405D01*
D14*
X3635000Y-19006000D02*
X3635000Y-19091000D01*
X3592500Y-19048500D02*
X3677500Y-19048500D01*
D11*
X3973214Y-18938976D02*
X3992262Y-18938976D01*
X4011309Y-18948500D01*
X4020833Y-18958024D01*
X4030357Y-18977071D01*
X4039881Y-19015167D01*
X4039881Y-19062786D01*
X4030357Y-19100881D01*
X4020833Y-19119929D01*
X4011309Y-19129452D01*
X3992262Y-19138976D01*
X3973214Y-19138976D01*
X3954167Y-19129452D01*
X3944643Y-19119929D01*
X3935119Y-19100881D01*
X3925595Y-19062786D01*
X3925595Y-19015167D01*
X3935119Y-18977071D01*
X3944643Y-18958024D01*
X3954167Y-18948500D01*
X3973214Y-18938976D01*
X4125595Y-19119929D02*
X4135119Y-19129452D01*
X4125595Y-19138976D01*
X4116071Y-19129452D01*
X4125595Y-19119929D01*
X4125595Y-19138976D01*
X4249405Y-19024690D02*
X4230357Y-19015167D01*
X4220833Y-19005643D01*
X4211310Y-18986595D01*
X4211310Y-18977071D01*
X4220833Y-18958024D01*
X4230357Y-18948500D01*
X4249405Y-18938976D01*
X4287500Y-18938976D01*
X4306548Y-18948500D01*
X4316071Y-18958024D01*
X4325595Y-18977071D01*
X4325595Y-18986595D01*
X4316071Y-19005643D01*
X4306548Y-19015167D01*
X4287500Y-19024690D01*
X4249405Y-19024690D01*
X4230357Y-19034214D01*
X4220833Y-19043738D01*
X4211310Y-19062786D01*
X4211310Y-19100881D01*
X4220833Y-19119929D01*
X4230357Y-19129452D01*
X4249405Y-19138976D01*
X4287500Y-19138976D01*
X4306548Y-19129452D01*
X4316071Y-19119929D01*
X4325595Y-19100881D01*
X4325595Y-19062786D01*
X4316071Y-19043738D01*
X4306548Y-19034214D01*
X4287500Y-19024690D01*
X4506548Y-18938976D02*
X4411310Y-18938976D01*
X4401786Y-19034214D01*
X4411310Y-19024690D01*
X4430357Y-19015167D01*
X4477976Y-19015167D01*
X4497024Y-19024690D01*
X4506548Y-19034214D01*
X4516071Y-19053262D01*
X4516071Y-19100881D01*
X4506548Y-19119929D01*
X4497024Y-19129452D01*
X4477976Y-19138976D01*
X4430357Y-19138976D01*
X4411310Y-19129452D01*
X4401786Y-19119929D01*
X4639881Y-18938976D02*
X4658929Y-18938976D01*
X4677976Y-18948500D01*
X4687500Y-18958024D01*
X4697024Y-18977071D01*
X4706548Y-19015167D01*
X4706548Y-19062786D01*
X4697024Y-19100881D01*
X4687500Y-19119929D01*
X4677976Y-19129452D01*
X4658929Y-19138976D01*
X4639881Y-19138976D01*
X4620833Y-19129452D01*
X4611310Y-19119929D01*
X4601786Y-19100881D01*
X4592262Y-19062786D01*
X4592262Y-19015167D01*
X4601786Y-18977071D01*
X4611310Y-18958024D01*
X4620833Y-18948500D01*
X4639881Y-18938976D01*
X4792262Y-19138976D02*
X4792262Y-19005643D01*
X4792262Y-19024690D02*
X4801786Y-19015167D01*
X4820833Y-19005643D01*
X4849405Y-19005643D01*
X4868452Y-19015167D01*
X4877976Y-19034214D01*
X4877976Y-19138976D01*
X4877976Y-19034214D02*
X4887500Y-19015167D01*
X4906548Y-19005643D01*
X4935119Y-19005643D01*
X4954167Y-19015167D01*
X4963690Y-19034214D01*
X4963690Y-19138976D01*
X5058929Y-19138976D02*
X5058929Y-19005643D01*
X5058929Y-19024690D02*
X5068452Y-19015167D01*
X5087500Y-19005643D01*
X5116071Y-19005643D01*
X5135119Y-19015167D01*
X5144643Y-19034214D01*
X5144643Y-19138976D01*
X5144643Y-19034214D02*
X5154167Y-19015167D01*
X5173214Y-19005643D01*
X5201786Y-19005643D01*
X5220833Y-19015167D01*
X5230357Y-19034214D01*
X5230357Y-19138976D01*
X5620833Y-18929452D02*
X5449405Y-19186595D01*
X5877976Y-18938976D02*
X5897024Y-18938976D01*
X5916071Y-18948500D01*
X5925595Y-18958024D01*
X5935119Y-18977071D01*
X5944643Y-19015167D01*
X5944643Y-19062786D01*
X5935119Y-19100881D01*
X5925595Y-19119929D01*
X5916071Y-19129452D01*
X5897024Y-19138976D01*
X5877976Y-19138976D01*
X5858928Y-19129452D01*
X5849405Y-19119929D01*
X5839881Y-19100881D01*
X5830357Y-19062786D01*
X5830357Y-19015167D01*
X5839881Y-18977071D01*
X5849405Y-18958024D01*
X5858928Y-18948500D01*
X5877976Y-18938976D01*
X6030357Y-19119929D02*
X6039881Y-19129452D01*
X6030357Y-19138976D01*
X6020833Y-19129452D01*
X6030357Y-19119929D01*
X6030357Y-19138976D01*
X6163690Y-18938976D02*
X6182738Y-18938976D01*
X6201786Y-18948500D01*
X6211309Y-18958024D01*
X6220833Y-18977071D01*
X6230357Y-19015167D01*
X6230357Y-19062786D01*
X6220833Y-19100881D01*
X6211309Y-19119929D01*
X6201786Y-19129452D01*
X6182738Y-19138976D01*
X6163690Y-19138976D01*
X6144643Y-19129452D01*
X6135119Y-19119929D01*
X6125595Y-19100881D01*
X6116071Y-19062786D01*
X6116071Y-19015167D01*
X6125595Y-18977071D01*
X6135119Y-18958024D01*
X6144643Y-18948500D01*
X6163690Y-18938976D01*
X6297024Y-18938976D02*
X6420833Y-18938976D01*
X6354167Y-19015167D01*
X6382738Y-19015167D01*
X6401786Y-19024690D01*
X6411309Y-19034214D01*
X6420833Y-19053262D01*
X6420833Y-19100881D01*
X6411309Y-19119929D01*
X6401786Y-19129452D01*
X6382738Y-19138976D01*
X6325595Y-19138976D01*
X6306548Y-19129452D01*
X6297024Y-19119929D01*
X6487500Y-18938976D02*
X6611309Y-18938976D01*
X6544643Y-19015167D01*
X6573214Y-19015167D01*
X6592262Y-19024690D01*
X6601786Y-19034214D01*
X6611309Y-19053262D01*
X6611309Y-19100881D01*
X6601786Y-19119929D01*
X6592262Y-19129452D01*
X6573214Y-19138976D01*
X6516071Y-19138976D01*
X6497024Y-19129452D01*
X6487500Y-19119929D01*
X6792262Y-18938976D02*
X6697024Y-18938976D01*
X6687500Y-19034214D01*
X6697024Y-19024690D01*
X6716071Y-19015167D01*
X6763690Y-19015167D01*
X6782738Y-19024690D01*
X6792262Y-19034214D01*
X6801786Y-19053262D01*
X6801786Y-19100881D01*
X6792262Y-19119929D01*
X6782738Y-19129452D01*
X6763690Y-19138976D01*
X6716071Y-19138976D01*
X6697024Y-19129452D01*
X6687500Y-19119929D01*
X6877976Y-18938976D02*
X6877976Y-18977071D01*
X6954167Y-18938976D02*
X6954167Y-18977071D01*
X7249405Y-19215167D02*
X7239881Y-19205643D01*
X7220833Y-19177071D01*
X7211309Y-19158024D01*
X7201786Y-19129452D01*
X7192262Y-19081833D01*
X7192262Y-19043738D01*
X7201786Y-18996119D01*
X7211309Y-18967548D01*
X7220833Y-18948500D01*
X7239881Y-18919929D01*
X7249405Y-18910405D01*
X7363690Y-18938976D02*
X7382738Y-18938976D01*
X7401786Y-18948500D01*
X7411309Y-18958024D01*
X7420833Y-18977071D01*
X7430357Y-19015167D01*
X7430357Y-19062786D01*
X7420833Y-19100881D01*
X7411309Y-19119929D01*
X7401786Y-19129452D01*
X7382738Y-19138976D01*
X7363690Y-19138976D01*
X7344643Y-19129452D01*
X7335119Y-19119929D01*
X7325595Y-19100881D01*
X7316071Y-19062786D01*
X7316071Y-19015167D01*
X7325595Y-18977071D01*
X7335119Y-18958024D01*
X7344643Y-18948500D01*
X7363690Y-18938976D01*
X7668452Y-19138976D02*
X7668452Y-18938976D01*
X7754167Y-19138976D02*
X7754167Y-19034214D01*
X7744643Y-19015167D01*
X7725595Y-19005643D01*
X7697024Y-19005643D01*
X7677976Y-19015167D01*
X7668452Y-19024690D01*
X7877976Y-19138976D02*
X7858928Y-19129452D01*
X7849405Y-19119929D01*
X7839881Y-19100881D01*
X7839881Y-19043738D01*
X7849405Y-19024690D01*
X7858928Y-19015167D01*
X7877976Y-19005643D01*
X7906548Y-19005643D01*
X7925595Y-19015167D01*
X7935119Y-19024690D01*
X7944643Y-19043738D01*
X7944643Y-19100881D01*
X7935119Y-19119929D01*
X7925595Y-19129452D01*
X7906548Y-19138976D01*
X7877976Y-19138976D01*
X8058928Y-19138976D02*
X8039881Y-19129452D01*
X8030357Y-19110405D01*
X8030357Y-18938976D01*
X8211309Y-19129452D02*
X8192262Y-19138976D01*
X8154167Y-19138976D01*
X8135119Y-19129452D01*
X8125595Y-19110405D01*
X8125595Y-19034214D01*
X8135119Y-19015167D01*
X8154167Y-19005643D01*
X8192262Y-19005643D01*
X8211309Y-19015167D01*
X8220833Y-19034214D01*
X8220833Y-19053262D01*
X8125595Y-19072310D01*
X8297024Y-19129452D02*
X8316071Y-19138976D01*
X8354167Y-19138976D01*
X8373214Y-19129452D01*
X8382738Y-19110405D01*
X8382738Y-19100881D01*
X8373214Y-19081833D01*
X8354167Y-19072310D01*
X8325595Y-19072310D01*
X8306548Y-19062786D01*
X8297024Y-19043738D01*
X8297024Y-19034214D01*
X8306548Y-19015167D01*
X8325595Y-19005643D01*
X8354167Y-19005643D01*
X8373214Y-19015167D01*
X8620833Y-19062786D02*
X8773214Y-19062786D01*
X8697024Y-19138976D02*
X8697024Y-18986595D01*
X9011310Y-18958024D02*
X9020833Y-18948500D01*
X9039881Y-18938976D01*
X9087500Y-18938976D01*
X9106548Y-18948500D01*
X9116071Y-18958024D01*
X9125595Y-18977071D01*
X9125595Y-18996119D01*
X9116071Y-19024690D01*
X9001786Y-19138976D01*
X9125595Y-19138976D01*
X9354167Y-19129452D02*
X9373214Y-19138976D01*
X9411310Y-19138976D01*
X9430357Y-19129452D01*
X9439881Y-19110405D01*
X9439881Y-19100881D01*
X9430357Y-19081833D01*
X9411310Y-19072310D01*
X9382738Y-19072310D01*
X9363690Y-19062786D01*
X9354167Y-19043738D01*
X9354167Y-19034214D01*
X9363690Y-19015167D01*
X9382738Y-19005643D01*
X9411310Y-19005643D01*
X9430357Y-19015167D01*
X9554167Y-19138976D02*
X9535119Y-19129452D01*
X9525595Y-19110405D01*
X9525595Y-18938976D01*
X9658929Y-19138976D02*
X9639881Y-19129452D01*
X9630357Y-19119929D01*
X9620833Y-19100881D01*
X9620833Y-19043738D01*
X9630357Y-19024690D01*
X9639881Y-19015167D01*
X9658929Y-19005643D01*
X9687500Y-19005643D01*
X9706548Y-19015167D01*
X9716071Y-19024690D01*
X9725595Y-19043738D01*
X9725595Y-19100881D01*
X9716071Y-19119929D01*
X9706548Y-19129452D01*
X9687500Y-19138976D01*
X9658929Y-19138976D01*
X9782738Y-19005643D02*
X9858929Y-19005643D01*
X9811310Y-18938976D02*
X9811310Y-19110405D01*
X9820833Y-19129452D01*
X9839881Y-19138976D01*
X9858929Y-19138976D01*
X9916071Y-19129452D02*
X9935119Y-19138976D01*
X9973214Y-19138976D01*
X9992262Y-19129452D01*
X10001786Y-19110405D01*
X10001786Y-19100881D01*
X9992262Y-19081833D01*
X9973214Y-19072310D01*
X9944643Y-19072310D01*
X9925595Y-19062786D01*
X9916071Y-19043738D01*
X9916071Y-19034214D01*
X9925595Y-19015167D01*
X9944643Y-19005643D01*
X9973214Y-19005643D01*
X9992262Y-19015167D01*
X10068452Y-19215167D02*
X10077976Y-19205643D01*
X10097024Y-19177071D01*
X10106548Y-19158024D01*
X10116071Y-19129452D01*
X10125595Y-19081833D01*
X10125595Y-19043738D01*
X10116071Y-18996119D01*
X10106548Y-18967548D01*
X10097024Y-18948500D01*
X10077976Y-18919929D01*
X10068452Y-18910405D01*
D15*
X3662856Y-19347856D02*
X3662856Y-19277144D01*
X3592144Y-19277144D01*
X3592144Y-19347856D01*
X3662856Y-19347856D01*
D11*
X4039881Y-19402976D02*
X3925595Y-19402976D01*
X3982738Y-19402976D02*
X3982738Y-19202976D01*
X3963690Y-19231548D01*
X3944643Y-19250595D01*
X3925595Y-19260119D01*
X4125595Y-19383929D02*
X4135119Y-19393452D01*
X4125595Y-19402976D01*
X4116071Y-19393452D01*
X4125595Y-19383929D01*
X4125595Y-19402976D01*
X4258929Y-19202976D02*
X4277976Y-19202976D01*
X4297024Y-19212500D01*
X4306548Y-19222024D01*
X4316071Y-19241071D01*
X4325595Y-19279167D01*
X4325595Y-19326786D01*
X4316071Y-19364881D01*
X4306548Y-19383929D01*
X4297024Y-19393452D01*
X4277976Y-19402976D01*
X4258929Y-19402976D01*
X4239881Y-19393452D01*
X4230357Y-19383929D01*
X4220833Y-19364881D01*
X4211310Y-19326786D01*
X4211310Y-19279167D01*
X4220833Y-19241071D01*
X4230357Y-19222024D01*
X4239881Y-19212500D01*
X4258929Y-19202976D01*
X4449405Y-19202976D02*
X4468452Y-19202976D01*
X4487500Y-19212500D01*
X4497024Y-19222024D01*
X4506548Y-19241071D01*
X4516071Y-19279167D01*
X4516071Y-19326786D01*
X4506548Y-19364881D01*
X4497024Y-19383929D01*
X4487500Y-19393452D01*
X4468452Y-19402976D01*
X4449405Y-19402976D01*
X4430357Y-19393452D01*
X4420833Y-19383929D01*
X4411310Y-19364881D01*
X4401786Y-19326786D01*
X4401786Y-19279167D01*
X4411310Y-19241071D01*
X4420833Y-19222024D01*
X4430357Y-19212500D01*
X4449405Y-19202976D01*
X4639881Y-19202976D02*
X4658929Y-19202976D01*
X4677976Y-19212500D01*
X4687500Y-19222024D01*
X4697024Y-19241071D01*
X4706548Y-19279167D01*
X4706548Y-19326786D01*
X4697024Y-19364881D01*
X4687500Y-19383929D01*
X4677976Y-19393452D01*
X4658929Y-19402976D01*
X4639881Y-19402976D01*
X4620833Y-19393452D01*
X4611310Y-19383929D01*
X4601786Y-19364881D01*
X4592262Y-19326786D01*
X4592262Y-19279167D01*
X4601786Y-19241071D01*
X4611310Y-19222024D01*
X4620833Y-19212500D01*
X4639881Y-19202976D01*
X4792262Y-19402976D02*
X4792262Y-19269643D01*
X4792262Y-19288690D02*
X4801786Y-19279167D01*
X4820833Y-19269643D01*
X4849405Y-19269643D01*
X4868452Y-19279167D01*
X4877976Y-19298214D01*
X4877976Y-19402976D01*
X4877976Y-19298214D02*
X4887500Y-19279167D01*
X4906548Y-19269643D01*
X4935119Y-19269643D01*
X4954167Y-19279167D01*
X4963690Y-19298214D01*
X4963690Y-19402976D01*
X5058929Y-19402976D02*
X5058929Y-19269643D01*
X5058929Y-19288690D02*
X5068452Y-19279167D01*
X5087500Y-19269643D01*
X5116071Y-19269643D01*
X5135119Y-19279167D01*
X5144643Y-19298214D01*
X5144643Y-19402976D01*
X5144643Y-19298214D02*
X5154167Y-19279167D01*
X5173214Y-19269643D01*
X5201786Y-19269643D01*
X5220833Y-19279167D01*
X5230357Y-19298214D01*
X5230357Y-19402976D01*
X5620833Y-19193452D02*
X5449405Y-19450595D01*
X5877976Y-19202976D02*
X5897024Y-19202976D01*
X5916071Y-19212500D01*
X5925595Y-19222024D01*
X5935119Y-19241071D01*
X5944643Y-19279167D01*
X5944643Y-19326786D01*
X5935119Y-19364881D01*
X5925595Y-19383929D01*
X5916071Y-19393452D01*
X5897024Y-19402976D01*
X5877976Y-19402976D01*
X5858928Y-19393452D01*
X5849405Y-19383929D01*
X5839881Y-19364881D01*
X5830357Y-19326786D01*
X5830357Y-19279167D01*
X5839881Y-19241071D01*
X5849405Y-19222024D01*
X5858928Y-19212500D01*
X5877976Y-19202976D01*
X6030357Y-19383929D02*
X6039881Y-19393452D01*
X6030357Y-19402976D01*
X6020833Y-19393452D01*
X6030357Y-19383929D01*
X6030357Y-19402976D01*
X6163690Y-19202976D02*
X6182738Y-19202976D01*
X6201786Y-19212500D01*
X6211309Y-19222024D01*
X6220833Y-19241071D01*
X6230357Y-19279167D01*
X6230357Y-19326786D01*
X6220833Y-19364881D01*
X6211309Y-19383929D01*
X6201786Y-19393452D01*
X6182738Y-19402976D01*
X6163690Y-19402976D01*
X6144643Y-19393452D01*
X6135119Y-19383929D01*
X6125595Y-19364881D01*
X6116071Y-19326786D01*
X6116071Y-19279167D01*
X6125595Y-19241071D01*
X6135119Y-19222024D01*
X6144643Y-19212500D01*
X6163690Y-19202976D01*
X6297024Y-19202976D02*
X6420833Y-19202976D01*
X6354167Y-19279167D01*
X6382738Y-19279167D01*
X6401786Y-19288690D01*
X6411309Y-19298214D01*
X6420833Y-19317262D01*
X6420833Y-19364881D01*
X6411309Y-19383929D01*
X6401786Y-19393452D01*
X6382738Y-19402976D01*
X6325595Y-19402976D01*
X6306548Y-19393452D01*
X6297024Y-19383929D01*
X6516071Y-19402976D02*
X6554167Y-19402976D01*
X6573214Y-19393452D01*
X6582738Y-19383929D01*
X6601786Y-19355357D01*
X6611309Y-19317262D01*
X6611309Y-19241071D01*
X6601786Y-19222024D01*
X6592262Y-19212500D01*
X6573214Y-19202976D01*
X6535119Y-19202976D01*
X6516071Y-19212500D01*
X6506548Y-19222024D01*
X6497024Y-19241071D01*
X6497024Y-19288690D01*
X6506548Y-19307738D01*
X6516071Y-19317262D01*
X6535119Y-19326786D01*
X6573214Y-19326786D01*
X6592262Y-19317262D01*
X6601786Y-19307738D01*
X6611309Y-19288690D01*
X6782738Y-19269643D02*
X6782738Y-19402976D01*
X6735119Y-19193452D02*
X6687500Y-19336310D01*
X6811309Y-19336310D01*
X6877976Y-19202976D02*
X6877976Y-19241071D01*
X6954167Y-19202976D02*
X6954167Y-19241071D01*
X7249405Y-19479167D02*
X7239881Y-19469643D01*
X7220833Y-19441071D01*
X7211309Y-19422024D01*
X7201786Y-19393452D01*
X7192262Y-19345833D01*
X7192262Y-19307738D01*
X7201786Y-19260119D01*
X7211309Y-19231548D01*
X7220833Y-19212500D01*
X7239881Y-19183929D01*
X7249405Y-19174405D01*
X7411309Y-19202976D02*
X7373214Y-19202976D01*
X7354167Y-19212500D01*
X7344643Y-19222024D01*
X7325595Y-19250595D01*
X7316071Y-19288690D01*
X7316071Y-19364881D01*
X7325595Y-19383929D01*
X7335119Y-19393452D01*
X7354167Y-19402976D01*
X7392262Y-19402976D01*
X7411309Y-19393452D01*
X7420833Y-19383929D01*
X7430357Y-19364881D01*
X7430357Y-19317262D01*
X7420833Y-19298214D01*
X7411309Y-19288690D01*
X7392262Y-19279167D01*
X7354167Y-19279167D01*
X7335119Y-19288690D01*
X7325595Y-19298214D01*
X7316071Y-19317262D01*
X7668452Y-19402976D02*
X7668452Y-19202976D01*
X7754167Y-19402976D02*
X7754167Y-19298214D01*
X7744643Y-19279167D01*
X7725595Y-19269643D01*
X7697024Y-19269643D01*
X7677976Y-19279167D01*
X7668452Y-19288690D01*
X7877976Y-19402976D02*
X7858928Y-19393452D01*
X7849405Y-19383929D01*
X7839881Y-19364881D01*
X7839881Y-19307738D01*
X7849405Y-19288690D01*
X7858928Y-19279167D01*
X7877976Y-19269643D01*
X7906548Y-19269643D01*
X7925595Y-19279167D01*
X7935119Y-19288690D01*
X7944643Y-19307738D01*
X7944643Y-19364881D01*
X7935119Y-19383929D01*
X7925595Y-19393452D01*
X7906548Y-19402976D01*
X7877976Y-19402976D01*
X8058928Y-19402976D02*
X8039881Y-19393452D01*
X8030357Y-19374405D01*
X8030357Y-19202976D01*
X8211309Y-19393452D02*
X8192262Y-19402976D01*
X8154167Y-19402976D01*
X8135119Y-19393452D01*
X8125595Y-19374405D01*
X8125595Y-19298214D01*
X8135119Y-19279167D01*
X8154167Y-19269643D01*
X8192262Y-19269643D01*
X8211309Y-19279167D01*
X8220833Y-19298214D01*
X8220833Y-19317262D01*
X8125595Y-19336310D01*
X8297024Y-19393452D02*
X8316071Y-19402976D01*
X8354167Y-19402976D01*
X8373214Y-19393452D01*
X8382738Y-19374405D01*
X8382738Y-19364881D01*
X8373214Y-19345833D01*
X8354167Y-19336310D01*
X8325595Y-19336310D01*
X8306548Y-19326786D01*
X8297024Y-19307738D01*
X8297024Y-19298214D01*
X8306548Y-19279167D01*
X8325595Y-19269643D01*
X8354167Y-19269643D01*
X8373214Y-19279167D01*
X8449405Y-19479167D02*
X8458929Y-19469643D01*
X8477976Y-19441071D01*
X8487500Y-19422024D01*
X8497024Y-19393452D01*
X8506548Y-19345833D01*
X8506548Y-19307738D01*
X8497024Y-19260119D01*
X8487500Y-19231548D01*
X8477976Y-19212500D01*
X8458929Y-19183929D01*
X8449405Y-19174405D01*
D16*
X3614000Y-19640000D02*
X3677500Y-19576500D01*
X3614000Y-19513000D01*
X3550500Y-19576500D01*
X3614000Y-19640000D01*
D11*
X4039881Y-19666976D02*
X3925595Y-19666976D01*
X3982738Y-19666976D02*
X3982738Y-19466976D01*
X3963690Y-19495548D01*
X3944643Y-19514595D01*
X3925595Y-19524119D01*
X4125595Y-19647929D02*
X4135119Y-19657452D01*
X4125595Y-19666976D01*
X4116071Y-19657452D01*
X4125595Y-19647929D01*
X4125595Y-19666976D01*
X4211310Y-19486024D02*
X4220833Y-19476500D01*
X4239881Y-19466976D01*
X4287500Y-19466976D01*
X4306548Y-19476500D01*
X4316071Y-19486024D01*
X4325595Y-19505071D01*
X4325595Y-19524119D01*
X4316071Y-19552690D01*
X4201786Y-19666976D01*
X4325595Y-19666976D01*
X4392262Y-19466976D02*
X4525595Y-19466976D01*
X4439881Y-19666976D01*
X4639881Y-19466976D02*
X4658929Y-19466976D01*
X4677976Y-19476500D01*
X4687500Y-19486024D01*
X4697024Y-19505071D01*
X4706548Y-19543167D01*
X4706548Y-19590786D01*
X4697024Y-19628881D01*
X4687500Y-19647929D01*
X4677976Y-19657452D01*
X4658929Y-19666976D01*
X4639881Y-19666976D01*
X4620833Y-19657452D01*
X4611310Y-19647929D01*
X4601786Y-19628881D01*
X4592262Y-19590786D01*
X4592262Y-19543167D01*
X4601786Y-19505071D01*
X4611310Y-19486024D01*
X4620833Y-19476500D01*
X4639881Y-19466976D01*
X4792262Y-19666976D02*
X4792262Y-19533643D01*
X4792262Y-19552690D02*
X4801786Y-19543167D01*
X4820833Y-19533643D01*
X4849405Y-19533643D01*
X4868452Y-19543167D01*
X4877976Y-19562214D01*
X4877976Y-19666976D01*
X4877976Y-19562214D02*
X4887500Y-19543167D01*
X4906548Y-19533643D01*
X4935119Y-19533643D01*
X4954167Y-19543167D01*
X4963690Y-19562214D01*
X4963690Y-19666976D01*
X5058929Y-19666976D02*
X5058929Y-19533643D01*
X5058929Y-19552690D02*
X5068452Y-19543167D01*
X5087500Y-19533643D01*
X5116071Y-19533643D01*
X5135119Y-19543167D01*
X5144643Y-19562214D01*
X5144643Y-19666976D01*
X5144643Y-19562214D02*
X5154167Y-19543167D01*
X5173214Y-19533643D01*
X5201786Y-19533643D01*
X5220833Y-19543167D01*
X5230357Y-19562214D01*
X5230357Y-19666976D01*
X5620833Y-19457452D02*
X5449405Y-19714595D01*
X5877976Y-19466976D02*
X5897024Y-19466976D01*
X5916071Y-19476500D01*
X5925595Y-19486024D01*
X5935119Y-19505071D01*
X5944643Y-19543167D01*
X5944643Y-19590786D01*
X5935119Y-19628881D01*
X5925595Y-19647929D01*
X5916071Y-19657452D01*
X5897024Y-19666976D01*
X5877976Y-19666976D01*
X5858928Y-19657452D01*
X5849405Y-19647929D01*
X5839881Y-19628881D01*
X5830357Y-19590786D01*
X5830357Y-19543167D01*
X5839881Y-19505071D01*
X5849405Y-19486024D01*
X5858928Y-19476500D01*
X5877976Y-19466976D01*
X6030357Y-19647929D02*
X6039881Y-19657452D01*
X6030357Y-19666976D01*
X6020833Y-19657452D01*
X6030357Y-19647929D01*
X6030357Y-19666976D01*
X6163690Y-19466976D02*
X6182738Y-19466976D01*
X6201786Y-19476500D01*
X6211309Y-19486024D01*
X6220833Y-19505071D01*
X6230357Y-19543167D01*
X6230357Y-19590786D01*
X6220833Y-19628881D01*
X6211309Y-19647929D01*
X6201786Y-19657452D01*
X6182738Y-19666976D01*
X6163690Y-19666976D01*
X6144643Y-19657452D01*
X6135119Y-19647929D01*
X6125595Y-19628881D01*
X6116071Y-19590786D01*
X6116071Y-19543167D01*
X6125595Y-19505071D01*
X6135119Y-19486024D01*
X6144643Y-19476500D01*
X6163690Y-19466976D01*
X6411309Y-19466976D02*
X6316071Y-19466976D01*
X6306548Y-19562214D01*
X6316071Y-19552690D01*
X6335119Y-19543167D01*
X6382738Y-19543167D01*
X6401786Y-19552690D01*
X6411309Y-19562214D01*
X6420833Y-19581262D01*
X6420833Y-19628881D01*
X6411309Y-19647929D01*
X6401786Y-19657452D01*
X6382738Y-19666976D01*
X6335119Y-19666976D01*
X6316071Y-19657452D01*
X6306548Y-19647929D01*
X6544643Y-19466976D02*
X6563690Y-19466976D01*
X6582738Y-19476500D01*
X6592262Y-19486024D01*
X6601786Y-19505071D01*
X6611309Y-19543167D01*
X6611309Y-19590786D01*
X6601786Y-19628881D01*
X6592262Y-19647929D01*
X6582738Y-19657452D01*
X6563690Y-19666976D01*
X6544643Y-19666976D01*
X6525595Y-19657452D01*
X6516071Y-19647929D01*
X6506548Y-19628881D01*
X6497024Y-19590786D01*
X6497024Y-19543167D01*
X6506548Y-19505071D01*
X6516071Y-19486024D01*
X6525595Y-19476500D01*
X6544643Y-19466976D01*
X6735119Y-19466976D02*
X6754167Y-19466976D01*
X6773214Y-19476500D01*
X6782738Y-19486024D01*
X6792262Y-19505071D01*
X6801786Y-19543167D01*
X6801786Y-19590786D01*
X6792262Y-19628881D01*
X6782738Y-19647929D01*
X6773214Y-19657452D01*
X6754167Y-19666976D01*
X6735119Y-19666976D01*
X6716071Y-19657452D01*
X6706548Y-19647929D01*
X6697024Y-19628881D01*
X6687500Y-19590786D01*
X6687500Y-19543167D01*
X6697024Y-19505071D01*
X6706548Y-19486024D01*
X6716071Y-19476500D01*
X6735119Y-19466976D01*
X6877976Y-19466976D02*
X6877976Y-19505071D01*
X6954167Y-19466976D02*
X6954167Y-19505071D01*
X7249405Y-19743167D02*
X7239881Y-19733643D01*
X7220833Y-19705071D01*
X7211309Y-19686024D01*
X7201786Y-19657452D01*
X7192262Y-19609833D01*
X7192262Y-19571738D01*
X7201786Y-19524119D01*
X7211309Y-19495548D01*
X7220833Y-19476500D01*
X7239881Y-19447929D01*
X7249405Y-19438405D01*
X7306548Y-19466976D02*
X7439881Y-19466976D01*
X7354167Y-19666976D01*
X7554167Y-19466976D02*
X7573214Y-19466976D01*
X7592262Y-19476500D01*
X7601786Y-19486024D01*
X7611309Y-19505071D01*
X7620833Y-19543167D01*
X7620833Y-19590786D01*
X7611309Y-19628881D01*
X7601786Y-19647929D01*
X7592262Y-19657452D01*
X7573214Y-19666976D01*
X7554167Y-19666976D01*
X7535119Y-19657452D01*
X7525595Y-19647929D01*
X7516071Y-19628881D01*
X7506548Y-19590786D01*
X7506548Y-19543167D01*
X7516071Y-19505071D01*
X7525595Y-19486024D01*
X7535119Y-19476500D01*
X7554167Y-19466976D01*
X7858928Y-19666976D02*
X7858928Y-19466976D01*
X7944643Y-19666976D02*
X7944643Y-19562214D01*
X7935119Y-19543167D01*
X7916071Y-19533643D01*
X7887500Y-19533643D01*
X7868452Y-19543167D01*
X7858928Y-19552690D01*
X8068452Y-19666976D02*
X8049405Y-19657452D01*
X8039881Y-19647929D01*
X8030357Y-19628881D01*
X8030357Y-19571738D01*
X8039881Y-19552690D01*
X8049405Y-19543167D01*
X8068452Y-19533643D01*
X8097024Y-19533643D01*
X8116071Y-19543167D01*
X8125595Y-19552690D01*
X8135119Y-19571738D01*
X8135119Y-19628881D01*
X8125595Y-19647929D01*
X8116071Y-19657452D01*
X8097024Y-19666976D01*
X8068452Y-19666976D01*
X8249405Y-19666976D02*
X8230357Y-19657452D01*
X8220833Y-19638405D01*
X8220833Y-19466976D01*
X8401786Y-19657452D02*
X8382738Y-19666976D01*
X8344643Y-19666976D01*
X8325595Y-19657452D01*
X8316071Y-19638405D01*
X8316071Y-19562214D01*
X8325595Y-19543167D01*
X8344643Y-19533643D01*
X8382738Y-19533643D01*
X8401786Y-19543167D01*
X8411310Y-19562214D01*
X8411310Y-19581262D01*
X8316071Y-19600310D01*
X8487500Y-19657452D02*
X8506548Y-19666976D01*
X8544643Y-19666976D01*
X8563690Y-19657452D01*
X8573214Y-19638405D01*
X8573214Y-19628881D01*
X8563690Y-19609833D01*
X8544643Y-19600310D01*
X8516071Y-19600310D01*
X8497024Y-19590786D01*
X8487500Y-19571738D01*
X8487500Y-19562214D01*
X8497024Y-19543167D01*
X8516071Y-19533643D01*
X8544643Y-19533643D01*
X8563690Y-19543167D01*
X8639881Y-19743167D02*
X8649405Y-19733643D01*
X8668452Y-19705071D01*
X8677976Y-19686024D01*
X8687500Y-19657452D01*
X8697024Y-19609833D01*
X8697024Y-19571738D01*
X8687500Y-19524119D01*
X8677976Y-19495548D01*
X8668452Y-19476500D01*
X8649405Y-19447929D01*
X8639881Y-19438405D01*
M02*
