M48
; DRILL file {KiCad (6.0.10)} date Thu Feb  2 18:02:53 2023
; FORMAT={-:-/ absolute / metric / decimal}
; #@! TF.CreationDate,2023-02-02T18:02:53-08:00
; #@! TF.GenerationSoftware,Kicad,Pcbnew,(6.0.10)
; #@! TF.FileFunction,Plated,1,2,PTH
FMAT,2
METRIC
; #@! TA.AperFunction,Plated,PTH,ViaDrill
T1C0.400
; #@! TA.AperFunction,Plated,PTH,ComponentDrill
T2C0.550
; #@! TA.AperFunction,Plated,PTH,ComponentDrill
T3C0.850
; #@! TA.AperFunction,Plated,PTH,ComponentDrill
T4C1.000
; #@! TA.AperFunction,Plated,PTH,ComponentDrill
T5C1.270
%
G90
G05
T1
X63.597Y-152.872
X68.042Y-97.5
X68.296Y-136.87
X68.423Y-116.677
X94.585Y-97.373
X95.601Y-133.441
X95.982Y-117.185
X101.697Y-152.618
X129.755Y-168.73
X130.022Y-166.297
X131.631Y-169.306
X131.755Y-168.029
X133.555Y-169.63
X135.639Y-170.939
X136.364Y-170.104
X139.319Y-167.505
X142.367Y-168.402
X144.465Y-155.68
X144.769Y-156.632
X145.063Y-166.346
X146.291Y-166.142
X146.655Y-147.665
X147.193Y-165.155
X147.506Y-156.929
X147.769Y-148.456
X148.003Y-154.78
X148.236Y-156.247
X148.241Y-161.245
X148.687Y-153.888
X148.785Y-149.472
X149.605Y-165.13
X150.101Y-147.614
X150.63Y-154.992
X151.084Y-168.03
X152.235Y-147.439
X153.405Y-147.439
X153.797Y-149.86
X154.178Y-168.515
X155.379Y-167.448
X155.457Y-168.444
X156.305Y-165.317
X156.697Y-155.993
X157.353Y-161.671
X157.48Y-170.942
X157.529Y-156.718
X158.032Y-169.918
X158.877Y-150.204
X159.639Y-153.191
X160.528Y-160.376
X164.122Y-170.837
X166.213Y-152.491
X170.91Y-146.739
X171.323Y-169.418
X171.614Y-165.317
X171.962Y-166.254
X173.309Y-165.674
X173.755Y-146.04
X174.117Y-163.775
X174.485Y-165.826
X174.754Y-146.046
X176.086Y-166.33
X177.4Y-135.0
X179.07Y-156.591
X180.467Y-157.607
X181.864Y-168.704
X182.617Y-169.62
X182.801Y-168.17
X183.472Y-167.429
X183.515Y-153.289
X183.515Y-155.067
X184.404Y-156.972
X188.595Y-148.209
X190.412Y-156.497
X191.105Y-160.365
X193.611Y-160.845
T4
X170.47Y-62.17
X170.47Y-64.71
X170.47Y-67.25
X173.01Y-62.17
X173.01Y-64.71
X173.01Y-67.25
T5
X48.945Y-82.25
X48.945Y-101.3
X48.945Y-120.35
X48.945Y-139.4
X48.945Y-158.45
X53.945Y-84.35
X53.945Y-103.4
X53.945Y-122.45
X53.945Y-141.5
X53.945Y-160.55
X67.995Y-82.25
X67.995Y-158.45
X72.995Y-84.35
X72.995Y-160.55
X77.52Y-101.3
X77.52Y-120.35
X77.52Y-139.4
X82.52Y-103.4
X82.52Y-122.45
X82.52Y-141.5
X87.045Y-82.25
X87.045Y-158.45
X92.045Y-84.35
X92.045Y-160.55
X106.095Y-82.25
X106.095Y-101.3
X106.095Y-120.35
X106.095Y-139.4
X106.095Y-158.45
X111.095Y-84.35
X111.095Y-103.4
X111.095Y-122.45
X111.095Y-141.5
X111.095Y-160.55
X125.145Y-82.25
X125.145Y-101.3
X125.145Y-120.35
X125.145Y-139.4
X125.145Y-158.45
X130.145Y-84.35
X130.145Y-103.4
X130.145Y-122.45
X130.145Y-141.5
X130.145Y-160.55
X144.195Y-82.25
X144.195Y-101.3
X144.195Y-120.35
X144.195Y-139.4
X149.195Y-84.35
X149.195Y-103.4
X149.195Y-122.45
X149.195Y-141.5
X163.245Y-82.25
X163.245Y-101.3
X163.245Y-120.35
X163.245Y-139.4
X163.245Y-158.45
X168.245Y-84.35
X168.245Y-103.4
X168.245Y-122.45
X168.245Y-141.5
X168.245Y-160.55
X182.295Y-82.25
X182.295Y-101.3
X182.295Y-120.35
X182.295Y-139.4
X187.295Y-84.35
X187.295Y-103.4
X187.295Y-122.45
X187.295Y-141.5
T2
X196.301Y-150.648G85X195.651Y-150.648
G05
X196.301Y-158.398G85X195.651Y-158.398
G05
T3
X192.451Y-150.798G85X191.901Y-150.798
G05
X192.451Y-158.248G85X191.901Y-158.248
G05
T0
M30
