%TF.GenerationSoftware,KiCad,Pcbnew,(6.0.10)*%
%TF.CreationDate,2023-02-02T18:03:20-08:00*%
%TF.ProjectId,netrazr_rev2-Left,6e657472-617a-4725-9f72-6576322d4c65,2*%
%TF.SameCoordinates,Original*%
%TF.FileFunction,Drillmap*%
%TF.FilePolarity,Positive*%
%FSLAX45Y45*%
G04 Gerber Fmt 4.5, Leading zero omitted, Abs format (unit mm)*
G04 Created by KiCad (PCBNEW (6.0.10)) date 2023-02-02 18:03:20*
%MOMM*%
%LPD*%
G01*
G04 APERTURE LIST*
%ADD10C,0.050000*%
%ADD11C,0.200000*%
%ADD12C,0.080000*%
%ADD13C,0.099060*%
%ADD14C,0.170180*%
%ADD15C,0.342900*%
%ADD16C,0.370000*%
G04 APERTURE END LIST*
D10*
X19796300Y-6019800D02*
G75*
G03*
X19716500Y-5940000I-79800J0D01*
G01*
X3768900Y-17878000D02*
X20355100Y-17878000D01*
X20444000Y-15985700D02*
X20444000Y-15985700D01*
X19716500Y-5940000D02*
X3768900Y-5940000D01*
X20355100Y-15985700D02*
X19796300Y-15985700D01*
X3680000Y-6028900D02*
X3680000Y-17789100D01*
X19796300Y-14931600D02*
X19796300Y-6019800D01*
X3768900Y-5940000D02*
G75*
G03*
X3680000Y-6028900I0J-88900D01*
G01*
X20355100Y-17878000D02*
G75*
G03*
X20444000Y-17789100I0J88900D01*
G01*
X20444000Y-16074600D02*
G75*
G03*
X20355100Y-15985700I-88900J0D01*
G01*
X20444000Y-15985700D02*
X20444000Y-15985700D01*
X3680000Y-17789100D02*
G75*
G03*
X3768900Y-17878000I88900J0D01*
G01*
X19796300Y-15985700D02*
X19796300Y-14931600D01*
X20444000Y-17789100D02*
X20444000Y-16074600D01*
D11*
D12*
X19282600Y-15162300D02*
X19362600Y-15242300D01*
X19362600Y-15162300D02*
X19282600Y-15242300D01*
X19282600Y-15662300D02*
X19362600Y-15742300D01*
X19362600Y-15662300D02*
X19282600Y-15742300D01*
D13*
X5966030Y-7425000D02*
G75*
G03*
X5966030Y-7425000I-49530J0D01*
G01*
X5966030Y-9330000D02*
G75*
G03*
X5966030Y-9330000I-49530J0D01*
G01*
X5966030Y-11235000D02*
G75*
G03*
X5966030Y-11235000I-49530J0D01*
G01*
X5966030Y-13140000D02*
G75*
G03*
X5966030Y-13140000I-49530J0D01*
G01*
X5966030Y-15045000D02*
G75*
G03*
X5966030Y-15045000I-49530J0D01*
G01*
X7871030Y-7425000D02*
G75*
G03*
X7871030Y-7425000I-49530J0D01*
G01*
X7871030Y-15045000D02*
G75*
G03*
X7871030Y-15045000I-49530J0D01*
G01*
X8823530Y-9330000D02*
G75*
G03*
X8823530Y-9330000I-49530J0D01*
G01*
X8823530Y-11235000D02*
G75*
G03*
X8823530Y-11235000I-49530J0D01*
G01*
X8823530Y-13140000D02*
G75*
G03*
X8823530Y-13140000I-49530J0D01*
G01*
X9776030Y-7425000D02*
G75*
G03*
X9776030Y-7425000I-49530J0D01*
G01*
X9776030Y-15045000D02*
G75*
G03*
X9776030Y-15045000I-49530J0D01*
G01*
X11681030Y-7425000D02*
G75*
G03*
X11681030Y-7425000I-49530J0D01*
G01*
X11681030Y-9330000D02*
G75*
G03*
X11681030Y-9330000I-49530J0D01*
G01*
X11681030Y-11235000D02*
G75*
G03*
X11681030Y-11235000I-49530J0D01*
G01*
X11681030Y-13140000D02*
G75*
G03*
X11681030Y-13140000I-49530J0D01*
G01*
X11681030Y-15045000D02*
G75*
G03*
X11681030Y-15045000I-49530J0D01*
G01*
X13586030Y-7425000D02*
G75*
G03*
X13586030Y-7425000I-49530J0D01*
G01*
X13586030Y-9330000D02*
G75*
G03*
X13586030Y-9330000I-49530J0D01*
G01*
X13586030Y-11235000D02*
G75*
G03*
X13586030Y-11235000I-49530J0D01*
G01*
X13586030Y-13140000D02*
G75*
G03*
X13586030Y-13140000I-49530J0D01*
G01*
X13586030Y-15045000D02*
G75*
G03*
X13586030Y-15045000I-49530J0D01*
G01*
X15491030Y-7425000D02*
G75*
G03*
X15491030Y-7425000I-49530J0D01*
G01*
X15491030Y-9330000D02*
G75*
G03*
X15491030Y-9330000I-49530J0D01*
G01*
X15491030Y-11235000D02*
G75*
G03*
X15491030Y-11235000I-49530J0D01*
G01*
X15491030Y-13140000D02*
G75*
G03*
X15491030Y-13140000I-49530J0D01*
G01*
X17396030Y-7425000D02*
G75*
G03*
X17396030Y-7425000I-49530J0D01*
G01*
X17396030Y-9330000D02*
G75*
G03*
X17396030Y-9330000I-49530J0D01*
G01*
X17396030Y-11235000D02*
G75*
G03*
X17396030Y-11235000I-49530J0D01*
G01*
X17396030Y-13140000D02*
G75*
G03*
X17396030Y-13140000I-49530J0D01*
G01*
X17396030Y-15045000D02*
G75*
G03*
X17396030Y-15045000I-49530J0D01*
G01*
X19301030Y-7425000D02*
G75*
G03*
X19301030Y-7425000I-49530J0D01*
G01*
X19301030Y-9330000D02*
G75*
G03*
X19301030Y-9330000I-49530J0D01*
G01*
X19301030Y-11235000D02*
G75*
G03*
X19301030Y-11235000I-49530J0D01*
G01*
X19301030Y-13140000D02*
G75*
G03*
X19301030Y-13140000I-49530J0D01*
G01*
D14*
X4844500Y-7759910D02*
X4844500Y-7930090D01*
X4759410Y-7845000D02*
X4929590Y-7845000D01*
X4844500Y-9664910D02*
X4844500Y-9835090D01*
X4759410Y-9750000D02*
X4929590Y-9750000D01*
X4844500Y-11569910D02*
X4844500Y-11740090D01*
X4759410Y-11655000D02*
X4929590Y-11655000D01*
X4844500Y-13474910D02*
X4844500Y-13645090D01*
X4759410Y-13560000D02*
X4929590Y-13560000D01*
X4844500Y-15379910D02*
X4844500Y-15550090D01*
X4759410Y-15465000D02*
X4929590Y-15465000D01*
X5944500Y-7759910D02*
X5944500Y-7930090D01*
X5859410Y-7845000D02*
X6029590Y-7845000D01*
X5944500Y-9664910D02*
X5944500Y-9835090D01*
X5859410Y-9750000D02*
X6029590Y-9750000D01*
X5944500Y-11569910D02*
X5944500Y-11740090D01*
X5859410Y-11655000D02*
X6029590Y-11655000D01*
X5944500Y-13474910D02*
X5944500Y-13645090D01*
X5859410Y-13560000D02*
X6029590Y-13560000D01*
X5944500Y-15379910D02*
X5944500Y-15550090D01*
X5859410Y-15465000D02*
X6029590Y-15465000D01*
X6749500Y-7759910D02*
X6749500Y-7930090D01*
X6664410Y-7845000D02*
X6834590Y-7845000D01*
X6749500Y-15379910D02*
X6749500Y-15550090D01*
X6664410Y-15465000D02*
X6834590Y-15465000D01*
X7702000Y-9664910D02*
X7702000Y-9835090D01*
X7616910Y-9750000D02*
X7787090Y-9750000D01*
X7702000Y-11569910D02*
X7702000Y-11740090D01*
X7616910Y-11655000D02*
X7787090Y-11655000D01*
X7702000Y-13474910D02*
X7702000Y-13645090D01*
X7616910Y-13560000D02*
X7787090Y-13560000D01*
X7849500Y-7759910D02*
X7849500Y-7930090D01*
X7764410Y-7845000D02*
X7934590Y-7845000D01*
X7849500Y-15379910D02*
X7849500Y-15550090D01*
X7764410Y-15465000D02*
X7934590Y-15465000D01*
X8654500Y-7759910D02*
X8654500Y-7930090D01*
X8569410Y-7845000D02*
X8739590Y-7845000D01*
X8654500Y-15379910D02*
X8654500Y-15550090D01*
X8569410Y-15465000D02*
X8739590Y-15465000D01*
X8802000Y-9664910D02*
X8802000Y-9835090D01*
X8716910Y-9750000D02*
X8887090Y-9750000D01*
X8802000Y-11569910D02*
X8802000Y-11740090D01*
X8716910Y-11655000D02*
X8887090Y-11655000D01*
X8802000Y-13474910D02*
X8802000Y-13645090D01*
X8716910Y-13560000D02*
X8887090Y-13560000D01*
X9754500Y-7759910D02*
X9754500Y-7930090D01*
X9669410Y-7845000D02*
X9839590Y-7845000D01*
X9754500Y-15379910D02*
X9754500Y-15550090D01*
X9669410Y-15465000D02*
X9839590Y-15465000D01*
X10559500Y-7759910D02*
X10559500Y-7930090D01*
X10474410Y-7845000D02*
X10644590Y-7845000D01*
X10559500Y-9664910D02*
X10559500Y-9835090D01*
X10474410Y-9750000D02*
X10644590Y-9750000D01*
X10559500Y-11569910D02*
X10559500Y-11740090D01*
X10474410Y-11655000D02*
X10644590Y-11655000D01*
X10559500Y-13474910D02*
X10559500Y-13645090D01*
X10474410Y-13560000D02*
X10644590Y-13560000D01*
X10559500Y-15379910D02*
X10559500Y-15550090D01*
X10474410Y-15465000D02*
X10644590Y-15465000D01*
X11659500Y-7759910D02*
X11659500Y-7930090D01*
X11574410Y-7845000D02*
X11744590Y-7845000D01*
X11659500Y-9664910D02*
X11659500Y-9835090D01*
X11574410Y-9750000D02*
X11744590Y-9750000D01*
X11659500Y-11569910D02*
X11659500Y-11740090D01*
X11574410Y-11655000D02*
X11744590Y-11655000D01*
X11659500Y-13474910D02*
X11659500Y-13645090D01*
X11574410Y-13560000D02*
X11744590Y-13560000D01*
X11659500Y-15379910D02*
X11659500Y-15550090D01*
X11574410Y-15465000D02*
X11744590Y-15465000D01*
X12464500Y-7759910D02*
X12464500Y-7930090D01*
X12379410Y-7845000D02*
X12549590Y-7845000D01*
X12464500Y-9664910D02*
X12464500Y-9835090D01*
X12379410Y-9750000D02*
X12549590Y-9750000D01*
X12464500Y-11569910D02*
X12464500Y-11740090D01*
X12379410Y-11655000D02*
X12549590Y-11655000D01*
X12464500Y-13474910D02*
X12464500Y-13645090D01*
X12379410Y-13560000D02*
X12549590Y-13560000D01*
X12464500Y-15379910D02*
X12464500Y-15550090D01*
X12379410Y-15465000D02*
X12549590Y-15465000D01*
X13564500Y-7759910D02*
X13564500Y-7930090D01*
X13479410Y-7845000D02*
X13649590Y-7845000D01*
X13564500Y-9664910D02*
X13564500Y-9835090D01*
X13479410Y-9750000D02*
X13649590Y-9750000D01*
X13564500Y-11569910D02*
X13564500Y-11740090D01*
X13479410Y-11655000D02*
X13649590Y-11655000D01*
X13564500Y-13474910D02*
X13564500Y-13645090D01*
X13479410Y-13560000D02*
X13649590Y-13560000D01*
X13564500Y-15379910D02*
X13564500Y-15550090D01*
X13479410Y-15465000D02*
X13649590Y-15465000D01*
X14369500Y-7759910D02*
X14369500Y-7930090D01*
X14284410Y-7845000D02*
X14454590Y-7845000D01*
X14369500Y-9664910D02*
X14369500Y-9835090D01*
X14284410Y-9750000D02*
X14454590Y-9750000D01*
X14369500Y-11569910D02*
X14369500Y-11740090D01*
X14284410Y-11655000D02*
X14454590Y-11655000D01*
X14369500Y-13474910D02*
X14369500Y-13645090D01*
X14284410Y-13560000D02*
X14454590Y-13560000D01*
X15469500Y-7759910D02*
X15469500Y-7930090D01*
X15384410Y-7845000D02*
X15554590Y-7845000D01*
X15469500Y-9664910D02*
X15469500Y-9835090D01*
X15384410Y-9750000D02*
X15554590Y-9750000D01*
X15469500Y-11569910D02*
X15469500Y-11740090D01*
X15384410Y-11655000D02*
X15554590Y-11655000D01*
X15469500Y-13474910D02*
X15469500Y-13645090D01*
X15384410Y-13560000D02*
X15554590Y-13560000D01*
X16274500Y-7759910D02*
X16274500Y-7930090D01*
X16189410Y-7845000D02*
X16359590Y-7845000D01*
X16274500Y-9664910D02*
X16274500Y-9835090D01*
X16189410Y-9750000D02*
X16359590Y-9750000D01*
X16274500Y-11569910D02*
X16274500Y-11740090D01*
X16189410Y-11655000D02*
X16359590Y-11655000D01*
X16274500Y-13474910D02*
X16274500Y-13645090D01*
X16189410Y-13560000D02*
X16359590Y-13560000D01*
X16274500Y-15379910D02*
X16274500Y-15550090D01*
X16189410Y-15465000D02*
X16359590Y-15465000D01*
X17374500Y-7759910D02*
X17374500Y-7930090D01*
X17289410Y-7845000D02*
X17459590Y-7845000D01*
X17374500Y-9664910D02*
X17374500Y-9835090D01*
X17289410Y-9750000D02*
X17459590Y-9750000D01*
X17374500Y-11569910D02*
X17374500Y-11740090D01*
X17289410Y-11655000D02*
X17459590Y-11655000D01*
X17374500Y-13474910D02*
X17374500Y-13645090D01*
X17289410Y-13560000D02*
X17459590Y-13560000D01*
X17374500Y-15379910D02*
X17374500Y-15550090D01*
X17289410Y-15465000D02*
X17459590Y-15465000D01*
X18179500Y-7759910D02*
X18179500Y-7930090D01*
X18094410Y-7845000D02*
X18264590Y-7845000D01*
X18179500Y-9664910D02*
X18179500Y-9835090D01*
X18094410Y-9750000D02*
X18264590Y-9750000D01*
X18179500Y-11569910D02*
X18179500Y-11740090D01*
X18094410Y-11655000D02*
X18264590Y-11655000D01*
X18179500Y-13474910D02*
X18179500Y-13645090D01*
X18094410Y-13560000D02*
X18264590Y-13560000D01*
X19279500Y-7759910D02*
X19279500Y-7930090D01*
X19194410Y-7845000D02*
X19364590Y-7845000D01*
X19279500Y-9664910D02*
X19279500Y-9835090D01*
X19194410Y-9750000D02*
X19364590Y-9750000D01*
X19279500Y-11569910D02*
X19279500Y-11740090D01*
X19194410Y-11655000D02*
X19364590Y-11655000D01*
X19279500Y-13474910D02*
X19279500Y-13645090D01*
X19194410Y-13560000D02*
X19364590Y-13560000D01*
D15*
X5515735Y-7966235D02*
X5515735Y-7723765D01*
X5273265Y-7723765D01*
X5273265Y-7966235D01*
X5515735Y-7966235D01*
X5515735Y-9871235D02*
X5515735Y-9628765D01*
X5273265Y-9628765D01*
X5273265Y-9871235D01*
X5515735Y-9871235D01*
X5515735Y-11776235D02*
X5515735Y-11533765D01*
X5273265Y-11533765D01*
X5273265Y-11776235D01*
X5515735Y-11776235D01*
X5515735Y-13681235D02*
X5515735Y-13438765D01*
X5273265Y-13438765D01*
X5273265Y-13681235D01*
X5515735Y-13681235D01*
X5515735Y-15586235D02*
X5515735Y-15343765D01*
X5273265Y-15343765D01*
X5273265Y-15586235D01*
X5515735Y-15586235D01*
X7420735Y-7966235D02*
X7420735Y-7723765D01*
X7178265Y-7723765D01*
X7178265Y-7966235D01*
X7420735Y-7966235D01*
X7420735Y-15586235D02*
X7420735Y-15343765D01*
X7178265Y-15343765D01*
X7178265Y-15586235D01*
X7420735Y-15586235D01*
X8373235Y-9871235D02*
X8373235Y-9628765D01*
X8130765Y-9628765D01*
X8130765Y-9871235D01*
X8373235Y-9871235D01*
X8373235Y-11776235D02*
X8373235Y-11533765D01*
X8130765Y-11533765D01*
X8130765Y-11776235D01*
X8373235Y-11776235D01*
X8373235Y-13681235D02*
X8373235Y-13438765D01*
X8130765Y-13438765D01*
X8130765Y-13681235D01*
X8373235Y-13681235D01*
X9325735Y-7966235D02*
X9325735Y-7723765D01*
X9083265Y-7723765D01*
X9083265Y-7966235D01*
X9325735Y-7966235D01*
X9325735Y-15586235D02*
X9325735Y-15343765D01*
X9083265Y-15343765D01*
X9083265Y-15586235D01*
X9325735Y-15586235D01*
X11230735Y-7966235D02*
X11230735Y-7723765D01*
X10988265Y-7723765D01*
X10988265Y-7966235D01*
X11230735Y-7966235D01*
X11230735Y-9871235D02*
X11230735Y-9628765D01*
X10988265Y-9628765D01*
X10988265Y-9871235D01*
X11230735Y-9871235D01*
X11230735Y-11776235D02*
X11230735Y-11533765D01*
X10988265Y-11533765D01*
X10988265Y-11776235D01*
X11230735Y-11776235D01*
X11230735Y-13681235D02*
X11230735Y-13438765D01*
X10988265Y-13438765D01*
X10988265Y-13681235D01*
X11230735Y-13681235D01*
X11230735Y-15586235D02*
X11230735Y-15343765D01*
X10988265Y-15343765D01*
X10988265Y-15586235D01*
X11230735Y-15586235D01*
X13135735Y-7966235D02*
X13135735Y-7723765D01*
X12893265Y-7723765D01*
X12893265Y-7966235D01*
X13135735Y-7966235D01*
X13135735Y-9871235D02*
X13135735Y-9628765D01*
X12893265Y-9628765D01*
X12893265Y-9871235D01*
X13135735Y-9871235D01*
X13135735Y-11776235D02*
X13135735Y-11533765D01*
X12893265Y-11533765D01*
X12893265Y-11776235D01*
X13135735Y-11776235D01*
X13135735Y-13681235D02*
X13135735Y-13438765D01*
X12893265Y-13438765D01*
X12893265Y-13681235D01*
X13135735Y-13681235D01*
X13135735Y-15586235D02*
X13135735Y-15343765D01*
X12893265Y-15343765D01*
X12893265Y-15586235D01*
X13135735Y-15586235D01*
X15040735Y-7966235D02*
X15040735Y-7723765D01*
X14798265Y-7723765D01*
X14798265Y-7966235D01*
X15040735Y-7966235D01*
X15040735Y-9871235D02*
X15040735Y-9628765D01*
X14798265Y-9628765D01*
X14798265Y-9871235D01*
X15040735Y-9871235D01*
X15040735Y-11776235D02*
X15040735Y-11533765D01*
X14798265Y-11533765D01*
X14798265Y-11776235D01*
X15040735Y-11776235D01*
X15040735Y-13681235D02*
X15040735Y-13438765D01*
X14798265Y-13438765D01*
X14798265Y-13681235D01*
X15040735Y-13681235D01*
X16945735Y-7966235D02*
X16945735Y-7723765D01*
X16703265Y-7723765D01*
X16703265Y-7966235D01*
X16945735Y-7966235D01*
X16945735Y-9871235D02*
X16945735Y-9628765D01*
X16703265Y-9628765D01*
X16703265Y-9871235D01*
X16945735Y-9871235D01*
X16945735Y-11776235D02*
X16945735Y-11533765D01*
X16703265Y-11533765D01*
X16703265Y-11776235D01*
X16945735Y-11776235D01*
X16945735Y-13681235D02*
X16945735Y-13438765D01*
X16703265Y-13438765D01*
X16703265Y-13681235D01*
X16945735Y-13681235D01*
X16945735Y-15586235D02*
X16945735Y-15343765D01*
X16703265Y-15343765D01*
X16703265Y-15586235D01*
X16945735Y-15586235D01*
X18850735Y-7966235D02*
X18850735Y-7723765D01*
X18608265Y-7723765D01*
X18608265Y-7966235D01*
X18850735Y-7966235D01*
X18850735Y-9871235D02*
X18850735Y-9628765D01*
X18608265Y-9628765D01*
X18608265Y-9871235D01*
X18850735Y-9871235D01*
X18850735Y-11776235D02*
X18850735Y-11533765D01*
X18608265Y-11533765D01*
X18608265Y-11776235D01*
X18850735Y-11776235D01*
X18850735Y-13681235D02*
X18850735Y-13438765D01*
X18608265Y-13438765D01*
X18608265Y-13681235D01*
X18850735Y-13681235D01*
D16*
X4318000Y-6611200D02*
X4503000Y-6426200D01*
X4318000Y-6241200D01*
X4133000Y-6426200D01*
X4318000Y-6611200D01*
X4318000Y-17584000D02*
X4503000Y-17399000D01*
X4318000Y-17214000D01*
X4133000Y-17399000D01*
X4318000Y-17584000D01*
X18542000Y-6611200D02*
X18727000Y-6426200D01*
X18542000Y-6241200D01*
X18357000Y-6426200D01*
X18542000Y-6611200D01*
X18542000Y-17584000D02*
X18727000Y-17399000D01*
X18542000Y-17214000D01*
X18357000Y-17399000D01*
X18542000Y-17584000D01*
D11*
X3935119Y-18190976D02*
X3935119Y-17990976D01*
X3982738Y-17990976D01*
X4011309Y-18000500D01*
X4030357Y-18019548D01*
X4039881Y-18038595D01*
X4049405Y-18076690D01*
X4049405Y-18105262D01*
X4039881Y-18143357D01*
X4030357Y-18162405D01*
X4011309Y-18181452D01*
X3982738Y-18190976D01*
X3935119Y-18190976D01*
X4135119Y-18190976D02*
X4135119Y-18057643D01*
X4135119Y-18095738D02*
X4144643Y-18076690D01*
X4154167Y-18067167D01*
X4173214Y-18057643D01*
X4192262Y-18057643D01*
X4258929Y-18190976D02*
X4258929Y-18057643D01*
X4258929Y-17990976D02*
X4249405Y-18000500D01*
X4258929Y-18010024D01*
X4268452Y-18000500D01*
X4258929Y-17990976D01*
X4258929Y-18010024D01*
X4382738Y-18190976D02*
X4363690Y-18181452D01*
X4354167Y-18162405D01*
X4354167Y-17990976D01*
X4487500Y-18190976D02*
X4468452Y-18181452D01*
X4458929Y-18162405D01*
X4458929Y-17990976D01*
X4716071Y-18190976D02*
X4716071Y-17990976D01*
X4782738Y-18133833D01*
X4849405Y-17990976D01*
X4849405Y-18190976D01*
X5030357Y-18190976D02*
X5030357Y-18086214D01*
X5020833Y-18067167D01*
X5001786Y-18057643D01*
X4963690Y-18057643D01*
X4944643Y-18067167D01*
X5030357Y-18181452D02*
X5011310Y-18190976D01*
X4963690Y-18190976D01*
X4944643Y-18181452D01*
X4935119Y-18162405D01*
X4935119Y-18143357D01*
X4944643Y-18124310D01*
X4963690Y-18114786D01*
X5011310Y-18114786D01*
X5030357Y-18105262D01*
X5125595Y-18057643D02*
X5125595Y-18257643D01*
X5125595Y-18067167D02*
X5144643Y-18057643D01*
X5182738Y-18057643D01*
X5201786Y-18067167D01*
X5211310Y-18076690D01*
X5220833Y-18095738D01*
X5220833Y-18152881D01*
X5211310Y-18171929D01*
X5201786Y-18181452D01*
X5182738Y-18190976D01*
X5144643Y-18190976D01*
X5125595Y-18181452D01*
X5306548Y-18171929D02*
X5316071Y-18181452D01*
X5306548Y-18190976D01*
X5297024Y-18181452D01*
X5306548Y-18171929D01*
X5306548Y-18190976D01*
X5306548Y-18067167D02*
X5316071Y-18076690D01*
X5306548Y-18086214D01*
X5297024Y-18076690D01*
X5306548Y-18067167D01*
X5306548Y-18086214D01*
D12*
X3597500Y-18480500D02*
X3677500Y-18560500D01*
X3677500Y-18480500D02*
X3597500Y-18560500D01*
D11*
X3973214Y-18410976D02*
X3992262Y-18410976D01*
X4011309Y-18420500D01*
X4020833Y-18430024D01*
X4030357Y-18449071D01*
X4039881Y-18487167D01*
X4039881Y-18534786D01*
X4030357Y-18572881D01*
X4020833Y-18591929D01*
X4011309Y-18601452D01*
X3992262Y-18610976D01*
X3973214Y-18610976D01*
X3954167Y-18601452D01*
X3944643Y-18591929D01*
X3935119Y-18572881D01*
X3925595Y-18534786D01*
X3925595Y-18487167D01*
X3935119Y-18449071D01*
X3944643Y-18430024D01*
X3954167Y-18420500D01*
X3973214Y-18410976D01*
X4125595Y-18591929D02*
X4135119Y-18601452D01*
X4125595Y-18610976D01*
X4116071Y-18601452D01*
X4125595Y-18591929D01*
X4125595Y-18610976D01*
X4249405Y-18496690D02*
X4230357Y-18487167D01*
X4220833Y-18477643D01*
X4211310Y-18458595D01*
X4211310Y-18449071D01*
X4220833Y-18430024D01*
X4230357Y-18420500D01*
X4249405Y-18410976D01*
X4287500Y-18410976D01*
X4306548Y-18420500D01*
X4316071Y-18430024D01*
X4325595Y-18449071D01*
X4325595Y-18458595D01*
X4316071Y-18477643D01*
X4306548Y-18487167D01*
X4287500Y-18496690D01*
X4249405Y-18496690D01*
X4230357Y-18506214D01*
X4220833Y-18515738D01*
X4211310Y-18534786D01*
X4211310Y-18572881D01*
X4220833Y-18591929D01*
X4230357Y-18601452D01*
X4249405Y-18610976D01*
X4287500Y-18610976D01*
X4306548Y-18601452D01*
X4316071Y-18591929D01*
X4325595Y-18572881D01*
X4325595Y-18534786D01*
X4316071Y-18515738D01*
X4306548Y-18506214D01*
X4287500Y-18496690D01*
X4449405Y-18410976D02*
X4468452Y-18410976D01*
X4487500Y-18420500D01*
X4497024Y-18430024D01*
X4506548Y-18449071D01*
X4516071Y-18487167D01*
X4516071Y-18534786D01*
X4506548Y-18572881D01*
X4497024Y-18591929D01*
X4487500Y-18601452D01*
X4468452Y-18610976D01*
X4449405Y-18610976D01*
X4430357Y-18601452D01*
X4420833Y-18591929D01*
X4411310Y-18572881D01*
X4401786Y-18534786D01*
X4401786Y-18487167D01*
X4411310Y-18449071D01*
X4420833Y-18430024D01*
X4430357Y-18420500D01*
X4449405Y-18410976D01*
X4639881Y-18410976D02*
X4658929Y-18410976D01*
X4677976Y-18420500D01*
X4687500Y-18430024D01*
X4697024Y-18449071D01*
X4706548Y-18487167D01*
X4706548Y-18534786D01*
X4697024Y-18572881D01*
X4687500Y-18591929D01*
X4677976Y-18601452D01*
X4658929Y-18610976D01*
X4639881Y-18610976D01*
X4620833Y-18601452D01*
X4611310Y-18591929D01*
X4601786Y-18572881D01*
X4592262Y-18534786D01*
X4592262Y-18487167D01*
X4601786Y-18449071D01*
X4611310Y-18430024D01*
X4620833Y-18420500D01*
X4639881Y-18410976D01*
X4792262Y-18610976D02*
X4792262Y-18477643D01*
X4792262Y-18496690D02*
X4801786Y-18487167D01*
X4820833Y-18477643D01*
X4849405Y-18477643D01*
X4868452Y-18487167D01*
X4877976Y-18506214D01*
X4877976Y-18610976D01*
X4877976Y-18506214D02*
X4887500Y-18487167D01*
X4906548Y-18477643D01*
X4935119Y-18477643D01*
X4954167Y-18487167D01*
X4963690Y-18506214D01*
X4963690Y-18610976D01*
X5058929Y-18610976D02*
X5058929Y-18477643D01*
X5058929Y-18496690D02*
X5068452Y-18487167D01*
X5087500Y-18477643D01*
X5116071Y-18477643D01*
X5135119Y-18487167D01*
X5144643Y-18506214D01*
X5144643Y-18610976D01*
X5144643Y-18506214D02*
X5154167Y-18487167D01*
X5173214Y-18477643D01*
X5201786Y-18477643D01*
X5220833Y-18487167D01*
X5230357Y-18506214D01*
X5230357Y-18610976D01*
X5620833Y-18401452D02*
X5449405Y-18658595D01*
X5877976Y-18410976D02*
X5897024Y-18410976D01*
X5916071Y-18420500D01*
X5925595Y-18430024D01*
X5935119Y-18449071D01*
X5944643Y-18487167D01*
X5944643Y-18534786D01*
X5935119Y-18572881D01*
X5925595Y-18591929D01*
X5916071Y-18601452D01*
X5897024Y-18610976D01*
X5877976Y-18610976D01*
X5858928Y-18601452D01*
X5849405Y-18591929D01*
X5839881Y-18572881D01*
X5830357Y-18534786D01*
X5830357Y-18487167D01*
X5839881Y-18449071D01*
X5849405Y-18430024D01*
X5858928Y-18420500D01*
X5877976Y-18410976D01*
X6030357Y-18591929D02*
X6039881Y-18601452D01*
X6030357Y-18610976D01*
X6020833Y-18601452D01*
X6030357Y-18591929D01*
X6030357Y-18610976D01*
X6163690Y-18410976D02*
X6182738Y-18410976D01*
X6201786Y-18420500D01*
X6211309Y-18430024D01*
X6220833Y-18449071D01*
X6230357Y-18487167D01*
X6230357Y-18534786D01*
X6220833Y-18572881D01*
X6211309Y-18591929D01*
X6201786Y-18601452D01*
X6182738Y-18610976D01*
X6163690Y-18610976D01*
X6144643Y-18601452D01*
X6135119Y-18591929D01*
X6125595Y-18572881D01*
X6116071Y-18534786D01*
X6116071Y-18487167D01*
X6125595Y-18449071D01*
X6135119Y-18430024D01*
X6144643Y-18420500D01*
X6163690Y-18410976D01*
X6297024Y-18410976D02*
X6420833Y-18410976D01*
X6354167Y-18487167D01*
X6382738Y-18487167D01*
X6401786Y-18496690D01*
X6411309Y-18506214D01*
X6420833Y-18525262D01*
X6420833Y-18572881D01*
X6411309Y-18591929D01*
X6401786Y-18601452D01*
X6382738Y-18610976D01*
X6325595Y-18610976D01*
X6306548Y-18601452D01*
X6297024Y-18591929D01*
X6611309Y-18610976D02*
X6497024Y-18610976D01*
X6554167Y-18610976D02*
X6554167Y-18410976D01*
X6535119Y-18439548D01*
X6516071Y-18458595D01*
X6497024Y-18468119D01*
X6792262Y-18410976D02*
X6697024Y-18410976D01*
X6687500Y-18506214D01*
X6697024Y-18496690D01*
X6716071Y-18487167D01*
X6763690Y-18487167D01*
X6782738Y-18496690D01*
X6792262Y-18506214D01*
X6801786Y-18525262D01*
X6801786Y-18572881D01*
X6792262Y-18591929D01*
X6782738Y-18601452D01*
X6763690Y-18610976D01*
X6716071Y-18610976D01*
X6697024Y-18601452D01*
X6687500Y-18591929D01*
X6877976Y-18410976D02*
X6877976Y-18449071D01*
X6954167Y-18410976D02*
X6954167Y-18449071D01*
X7249405Y-18687167D02*
X7239881Y-18677643D01*
X7220833Y-18649071D01*
X7211309Y-18630024D01*
X7201786Y-18601452D01*
X7192262Y-18553833D01*
X7192262Y-18515738D01*
X7201786Y-18468119D01*
X7211309Y-18439548D01*
X7220833Y-18420500D01*
X7239881Y-18391929D01*
X7249405Y-18382405D01*
X7316071Y-18430024D02*
X7325595Y-18420500D01*
X7344643Y-18410976D01*
X7392262Y-18410976D01*
X7411309Y-18420500D01*
X7420833Y-18430024D01*
X7430357Y-18449071D01*
X7430357Y-18468119D01*
X7420833Y-18496690D01*
X7306548Y-18610976D01*
X7430357Y-18610976D01*
X7668452Y-18610976D02*
X7668452Y-18410976D01*
X7754167Y-18610976D02*
X7754167Y-18506214D01*
X7744643Y-18487167D01*
X7725595Y-18477643D01*
X7697024Y-18477643D01*
X7677976Y-18487167D01*
X7668452Y-18496690D01*
X7877976Y-18610976D02*
X7858928Y-18601452D01*
X7849405Y-18591929D01*
X7839881Y-18572881D01*
X7839881Y-18515738D01*
X7849405Y-18496690D01*
X7858928Y-18487167D01*
X7877976Y-18477643D01*
X7906548Y-18477643D01*
X7925595Y-18487167D01*
X7935119Y-18496690D01*
X7944643Y-18515738D01*
X7944643Y-18572881D01*
X7935119Y-18591929D01*
X7925595Y-18601452D01*
X7906548Y-18610976D01*
X7877976Y-18610976D01*
X8058928Y-18610976D02*
X8039881Y-18601452D01*
X8030357Y-18582405D01*
X8030357Y-18410976D01*
X8211309Y-18601452D02*
X8192262Y-18610976D01*
X8154167Y-18610976D01*
X8135119Y-18601452D01*
X8125595Y-18582405D01*
X8125595Y-18506214D01*
X8135119Y-18487167D01*
X8154167Y-18477643D01*
X8192262Y-18477643D01*
X8211309Y-18487167D01*
X8220833Y-18506214D01*
X8220833Y-18525262D01*
X8125595Y-18544310D01*
X8297024Y-18601452D02*
X8316071Y-18610976D01*
X8354167Y-18610976D01*
X8373214Y-18601452D01*
X8382738Y-18582405D01*
X8382738Y-18572881D01*
X8373214Y-18553833D01*
X8354167Y-18544310D01*
X8325595Y-18544310D01*
X8306548Y-18534786D01*
X8297024Y-18515738D01*
X8297024Y-18506214D01*
X8306548Y-18487167D01*
X8325595Y-18477643D01*
X8354167Y-18477643D01*
X8373214Y-18487167D01*
X8449405Y-18687167D02*
X8458929Y-18677643D01*
X8477976Y-18649071D01*
X8487500Y-18630024D01*
X8497024Y-18601452D01*
X8506548Y-18553833D01*
X8506548Y-18515738D01*
X8497024Y-18468119D01*
X8487500Y-18439548D01*
X8477976Y-18420500D01*
X8458929Y-18391929D01*
X8449405Y-18382405D01*
X8811310Y-18687167D02*
X8801786Y-18677643D01*
X8782738Y-18649071D01*
X8773214Y-18630024D01*
X8763690Y-18601452D01*
X8754167Y-18553833D01*
X8754167Y-18515738D01*
X8763690Y-18468119D01*
X8773214Y-18439548D01*
X8782738Y-18420500D01*
X8801786Y-18391929D01*
X8811310Y-18382405D01*
X8887500Y-18477643D02*
X8887500Y-18610976D01*
X8887500Y-18496690D02*
X8897024Y-18487167D01*
X8916071Y-18477643D01*
X8944643Y-18477643D01*
X8963690Y-18487167D01*
X8973214Y-18506214D01*
X8973214Y-18610976D01*
X9097024Y-18610976D02*
X9077976Y-18601452D01*
X9068452Y-18591929D01*
X9058929Y-18572881D01*
X9058929Y-18515738D01*
X9068452Y-18496690D01*
X9077976Y-18487167D01*
X9097024Y-18477643D01*
X9125595Y-18477643D01*
X9144643Y-18487167D01*
X9154167Y-18496690D01*
X9163690Y-18515738D01*
X9163690Y-18572881D01*
X9154167Y-18591929D01*
X9144643Y-18601452D01*
X9125595Y-18610976D01*
X9097024Y-18610976D01*
X9220833Y-18477643D02*
X9297024Y-18477643D01*
X9249405Y-18410976D02*
X9249405Y-18582405D01*
X9258929Y-18601452D01*
X9277976Y-18610976D01*
X9297024Y-18610976D01*
X9516071Y-18477643D02*
X9516071Y-18677643D01*
X9516071Y-18487167D02*
X9535119Y-18477643D01*
X9573214Y-18477643D01*
X9592262Y-18487167D01*
X9601786Y-18496690D01*
X9611310Y-18515738D01*
X9611310Y-18572881D01*
X9601786Y-18591929D01*
X9592262Y-18601452D01*
X9573214Y-18610976D01*
X9535119Y-18610976D01*
X9516071Y-18601452D01*
X9725595Y-18610976D02*
X9706548Y-18601452D01*
X9697024Y-18582405D01*
X9697024Y-18410976D01*
X9887500Y-18610976D02*
X9887500Y-18506214D01*
X9877976Y-18487167D01*
X9858929Y-18477643D01*
X9820833Y-18477643D01*
X9801786Y-18487167D01*
X9887500Y-18601452D02*
X9868452Y-18610976D01*
X9820833Y-18610976D01*
X9801786Y-18601452D01*
X9792262Y-18582405D01*
X9792262Y-18563357D01*
X9801786Y-18544310D01*
X9820833Y-18534786D01*
X9868452Y-18534786D01*
X9887500Y-18525262D01*
X9954167Y-18477643D02*
X10030357Y-18477643D01*
X9982738Y-18410976D02*
X9982738Y-18582405D01*
X9992262Y-18601452D01*
X10011310Y-18610976D01*
X10030357Y-18610976D01*
X10173214Y-18601452D02*
X10154167Y-18610976D01*
X10116071Y-18610976D01*
X10097024Y-18601452D01*
X10087500Y-18582405D01*
X10087500Y-18506214D01*
X10097024Y-18487167D01*
X10116071Y-18477643D01*
X10154167Y-18477643D01*
X10173214Y-18487167D01*
X10182738Y-18506214D01*
X10182738Y-18525262D01*
X10087500Y-18544310D01*
X10354167Y-18610976D02*
X10354167Y-18410976D01*
X10354167Y-18601452D02*
X10335119Y-18610976D01*
X10297024Y-18610976D01*
X10277976Y-18601452D01*
X10268452Y-18591929D01*
X10258929Y-18572881D01*
X10258929Y-18515738D01*
X10268452Y-18496690D01*
X10277976Y-18487167D01*
X10297024Y-18477643D01*
X10335119Y-18477643D01*
X10354167Y-18487167D01*
X10430357Y-18687167D02*
X10439881Y-18677643D01*
X10458929Y-18649071D01*
X10468452Y-18630024D01*
X10477976Y-18601452D01*
X10487500Y-18553833D01*
X10487500Y-18515738D01*
X10477976Y-18468119D01*
X10468452Y-18439548D01*
X10458929Y-18420500D01*
X10439881Y-18391929D01*
X10430357Y-18382405D01*
D13*
X3677500Y-18784500D02*
G75*
G03*
X3677500Y-18784500I-49530J0D01*
G01*
D11*
X3973214Y-18674976D02*
X3992262Y-18674976D01*
X4011309Y-18684500D01*
X4020833Y-18694024D01*
X4030357Y-18713071D01*
X4039881Y-18751167D01*
X4039881Y-18798786D01*
X4030357Y-18836881D01*
X4020833Y-18855929D01*
X4011309Y-18865452D01*
X3992262Y-18874976D01*
X3973214Y-18874976D01*
X3954167Y-18865452D01*
X3944643Y-18855929D01*
X3935119Y-18836881D01*
X3925595Y-18798786D01*
X3925595Y-18751167D01*
X3935119Y-18713071D01*
X3944643Y-18694024D01*
X3954167Y-18684500D01*
X3973214Y-18674976D01*
X4125595Y-18855929D02*
X4135119Y-18865452D01*
X4125595Y-18874976D01*
X4116071Y-18865452D01*
X4125595Y-18855929D01*
X4125595Y-18874976D01*
X4230357Y-18874976D02*
X4268452Y-18874976D01*
X4287500Y-18865452D01*
X4297024Y-18855929D01*
X4316071Y-18827357D01*
X4325595Y-18789262D01*
X4325595Y-18713071D01*
X4316071Y-18694024D01*
X4306548Y-18684500D01*
X4287500Y-18674976D01*
X4249405Y-18674976D01*
X4230357Y-18684500D01*
X4220833Y-18694024D01*
X4211310Y-18713071D01*
X4211310Y-18760690D01*
X4220833Y-18779738D01*
X4230357Y-18789262D01*
X4249405Y-18798786D01*
X4287500Y-18798786D01*
X4306548Y-18789262D01*
X4316071Y-18779738D01*
X4325595Y-18760690D01*
X4420833Y-18874976D02*
X4458929Y-18874976D01*
X4477976Y-18865452D01*
X4487500Y-18855929D01*
X4506548Y-18827357D01*
X4516071Y-18789262D01*
X4516071Y-18713071D01*
X4506548Y-18694024D01*
X4497024Y-18684500D01*
X4477976Y-18674976D01*
X4439881Y-18674976D01*
X4420833Y-18684500D01*
X4411310Y-18694024D01*
X4401786Y-18713071D01*
X4401786Y-18760690D01*
X4411310Y-18779738D01*
X4420833Y-18789262D01*
X4439881Y-18798786D01*
X4477976Y-18798786D01*
X4497024Y-18789262D01*
X4506548Y-18779738D01*
X4516071Y-18760690D01*
X4706548Y-18874976D02*
X4592262Y-18874976D01*
X4649405Y-18874976D02*
X4649405Y-18674976D01*
X4630357Y-18703548D01*
X4611310Y-18722595D01*
X4592262Y-18732119D01*
X4792262Y-18874976D02*
X4792262Y-18741643D01*
X4792262Y-18760690D02*
X4801786Y-18751167D01*
X4820833Y-18741643D01*
X4849405Y-18741643D01*
X4868452Y-18751167D01*
X4877976Y-18770214D01*
X4877976Y-18874976D01*
X4877976Y-18770214D02*
X4887500Y-18751167D01*
X4906548Y-18741643D01*
X4935119Y-18741643D01*
X4954167Y-18751167D01*
X4963690Y-18770214D01*
X4963690Y-18874976D01*
X5058929Y-18874976D02*
X5058929Y-18741643D01*
X5058929Y-18760690D02*
X5068452Y-18751167D01*
X5087500Y-18741643D01*
X5116071Y-18741643D01*
X5135119Y-18751167D01*
X5144643Y-18770214D01*
X5144643Y-18874976D01*
X5144643Y-18770214D02*
X5154167Y-18751167D01*
X5173214Y-18741643D01*
X5201786Y-18741643D01*
X5220833Y-18751167D01*
X5230357Y-18770214D01*
X5230357Y-18874976D01*
X5620833Y-18665452D02*
X5449405Y-18922595D01*
X5877976Y-18674976D02*
X5897024Y-18674976D01*
X5916071Y-18684500D01*
X5925595Y-18694024D01*
X5935119Y-18713071D01*
X5944643Y-18751167D01*
X5944643Y-18798786D01*
X5935119Y-18836881D01*
X5925595Y-18855929D01*
X5916071Y-18865452D01*
X5897024Y-18874976D01*
X5877976Y-18874976D01*
X5858928Y-18865452D01*
X5849405Y-18855929D01*
X5839881Y-18836881D01*
X5830357Y-18798786D01*
X5830357Y-18751167D01*
X5839881Y-18713071D01*
X5849405Y-18694024D01*
X5858928Y-18684500D01*
X5877976Y-18674976D01*
X6030357Y-18855929D02*
X6039881Y-18865452D01*
X6030357Y-18874976D01*
X6020833Y-18865452D01*
X6030357Y-18855929D01*
X6030357Y-18874976D01*
X6163690Y-18674976D02*
X6182738Y-18674976D01*
X6201786Y-18684500D01*
X6211309Y-18694024D01*
X6220833Y-18713071D01*
X6230357Y-18751167D01*
X6230357Y-18798786D01*
X6220833Y-18836881D01*
X6211309Y-18855929D01*
X6201786Y-18865452D01*
X6182738Y-18874976D01*
X6163690Y-18874976D01*
X6144643Y-18865452D01*
X6135119Y-18855929D01*
X6125595Y-18836881D01*
X6116071Y-18798786D01*
X6116071Y-18751167D01*
X6125595Y-18713071D01*
X6135119Y-18694024D01*
X6144643Y-18684500D01*
X6163690Y-18674976D01*
X6297024Y-18674976D02*
X6420833Y-18674976D01*
X6354167Y-18751167D01*
X6382738Y-18751167D01*
X6401786Y-18760690D01*
X6411309Y-18770214D01*
X6420833Y-18789262D01*
X6420833Y-18836881D01*
X6411309Y-18855929D01*
X6401786Y-18865452D01*
X6382738Y-18874976D01*
X6325595Y-18874976D01*
X6306548Y-18865452D01*
X6297024Y-18855929D01*
X6516071Y-18874976D02*
X6554167Y-18874976D01*
X6573214Y-18865452D01*
X6582738Y-18855929D01*
X6601786Y-18827357D01*
X6611309Y-18789262D01*
X6611309Y-18713071D01*
X6601786Y-18694024D01*
X6592262Y-18684500D01*
X6573214Y-18674976D01*
X6535119Y-18674976D01*
X6516071Y-18684500D01*
X6506548Y-18694024D01*
X6497024Y-18713071D01*
X6497024Y-18760690D01*
X6506548Y-18779738D01*
X6516071Y-18789262D01*
X6535119Y-18798786D01*
X6573214Y-18798786D01*
X6592262Y-18789262D01*
X6601786Y-18779738D01*
X6611309Y-18760690D01*
X6735119Y-18674976D02*
X6754167Y-18674976D01*
X6773214Y-18684500D01*
X6782738Y-18694024D01*
X6792262Y-18713071D01*
X6801786Y-18751167D01*
X6801786Y-18798786D01*
X6792262Y-18836881D01*
X6782738Y-18855929D01*
X6773214Y-18865452D01*
X6754167Y-18874976D01*
X6735119Y-18874976D01*
X6716071Y-18865452D01*
X6706548Y-18855929D01*
X6697024Y-18836881D01*
X6687500Y-18798786D01*
X6687500Y-18751167D01*
X6697024Y-18713071D01*
X6706548Y-18694024D01*
X6716071Y-18684500D01*
X6735119Y-18674976D01*
X6877976Y-18674976D02*
X6877976Y-18713071D01*
X6954167Y-18674976D02*
X6954167Y-18713071D01*
X7249405Y-18951167D02*
X7239881Y-18941643D01*
X7220833Y-18913071D01*
X7211309Y-18894024D01*
X7201786Y-18865452D01*
X7192262Y-18817833D01*
X7192262Y-18779738D01*
X7201786Y-18732119D01*
X7211309Y-18703548D01*
X7220833Y-18684500D01*
X7239881Y-18655929D01*
X7249405Y-18646405D01*
X7306548Y-18674976D02*
X7430357Y-18674976D01*
X7363690Y-18751167D01*
X7392262Y-18751167D01*
X7411309Y-18760690D01*
X7420833Y-18770214D01*
X7430357Y-18789262D01*
X7430357Y-18836881D01*
X7420833Y-18855929D01*
X7411309Y-18865452D01*
X7392262Y-18874976D01*
X7335119Y-18874976D01*
X7316071Y-18865452D01*
X7306548Y-18855929D01*
X7611309Y-18674976D02*
X7516071Y-18674976D01*
X7506548Y-18770214D01*
X7516071Y-18760690D01*
X7535119Y-18751167D01*
X7582738Y-18751167D01*
X7601786Y-18760690D01*
X7611309Y-18770214D01*
X7620833Y-18789262D01*
X7620833Y-18836881D01*
X7611309Y-18855929D01*
X7601786Y-18865452D01*
X7582738Y-18874976D01*
X7535119Y-18874976D01*
X7516071Y-18865452D01*
X7506548Y-18855929D01*
X7858928Y-18874976D02*
X7858928Y-18674976D01*
X7944643Y-18874976D02*
X7944643Y-18770214D01*
X7935119Y-18751167D01*
X7916071Y-18741643D01*
X7887500Y-18741643D01*
X7868452Y-18751167D01*
X7858928Y-18760690D01*
X8068452Y-18874976D02*
X8049405Y-18865452D01*
X8039881Y-18855929D01*
X8030357Y-18836881D01*
X8030357Y-18779738D01*
X8039881Y-18760690D01*
X8049405Y-18751167D01*
X8068452Y-18741643D01*
X8097024Y-18741643D01*
X8116071Y-18751167D01*
X8125595Y-18760690D01*
X8135119Y-18779738D01*
X8135119Y-18836881D01*
X8125595Y-18855929D01*
X8116071Y-18865452D01*
X8097024Y-18874976D01*
X8068452Y-18874976D01*
X8249405Y-18874976D02*
X8230357Y-18865452D01*
X8220833Y-18846405D01*
X8220833Y-18674976D01*
X8401786Y-18865452D02*
X8382738Y-18874976D01*
X8344643Y-18874976D01*
X8325595Y-18865452D01*
X8316071Y-18846405D01*
X8316071Y-18770214D01*
X8325595Y-18751167D01*
X8344643Y-18741643D01*
X8382738Y-18741643D01*
X8401786Y-18751167D01*
X8411310Y-18770214D01*
X8411310Y-18789262D01*
X8316071Y-18808310D01*
X8487500Y-18865452D02*
X8506548Y-18874976D01*
X8544643Y-18874976D01*
X8563690Y-18865452D01*
X8573214Y-18846405D01*
X8573214Y-18836881D01*
X8563690Y-18817833D01*
X8544643Y-18808310D01*
X8516071Y-18808310D01*
X8497024Y-18798786D01*
X8487500Y-18779738D01*
X8487500Y-18770214D01*
X8497024Y-18751167D01*
X8516071Y-18741643D01*
X8544643Y-18741643D01*
X8563690Y-18751167D01*
X8639881Y-18951167D02*
X8649405Y-18941643D01*
X8668452Y-18913071D01*
X8677976Y-18894024D01*
X8687500Y-18865452D01*
X8697024Y-18817833D01*
X8697024Y-18779738D01*
X8687500Y-18732119D01*
X8677976Y-18703548D01*
X8668452Y-18684500D01*
X8649405Y-18655929D01*
X8639881Y-18646405D01*
X9001786Y-18951167D02*
X8992262Y-18941643D01*
X8973214Y-18913071D01*
X8963690Y-18894024D01*
X8954167Y-18865452D01*
X8944643Y-18817833D01*
X8944643Y-18779738D01*
X8954167Y-18732119D01*
X8963690Y-18703548D01*
X8973214Y-18684500D01*
X8992262Y-18655929D01*
X9001786Y-18646405D01*
X9077976Y-18741643D02*
X9077976Y-18874976D01*
X9077976Y-18760690D02*
X9087500Y-18751167D01*
X9106548Y-18741643D01*
X9135119Y-18741643D01*
X9154167Y-18751167D01*
X9163690Y-18770214D01*
X9163690Y-18874976D01*
X9287500Y-18874976D02*
X9268452Y-18865452D01*
X9258929Y-18855929D01*
X9249405Y-18836881D01*
X9249405Y-18779738D01*
X9258929Y-18760690D01*
X9268452Y-18751167D01*
X9287500Y-18741643D01*
X9316071Y-18741643D01*
X9335119Y-18751167D01*
X9344643Y-18760690D01*
X9354167Y-18779738D01*
X9354167Y-18836881D01*
X9344643Y-18855929D01*
X9335119Y-18865452D01*
X9316071Y-18874976D01*
X9287500Y-18874976D01*
X9411310Y-18741643D02*
X9487500Y-18741643D01*
X9439881Y-18674976D02*
X9439881Y-18846405D01*
X9449405Y-18865452D01*
X9468452Y-18874976D01*
X9487500Y-18874976D01*
X9706548Y-18741643D02*
X9706548Y-18941643D01*
X9706548Y-18751167D02*
X9725595Y-18741643D01*
X9763690Y-18741643D01*
X9782738Y-18751167D01*
X9792262Y-18760690D01*
X9801786Y-18779738D01*
X9801786Y-18836881D01*
X9792262Y-18855929D01*
X9782738Y-18865452D01*
X9763690Y-18874976D01*
X9725595Y-18874976D01*
X9706548Y-18865452D01*
X9916071Y-18874976D02*
X9897024Y-18865452D01*
X9887500Y-18846405D01*
X9887500Y-18674976D01*
X10077976Y-18874976D02*
X10077976Y-18770214D01*
X10068452Y-18751167D01*
X10049405Y-18741643D01*
X10011310Y-18741643D01*
X9992262Y-18751167D01*
X10077976Y-18865452D02*
X10058929Y-18874976D01*
X10011310Y-18874976D01*
X9992262Y-18865452D01*
X9982738Y-18846405D01*
X9982738Y-18827357D01*
X9992262Y-18808310D01*
X10011310Y-18798786D01*
X10058929Y-18798786D01*
X10077976Y-18789262D01*
X10144643Y-18741643D02*
X10220833Y-18741643D01*
X10173214Y-18674976D02*
X10173214Y-18846405D01*
X10182738Y-18865452D01*
X10201786Y-18874976D01*
X10220833Y-18874976D01*
X10363690Y-18865452D02*
X10344643Y-18874976D01*
X10306548Y-18874976D01*
X10287500Y-18865452D01*
X10277976Y-18846405D01*
X10277976Y-18770214D01*
X10287500Y-18751167D01*
X10306548Y-18741643D01*
X10344643Y-18741643D01*
X10363690Y-18751167D01*
X10373214Y-18770214D01*
X10373214Y-18789262D01*
X10277976Y-18808310D01*
X10544643Y-18874976D02*
X10544643Y-18674976D01*
X10544643Y-18865452D02*
X10525595Y-18874976D01*
X10487500Y-18874976D01*
X10468452Y-18865452D01*
X10458929Y-18855929D01*
X10449405Y-18836881D01*
X10449405Y-18779738D01*
X10458929Y-18760690D01*
X10468452Y-18751167D01*
X10487500Y-18741643D01*
X10525595Y-18741643D01*
X10544643Y-18751167D01*
X10620833Y-18951167D02*
X10630357Y-18941643D01*
X10649405Y-18913071D01*
X10658929Y-18894024D01*
X10668452Y-18865452D01*
X10677976Y-18817833D01*
X10677976Y-18779738D01*
X10668452Y-18732119D01*
X10658929Y-18703548D01*
X10649405Y-18684500D01*
X10630357Y-18655929D01*
X10620833Y-18646405D01*
D14*
X3592410Y-18963410D02*
X3592410Y-19133590D01*
X3507320Y-19048500D02*
X3677500Y-19048500D01*
D11*
X4039881Y-19138976D02*
X3925595Y-19138976D01*
X3982738Y-19138976D02*
X3982738Y-18938976D01*
X3963690Y-18967548D01*
X3944643Y-18986595D01*
X3925595Y-18996119D01*
X4125595Y-19119929D02*
X4135119Y-19129452D01*
X4125595Y-19138976D01*
X4116071Y-19129452D01*
X4125595Y-19119929D01*
X4125595Y-19138976D01*
X4201786Y-18938976D02*
X4335119Y-18938976D01*
X4249405Y-19138976D01*
X4449405Y-18938976D02*
X4468452Y-18938976D01*
X4487500Y-18948500D01*
X4497024Y-18958024D01*
X4506548Y-18977071D01*
X4516071Y-19015167D01*
X4516071Y-19062786D01*
X4506548Y-19100881D01*
X4497024Y-19119929D01*
X4487500Y-19129452D01*
X4468452Y-19138976D01*
X4449405Y-19138976D01*
X4430357Y-19129452D01*
X4420833Y-19119929D01*
X4411310Y-19100881D01*
X4401786Y-19062786D01*
X4401786Y-19015167D01*
X4411310Y-18977071D01*
X4420833Y-18958024D01*
X4430357Y-18948500D01*
X4449405Y-18938976D01*
X4592262Y-18958024D02*
X4601786Y-18948500D01*
X4620833Y-18938976D01*
X4668452Y-18938976D01*
X4687500Y-18948500D01*
X4697024Y-18958024D01*
X4706548Y-18977071D01*
X4706548Y-18996119D01*
X4697024Y-19024690D01*
X4582738Y-19138976D01*
X4706548Y-19138976D01*
X4792262Y-19138976D02*
X4792262Y-19005643D01*
X4792262Y-19024690D02*
X4801786Y-19015167D01*
X4820833Y-19005643D01*
X4849405Y-19005643D01*
X4868452Y-19015167D01*
X4877976Y-19034214D01*
X4877976Y-19138976D01*
X4877976Y-19034214D02*
X4887500Y-19015167D01*
X4906548Y-19005643D01*
X4935119Y-19005643D01*
X4954167Y-19015167D01*
X4963690Y-19034214D01*
X4963690Y-19138976D01*
X5058929Y-19138976D02*
X5058929Y-19005643D01*
X5058929Y-19024690D02*
X5068452Y-19015167D01*
X5087500Y-19005643D01*
X5116071Y-19005643D01*
X5135119Y-19015167D01*
X5144643Y-19034214D01*
X5144643Y-19138976D01*
X5144643Y-19034214D02*
X5154167Y-19015167D01*
X5173214Y-19005643D01*
X5201786Y-19005643D01*
X5220833Y-19015167D01*
X5230357Y-19034214D01*
X5230357Y-19138976D01*
X5620833Y-18929452D02*
X5449405Y-19186595D01*
X5877976Y-18938976D02*
X5897024Y-18938976D01*
X5916071Y-18948500D01*
X5925595Y-18958024D01*
X5935119Y-18977071D01*
X5944643Y-19015167D01*
X5944643Y-19062786D01*
X5935119Y-19100881D01*
X5925595Y-19119929D01*
X5916071Y-19129452D01*
X5897024Y-19138976D01*
X5877976Y-19138976D01*
X5858928Y-19129452D01*
X5849405Y-19119929D01*
X5839881Y-19100881D01*
X5830357Y-19062786D01*
X5830357Y-19015167D01*
X5839881Y-18977071D01*
X5849405Y-18958024D01*
X5858928Y-18948500D01*
X5877976Y-18938976D01*
X6030357Y-19119929D02*
X6039881Y-19129452D01*
X6030357Y-19138976D01*
X6020833Y-19129452D01*
X6030357Y-19119929D01*
X6030357Y-19138976D01*
X6163690Y-18938976D02*
X6182738Y-18938976D01*
X6201786Y-18948500D01*
X6211309Y-18958024D01*
X6220833Y-18977071D01*
X6230357Y-19015167D01*
X6230357Y-19062786D01*
X6220833Y-19100881D01*
X6211309Y-19119929D01*
X6201786Y-19129452D01*
X6182738Y-19138976D01*
X6163690Y-19138976D01*
X6144643Y-19129452D01*
X6135119Y-19119929D01*
X6125595Y-19100881D01*
X6116071Y-19062786D01*
X6116071Y-19015167D01*
X6125595Y-18977071D01*
X6135119Y-18958024D01*
X6144643Y-18948500D01*
X6163690Y-18938976D01*
X6401786Y-18938976D02*
X6363690Y-18938976D01*
X6344643Y-18948500D01*
X6335119Y-18958024D01*
X6316071Y-18986595D01*
X6306548Y-19024690D01*
X6306548Y-19100881D01*
X6316071Y-19119929D01*
X6325595Y-19129452D01*
X6344643Y-19138976D01*
X6382738Y-19138976D01*
X6401786Y-19129452D01*
X6411309Y-19119929D01*
X6420833Y-19100881D01*
X6420833Y-19053262D01*
X6411309Y-19034214D01*
X6401786Y-19024690D01*
X6382738Y-19015167D01*
X6344643Y-19015167D01*
X6325595Y-19024690D01*
X6316071Y-19034214D01*
X6306548Y-19053262D01*
X6487500Y-18938976D02*
X6620833Y-18938976D01*
X6535119Y-19138976D01*
X6735119Y-18938976D02*
X6754167Y-18938976D01*
X6773214Y-18948500D01*
X6782738Y-18958024D01*
X6792262Y-18977071D01*
X6801786Y-19015167D01*
X6801786Y-19062786D01*
X6792262Y-19100881D01*
X6782738Y-19119929D01*
X6773214Y-19129452D01*
X6754167Y-19138976D01*
X6735119Y-19138976D01*
X6716071Y-19129452D01*
X6706548Y-19119929D01*
X6697024Y-19100881D01*
X6687500Y-19062786D01*
X6687500Y-19015167D01*
X6697024Y-18977071D01*
X6706548Y-18958024D01*
X6716071Y-18948500D01*
X6735119Y-18938976D01*
X6877976Y-18938976D02*
X6877976Y-18977071D01*
X6954167Y-18938976D02*
X6954167Y-18977071D01*
X7249405Y-19215167D02*
X7239881Y-19205643D01*
X7220833Y-19177071D01*
X7211309Y-19158024D01*
X7201786Y-19129452D01*
X7192262Y-19081833D01*
X7192262Y-19043738D01*
X7201786Y-18996119D01*
X7211309Y-18967548D01*
X7220833Y-18948500D01*
X7239881Y-18919929D01*
X7249405Y-18910405D01*
X7306548Y-18938976D02*
X7439881Y-18938976D01*
X7354167Y-19138976D01*
X7554167Y-18938976D02*
X7573214Y-18938976D01*
X7592262Y-18948500D01*
X7601786Y-18958024D01*
X7611309Y-18977071D01*
X7620833Y-19015167D01*
X7620833Y-19062786D01*
X7611309Y-19100881D01*
X7601786Y-19119929D01*
X7592262Y-19129452D01*
X7573214Y-19138976D01*
X7554167Y-19138976D01*
X7535119Y-19129452D01*
X7525595Y-19119929D01*
X7516071Y-19100881D01*
X7506548Y-19062786D01*
X7506548Y-19015167D01*
X7516071Y-18977071D01*
X7525595Y-18958024D01*
X7535119Y-18948500D01*
X7554167Y-18938976D01*
X7858928Y-19138976D02*
X7858928Y-18938976D01*
X7944643Y-19138976D02*
X7944643Y-19034214D01*
X7935119Y-19015167D01*
X7916071Y-19005643D01*
X7887500Y-19005643D01*
X7868452Y-19015167D01*
X7858928Y-19024690D01*
X8068452Y-19138976D02*
X8049405Y-19129452D01*
X8039881Y-19119929D01*
X8030357Y-19100881D01*
X8030357Y-19043738D01*
X8039881Y-19024690D01*
X8049405Y-19015167D01*
X8068452Y-19005643D01*
X8097024Y-19005643D01*
X8116071Y-19015167D01*
X8125595Y-19024690D01*
X8135119Y-19043738D01*
X8135119Y-19100881D01*
X8125595Y-19119929D01*
X8116071Y-19129452D01*
X8097024Y-19138976D01*
X8068452Y-19138976D01*
X8249405Y-19138976D02*
X8230357Y-19129452D01*
X8220833Y-19110405D01*
X8220833Y-18938976D01*
X8401786Y-19129452D02*
X8382738Y-19138976D01*
X8344643Y-19138976D01*
X8325595Y-19129452D01*
X8316071Y-19110405D01*
X8316071Y-19034214D01*
X8325595Y-19015167D01*
X8344643Y-19005643D01*
X8382738Y-19005643D01*
X8401786Y-19015167D01*
X8411310Y-19034214D01*
X8411310Y-19053262D01*
X8316071Y-19072310D01*
X8487500Y-19129452D02*
X8506548Y-19138976D01*
X8544643Y-19138976D01*
X8563690Y-19129452D01*
X8573214Y-19110405D01*
X8573214Y-19100881D01*
X8563690Y-19081833D01*
X8544643Y-19072310D01*
X8516071Y-19072310D01*
X8497024Y-19062786D01*
X8487500Y-19043738D01*
X8487500Y-19034214D01*
X8497024Y-19015167D01*
X8516071Y-19005643D01*
X8544643Y-19005643D01*
X8563690Y-19015167D01*
X8639881Y-19215167D02*
X8649405Y-19205643D01*
X8668452Y-19177071D01*
X8677976Y-19158024D01*
X8687500Y-19129452D01*
X8697024Y-19081833D01*
X8697024Y-19043738D01*
X8687500Y-18996119D01*
X8677976Y-18967548D01*
X8668452Y-18948500D01*
X8649405Y-18919929D01*
X8639881Y-18910405D01*
X9001786Y-19215167D02*
X8992262Y-19205643D01*
X8973214Y-19177071D01*
X8963690Y-19158024D01*
X8954167Y-19129452D01*
X8944643Y-19081833D01*
X8944643Y-19043738D01*
X8954167Y-18996119D01*
X8963690Y-18967548D01*
X8973214Y-18948500D01*
X8992262Y-18919929D01*
X9001786Y-18910405D01*
X9077976Y-19005643D02*
X9077976Y-19138976D01*
X9077976Y-19024690D02*
X9087500Y-19015167D01*
X9106548Y-19005643D01*
X9135119Y-19005643D01*
X9154167Y-19015167D01*
X9163690Y-19034214D01*
X9163690Y-19138976D01*
X9287500Y-19138976D02*
X9268452Y-19129452D01*
X9258929Y-19119929D01*
X9249405Y-19100881D01*
X9249405Y-19043738D01*
X9258929Y-19024690D01*
X9268452Y-19015167D01*
X9287500Y-19005643D01*
X9316071Y-19005643D01*
X9335119Y-19015167D01*
X9344643Y-19024690D01*
X9354167Y-19043738D01*
X9354167Y-19100881D01*
X9344643Y-19119929D01*
X9335119Y-19129452D01*
X9316071Y-19138976D01*
X9287500Y-19138976D01*
X9411310Y-19005643D02*
X9487500Y-19005643D01*
X9439881Y-18938976D02*
X9439881Y-19110405D01*
X9449405Y-19129452D01*
X9468452Y-19138976D01*
X9487500Y-19138976D01*
X9706548Y-19005643D02*
X9706548Y-19205643D01*
X9706548Y-19015167D02*
X9725595Y-19005643D01*
X9763690Y-19005643D01*
X9782738Y-19015167D01*
X9792262Y-19024690D01*
X9801786Y-19043738D01*
X9801786Y-19100881D01*
X9792262Y-19119929D01*
X9782738Y-19129452D01*
X9763690Y-19138976D01*
X9725595Y-19138976D01*
X9706548Y-19129452D01*
X9916071Y-19138976D02*
X9897024Y-19129452D01*
X9887500Y-19110405D01*
X9887500Y-18938976D01*
X10077976Y-19138976D02*
X10077976Y-19034214D01*
X10068452Y-19015167D01*
X10049405Y-19005643D01*
X10011310Y-19005643D01*
X9992262Y-19015167D01*
X10077976Y-19129452D02*
X10058929Y-19138976D01*
X10011310Y-19138976D01*
X9992262Y-19129452D01*
X9982738Y-19110405D01*
X9982738Y-19091357D01*
X9992262Y-19072310D01*
X10011310Y-19062786D01*
X10058929Y-19062786D01*
X10077976Y-19053262D01*
X10144643Y-19005643D02*
X10220833Y-19005643D01*
X10173214Y-18938976D02*
X10173214Y-19110405D01*
X10182738Y-19129452D01*
X10201786Y-19138976D01*
X10220833Y-19138976D01*
X10363690Y-19129452D02*
X10344643Y-19138976D01*
X10306548Y-19138976D01*
X10287500Y-19129452D01*
X10277976Y-19110405D01*
X10277976Y-19034214D01*
X10287500Y-19015167D01*
X10306548Y-19005643D01*
X10344643Y-19005643D01*
X10363690Y-19015167D01*
X10373214Y-19034214D01*
X10373214Y-19053262D01*
X10277976Y-19072310D01*
X10544643Y-19138976D02*
X10544643Y-18938976D01*
X10544643Y-19129452D02*
X10525595Y-19138976D01*
X10487500Y-19138976D01*
X10468452Y-19129452D01*
X10458929Y-19119929D01*
X10449405Y-19100881D01*
X10449405Y-19043738D01*
X10458929Y-19024690D01*
X10468452Y-19015167D01*
X10487500Y-19005643D01*
X10525595Y-19005643D01*
X10544643Y-19015167D01*
X10620833Y-19215167D02*
X10630357Y-19205643D01*
X10649405Y-19177071D01*
X10658929Y-19158024D01*
X10668452Y-19129452D01*
X10677976Y-19081833D01*
X10677976Y-19043738D01*
X10668452Y-18996119D01*
X10658929Y-18967548D01*
X10649405Y-18948500D01*
X10630357Y-18919929D01*
X10620833Y-18910405D01*
X3648211Y-19409391D02*
X3648211Y-19267969D01*
X3506789Y-19267969D01*
X3506789Y-19409391D01*
X3648211Y-19409391D01*
X3916071Y-19229156D02*
X4039881Y-19229156D01*
X3973214Y-19305347D01*
X4001786Y-19305347D01*
X4020833Y-19314870D01*
X4030357Y-19324394D01*
X4039881Y-19343442D01*
X4039881Y-19391061D01*
X4030357Y-19410109D01*
X4020833Y-19419632D01*
X4001786Y-19429156D01*
X3944643Y-19429156D01*
X3925595Y-19419632D01*
X3916071Y-19410109D01*
X4125595Y-19410109D02*
X4135119Y-19419632D01*
X4125595Y-19429156D01*
X4116071Y-19419632D01*
X4125595Y-19410109D01*
X4125595Y-19429156D01*
X4306548Y-19295823D02*
X4306548Y-19429156D01*
X4258929Y-19219632D02*
X4211310Y-19362490D01*
X4335119Y-19362490D01*
X4401786Y-19248204D02*
X4411310Y-19238680D01*
X4430357Y-19229156D01*
X4477976Y-19229156D01*
X4497024Y-19238680D01*
X4506548Y-19248204D01*
X4516071Y-19267251D01*
X4516071Y-19286299D01*
X4506548Y-19314870D01*
X4392262Y-19429156D01*
X4516071Y-19429156D01*
X4611310Y-19429156D02*
X4649405Y-19429156D01*
X4668452Y-19419632D01*
X4677976Y-19410109D01*
X4697024Y-19381537D01*
X4706548Y-19343442D01*
X4706548Y-19267251D01*
X4697024Y-19248204D01*
X4687500Y-19238680D01*
X4668452Y-19229156D01*
X4630357Y-19229156D01*
X4611310Y-19238680D01*
X4601786Y-19248204D01*
X4592262Y-19267251D01*
X4592262Y-19314870D01*
X4601786Y-19333918D01*
X4611310Y-19343442D01*
X4630357Y-19352966D01*
X4668452Y-19352966D01*
X4687500Y-19343442D01*
X4697024Y-19333918D01*
X4706548Y-19314870D01*
X4792262Y-19429156D02*
X4792262Y-19295823D01*
X4792262Y-19314870D02*
X4801786Y-19305347D01*
X4820833Y-19295823D01*
X4849405Y-19295823D01*
X4868452Y-19305347D01*
X4877976Y-19324394D01*
X4877976Y-19429156D01*
X4877976Y-19324394D02*
X4887500Y-19305347D01*
X4906548Y-19295823D01*
X4935119Y-19295823D01*
X4954167Y-19305347D01*
X4963690Y-19324394D01*
X4963690Y-19429156D01*
X5058929Y-19429156D02*
X5058929Y-19295823D01*
X5058929Y-19314870D02*
X5068452Y-19305347D01*
X5087500Y-19295823D01*
X5116071Y-19295823D01*
X5135119Y-19305347D01*
X5144643Y-19324394D01*
X5144643Y-19429156D01*
X5144643Y-19324394D02*
X5154167Y-19305347D01*
X5173214Y-19295823D01*
X5201786Y-19295823D01*
X5220833Y-19305347D01*
X5230357Y-19324394D01*
X5230357Y-19429156D01*
X5620833Y-19219632D02*
X5449405Y-19476775D01*
X5877976Y-19229156D02*
X5897024Y-19229156D01*
X5916071Y-19238680D01*
X5925595Y-19248204D01*
X5935119Y-19267251D01*
X5944643Y-19305347D01*
X5944643Y-19352966D01*
X5935119Y-19391061D01*
X5925595Y-19410109D01*
X5916071Y-19419632D01*
X5897024Y-19429156D01*
X5877976Y-19429156D01*
X5858928Y-19419632D01*
X5849405Y-19410109D01*
X5839881Y-19391061D01*
X5830357Y-19352966D01*
X5830357Y-19305347D01*
X5839881Y-19267251D01*
X5849405Y-19248204D01*
X5858928Y-19238680D01*
X5877976Y-19229156D01*
X6030357Y-19410109D02*
X6039881Y-19419632D01*
X6030357Y-19429156D01*
X6020833Y-19419632D01*
X6030357Y-19410109D01*
X6030357Y-19429156D01*
X6230357Y-19429156D02*
X6116071Y-19429156D01*
X6173214Y-19429156D02*
X6173214Y-19229156D01*
X6154167Y-19257728D01*
X6135119Y-19276775D01*
X6116071Y-19286299D01*
X6297024Y-19229156D02*
X6420833Y-19229156D01*
X6354167Y-19305347D01*
X6382738Y-19305347D01*
X6401786Y-19314870D01*
X6411309Y-19324394D01*
X6420833Y-19343442D01*
X6420833Y-19391061D01*
X6411309Y-19410109D01*
X6401786Y-19419632D01*
X6382738Y-19429156D01*
X6325595Y-19429156D01*
X6306548Y-19419632D01*
X6297024Y-19410109D01*
X6601786Y-19229156D02*
X6506548Y-19229156D01*
X6497024Y-19324394D01*
X6506548Y-19314870D01*
X6525595Y-19305347D01*
X6573214Y-19305347D01*
X6592262Y-19314870D01*
X6601786Y-19324394D01*
X6611309Y-19343442D01*
X6611309Y-19391061D01*
X6601786Y-19410109D01*
X6592262Y-19419632D01*
X6573214Y-19429156D01*
X6525595Y-19429156D01*
X6506548Y-19419632D01*
X6497024Y-19410109D01*
X6735119Y-19229156D02*
X6754167Y-19229156D01*
X6773214Y-19238680D01*
X6782738Y-19248204D01*
X6792262Y-19267251D01*
X6801786Y-19305347D01*
X6801786Y-19352966D01*
X6792262Y-19391061D01*
X6782738Y-19410109D01*
X6773214Y-19419632D01*
X6754167Y-19429156D01*
X6735119Y-19429156D01*
X6716071Y-19419632D01*
X6706548Y-19410109D01*
X6697024Y-19391061D01*
X6687500Y-19352966D01*
X6687500Y-19305347D01*
X6697024Y-19267251D01*
X6706548Y-19248204D01*
X6716071Y-19238680D01*
X6735119Y-19229156D01*
X6877976Y-19229156D02*
X6877976Y-19267251D01*
X6954167Y-19229156D02*
X6954167Y-19267251D01*
X7249405Y-19505347D02*
X7239881Y-19495823D01*
X7220833Y-19467251D01*
X7211309Y-19448204D01*
X7201786Y-19419632D01*
X7192262Y-19372013D01*
X7192262Y-19333918D01*
X7201786Y-19286299D01*
X7211309Y-19257728D01*
X7220833Y-19238680D01*
X7239881Y-19210109D01*
X7249405Y-19200585D01*
X7306548Y-19229156D02*
X7430357Y-19229156D01*
X7363690Y-19305347D01*
X7392262Y-19305347D01*
X7411309Y-19314870D01*
X7420833Y-19324394D01*
X7430357Y-19343442D01*
X7430357Y-19391061D01*
X7420833Y-19410109D01*
X7411309Y-19419632D01*
X7392262Y-19429156D01*
X7335119Y-19429156D01*
X7316071Y-19419632D01*
X7306548Y-19410109D01*
X7611309Y-19229156D02*
X7516071Y-19229156D01*
X7506548Y-19324394D01*
X7516071Y-19314870D01*
X7535119Y-19305347D01*
X7582738Y-19305347D01*
X7601786Y-19314870D01*
X7611309Y-19324394D01*
X7620833Y-19343442D01*
X7620833Y-19391061D01*
X7611309Y-19410109D01*
X7601786Y-19419632D01*
X7582738Y-19429156D01*
X7535119Y-19429156D01*
X7516071Y-19419632D01*
X7506548Y-19410109D01*
X7858928Y-19429156D02*
X7858928Y-19229156D01*
X7944643Y-19429156D02*
X7944643Y-19324394D01*
X7935119Y-19305347D01*
X7916071Y-19295823D01*
X7887500Y-19295823D01*
X7868452Y-19305347D01*
X7858928Y-19314870D01*
X8068452Y-19429156D02*
X8049405Y-19419632D01*
X8039881Y-19410109D01*
X8030357Y-19391061D01*
X8030357Y-19333918D01*
X8039881Y-19314870D01*
X8049405Y-19305347D01*
X8068452Y-19295823D01*
X8097024Y-19295823D01*
X8116071Y-19305347D01*
X8125595Y-19314870D01*
X8135119Y-19333918D01*
X8135119Y-19391061D01*
X8125595Y-19410109D01*
X8116071Y-19419632D01*
X8097024Y-19429156D01*
X8068452Y-19429156D01*
X8249405Y-19429156D02*
X8230357Y-19419632D01*
X8220833Y-19400585D01*
X8220833Y-19229156D01*
X8401786Y-19419632D02*
X8382738Y-19429156D01*
X8344643Y-19429156D01*
X8325595Y-19419632D01*
X8316071Y-19400585D01*
X8316071Y-19324394D01*
X8325595Y-19305347D01*
X8344643Y-19295823D01*
X8382738Y-19295823D01*
X8401786Y-19305347D01*
X8411310Y-19324394D01*
X8411310Y-19343442D01*
X8316071Y-19362490D01*
X8487500Y-19419632D02*
X8506548Y-19429156D01*
X8544643Y-19429156D01*
X8563690Y-19419632D01*
X8573214Y-19400585D01*
X8573214Y-19391061D01*
X8563690Y-19372013D01*
X8544643Y-19362490D01*
X8516071Y-19362490D01*
X8497024Y-19352966D01*
X8487500Y-19333918D01*
X8487500Y-19324394D01*
X8497024Y-19305347D01*
X8516071Y-19295823D01*
X8544643Y-19295823D01*
X8563690Y-19305347D01*
X8639881Y-19505347D02*
X8649405Y-19495823D01*
X8668452Y-19467251D01*
X8677976Y-19448204D01*
X8687500Y-19419632D01*
X8697024Y-19372013D01*
X8697024Y-19333918D01*
X8687500Y-19286299D01*
X8677976Y-19257728D01*
X8668452Y-19238680D01*
X8649405Y-19210109D01*
X8639881Y-19200585D01*
X9001786Y-19505347D02*
X8992262Y-19495823D01*
X8973214Y-19467251D01*
X8963690Y-19448204D01*
X8954167Y-19419632D01*
X8944643Y-19372013D01*
X8944643Y-19333918D01*
X8954167Y-19286299D01*
X8963690Y-19257728D01*
X8973214Y-19238680D01*
X8992262Y-19210109D01*
X9001786Y-19200585D01*
X9077976Y-19295823D02*
X9077976Y-19429156D01*
X9077976Y-19314870D02*
X9087500Y-19305347D01*
X9106548Y-19295823D01*
X9135119Y-19295823D01*
X9154167Y-19305347D01*
X9163690Y-19324394D01*
X9163690Y-19429156D01*
X9287500Y-19429156D02*
X9268452Y-19419632D01*
X9258929Y-19410109D01*
X9249405Y-19391061D01*
X9249405Y-19333918D01*
X9258929Y-19314870D01*
X9268452Y-19305347D01*
X9287500Y-19295823D01*
X9316071Y-19295823D01*
X9335119Y-19305347D01*
X9344643Y-19314870D01*
X9354167Y-19333918D01*
X9354167Y-19391061D01*
X9344643Y-19410109D01*
X9335119Y-19419632D01*
X9316071Y-19429156D01*
X9287500Y-19429156D01*
X9411310Y-19295823D02*
X9487500Y-19295823D01*
X9439881Y-19229156D02*
X9439881Y-19400585D01*
X9449405Y-19419632D01*
X9468452Y-19429156D01*
X9487500Y-19429156D01*
X9706548Y-19295823D02*
X9706548Y-19495823D01*
X9706548Y-19305347D02*
X9725595Y-19295823D01*
X9763690Y-19295823D01*
X9782738Y-19305347D01*
X9792262Y-19314870D01*
X9801786Y-19333918D01*
X9801786Y-19391061D01*
X9792262Y-19410109D01*
X9782738Y-19419632D01*
X9763690Y-19429156D01*
X9725595Y-19429156D01*
X9706548Y-19419632D01*
X9916071Y-19429156D02*
X9897024Y-19419632D01*
X9887500Y-19400585D01*
X9887500Y-19229156D01*
X10077976Y-19429156D02*
X10077976Y-19324394D01*
X10068452Y-19305347D01*
X10049405Y-19295823D01*
X10011310Y-19295823D01*
X9992262Y-19305347D01*
X10077976Y-19419632D02*
X10058929Y-19429156D01*
X10011310Y-19429156D01*
X9992262Y-19419632D01*
X9982738Y-19400585D01*
X9982738Y-19381537D01*
X9992262Y-19362490D01*
X10011310Y-19352966D01*
X10058929Y-19352966D01*
X10077976Y-19343442D01*
X10144643Y-19295823D02*
X10220833Y-19295823D01*
X10173214Y-19229156D02*
X10173214Y-19400585D01*
X10182738Y-19419632D01*
X10201786Y-19429156D01*
X10220833Y-19429156D01*
X10363690Y-19419632D02*
X10344643Y-19429156D01*
X10306548Y-19429156D01*
X10287500Y-19419632D01*
X10277976Y-19400585D01*
X10277976Y-19324394D01*
X10287500Y-19305347D01*
X10306548Y-19295823D01*
X10344643Y-19295823D01*
X10363690Y-19305347D01*
X10373214Y-19324394D01*
X10373214Y-19343442D01*
X10277976Y-19362490D01*
X10544643Y-19429156D02*
X10544643Y-19229156D01*
X10544643Y-19419632D02*
X10525595Y-19429156D01*
X10487500Y-19429156D01*
X10468452Y-19419632D01*
X10458929Y-19410109D01*
X10449405Y-19391061D01*
X10449405Y-19333918D01*
X10458929Y-19314870D01*
X10468452Y-19305347D01*
X10487500Y-19295823D01*
X10525595Y-19295823D01*
X10544643Y-19305347D01*
X10620833Y-19505347D02*
X10630357Y-19495823D01*
X10649405Y-19467251D01*
X10658929Y-19448204D01*
X10668452Y-19419632D01*
X10677976Y-19372013D01*
X10677976Y-19333918D01*
X10668452Y-19286299D01*
X10658929Y-19257728D01*
X10649405Y-19238680D01*
X10630357Y-19210109D01*
X10620833Y-19200585D01*
X3577500Y-19758680D02*
X3677500Y-19658680D01*
X3577500Y-19558680D01*
X3477500Y-19658680D01*
X3577500Y-19758680D01*
X3916071Y-19549156D02*
X4039881Y-19549156D01*
X3973214Y-19625347D01*
X4001786Y-19625347D01*
X4020833Y-19634870D01*
X4030357Y-19644394D01*
X4039881Y-19663442D01*
X4039881Y-19711061D01*
X4030357Y-19730109D01*
X4020833Y-19739632D01*
X4001786Y-19749156D01*
X3944643Y-19749156D01*
X3925595Y-19739632D01*
X3916071Y-19730109D01*
X4125595Y-19730109D02*
X4135119Y-19739632D01*
X4125595Y-19749156D01*
X4116071Y-19739632D01*
X4125595Y-19730109D01*
X4125595Y-19749156D01*
X4201786Y-19549156D02*
X4335119Y-19549156D01*
X4249405Y-19749156D01*
X4449405Y-19549156D02*
X4468452Y-19549156D01*
X4487500Y-19558680D01*
X4497024Y-19568204D01*
X4506548Y-19587251D01*
X4516071Y-19625347D01*
X4516071Y-19672966D01*
X4506548Y-19711061D01*
X4497024Y-19730109D01*
X4487500Y-19739632D01*
X4468452Y-19749156D01*
X4449405Y-19749156D01*
X4430357Y-19739632D01*
X4420833Y-19730109D01*
X4411310Y-19711061D01*
X4401786Y-19672966D01*
X4401786Y-19625347D01*
X4411310Y-19587251D01*
X4420833Y-19568204D01*
X4430357Y-19558680D01*
X4449405Y-19549156D01*
X4639881Y-19549156D02*
X4658929Y-19549156D01*
X4677976Y-19558680D01*
X4687500Y-19568204D01*
X4697024Y-19587251D01*
X4706548Y-19625347D01*
X4706548Y-19672966D01*
X4697024Y-19711061D01*
X4687500Y-19730109D01*
X4677976Y-19739632D01*
X4658929Y-19749156D01*
X4639881Y-19749156D01*
X4620833Y-19739632D01*
X4611310Y-19730109D01*
X4601786Y-19711061D01*
X4592262Y-19672966D01*
X4592262Y-19625347D01*
X4601786Y-19587251D01*
X4611310Y-19568204D01*
X4620833Y-19558680D01*
X4639881Y-19549156D01*
X4792262Y-19749156D02*
X4792262Y-19615823D01*
X4792262Y-19634870D02*
X4801786Y-19625347D01*
X4820833Y-19615823D01*
X4849405Y-19615823D01*
X4868452Y-19625347D01*
X4877976Y-19644394D01*
X4877976Y-19749156D01*
X4877976Y-19644394D02*
X4887500Y-19625347D01*
X4906548Y-19615823D01*
X4935119Y-19615823D01*
X4954167Y-19625347D01*
X4963690Y-19644394D01*
X4963690Y-19749156D01*
X5058929Y-19749156D02*
X5058929Y-19615823D01*
X5058929Y-19634870D02*
X5068452Y-19625347D01*
X5087500Y-19615823D01*
X5116071Y-19615823D01*
X5135119Y-19625347D01*
X5144643Y-19644394D01*
X5144643Y-19749156D01*
X5144643Y-19644394D02*
X5154167Y-19625347D01*
X5173214Y-19615823D01*
X5201786Y-19615823D01*
X5220833Y-19625347D01*
X5230357Y-19644394D01*
X5230357Y-19749156D01*
X5620833Y-19539632D02*
X5449405Y-19796775D01*
X5877976Y-19549156D02*
X5897024Y-19549156D01*
X5916071Y-19558680D01*
X5925595Y-19568204D01*
X5935119Y-19587251D01*
X5944643Y-19625347D01*
X5944643Y-19672966D01*
X5935119Y-19711061D01*
X5925595Y-19730109D01*
X5916071Y-19739632D01*
X5897024Y-19749156D01*
X5877976Y-19749156D01*
X5858928Y-19739632D01*
X5849405Y-19730109D01*
X5839881Y-19711061D01*
X5830357Y-19672966D01*
X5830357Y-19625347D01*
X5839881Y-19587251D01*
X5849405Y-19568204D01*
X5858928Y-19558680D01*
X5877976Y-19549156D01*
X6030357Y-19730109D02*
X6039881Y-19739632D01*
X6030357Y-19749156D01*
X6020833Y-19739632D01*
X6030357Y-19730109D01*
X6030357Y-19749156D01*
X6230357Y-19749156D02*
X6116071Y-19749156D01*
X6173214Y-19749156D02*
X6173214Y-19549156D01*
X6154167Y-19577728D01*
X6135119Y-19596775D01*
X6116071Y-19606299D01*
X6401786Y-19615823D02*
X6401786Y-19749156D01*
X6354167Y-19539632D02*
X6306548Y-19682490D01*
X6430357Y-19682490D01*
X6601786Y-19549156D02*
X6506548Y-19549156D01*
X6497024Y-19644394D01*
X6506548Y-19634870D01*
X6525595Y-19625347D01*
X6573214Y-19625347D01*
X6592262Y-19634870D01*
X6601786Y-19644394D01*
X6611309Y-19663442D01*
X6611309Y-19711061D01*
X6601786Y-19730109D01*
X6592262Y-19739632D01*
X6573214Y-19749156D01*
X6525595Y-19749156D01*
X6506548Y-19739632D01*
X6497024Y-19730109D01*
X6677976Y-19549156D02*
X6811309Y-19549156D01*
X6725595Y-19749156D01*
X6877976Y-19549156D02*
X6877976Y-19587251D01*
X6954167Y-19549156D02*
X6954167Y-19587251D01*
X7249405Y-19825347D02*
X7239881Y-19815823D01*
X7220833Y-19787251D01*
X7211309Y-19768204D01*
X7201786Y-19739632D01*
X7192262Y-19692013D01*
X7192262Y-19653918D01*
X7201786Y-19606299D01*
X7211309Y-19577728D01*
X7220833Y-19558680D01*
X7239881Y-19530109D01*
X7249405Y-19520585D01*
X7411309Y-19615823D02*
X7411309Y-19749156D01*
X7363690Y-19539632D02*
X7316071Y-19682490D01*
X7439881Y-19682490D01*
X7668452Y-19749156D02*
X7668452Y-19549156D01*
X7754167Y-19749156D02*
X7754167Y-19644394D01*
X7744643Y-19625347D01*
X7725595Y-19615823D01*
X7697024Y-19615823D01*
X7677976Y-19625347D01*
X7668452Y-19634870D01*
X7877976Y-19749156D02*
X7858928Y-19739632D01*
X7849405Y-19730109D01*
X7839881Y-19711061D01*
X7839881Y-19653918D01*
X7849405Y-19634870D01*
X7858928Y-19625347D01*
X7877976Y-19615823D01*
X7906548Y-19615823D01*
X7925595Y-19625347D01*
X7935119Y-19634870D01*
X7944643Y-19653918D01*
X7944643Y-19711061D01*
X7935119Y-19730109D01*
X7925595Y-19739632D01*
X7906548Y-19749156D01*
X7877976Y-19749156D01*
X8058928Y-19749156D02*
X8039881Y-19739632D01*
X8030357Y-19720585D01*
X8030357Y-19549156D01*
X8211309Y-19739632D02*
X8192262Y-19749156D01*
X8154167Y-19749156D01*
X8135119Y-19739632D01*
X8125595Y-19720585D01*
X8125595Y-19644394D01*
X8135119Y-19625347D01*
X8154167Y-19615823D01*
X8192262Y-19615823D01*
X8211309Y-19625347D01*
X8220833Y-19644394D01*
X8220833Y-19663442D01*
X8125595Y-19682490D01*
X8297024Y-19739632D02*
X8316071Y-19749156D01*
X8354167Y-19749156D01*
X8373214Y-19739632D01*
X8382738Y-19720585D01*
X8382738Y-19711061D01*
X8373214Y-19692013D01*
X8354167Y-19682490D01*
X8325595Y-19682490D01*
X8306548Y-19672966D01*
X8297024Y-19653918D01*
X8297024Y-19644394D01*
X8306548Y-19625347D01*
X8325595Y-19615823D01*
X8354167Y-19615823D01*
X8373214Y-19625347D01*
X8449405Y-19825347D02*
X8458929Y-19815823D01*
X8477976Y-19787251D01*
X8487500Y-19768204D01*
X8497024Y-19739632D01*
X8506548Y-19692013D01*
X8506548Y-19653918D01*
X8497024Y-19606299D01*
X8487500Y-19577728D01*
X8477976Y-19558680D01*
X8458929Y-19530109D01*
X8449405Y-19520585D01*
X8811310Y-19825347D02*
X8801786Y-19815823D01*
X8782738Y-19787251D01*
X8773214Y-19768204D01*
X8763690Y-19739632D01*
X8754167Y-19692013D01*
X8754167Y-19653918D01*
X8763690Y-19606299D01*
X8773214Y-19577728D01*
X8782738Y-19558680D01*
X8801786Y-19530109D01*
X8811310Y-19520585D01*
X8887500Y-19615823D02*
X8887500Y-19749156D01*
X8887500Y-19634870D02*
X8897024Y-19625347D01*
X8916071Y-19615823D01*
X8944643Y-19615823D01*
X8963690Y-19625347D01*
X8973214Y-19644394D01*
X8973214Y-19749156D01*
X9097024Y-19749156D02*
X9077976Y-19739632D01*
X9068452Y-19730109D01*
X9058929Y-19711061D01*
X9058929Y-19653918D01*
X9068452Y-19634870D01*
X9077976Y-19625347D01*
X9097024Y-19615823D01*
X9125595Y-19615823D01*
X9144643Y-19625347D01*
X9154167Y-19634870D01*
X9163690Y-19653918D01*
X9163690Y-19711061D01*
X9154167Y-19730109D01*
X9144643Y-19739632D01*
X9125595Y-19749156D01*
X9097024Y-19749156D01*
X9220833Y-19615823D02*
X9297024Y-19615823D01*
X9249405Y-19549156D02*
X9249405Y-19720585D01*
X9258929Y-19739632D01*
X9277976Y-19749156D01*
X9297024Y-19749156D01*
X9516071Y-19615823D02*
X9516071Y-19815823D01*
X9516071Y-19625347D02*
X9535119Y-19615823D01*
X9573214Y-19615823D01*
X9592262Y-19625347D01*
X9601786Y-19634870D01*
X9611310Y-19653918D01*
X9611310Y-19711061D01*
X9601786Y-19730109D01*
X9592262Y-19739632D01*
X9573214Y-19749156D01*
X9535119Y-19749156D01*
X9516071Y-19739632D01*
X9725595Y-19749156D02*
X9706548Y-19739632D01*
X9697024Y-19720585D01*
X9697024Y-19549156D01*
X9887500Y-19749156D02*
X9887500Y-19644394D01*
X9877976Y-19625347D01*
X9858929Y-19615823D01*
X9820833Y-19615823D01*
X9801786Y-19625347D01*
X9887500Y-19739632D02*
X9868452Y-19749156D01*
X9820833Y-19749156D01*
X9801786Y-19739632D01*
X9792262Y-19720585D01*
X9792262Y-19701537D01*
X9801786Y-19682490D01*
X9820833Y-19672966D01*
X9868452Y-19672966D01*
X9887500Y-19663442D01*
X9954167Y-19615823D02*
X10030357Y-19615823D01*
X9982738Y-19549156D02*
X9982738Y-19720585D01*
X9992262Y-19739632D01*
X10011310Y-19749156D01*
X10030357Y-19749156D01*
X10173214Y-19739632D02*
X10154167Y-19749156D01*
X10116071Y-19749156D01*
X10097024Y-19739632D01*
X10087500Y-19720585D01*
X10087500Y-19644394D01*
X10097024Y-19625347D01*
X10116071Y-19615823D01*
X10154167Y-19615823D01*
X10173214Y-19625347D01*
X10182738Y-19644394D01*
X10182738Y-19663442D01*
X10087500Y-19682490D01*
X10354167Y-19749156D02*
X10354167Y-19549156D01*
X10354167Y-19739632D02*
X10335119Y-19749156D01*
X10297024Y-19749156D01*
X10277976Y-19739632D01*
X10268452Y-19730109D01*
X10258929Y-19711061D01*
X10258929Y-19653918D01*
X10268452Y-19634870D01*
X10277976Y-19625347D01*
X10297024Y-19615823D01*
X10335119Y-19615823D01*
X10354167Y-19625347D01*
X10430357Y-19825347D02*
X10439881Y-19815823D01*
X10458929Y-19787251D01*
X10468452Y-19768204D01*
X10477976Y-19739632D01*
X10487500Y-19692013D01*
X10487500Y-19653918D01*
X10477976Y-19606299D01*
X10468452Y-19577728D01*
X10458929Y-19558680D01*
X10439881Y-19530109D01*
X10430357Y-19520585D01*
M02*
