%TF.GenerationSoftware,KiCad,Pcbnew,(6.0.10)*%
%TF.CreationDate,2023-02-02T18:01:59-08:00*%
%TF.ProjectId,netrazr_rev2-Left,6e657472-617a-4725-9f72-6576322d4c65,2*%
%TF.SameCoordinates,Original*%
%TF.FileFunction,Legend,Bot*%
%TF.FilePolarity,Positive*%
%FSLAX46Y46*%
G04 Gerber Fmt 4.6, Leading zero omitted, Abs format (unit mm)*
G04 Created by KiCad (PCBNEW (6.0.10)) date 2023-02-02 18:01:59*
%MOMM*%
%LPD*%
G01*
G04 APERTURE LIST*
G04 Aperture macros list*
%AMRoundRect*
0 Rectangle with rounded corners*
0 $1 Rounding radius*
0 $2 $3 $4 $5 $6 $7 $8 $9 X,Y pos of 4 corners*
0 Add a 4 corners polygon primitive as box body*
4,1,4,$2,$3,$4,$5,$6,$7,$8,$9,$2,$3,0*
0 Add four circle primitives for the rounded corners*
1,1,$1+$1,$2,$3*
1,1,$1+$1,$4,$5*
1,1,$1+$1,$6,$7*
1,1,$1+$1,$8,$9*
0 Add four rect primitives between the rounded corners*
20,1,$1+$1,$2,$3,$4,$5,0*
20,1,$1+$1,$4,$5,$6,$7,0*
20,1,$1+$1,$6,$7,$8,$9,0*
20,1,$1+$1,$8,$9,$2,$3,0*%
G04 Aperture macros list end*
%ADD10C,0.300000*%
%ADD11C,0.150000*%
%ADD12C,0.120000*%
%ADD13C,3.802000*%
%ADD14C,1.803800*%
%ADD15C,3.531000*%
%ADD16C,1.092600*%
%ADD17C,2.134000*%
%ADD18O,0.902000X0.902000*%
%ADD19RoundRect,0.051000X-0.650000X0.225000X-0.650000X-0.225000X0.650000X-0.225000X0.650000X0.225000X0*%
%ADD20O,2.102000X1.552000*%
%ADD21O,1.902000X1.252000*%
%ADD22RoundRect,0.301000X0.475000X-0.337500X0.475000X0.337500X-0.475000X0.337500X-0.475000X-0.337500X0*%
%ADD23RoundRect,0.051000X0.850000X0.850000X-0.850000X0.850000X-0.850000X-0.850000X0.850000X-0.850000X0*%
%ADD24O,1.802000X1.802000*%
%ADD25RoundRect,0.301000X0.450000X-0.325000X0.450000X0.325000X-0.450000X0.325000X-0.450000X-0.325000X0*%
%ADD26RoundRect,0.051000X0.775000X0.650000X-0.775000X0.650000X-0.775000X-0.650000X0.775000X-0.650000X0*%
%ADD27RoundRect,0.301000X-0.450000X0.350000X-0.450000X-0.350000X0.450000X-0.350000X0.450000X0.350000X0*%
%ADD28RoundRect,0.051000X0.750000X0.275000X-0.750000X0.275000X-0.750000X-0.275000X0.750000X-0.275000X0*%
%ADD29RoundRect,0.051000X0.275000X-0.750000X0.275000X0.750000X-0.275000X0.750000X-0.275000X-0.750000X0*%
%ADD30RoundRect,0.301000X-0.475000X0.337500X-0.475000X-0.337500X0.475000X-0.337500X0.475000X0.337500X0*%
%ADD31RoundRect,0.301000X-0.350000X-0.450000X0.350000X-0.450000X0.350000X0.450000X-0.350000X0.450000X0*%
%ADD32RoundRect,0.051000X-1.750000X-1.200000X1.750000X-1.200000X1.750000X1.200000X-1.750000X1.200000X0*%
%ADD33RoundRect,0.301000X0.337500X0.475000X-0.337500X0.475000X-0.337500X-0.475000X0.337500X-0.475000X0*%
%ADD34RoundRect,0.051000X-0.650000X0.150000X-0.650000X-0.150000X0.650000X-0.150000X0.650000X0.150000X0*%
%ADD35RoundRect,0.051000X-1.100000X0.900000X-1.100000X-0.900000X1.100000X-0.900000X1.100000X0.900000X0*%
G04 APERTURE END LIST*
D10*
X121482571Y-171644571D02*
X121482571Y-172716000D01*
X121554000Y-172930285D01*
X121696857Y-173073142D01*
X121911142Y-173144571D01*
X122054000Y-173144571D01*
X120054000Y-173144571D02*
X120768285Y-173144571D01*
X120768285Y-171644571D01*
X118696857Y-173001714D02*
X118768285Y-173073142D01*
X118982571Y-173144571D01*
X119125428Y-173144571D01*
X119339714Y-173073142D01*
X119482571Y-172930285D01*
X119554000Y-172787428D01*
X119625428Y-172501714D01*
X119625428Y-172287428D01*
X119554000Y-172001714D01*
X119482571Y-171858857D01*
X119339714Y-171716000D01*
X119125428Y-171644571D01*
X118982571Y-171644571D01*
X118768285Y-171716000D01*
X118696857Y-171787428D01*
X117625428Y-171644571D02*
X117625428Y-172716000D01*
X117696857Y-172930285D01*
X117839714Y-173073142D01*
X118054000Y-173144571D01*
X118196857Y-173144571D01*
X116196857Y-173144571D02*
X116911142Y-173144571D01*
X116911142Y-171644571D01*
X114839714Y-173001714D02*
X114911142Y-173073142D01*
X115125428Y-173144571D01*
X115268285Y-173144571D01*
X115482571Y-173073142D01*
X115625428Y-172930285D01*
X115696857Y-172787428D01*
X115768285Y-172501714D01*
X115768285Y-172287428D01*
X115696857Y-172001714D01*
X115625428Y-171858857D01*
X115482571Y-171716000D01*
X115268285Y-171644571D01*
X115125428Y-171644571D01*
X114911142Y-171716000D01*
X114839714Y-171787428D01*
X113768285Y-171644571D02*
X113768285Y-172716000D01*
X113839714Y-172930285D01*
X113982571Y-173073142D01*
X114196857Y-173144571D01*
X114339714Y-173144571D01*
X112339714Y-173144571D02*
X113054000Y-173144571D01*
X113054000Y-171644571D01*
X110982571Y-173001714D02*
X111054000Y-173073142D01*
X111268285Y-173144571D01*
X111411142Y-173144571D01*
X111625428Y-173073142D01*
X111768285Y-172930285D01*
X111839714Y-172787428D01*
X111911142Y-172501714D01*
X111911142Y-172287428D01*
X111839714Y-172001714D01*
X111768285Y-171858857D01*
X111625428Y-171716000D01*
X111411142Y-171644571D01*
X111268285Y-171644571D01*
X111054000Y-171716000D01*
X110982571Y-171787428D01*
X109911142Y-171644571D02*
X109911142Y-172716000D01*
X109982571Y-172930285D01*
X110125428Y-173073142D01*
X110339714Y-173144571D01*
X110482571Y-173144571D01*
X108482571Y-173144571D02*
X109196857Y-173144571D01*
X109196857Y-171644571D01*
X107125428Y-173001714D02*
X107196857Y-173073142D01*
X107411142Y-173144571D01*
X107554000Y-173144571D01*
X107768285Y-173073142D01*
X107911142Y-172930285D01*
X107982571Y-172787428D01*
X108054000Y-172501714D01*
X108054000Y-172287428D01*
X107982571Y-172001714D01*
X107911142Y-171858857D01*
X107768285Y-171716000D01*
X107554000Y-171644571D01*
X107411142Y-171644571D01*
X107196857Y-171716000D01*
X107125428Y-171787428D01*
D11*
X189978380Y-154189666D02*
X190692666Y-154189666D01*
X190835523Y-154142047D01*
X190930761Y-154046809D01*
X190978380Y-153903952D01*
X190978380Y-153808714D01*
X190978380Y-155189666D02*
X190978380Y-154618238D01*
X190978380Y-154903952D02*
X189978380Y-154903952D01*
X190121238Y-154808714D01*
X190216476Y-154713476D01*
X190264095Y-154618238D01*
X158662666Y-171299142D02*
X158710285Y-171346761D01*
X158853142Y-171394380D01*
X158948380Y-171394380D01*
X159091238Y-171346761D01*
X159186476Y-171251523D01*
X159234095Y-171156285D01*
X159281714Y-170965809D01*
X159281714Y-170822952D01*
X159234095Y-170632476D01*
X159186476Y-170537238D01*
X159091238Y-170442000D01*
X158948380Y-170394380D01*
X158853142Y-170394380D01*
X158710285Y-170442000D01*
X158662666Y-170489619D01*
X158281714Y-170489619D02*
X158234095Y-170442000D01*
X158138857Y-170394380D01*
X157900761Y-170394380D01*
X157805523Y-170442000D01*
X157757904Y-170489619D01*
X157710285Y-170584857D01*
X157710285Y-170680095D01*
X157757904Y-170822952D01*
X158329333Y-171394380D01*
X157710285Y-171394380D01*
X176493333Y-60412380D02*
X176493333Y-61126666D01*
X176540952Y-61269523D01*
X176636190Y-61364761D01*
X176779047Y-61412380D01*
X176874285Y-61412380D01*
X176064761Y-60507619D02*
X176017142Y-60460000D01*
X175921904Y-60412380D01*
X175683809Y-60412380D01*
X175588571Y-60460000D01*
X175540952Y-60507619D01*
X175493333Y-60602857D01*
X175493333Y-60698095D01*
X175540952Y-60840952D01*
X176112380Y-61412380D01*
X175493333Y-61412380D01*
X127979285Y-166082380D02*
X127979285Y-165082380D01*
X127741190Y-165082380D01*
X127598333Y-165130000D01*
X127503095Y-165225238D01*
X127455476Y-165320476D01*
X127407857Y-165510952D01*
X127407857Y-165653809D01*
X127455476Y-165844285D01*
X127503095Y-165939523D01*
X127598333Y-166034761D01*
X127741190Y-166082380D01*
X127979285Y-166082380D01*
X126550714Y-165082380D02*
X126741190Y-165082380D01*
X126836428Y-165130000D01*
X126884047Y-165177619D01*
X126979285Y-165320476D01*
X127026904Y-165510952D01*
X127026904Y-165891904D01*
X126979285Y-165987142D01*
X126931666Y-166034761D01*
X126836428Y-166082380D01*
X126645952Y-166082380D01*
X126550714Y-166034761D01*
X126503095Y-165987142D01*
X126455476Y-165891904D01*
X126455476Y-165653809D01*
X126503095Y-165558571D01*
X126550714Y-165510952D01*
X126645952Y-165463333D01*
X126836428Y-165463333D01*
X126931666Y-165510952D01*
X126979285Y-165558571D01*
X127026904Y-165653809D01*
X125598333Y-165415714D02*
X125598333Y-166082380D01*
X125836428Y-165034761D02*
X126074523Y-165749047D01*
X125455476Y-165749047D01*
X107397380Y-124225714D02*
X106397380Y-124225714D01*
X106397380Y-124463809D01*
X106445000Y-124606666D01*
X106540238Y-124701904D01*
X106635476Y-124749523D01*
X106825952Y-124797142D01*
X106968809Y-124797142D01*
X107159285Y-124749523D01*
X107254523Y-124701904D01*
X107349761Y-124606666D01*
X107397380Y-124463809D01*
X107397380Y-124225714D01*
X106397380Y-125130476D02*
X106397380Y-125749523D01*
X106778333Y-125416190D01*
X106778333Y-125559047D01*
X106825952Y-125654285D01*
X106873571Y-125701904D01*
X106968809Y-125749523D01*
X107206904Y-125749523D01*
X107302142Y-125701904D01*
X107349761Y-125654285D01*
X107397380Y-125559047D01*
X107397380Y-125273333D01*
X107349761Y-125178095D01*
X107302142Y-125130476D01*
X106397380Y-126082857D02*
X106397380Y-126701904D01*
X106778333Y-126368571D01*
X106778333Y-126511428D01*
X106825952Y-126606666D01*
X106873571Y-126654285D01*
X106968809Y-126701904D01*
X107206904Y-126701904D01*
X107302142Y-126654285D01*
X107349761Y-126606666D01*
X107397380Y-126511428D01*
X107397380Y-126225714D01*
X107349761Y-126130476D01*
X107302142Y-126082857D01*
X145497380Y-86601904D02*
X144497380Y-86601904D01*
X144497380Y-86840000D01*
X144545000Y-86982857D01*
X144640238Y-87078095D01*
X144735476Y-87125714D01*
X144925952Y-87173333D01*
X145068809Y-87173333D01*
X145259285Y-87125714D01*
X145354523Y-87078095D01*
X145449761Y-86982857D01*
X145497380Y-86840000D01*
X145497380Y-86601904D01*
X144497380Y-88078095D02*
X144497380Y-87601904D01*
X144973571Y-87554285D01*
X144925952Y-87601904D01*
X144878333Y-87697142D01*
X144878333Y-87935238D01*
X144925952Y-88030476D01*
X144973571Y-88078095D01*
X145068809Y-88125714D01*
X145306904Y-88125714D01*
X145402142Y-88078095D01*
X145449761Y-88030476D01*
X145497380Y-87935238D01*
X145497380Y-87697142D01*
X145449761Y-87601904D01*
X145402142Y-87554285D01*
X164547380Y-105175714D02*
X163547380Y-105175714D01*
X163547380Y-105413809D01*
X163595000Y-105556666D01*
X163690238Y-105651904D01*
X163785476Y-105699523D01*
X163975952Y-105747142D01*
X164118809Y-105747142D01*
X164309285Y-105699523D01*
X164404523Y-105651904D01*
X164499761Y-105556666D01*
X164547380Y-105413809D01*
X164547380Y-105175714D01*
X163642619Y-106128095D02*
X163595000Y-106175714D01*
X163547380Y-106270952D01*
X163547380Y-106509047D01*
X163595000Y-106604285D01*
X163642619Y-106651904D01*
X163737857Y-106699523D01*
X163833095Y-106699523D01*
X163975952Y-106651904D01*
X164547380Y-106080476D01*
X164547380Y-106699523D01*
X164547380Y-107651904D02*
X164547380Y-107080476D01*
X164547380Y-107366190D02*
X163547380Y-107366190D01*
X163690238Y-107270952D01*
X163785476Y-107175714D01*
X163833095Y-107080476D01*
X174778333Y-169884761D02*
X174635476Y-169932380D01*
X174397380Y-169932380D01*
X174302142Y-169884761D01*
X174254523Y-169837142D01*
X174206904Y-169741904D01*
X174206904Y-169646666D01*
X174254523Y-169551428D01*
X174302142Y-169503809D01*
X174397380Y-169456190D01*
X174587857Y-169408571D01*
X174683095Y-169360952D01*
X174730714Y-169313333D01*
X174778333Y-169218095D01*
X174778333Y-169122857D01*
X174730714Y-169027619D01*
X174683095Y-168980000D01*
X174587857Y-168932380D01*
X174349761Y-168932380D01*
X174206904Y-168980000D01*
X173873571Y-168932380D02*
X173635476Y-169932380D01*
X173445000Y-169218095D01*
X173254523Y-169932380D01*
X173016428Y-168932380D01*
X172111666Y-169932380D02*
X172683095Y-169932380D01*
X172397380Y-169932380D02*
X172397380Y-168932380D01*
X172492619Y-169075238D01*
X172587857Y-169170476D01*
X172683095Y-169218095D01*
X145497380Y-124225714D02*
X144497380Y-124225714D01*
X144497380Y-124463809D01*
X144545000Y-124606666D01*
X144640238Y-124701904D01*
X144735476Y-124749523D01*
X144925952Y-124797142D01*
X145068809Y-124797142D01*
X145259285Y-124749523D01*
X145354523Y-124701904D01*
X145449761Y-124606666D01*
X145497380Y-124463809D01*
X145497380Y-124225714D01*
X144497380Y-125130476D02*
X144497380Y-125749523D01*
X144878333Y-125416190D01*
X144878333Y-125559047D01*
X144925952Y-125654285D01*
X144973571Y-125701904D01*
X145068809Y-125749523D01*
X145306904Y-125749523D01*
X145402142Y-125701904D01*
X145449761Y-125654285D01*
X145497380Y-125559047D01*
X145497380Y-125273333D01*
X145449761Y-125178095D01*
X145402142Y-125130476D01*
X144497380Y-126654285D02*
X144497380Y-126178095D01*
X144973571Y-126130476D01*
X144925952Y-126178095D01*
X144878333Y-126273333D01*
X144878333Y-126511428D01*
X144925952Y-126606666D01*
X144973571Y-126654285D01*
X145068809Y-126701904D01*
X145306904Y-126701904D01*
X145402142Y-126654285D01*
X145449761Y-126606666D01*
X145497380Y-126511428D01*
X145497380Y-126273333D01*
X145449761Y-126178095D01*
X145402142Y-126130476D01*
X109049285Y-146622380D02*
X109049285Y-145622380D01*
X108811190Y-145622380D01*
X108668333Y-145670000D01*
X108573095Y-145765238D01*
X108525476Y-145860476D01*
X108477857Y-146050952D01*
X108477857Y-146193809D01*
X108525476Y-146384285D01*
X108573095Y-146479523D01*
X108668333Y-146574761D01*
X108811190Y-146622380D01*
X109049285Y-146622380D01*
X107620714Y-145955714D02*
X107620714Y-146622380D01*
X107858809Y-145574761D02*
X108096904Y-146289047D01*
X107477857Y-146289047D01*
X107192142Y-145622380D02*
X106525476Y-145622380D01*
X106954047Y-146622380D01*
X183597380Y-124225714D02*
X182597380Y-124225714D01*
X182597380Y-124463809D01*
X182645000Y-124606666D01*
X182740238Y-124701904D01*
X182835476Y-124749523D01*
X183025952Y-124797142D01*
X183168809Y-124797142D01*
X183359285Y-124749523D01*
X183454523Y-124701904D01*
X183549761Y-124606666D01*
X183597380Y-124463809D01*
X183597380Y-124225714D01*
X182597380Y-125130476D02*
X182597380Y-125749523D01*
X182978333Y-125416190D01*
X182978333Y-125559047D01*
X183025952Y-125654285D01*
X183073571Y-125701904D01*
X183168809Y-125749523D01*
X183406904Y-125749523D01*
X183502142Y-125701904D01*
X183549761Y-125654285D01*
X183597380Y-125559047D01*
X183597380Y-125273333D01*
X183549761Y-125178095D01*
X183502142Y-125130476D01*
X182597380Y-126082857D02*
X182597380Y-126749523D01*
X183597380Y-126320952D01*
X78822380Y-124225714D02*
X77822380Y-124225714D01*
X77822380Y-124463809D01*
X77870000Y-124606666D01*
X77965238Y-124701904D01*
X78060476Y-124749523D01*
X78250952Y-124797142D01*
X78393809Y-124797142D01*
X78584285Y-124749523D01*
X78679523Y-124701904D01*
X78774761Y-124606666D01*
X78822380Y-124463809D01*
X78822380Y-124225714D01*
X77822380Y-125130476D02*
X77822380Y-125749523D01*
X78203333Y-125416190D01*
X78203333Y-125559047D01*
X78250952Y-125654285D01*
X78298571Y-125701904D01*
X78393809Y-125749523D01*
X78631904Y-125749523D01*
X78727142Y-125701904D01*
X78774761Y-125654285D01*
X78822380Y-125559047D01*
X78822380Y-125273333D01*
X78774761Y-125178095D01*
X78727142Y-125130476D01*
X77917619Y-126130476D02*
X77870000Y-126178095D01*
X77822380Y-126273333D01*
X77822380Y-126511428D01*
X77870000Y-126606666D01*
X77917619Y-126654285D01*
X78012857Y-126701904D01*
X78108095Y-126701904D01*
X78250952Y-126654285D01*
X78822380Y-126082857D01*
X78822380Y-126701904D01*
X163292142Y-150063333D02*
X163339761Y-150015714D01*
X163387380Y-149872857D01*
X163387380Y-149777619D01*
X163339761Y-149634761D01*
X163244523Y-149539523D01*
X163149285Y-149491904D01*
X162958809Y-149444285D01*
X162815952Y-149444285D01*
X162625476Y-149491904D01*
X162530238Y-149539523D01*
X162435000Y-149634761D01*
X162387380Y-149777619D01*
X162387380Y-149872857D01*
X162435000Y-150015714D01*
X162482619Y-150063333D01*
X162815952Y-150634761D02*
X162768333Y-150539523D01*
X162720714Y-150491904D01*
X162625476Y-150444285D01*
X162577857Y-150444285D01*
X162482619Y-150491904D01*
X162435000Y-150539523D01*
X162387380Y-150634761D01*
X162387380Y-150825238D01*
X162435000Y-150920476D01*
X162482619Y-150968095D01*
X162577857Y-151015714D01*
X162625476Y-151015714D01*
X162720714Y-150968095D01*
X162768333Y-150920476D01*
X162815952Y-150825238D01*
X162815952Y-150634761D01*
X162863571Y-150539523D01*
X162911190Y-150491904D01*
X163006428Y-150444285D01*
X163196904Y-150444285D01*
X163292142Y-150491904D01*
X163339761Y-150539523D01*
X163387380Y-150634761D01*
X163387380Y-150825238D01*
X163339761Y-150920476D01*
X163292142Y-150968095D01*
X163196904Y-151015714D01*
X163006428Y-151015714D01*
X162911190Y-150968095D01*
X162863571Y-150920476D01*
X162815952Y-150825238D01*
X126447380Y-105175714D02*
X125447380Y-105175714D01*
X125447380Y-105413809D01*
X125495000Y-105556666D01*
X125590238Y-105651904D01*
X125685476Y-105699523D01*
X125875952Y-105747142D01*
X126018809Y-105747142D01*
X126209285Y-105699523D01*
X126304523Y-105651904D01*
X126399761Y-105556666D01*
X126447380Y-105413809D01*
X126447380Y-105175714D01*
X126447380Y-106699523D02*
X126447380Y-106128095D01*
X126447380Y-106413809D02*
X125447380Y-106413809D01*
X125590238Y-106318571D01*
X125685476Y-106223333D01*
X125733095Y-106128095D01*
X126447380Y-107175714D02*
X126447380Y-107366190D01*
X126399761Y-107461428D01*
X126352142Y-107509047D01*
X126209285Y-107604285D01*
X126018809Y-107651904D01*
X125637857Y-107651904D01*
X125542619Y-107604285D01*
X125495000Y-107556666D01*
X125447380Y-107461428D01*
X125447380Y-107270952D01*
X125495000Y-107175714D01*
X125542619Y-107128095D01*
X125637857Y-107080476D01*
X125875952Y-107080476D01*
X125971190Y-107128095D01*
X126018809Y-107175714D01*
X126066428Y-107270952D01*
X126066428Y-107461428D01*
X126018809Y-107556666D01*
X125971190Y-107604285D01*
X125875952Y-107651904D01*
X138857380Y-151913333D02*
X138381190Y-151580000D01*
X138857380Y-151341904D02*
X137857380Y-151341904D01*
X137857380Y-151722857D01*
X137905000Y-151818095D01*
X137952619Y-151865714D01*
X138047857Y-151913333D01*
X138190714Y-151913333D01*
X138285952Y-151865714D01*
X138333571Y-151818095D01*
X138381190Y-151722857D01*
X138381190Y-151341904D01*
X138190714Y-152770476D02*
X138857380Y-152770476D01*
X137809761Y-152532380D02*
X138524047Y-152294285D01*
X138524047Y-152913333D01*
X46969285Y-144322380D02*
X46969285Y-143322380D01*
X46731190Y-143322380D01*
X46588333Y-143370000D01*
X46493095Y-143465238D01*
X46445476Y-143560476D01*
X46397857Y-143750952D01*
X46397857Y-143893809D01*
X46445476Y-144084285D01*
X46493095Y-144179523D01*
X46588333Y-144274761D01*
X46731190Y-144322380D01*
X46969285Y-144322380D01*
X45540714Y-143655714D02*
X45540714Y-144322380D01*
X45778809Y-143274761D02*
X46016904Y-143989047D01*
X45397857Y-143989047D01*
X44540714Y-143322380D02*
X45016904Y-143322380D01*
X45064523Y-143798571D01*
X45016904Y-143750952D01*
X44921666Y-143703333D01*
X44683571Y-143703333D01*
X44588333Y-143750952D01*
X44540714Y-143798571D01*
X44493095Y-143893809D01*
X44493095Y-144131904D01*
X44540714Y-144227142D01*
X44588333Y-144274761D01*
X44683571Y-144322380D01*
X44921666Y-144322380D01*
X45016904Y-144274761D01*
X45064523Y-144227142D01*
X144316904Y-149572380D02*
X144316904Y-150381904D01*
X144269285Y-150477142D01*
X144221666Y-150524761D01*
X144126428Y-150572380D01*
X143935952Y-150572380D01*
X143840714Y-150524761D01*
X143793095Y-150477142D01*
X143745476Y-150381904D01*
X143745476Y-149572380D01*
X142745476Y-150572380D02*
X143316904Y-150572380D01*
X143031190Y-150572380D02*
X143031190Y-149572380D01*
X143126428Y-149715238D01*
X143221666Y-149810476D01*
X143316904Y-149858095D01*
X69297380Y-162325714D02*
X68297380Y-162325714D01*
X68297380Y-162563809D01*
X68345000Y-162706666D01*
X68440238Y-162801904D01*
X68535476Y-162849523D01*
X68725952Y-162897142D01*
X68868809Y-162897142D01*
X69059285Y-162849523D01*
X69154523Y-162801904D01*
X69249761Y-162706666D01*
X69297380Y-162563809D01*
X69297380Y-162325714D01*
X68297380Y-163754285D02*
X68297380Y-163563809D01*
X68345000Y-163468571D01*
X68392619Y-163420952D01*
X68535476Y-163325714D01*
X68725952Y-163278095D01*
X69106904Y-163278095D01*
X69202142Y-163325714D01*
X69249761Y-163373333D01*
X69297380Y-163468571D01*
X69297380Y-163659047D01*
X69249761Y-163754285D01*
X69202142Y-163801904D01*
X69106904Y-163849523D01*
X68868809Y-163849523D01*
X68773571Y-163801904D01*
X68725952Y-163754285D01*
X68678333Y-163659047D01*
X68678333Y-163468571D01*
X68725952Y-163373333D01*
X68773571Y-163325714D01*
X68868809Y-163278095D01*
X69297380Y-164801904D02*
X69297380Y-164230476D01*
X69297380Y-164516190D02*
X68297380Y-164516190D01*
X68440238Y-164420952D01*
X68535476Y-164325714D01*
X68583095Y-164230476D01*
X50247380Y-124225714D02*
X49247380Y-124225714D01*
X49247380Y-124463809D01*
X49295000Y-124606666D01*
X49390238Y-124701904D01*
X49485476Y-124749523D01*
X49675952Y-124797142D01*
X49818809Y-124797142D01*
X50009285Y-124749523D01*
X50104523Y-124701904D01*
X50199761Y-124606666D01*
X50247380Y-124463809D01*
X50247380Y-124225714D01*
X49247380Y-125130476D02*
X49247380Y-125749523D01*
X49628333Y-125416190D01*
X49628333Y-125559047D01*
X49675952Y-125654285D01*
X49723571Y-125701904D01*
X49818809Y-125749523D01*
X50056904Y-125749523D01*
X50152142Y-125701904D01*
X50199761Y-125654285D01*
X50247380Y-125559047D01*
X50247380Y-125273333D01*
X50199761Y-125178095D01*
X50152142Y-125130476D01*
X50247380Y-126701904D02*
X50247380Y-126130476D01*
X50247380Y-126416190D02*
X49247380Y-126416190D01*
X49390238Y-126320952D01*
X49485476Y-126225714D01*
X49533095Y-126130476D01*
X156376666Y-171299142D02*
X156424285Y-171346761D01*
X156567142Y-171394380D01*
X156662380Y-171394380D01*
X156805238Y-171346761D01*
X156900476Y-171251523D01*
X156948095Y-171156285D01*
X156995714Y-170965809D01*
X156995714Y-170822952D01*
X156948095Y-170632476D01*
X156900476Y-170537238D01*
X156805238Y-170442000D01*
X156662380Y-170394380D01*
X156567142Y-170394380D01*
X156424285Y-170442000D01*
X156376666Y-170489619D01*
X155471904Y-170394380D02*
X155948095Y-170394380D01*
X155995714Y-170870571D01*
X155948095Y-170822952D01*
X155852857Y-170775333D01*
X155614761Y-170775333D01*
X155519523Y-170822952D01*
X155471904Y-170870571D01*
X155424285Y-170965809D01*
X155424285Y-171203904D01*
X155471904Y-171299142D01*
X155519523Y-171346761D01*
X155614761Y-171394380D01*
X155852857Y-171394380D01*
X155948095Y-171346761D01*
X155995714Y-171299142D01*
X109029285Y-164172380D02*
X109029285Y-163172380D01*
X108791190Y-163172380D01*
X108648333Y-163220000D01*
X108553095Y-163315238D01*
X108505476Y-163410476D01*
X108457857Y-163600952D01*
X108457857Y-163743809D01*
X108505476Y-163934285D01*
X108553095Y-164029523D01*
X108648333Y-164124761D01*
X108791190Y-164172380D01*
X109029285Y-164172380D01*
X107600714Y-163172380D02*
X107791190Y-163172380D01*
X107886428Y-163220000D01*
X107934047Y-163267619D01*
X108029285Y-163410476D01*
X108076904Y-163600952D01*
X108076904Y-163981904D01*
X108029285Y-164077142D01*
X107981666Y-164124761D01*
X107886428Y-164172380D01*
X107695952Y-164172380D01*
X107600714Y-164124761D01*
X107553095Y-164077142D01*
X107505476Y-163981904D01*
X107505476Y-163743809D01*
X107553095Y-163648571D01*
X107600714Y-163600952D01*
X107695952Y-163553333D01*
X107886428Y-163553333D01*
X107981666Y-163600952D01*
X108029285Y-163648571D01*
X108076904Y-163743809D01*
X107172142Y-163172380D02*
X106553095Y-163172380D01*
X106886428Y-163553333D01*
X106743571Y-163553333D01*
X106648333Y-163600952D01*
X106600714Y-163648571D01*
X106553095Y-163743809D01*
X106553095Y-163981904D01*
X106600714Y-164077142D01*
X106648333Y-164124761D01*
X106743571Y-164172380D01*
X107029285Y-164172380D01*
X107124523Y-164124761D01*
X107172142Y-164077142D01*
X122413095Y-86822380D02*
X122413095Y-85822380D01*
X122175000Y-85822380D01*
X122032142Y-85870000D01*
X121936904Y-85965238D01*
X121889285Y-86060476D01*
X121841666Y-86250952D01*
X121841666Y-86393809D01*
X121889285Y-86584285D01*
X121936904Y-86679523D01*
X122032142Y-86774761D01*
X122175000Y-86822380D01*
X122413095Y-86822380D01*
X120984523Y-86155714D02*
X120984523Y-86822380D01*
X121222619Y-85774761D02*
X121460714Y-86489047D01*
X120841666Y-86489047D01*
X88347380Y-162325714D02*
X87347380Y-162325714D01*
X87347380Y-162563809D01*
X87395000Y-162706666D01*
X87490238Y-162801904D01*
X87585476Y-162849523D01*
X87775952Y-162897142D01*
X87918809Y-162897142D01*
X88109285Y-162849523D01*
X88204523Y-162801904D01*
X88299761Y-162706666D01*
X88347380Y-162563809D01*
X88347380Y-162325714D01*
X87347380Y-163754285D02*
X87347380Y-163563809D01*
X87395000Y-163468571D01*
X87442619Y-163420952D01*
X87585476Y-163325714D01*
X87775952Y-163278095D01*
X88156904Y-163278095D01*
X88252142Y-163325714D01*
X88299761Y-163373333D01*
X88347380Y-163468571D01*
X88347380Y-163659047D01*
X88299761Y-163754285D01*
X88252142Y-163801904D01*
X88156904Y-163849523D01*
X87918809Y-163849523D01*
X87823571Y-163801904D01*
X87775952Y-163754285D01*
X87728333Y-163659047D01*
X87728333Y-163468571D01*
X87775952Y-163373333D01*
X87823571Y-163325714D01*
X87918809Y-163278095D01*
X87442619Y-164230476D02*
X87395000Y-164278095D01*
X87347380Y-164373333D01*
X87347380Y-164611428D01*
X87395000Y-164706666D01*
X87442619Y-164754285D01*
X87537857Y-164801904D01*
X87633095Y-164801904D01*
X87775952Y-164754285D01*
X88347380Y-164182857D01*
X88347380Y-164801904D01*
X166139285Y-164142380D02*
X166139285Y-163142380D01*
X165901190Y-163142380D01*
X165758333Y-163190000D01*
X165663095Y-163285238D01*
X165615476Y-163380476D01*
X165567857Y-163570952D01*
X165567857Y-163713809D01*
X165615476Y-163904285D01*
X165663095Y-163999523D01*
X165758333Y-164094761D01*
X165901190Y-164142380D01*
X166139285Y-164142380D01*
X164710714Y-163142380D02*
X164901190Y-163142380D01*
X164996428Y-163190000D01*
X165044047Y-163237619D01*
X165139285Y-163380476D01*
X165186904Y-163570952D01*
X165186904Y-163951904D01*
X165139285Y-164047142D01*
X165091666Y-164094761D01*
X164996428Y-164142380D01*
X164805952Y-164142380D01*
X164710714Y-164094761D01*
X164663095Y-164047142D01*
X164615476Y-163951904D01*
X164615476Y-163713809D01*
X164663095Y-163618571D01*
X164710714Y-163570952D01*
X164805952Y-163523333D01*
X164996428Y-163523333D01*
X165091666Y-163570952D01*
X165139285Y-163618571D01*
X165186904Y-163713809D01*
X163710714Y-163142380D02*
X164186904Y-163142380D01*
X164234523Y-163618571D01*
X164186904Y-163570952D01*
X164091666Y-163523333D01*
X163853571Y-163523333D01*
X163758333Y-163570952D01*
X163710714Y-163618571D01*
X163663095Y-163713809D01*
X163663095Y-163951904D01*
X163710714Y-164047142D01*
X163758333Y-164094761D01*
X163853571Y-164142380D01*
X164091666Y-164142380D01*
X164186904Y-164094761D01*
X164234523Y-164047142D01*
X150026666Y-171299142D02*
X150074285Y-171346761D01*
X150217142Y-171394380D01*
X150312380Y-171394380D01*
X150455238Y-171346761D01*
X150550476Y-171251523D01*
X150598095Y-171156285D01*
X150645714Y-170965809D01*
X150645714Y-170822952D01*
X150598095Y-170632476D01*
X150550476Y-170537238D01*
X150455238Y-170442000D01*
X150312380Y-170394380D01*
X150217142Y-170394380D01*
X150074285Y-170442000D01*
X150026666Y-170489619D01*
X149169523Y-170727714D02*
X149169523Y-171394380D01*
X149407619Y-170346761D02*
X149645714Y-171061047D01*
X149026666Y-171061047D01*
X183597380Y-143275714D02*
X182597380Y-143275714D01*
X182597380Y-143513809D01*
X182645000Y-143656666D01*
X182740238Y-143751904D01*
X182835476Y-143799523D01*
X183025952Y-143847142D01*
X183168809Y-143847142D01*
X183359285Y-143799523D01*
X183454523Y-143751904D01*
X183549761Y-143656666D01*
X183597380Y-143513809D01*
X183597380Y-143275714D01*
X182597380Y-144751904D02*
X182597380Y-144275714D01*
X183073571Y-144228095D01*
X183025952Y-144275714D01*
X182978333Y-144370952D01*
X182978333Y-144609047D01*
X183025952Y-144704285D01*
X183073571Y-144751904D01*
X183168809Y-144799523D01*
X183406904Y-144799523D01*
X183502142Y-144751904D01*
X183549761Y-144704285D01*
X183597380Y-144609047D01*
X183597380Y-144370952D01*
X183549761Y-144275714D01*
X183502142Y-144228095D01*
X183597380Y-145751904D02*
X183597380Y-145180476D01*
X183597380Y-145466190D02*
X182597380Y-145466190D01*
X182740238Y-145370952D01*
X182835476Y-145275714D01*
X182883095Y-145180476D01*
X183597380Y-86601904D02*
X182597380Y-86601904D01*
X182597380Y-86840000D01*
X182645000Y-86982857D01*
X182740238Y-87078095D01*
X182835476Y-87125714D01*
X183025952Y-87173333D01*
X183168809Y-87173333D01*
X183359285Y-87125714D01*
X183454523Y-87078095D01*
X183549761Y-86982857D01*
X183597380Y-86840000D01*
X183597380Y-86601904D01*
X182597380Y-87506666D02*
X182597380Y-88173333D01*
X183597380Y-87744761D01*
X186729666Y-157550380D02*
X187063000Y-157074190D01*
X187301095Y-157550380D02*
X187301095Y-156550380D01*
X186920142Y-156550380D01*
X186824904Y-156598000D01*
X186777285Y-156645619D01*
X186729666Y-156740857D01*
X186729666Y-156883714D01*
X186777285Y-156978952D01*
X186824904Y-157026571D01*
X186920142Y-157074190D01*
X187301095Y-157074190D01*
X186348714Y-156645619D02*
X186301095Y-156598000D01*
X186205857Y-156550380D01*
X185967761Y-156550380D01*
X185872523Y-156598000D01*
X185824904Y-156645619D01*
X185777285Y-156740857D01*
X185777285Y-156836095D01*
X185824904Y-156978952D01*
X186396333Y-157550380D01*
X185777285Y-157550380D01*
X122429285Y-144012380D02*
X122429285Y-143012380D01*
X122191190Y-143012380D01*
X122048333Y-143060000D01*
X121953095Y-143155238D01*
X121905476Y-143250476D01*
X121857857Y-143440952D01*
X121857857Y-143583809D01*
X121905476Y-143774285D01*
X121953095Y-143869523D01*
X122048333Y-143964761D01*
X122191190Y-144012380D01*
X122429285Y-144012380D01*
X121000714Y-143345714D02*
X121000714Y-144012380D01*
X121238809Y-142964761D02*
X121476904Y-143679047D01*
X120857857Y-143679047D01*
X120334047Y-143440952D02*
X120429285Y-143393333D01*
X120476904Y-143345714D01*
X120524523Y-143250476D01*
X120524523Y-143202857D01*
X120476904Y-143107619D01*
X120429285Y-143060000D01*
X120334047Y-143012380D01*
X120143571Y-143012380D01*
X120048333Y-143060000D01*
X120000714Y-143107619D01*
X119953095Y-143202857D01*
X119953095Y-143250476D01*
X120000714Y-143345714D01*
X120048333Y-143393333D01*
X120143571Y-143440952D01*
X120334047Y-143440952D01*
X120429285Y-143488571D01*
X120476904Y-143536190D01*
X120524523Y-143631428D01*
X120524523Y-143821904D01*
X120476904Y-143917142D01*
X120429285Y-143964761D01*
X120334047Y-144012380D01*
X120143571Y-144012380D01*
X120048333Y-143964761D01*
X120000714Y-143917142D01*
X119953095Y-143821904D01*
X119953095Y-143631428D01*
X120000714Y-143536190D01*
X120048333Y-143488571D01*
X120143571Y-143440952D01*
X182086190Y-157202190D02*
X182086190Y-157678380D01*
X182419523Y-156678380D02*
X182086190Y-157202190D01*
X181752857Y-156678380D01*
X180895714Y-157678380D02*
X181467142Y-157678380D01*
X181181428Y-157678380D02*
X181181428Y-156678380D01*
X181276666Y-156821238D01*
X181371904Y-156916476D01*
X181467142Y-156964095D01*
X78822380Y-105175714D02*
X77822380Y-105175714D01*
X77822380Y-105413809D01*
X77870000Y-105556666D01*
X77965238Y-105651904D01*
X78060476Y-105699523D01*
X78250952Y-105747142D01*
X78393809Y-105747142D01*
X78584285Y-105699523D01*
X78679523Y-105651904D01*
X78774761Y-105556666D01*
X78822380Y-105413809D01*
X78822380Y-105175714D01*
X78822380Y-106699523D02*
X78822380Y-106128095D01*
X78822380Y-106413809D02*
X77822380Y-106413809D01*
X77965238Y-106318571D01*
X78060476Y-106223333D01*
X78108095Y-106128095D01*
X77822380Y-107032857D02*
X77822380Y-107699523D01*
X78822380Y-107270952D01*
X164547380Y-143275714D02*
X163547380Y-143275714D01*
X163547380Y-143513809D01*
X163595000Y-143656666D01*
X163690238Y-143751904D01*
X163785476Y-143799523D01*
X163975952Y-143847142D01*
X164118809Y-143847142D01*
X164309285Y-143799523D01*
X164404523Y-143751904D01*
X164499761Y-143656666D01*
X164547380Y-143513809D01*
X164547380Y-143275714D01*
X163547380Y-144751904D02*
X163547380Y-144275714D01*
X164023571Y-144228095D01*
X163975952Y-144275714D01*
X163928333Y-144370952D01*
X163928333Y-144609047D01*
X163975952Y-144704285D01*
X164023571Y-144751904D01*
X164118809Y-144799523D01*
X164356904Y-144799523D01*
X164452142Y-144751904D01*
X164499761Y-144704285D01*
X164547380Y-144609047D01*
X164547380Y-144370952D01*
X164499761Y-144275714D01*
X164452142Y-144228095D01*
X163547380Y-145418571D02*
X163547380Y-145513809D01*
X163595000Y-145609047D01*
X163642619Y-145656666D01*
X163737857Y-145704285D01*
X163928333Y-145751904D01*
X164166428Y-145751904D01*
X164356904Y-145704285D01*
X164452142Y-145656666D01*
X164499761Y-145609047D01*
X164547380Y-145513809D01*
X164547380Y-145418571D01*
X164499761Y-145323333D01*
X164452142Y-145275714D01*
X164356904Y-145228095D01*
X164166428Y-145180476D01*
X163928333Y-145180476D01*
X163737857Y-145228095D01*
X163642619Y-145275714D01*
X163595000Y-145323333D01*
X163547380Y-145418571D01*
X50247380Y-162325714D02*
X49247380Y-162325714D01*
X49247380Y-162563809D01*
X49295000Y-162706666D01*
X49390238Y-162801904D01*
X49485476Y-162849523D01*
X49675952Y-162897142D01*
X49818809Y-162897142D01*
X50009285Y-162849523D01*
X50104523Y-162801904D01*
X50199761Y-162706666D01*
X50247380Y-162563809D01*
X50247380Y-162325714D01*
X49247380Y-163754285D02*
X49247380Y-163563809D01*
X49295000Y-163468571D01*
X49342619Y-163420952D01*
X49485476Y-163325714D01*
X49675952Y-163278095D01*
X50056904Y-163278095D01*
X50152142Y-163325714D01*
X50199761Y-163373333D01*
X50247380Y-163468571D01*
X50247380Y-163659047D01*
X50199761Y-163754285D01*
X50152142Y-163801904D01*
X50056904Y-163849523D01*
X49818809Y-163849523D01*
X49723571Y-163801904D01*
X49675952Y-163754285D01*
X49628333Y-163659047D01*
X49628333Y-163468571D01*
X49675952Y-163373333D01*
X49723571Y-163325714D01*
X49818809Y-163278095D01*
X49247380Y-164468571D02*
X49247380Y-164563809D01*
X49295000Y-164659047D01*
X49342619Y-164706666D01*
X49437857Y-164754285D01*
X49628333Y-164801904D01*
X49866428Y-164801904D01*
X50056904Y-164754285D01*
X50152142Y-164706666D01*
X50199761Y-164659047D01*
X50247380Y-164563809D01*
X50247380Y-164468571D01*
X50199761Y-164373333D01*
X50152142Y-164325714D01*
X50056904Y-164278095D01*
X49866428Y-164230476D01*
X49628333Y-164230476D01*
X49437857Y-164278095D01*
X49342619Y-164325714D01*
X49295000Y-164373333D01*
X49247380Y-164468571D01*
X145497380Y-105175714D02*
X144497380Y-105175714D01*
X144497380Y-105413809D01*
X144545000Y-105556666D01*
X144640238Y-105651904D01*
X144735476Y-105699523D01*
X144925952Y-105747142D01*
X145068809Y-105747142D01*
X145259285Y-105699523D01*
X145354523Y-105651904D01*
X145449761Y-105556666D01*
X145497380Y-105413809D01*
X145497380Y-105175714D01*
X144592619Y-106128095D02*
X144545000Y-106175714D01*
X144497380Y-106270952D01*
X144497380Y-106509047D01*
X144545000Y-106604285D01*
X144592619Y-106651904D01*
X144687857Y-106699523D01*
X144783095Y-106699523D01*
X144925952Y-106651904D01*
X145497380Y-106080476D01*
X145497380Y-106699523D01*
X144497380Y-107318571D02*
X144497380Y-107413809D01*
X144545000Y-107509047D01*
X144592619Y-107556666D01*
X144687857Y-107604285D01*
X144878333Y-107651904D01*
X145116428Y-107651904D01*
X145306904Y-107604285D01*
X145402142Y-107556666D01*
X145449761Y-107509047D01*
X145497380Y-107413809D01*
X145497380Y-107318571D01*
X145449761Y-107223333D01*
X145402142Y-107175714D01*
X145306904Y-107128095D01*
X145116428Y-107080476D01*
X144878333Y-107080476D01*
X144687857Y-107128095D01*
X144592619Y-107175714D01*
X144545000Y-107223333D01*
X144497380Y-107318571D01*
X88347380Y-86601904D02*
X87347380Y-86601904D01*
X87347380Y-86840000D01*
X87395000Y-86982857D01*
X87490238Y-87078095D01*
X87585476Y-87125714D01*
X87775952Y-87173333D01*
X87918809Y-87173333D01*
X88109285Y-87125714D01*
X88204523Y-87078095D01*
X88299761Y-86982857D01*
X88347380Y-86840000D01*
X88347380Y-86601904D01*
X87442619Y-87554285D02*
X87395000Y-87601904D01*
X87347380Y-87697142D01*
X87347380Y-87935238D01*
X87395000Y-88030476D01*
X87442619Y-88078095D01*
X87537857Y-88125714D01*
X87633095Y-88125714D01*
X87775952Y-88078095D01*
X88347380Y-87506666D01*
X88347380Y-88125714D01*
X183681666Y-150852142D02*
X183729285Y-150899761D01*
X183872142Y-150947380D01*
X183967380Y-150947380D01*
X184110238Y-150899761D01*
X184205476Y-150804523D01*
X184253095Y-150709285D01*
X184300714Y-150518809D01*
X184300714Y-150375952D01*
X184253095Y-150185476D01*
X184205476Y-150090238D01*
X184110238Y-149995000D01*
X183967380Y-149947380D01*
X183872142Y-149947380D01*
X183729285Y-149995000D01*
X183681666Y-150042619D01*
X182824523Y-149947380D02*
X183015000Y-149947380D01*
X183110238Y-149995000D01*
X183157857Y-150042619D01*
X183253095Y-150185476D01*
X183300714Y-150375952D01*
X183300714Y-150756904D01*
X183253095Y-150852142D01*
X183205476Y-150899761D01*
X183110238Y-150947380D01*
X182919761Y-150947380D01*
X182824523Y-150899761D01*
X182776904Y-150852142D01*
X182729285Y-150756904D01*
X182729285Y-150518809D01*
X182776904Y-150423571D01*
X182824523Y-150375952D01*
X182919761Y-150328333D01*
X183110238Y-150328333D01*
X183205476Y-150375952D01*
X183253095Y-150423571D01*
X183300714Y-150518809D01*
X164547380Y-124225714D02*
X163547380Y-124225714D01*
X163547380Y-124463809D01*
X163595000Y-124606666D01*
X163690238Y-124701904D01*
X163785476Y-124749523D01*
X163975952Y-124797142D01*
X164118809Y-124797142D01*
X164309285Y-124749523D01*
X164404523Y-124701904D01*
X164499761Y-124606666D01*
X164547380Y-124463809D01*
X164547380Y-124225714D01*
X163547380Y-125130476D02*
X163547380Y-125749523D01*
X163928333Y-125416190D01*
X163928333Y-125559047D01*
X163975952Y-125654285D01*
X164023571Y-125701904D01*
X164118809Y-125749523D01*
X164356904Y-125749523D01*
X164452142Y-125701904D01*
X164499761Y-125654285D01*
X164547380Y-125559047D01*
X164547380Y-125273333D01*
X164499761Y-125178095D01*
X164452142Y-125130476D01*
X163547380Y-126606666D02*
X163547380Y-126416190D01*
X163595000Y-126320952D01*
X163642619Y-126273333D01*
X163785476Y-126178095D01*
X163975952Y-126130476D01*
X164356904Y-126130476D01*
X164452142Y-126178095D01*
X164499761Y-126225714D01*
X164547380Y-126320952D01*
X164547380Y-126511428D01*
X164499761Y-126606666D01*
X164452142Y-126654285D01*
X164356904Y-126701904D01*
X164118809Y-126701904D01*
X164023571Y-126654285D01*
X163975952Y-126606666D01*
X163928333Y-126511428D01*
X163928333Y-126320952D01*
X163975952Y-126225714D01*
X164023571Y-126178095D01*
X164118809Y-126130476D01*
X107397380Y-105175714D02*
X106397380Y-105175714D01*
X106397380Y-105413809D01*
X106445000Y-105556666D01*
X106540238Y-105651904D01*
X106635476Y-105699523D01*
X106825952Y-105747142D01*
X106968809Y-105747142D01*
X107159285Y-105699523D01*
X107254523Y-105651904D01*
X107349761Y-105556666D01*
X107397380Y-105413809D01*
X107397380Y-105175714D01*
X107397380Y-106699523D02*
X107397380Y-106128095D01*
X107397380Y-106413809D02*
X106397380Y-106413809D01*
X106540238Y-106318571D01*
X106635476Y-106223333D01*
X106683095Y-106128095D01*
X106825952Y-107270952D02*
X106778333Y-107175714D01*
X106730714Y-107128095D01*
X106635476Y-107080476D01*
X106587857Y-107080476D01*
X106492619Y-107128095D01*
X106445000Y-107175714D01*
X106397380Y-107270952D01*
X106397380Y-107461428D01*
X106445000Y-107556666D01*
X106492619Y-107604285D01*
X106587857Y-107651904D01*
X106635476Y-107651904D01*
X106730714Y-107604285D01*
X106778333Y-107556666D01*
X106825952Y-107461428D01*
X106825952Y-107270952D01*
X106873571Y-107175714D01*
X106921190Y-107128095D01*
X107016428Y-107080476D01*
X107206904Y-107080476D01*
X107302142Y-107128095D01*
X107349761Y-107175714D01*
X107397380Y-107270952D01*
X107397380Y-107461428D01*
X107349761Y-107556666D01*
X107302142Y-107604285D01*
X107206904Y-107651904D01*
X107016428Y-107651904D01*
X106921190Y-107604285D01*
X106873571Y-107556666D01*
X106825952Y-107461428D01*
X50247380Y-105175714D02*
X49247380Y-105175714D01*
X49247380Y-105413809D01*
X49295000Y-105556666D01*
X49390238Y-105651904D01*
X49485476Y-105699523D01*
X49675952Y-105747142D01*
X49818809Y-105747142D01*
X50009285Y-105699523D01*
X50104523Y-105651904D01*
X50199761Y-105556666D01*
X50247380Y-105413809D01*
X50247380Y-105175714D01*
X50247380Y-106699523D02*
X50247380Y-106128095D01*
X50247380Y-106413809D02*
X49247380Y-106413809D01*
X49390238Y-106318571D01*
X49485476Y-106223333D01*
X49533095Y-106128095D01*
X49247380Y-107556666D02*
X49247380Y-107366190D01*
X49295000Y-107270952D01*
X49342619Y-107223333D01*
X49485476Y-107128095D01*
X49675952Y-107080476D01*
X50056904Y-107080476D01*
X50152142Y-107128095D01*
X50199761Y-107175714D01*
X50247380Y-107270952D01*
X50247380Y-107461428D01*
X50199761Y-107556666D01*
X50152142Y-107604285D01*
X50056904Y-107651904D01*
X49818809Y-107651904D01*
X49723571Y-107604285D01*
X49675952Y-107556666D01*
X49628333Y-107461428D01*
X49628333Y-107270952D01*
X49675952Y-107175714D01*
X49723571Y-107128095D01*
X49818809Y-107080476D01*
X183597380Y-105175714D02*
X182597380Y-105175714D01*
X182597380Y-105413809D01*
X182645000Y-105556666D01*
X182740238Y-105651904D01*
X182835476Y-105699523D01*
X183025952Y-105747142D01*
X183168809Y-105747142D01*
X183359285Y-105699523D01*
X183454523Y-105651904D01*
X183549761Y-105556666D01*
X183597380Y-105413809D01*
X183597380Y-105175714D01*
X182692619Y-106128095D02*
X182645000Y-106175714D01*
X182597380Y-106270952D01*
X182597380Y-106509047D01*
X182645000Y-106604285D01*
X182692619Y-106651904D01*
X182787857Y-106699523D01*
X182883095Y-106699523D01*
X183025952Y-106651904D01*
X183597380Y-106080476D01*
X183597380Y-106699523D01*
X182692619Y-107080476D02*
X182645000Y-107128095D01*
X182597380Y-107223333D01*
X182597380Y-107461428D01*
X182645000Y-107556666D01*
X182692619Y-107604285D01*
X182787857Y-107651904D01*
X182883095Y-107651904D01*
X183025952Y-107604285D01*
X183597380Y-107032857D01*
X183597380Y-107651904D01*
X164547380Y-86601904D02*
X163547380Y-86601904D01*
X163547380Y-86840000D01*
X163595000Y-86982857D01*
X163690238Y-87078095D01*
X163785476Y-87125714D01*
X163975952Y-87173333D01*
X164118809Y-87173333D01*
X164309285Y-87125714D01*
X164404523Y-87078095D01*
X164499761Y-86982857D01*
X164547380Y-86840000D01*
X164547380Y-86601904D01*
X163547380Y-88030476D02*
X163547380Y-87840000D01*
X163595000Y-87744761D01*
X163642619Y-87697142D01*
X163785476Y-87601904D01*
X163975952Y-87554285D01*
X164356904Y-87554285D01*
X164452142Y-87601904D01*
X164499761Y-87649523D01*
X164547380Y-87744761D01*
X164547380Y-87935238D01*
X164499761Y-88030476D01*
X164452142Y-88078095D01*
X164356904Y-88125714D01*
X164118809Y-88125714D01*
X164023571Y-88078095D01*
X163975952Y-88030476D01*
X163928333Y-87935238D01*
X163928333Y-87744761D01*
X163975952Y-87649523D01*
X164023571Y-87601904D01*
X164118809Y-87554285D01*
X147613666Y-171299142D02*
X147661285Y-171346761D01*
X147804142Y-171394380D01*
X147899380Y-171394380D01*
X148042238Y-171346761D01*
X148137476Y-171251523D01*
X148185095Y-171156285D01*
X148232714Y-170965809D01*
X148232714Y-170822952D01*
X148185095Y-170632476D01*
X148137476Y-170537238D01*
X148042238Y-170442000D01*
X147899380Y-170394380D01*
X147804142Y-170394380D01*
X147661285Y-170442000D01*
X147613666Y-170489619D01*
X147280333Y-170394380D02*
X146661285Y-170394380D01*
X146994619Y-170775333D01*
X146851761Y-170775333D01*
X146756523Y-170822952D01*
X146708904Y-170870571D01*
X146661285Y-170965809D01*
X146661285Y-171203904D01*
X146708904Y-171299142D01*
X146756523Y-171346761D01*
X146851761Y-171394380D01*
X147137476Y-171394380D01*
X147232714Y-171346761D01*
X147280333Y-171299142D01*
X154217666Y-171394380D02*
X154551000Y-170918190D01*
X154789095Y-171394380D02*
X154789095Y-170394380D01*
X154408142Y-170394380D01*
X154312904Y-170442000D01*
X154265285Y-170489619D01*
X154217666Y-170584857D01*
X154217666Y-170727714D01*
X154265285Y-170822952D01*
X154312904Y-170870571D01*
X154408142Y-170918190D01*
X154789095Y-170918190D01*
X153265285Y-171394380D02*
X153836714Y-171394380D01*
X153551000Y-171394380D02*
X153551000Y-170394380D01*
X153646238Y-170537238D01*
X153741476Y-170632476D01*
X153836714Y-170680095D01*
X147009285Y-144152380D02*
X147009285Y-143152380D01*
X146771190Y-143152380D01*
X146628333Y-143200000D01*
X146533095Y-143295238D01*
X146485476Y-143390476D01*
X146437857Y-143580952D01*
X146437857Y-143723809D01*
X146485476Y-143914285D01*
X146533095Y-144009523D01*
X146628333Y-144104761D01*
X146771190Y-144152380D01*
X147009285Y-144152380D01*
X145580714Y-143485714D02*
X145580714Y-144152380D01*
X145818809Y-143104761D02*
X146056904Y-143819047D01*
X145437857Y-143819047D01*
X145009285Y-144152380D02*
X144818809Y-144152380D01*
X144723571Y-144104761D01*
X144675952Y-144057142D01*
X144580714Y-143914285D01*
X144533095Y-143723809D01*
X144533095Y-143342857D01*
X144580714Y-143247619D01*
X144628333Y-143200000D01*
X144723571Y-143152380D01*
X144914047Y-143152380D01*
X145009285Y-143200000D01*
X145056904Y-143247619D01*
X145104523Y-143342857D01*
X145104523Y-143580952D01*
X145056904Y-143676190D01*
X145009285Y-143723809D01*
X144914047Y-143771428D01*
X144723571Y-143771428D01*
X144628333Y-143723809D01*
X144580714Y-143676190D01*
X144533095Y-143580952D01*
X122349285Y-124882380D02*
X122349285Y-123882380D01*
X122111190Y-123882380D01*
X121968333Y-123930000D01*
X121873095Y-124025238D01*
X121825476Y-124120476D01*
X121777857Y-124310952D01*
X121777857Y-124453809D01*
X121825476Y-124644285D01*
X121873095Y-124739523D01*
X121968333Y-124834761D01*
X122111190Y-124882380D01*
X122349285Y-124882380D01*
X121444523Y-123882380D02*
X120825476Y-123882380D01*
X121158809Y-124263333D01*
X121015952Y-124263333D01*
X120920714Y-124310952D01*
X120873095Y-124358571D01*
X120825476Y-124453809D01*
X120825476Y-124691904D01*
X120873095Y-124787142D01*
X120920714Y-124834761D01*
X121015952Y-124882380D01*
X121301666Y-124882380D01*
X121396904Y-124834761D01*
X121444523Y-124787142D01*
X119968333Y-124215714D02*
X119968333Y-124882380D01*
X120206428Y-123834761D02*
X120444523Y-124549047D01*
X119825476Y-124549047D01*
X183681666Y-152757142D02*
X183729285Y-152804761D01*
X183872142Y-152852380D01*
X183967380Y-152852380D01*
X184110238Y-152804761D01*
X184205476Y-152709523D01*
X184253095Y-152614285D01*
X184300714Y-152423809D01*
X184300714Y-152280952D01*
X184253095Y-152090476D01*
X184205476Y-151995238D01*
X184110238Y-151900000D01*
X183967380Y-151852380D01*
X183872142Y-151852380D01*
X183729285Y-151900000D01*
X183681666Y-151947619D01*
X183348333Y-151852380D02*
X182681666Y-151852380D01*
X183110238Y-152852380D01*
X152058666Y-171251142D02*
X152106285Y-171298761D01*
X152249142Y-171346380D01*
X152344380Y-171346380D01*
X152487238Y-171298761D01*
X152582476Y-171203523D01*
X152630095Y-171108285D01*
X152677714Y-170917809D01*
X152677714Y-170774952D01*
X152630095Y-170584476D01*
X152582476Y-170489238D01*
X152487238Y-170394000D01*
X152344380Y-170346380D01*
X152249142Y-170346380D01*
X152106285Y-170394000D01*
X152058666Y-170441619D01*
X151106285Y-171346380D02*
X151677714Y-171346380D01*
X151392000Y-171346380D02*
X151392000Y-170346380D01*
X151487238Y-170489238D01*
X151582476Y-170584476D01*
X151677714Y-170632095D01*
X74779285Y-144102380D02*
X74779285Y-143102380D01*
X74541190Y-143102380D01*
X74398333Y-143150000D01*
X74303095Y-143245238D01*
X74255476Y-143340476D01*
X74207857Y-143530952D01*
X74207857Y-143673809D01*
X74255476Y-143864285D01*
X74303095Y-143959523D01*
X74398333Y-144054761D01*
X74541190Y-144102380D01*
X74779285Y-144102380D01*
X73350714Y-143435714D02*
X73350714Y-144102380D01*
X73588809Y-143054761D02*
X73826904Y-143769047D01*
X73207857Y-143769047D01*
X72398333Y-143102380D02*
X72588809Y-143102380D01*
X72684047Y-143150000D01*
X72731666Y-143197619D01*
X72826904Y-143340476D01*
X72874523Y-143530952D01*
X72874523Y-143911904D01*
X72826904Y-144007142D01*
X72779285Y-144054761D01*
X72684047Y-144102380D01*
X72493571Y-144102380D01*
X72398333Y-144054761D01*
X72350714Y-144007142D01*
X72303095Y-143911904D01*
X72303095Y-143673809D01*
X72350714Y-143578571D01*
X72398333Y-143530952D01*
X72493571Y-143483333D01*
X72684047Y-143483333D01*
X72779285Y-143530952D01*
X72826904Y-143578571D01*
X72874523Y-143673809D01*
X107397380Y-86601904D02*
X106397380Y-86601904D01*
X106397380Y-86840000D01*
X106445000Y-86982857D01*
X106540238Y-87078095D01*
X106635476Y-87125714D01*
X106825952Y-87173333D01*
X106968809Y-87173333D01*
X107159285Y-87125714D01*
X107254523Y-87078095D01*
X107349761Y-86982857D01*
X107397380Y-86840000D01*
X107397380Y-86601904D01*
X106397380Y-87506666D02*
X106397380Y-88125714D01*
X106778333Y-87792380D01*
X106778333Y-87935238D01*
X106825952Y-88030476D01*
X106873571Y-88078095D01*
X106968809Y-88125714D01*
X107206904Y-88125714D01*
X107302142Y-88078095D01*
X107349761Y-88030476D01*
X107397380Y-87935238D01*
X107397380Y-87649523D01*
X107349761Y-87554285D01*
X107302142Y-87506666D01*
X50247380Y-86601904D02*
X49247380Y-86601904D01*
X49247380Y-86840000D01*
X49295000Y-86982857D01*
X49390238Y-87078095D01*
X49485476Y-87125714D01*
X49675952Y-87173333D01*
X49818809Y-87173333D01*
X50009285Y-87125714D01*
X50104523Y-87078095D01*
X50199761Y-86982857D01*
X50247380Y-86840000D01*
X50247380Y-86601904D01*
X49247380Y-87792380D02*
X49247380Y-87887619D01*
X49295000Y-87982857D01*
X49342619Y-88030476D01*
X49437857Y-88078095D01*
X49628333Y-88125714D01*
X49866428Y-88125714D01*
X50056904Y-88078095D01*
X50152142Y-88030476D01*
X50199761Y-87982857D01*
X50247380Y-87887619D01*
X50247380Y-87792380D01*
X50199761Y-87697142D01*
X50152142Y-87649523D01*
X50056904Y-87601904D01*
X49866428Y-87554285D01*
X49628333Y-87554285D01*
X49437857Y-87601904D01*
X49342619Y-87649523D01*
X49295000Y-87697142D01*
X49247380Y-87792380D01*
X69297380Y-86601904D02*
X68297380Y-86601904D01*
X68297380Y-86840000D01*
X68345000Y-86982857D01*
X68440238Y-87078095D01*
X68535476Y-87125714D01*
X68725952Y-87173333D01*
X68868809Y-87173333D01*
X69059285Y-87125714D01*
X69154523Y-87078095D01*
X69249761Y-86982857D01*
X69297380Y-86840000D01*
X69297380Y-86601904D01*
X69297380Y-88125714D02*
X69297380Y-87554285D01*
X69297380Y-87840000D02*
X68297380Y-87840000D01*
X68440238Y-87744761D01*
X68535476Y-87649523D01*
X68583095Y-87554285D01*
X186729666Y-151709380D02*
X187063000Y-151233190D01*
X187301095Y-151709380D02*
X187301095Y-150709380D01*
X186920142Y-150709380D01*
X186824904Y-150757000D01*
X186777285Y-150804619D01*
X186729666Y-150899857D01*
X186729666Y-151042714D01*
X186777285Y-151137952D01*
X186824904Y-151185571D01*
X186920142Y-151233190D01*
X187301095Y-151233190D01*
X186396333Y-150709380D02*
X185777285Y-150709380D01*
X186110619Y-151090333D01*
X185967761Y-151090333D01*
X185872523Y-151137952D01*
X185824904Y-151185571D01*
X185777285Y-151280809D01*
X185777285Y-151518904D01*
X185824904Y-151614142D01*
X185872523Y-151661761D01*
X185967761Y-151709380D01*
X186253476Y-151709380D01*
X186348714Y-151661761D01*
X186396333Y-151614142D01*
X194638571Y-169538095D02*
X194638571Y-169204761D01*
X195162380Y-169204761D02*
X194162380Y-169204761D01*
X194162380Y-169680952D01*
X194638571Y-170395238D02*
X194638571Y-170061904D01*
X195162380Y-170061904D02*
X194162380Y-170061904D01*
X194162380Y-170538095D01*
X195067142Y-171490476D02*
X195114761Y-171442857D01*
X195162380Y-171300000D01*
X195162380Y-171204761D01*
X195114761Y-171061904D01*
X195019523Y-170966666D01*
X194924285Y-170919047D01*
X194733809Y-170871428D01*
X194590952Y-170871428D01*
X194400476Y-170919047D01*
X194305238Y-170966666D01*
X194210000Y-171061904D01*
X194162380Y-171204761D01*
X194162380Y-171300000D01*
X194210000Y-171442857D01*
X194257619Y-171490476D01*
X195162380Y-172442857D02*
X195162380Y-171871428D01*
X195162380Y-172157142D02*
X194162380Y-172157142D01*
X194305238Y-172061904D01*
X194400476Y-171966666D01*
X194448095Y-171871428D01*
X197326000Y-158373000D02*
X197326000Y-158673000D01*
X197326000Y-150373000D02*
X197326000Y-150673000D01*
X191201000Y-153448000D02*
X191201000Y-152723000D01*
X191626000Y-156323000D02*
X191626000Y-157323000D01*
X197176000Y-150373000D02*
X197326000Y-150373000D01*
X194776000Y-158673000D02*
X193376000Y-158673000D01*
X193376000Y-150373000D02*
X194776000Y-150373000D01*
X191201000Y-152723000D02*
X191626000Y-152723000D01*
X197326000Y-158673000D02*
X197176000Y-158673000D01*
X197326000Y-150673000D02*
X197776000Y-150673000D01*
X197776000Y-158373000D02*
X197326000Y-158373000D01*
X191626000Y-152723000D02*
X191626000Y-151723000D01*
D12*
X159104000Y-173743252D02*
X159104000Y-173220748D01*
X157634000Y-173743252D02*
X157634000Y-173220748D01*
X160370000Y-62550000D02*
X166370000Y-62550000D01*
X166370000Y-68580000D02*
X166370000Y-60840000D01*
X166370000Y-61790000D02*
X160370000Y-61790000D01*
X174280000Y-60900000D02*
X173010000Y-60900000D01*
X169030000Y-68580000D02*
X166370000Y-68580000D01*
X171900000Y-61790000D02*
X171512929Y-61790000D01*
X169030000Y-65980000D02*
X166370000Y-65980000D01*
X171967071Y-66870000D02*
X171512929Y-66870000D01*
X166370000Y-66870000D02*
X160370000Y-66870000D01*
X174280000Y-62170000D02*
X174280000Y-60900000D01*
X166370000Y-62090000D02*
X160370000Y-62090000D01*
X166370000Y-60840000D02*
X169030000Y-60840000D01*
X166370000Y-61970000D02*
X160370000Y-61970000D01*
X171967071Y-64330000D02*
X171512929Y-64330000D01*
X169427071Y-66870000D02*
X169030000Y-66870000D01*
X169427071Y-67630000D02*
X169030000Y-67630000D01*
X171967071Y-65090000D02*
X171512929Y-65090000D01*
X166370000Y-64330000D02*
X160370000Y-64330000D01*
X169030000Y-60840000D02*
X169030000Y-68580000D01*
X160370000Y-67630000D02*
X166370000Y-67630000D01*
X160370000Y-61790000D02*
X160370000Y-62550000D01*
X166370000Y-61850000D02*
X160370000Y-61850000D01*
X171967071Y-67630000D02*
X171512929Y-67630000D01*
X166370000Y-62450000D02*
X160370000Y-62450000D01*
X160370000Y-64330000D02*
X160370000Y-65090000D01*
X160370000Y-66870000D02*
X160370000Y-67630000D01*
X171900000Y-62550000D02*
X171512929Y-62550000D01*
X169427071Y-61790000D02*
X169030000Y-61790000D01*
X169427071Y-64330000D02*
X169030000Y-64330000D01*
X166370000Y-62210000D02*
X160370000Y-62210000D01*
X166370000Y-62330000D02*
X160370000Y-62330000D01*
X169427071Y-65090000D02*
X169030000Y-65090000D01*
X169030000Y-63440000D02*
X166370000Y-63440000D01*
X160370000Y-65090000D02*
X166370000Y-65090000D01*
X169427071Y-62550000D02*
X169030000Y-62550000D01*
X123385000Y-165400000D02*
X123385000Y-162540000D01*
X125305000Y-162540000D02*
X125305000Y-165400000D01*
X125305000Y-165400000D02*
X123385000Y-165400000D01*
X106255000Y-124440000D02*
X106255000Y-127300000D01*
X106255000Y-127300000D02*
X104335000Y-127300000D01*
X104335000Y-127300000D02*
X104335000Y-124440000D01*
X144355000Y-89200000D02*
X142435000Y-89200000D01*
X142435000Y-89200000D02*
X142435000Y-86340000D01*
X144355000Y-86340000D02*
X144355000Y-89200000D01*
X163405000Y-108250000D02*
X161485000Y-108250000D01*
X161485000Y-108250000D02*
X161485000Y-105390000D01*
X163405000Y-105390000D02*
X163405000Y-108250000D01*
X176675000Y-176760000D02*
X176675000Y-176730000D01*
X170215000Y-172230000D02*
X170215000Y-174830000D01*
X176675000Y-176760000D02*
X170215000Y-176760000D01*
X176675000Y-170300000D02*
X170215000Y-170300000D01*
X170215000Y-170300000D02*
X170215000Y-170330000D01*
X170215000Y-176760000D02*
X170215000Y-176730000D01*
X176675000Y-170330000D02*
X176675000Y-170300000D01*
X176675000Y-172230000D02*
X176675000Y-174830000D01*
X144355000Y-127300000D02*
X142435000Y-127300000D01*
X144355000Y-124440000D02*
X144355000Y-127300000D01*
X142435000Y-127300000D02*
X142435000Y-124440000D01*
X104335000Y-146350000D02*
X104335000Y-143490000D01*
X106255000Y-143490000D02*
X106255000Y-146350000D01*
X106255000Y-146350000D02*
X104335000Y-146350000D01*
X182455000Y-127300000D02*
X180535000Y-127300000D01*
X182455000Y-124440000D02*
X182455000Y-127300000D01*
X180535000Y-127300000D02*
X180535000Y-124440000D01*
X75760000Y-127300000D02*
X75760000Y-124440000D01*
X77680000Y-127300000D02*
X75760000Y-127300000D01*
X77680000Y-124440000D02*
X77680000Y-127300000D01*
X161990000Y-150491252D02*
X161990000Y-149968748D01*
X160520000Y-150491252D02*
X160520000Y-149968748D01*
X123385000Y-108250000D02*
X123385000Y-105390000D01*
X125305000Y-108250000D02*
X123385000Y-108250000D01*
X125305000Y-105390000D02*
X125305000Y-108250000D01*
X139320000Y-151852936D02*
X139320000Y-152307064D01*
X140790000Y-151852936D02*
X140790000Y-152307064D01*
X49105000Y-146350000D02*
X47185000Y-146350000D01*
X47185000Y-146350000D02*
X47185000Y-143490000D01*
X49105000Y-143490000D02*
X49105000Y-146350000D01*
D11*
X142830000Y-152605000D02*
X142830000Y-153280000D01*
X142830000Y-162955000D02*
X143505000Y-162955000D01*
X153180000Y-162955000D02*
X152505000Y-162955000D01*
X153180000Y-153180000D02*
X154455000Y-153180000D01*
X142830000Y-152605000D02*
X143505000Y-152605000D01*
X142830000Y-162955000D02*
X142830000Y-162280000D01*
X153180000Y-152605000D02*
X152505000Y-152605000D01*
X153180000Y-152605000D02*
X153180000Y-153180000D01*
X153180000Y-162955000D02*
X153180000Y-162280000D01*
D12*
X68155000Y-162540000D02*
X68155000Y-165400000D01*
X68155000Y-165400000D02*
X66235000Y-165400000D01*
X66235000Y-165400000D02*
X66235000Y-162540000D01*
X49105000Y-124440000D02*
X49105000Y-127300000D01*
X47185000Y-127300000D02*
X47185000Y-124440000D01*
X49105000Y-127300000D02*
X47185000Y-127300000D01*
X155475000Y-173743252D02*
X155475000Y-173220748D01*
X156945000Y-173743252D02*
X156945000Y-173220748D01*
X104335000Y-165400000D02*
X104335000Y-162540000D01*
X106255000Y-162540000D02*
X106255000Y-165400000D01*
X106255000Y-165400000D02*
X104335000Y-165400000D01*
X125305000Y-86340000D02*
X125305000Y-89200000D01*
X125305000Y-89200000D02*
X123385000Y-89200000D01*
X123385000Y-89200000D02*
X123385000Y-86340000D01*
X87205000Y-162540000D02*
X87205000Y-165400000D01*
X85285000Y-165400000D02*
X85285000Y-162540000D01*
X87205000Y-165400000D02*
X85285000Y-165400000D01*
X163405000Y-162540000D02*
X163405000Y-165400000D01*
X163405000Y-165400000D02*
X161485000Y-165400000D01*
X161485000Y-165400000D02*
X161485000Y-162540000D01*
X150341000Y-173220748D02*
X150341000Y-173743252D01*
X148871000Y-173220748D02*
X148871000Y-173743252D01*
X180535000Y-146350000D02*
X180535000Y-143490000D01*
X182455000Y-146350000D02*
X180535000Y-146350000D01*
X182455000Y-143490000D02*
X182455000Y-146350000D01*
X182455000Y-86340000D02*
X182455000Y-89200000D01*
X182455000Y-89200000D02*
X180535000Y-89200000D01*
X180535000Y-89200000D02*
X180535000Y-86340000D01*
X186335936Y-154713000D02*
X186790064Y-154713000D01*
X186335936Y-156183000D02*
X186790064Y-156183000D01*
X123385000Y-146350000D02*
X123385000Y-143490000D01*
X125305000Y-146350000D02*
X123385000Y-146350000D01*
X125305000Y-143490000D02*
X125305000Y-146350000D01*
X178711000Y-157966000D02*
X185961000Y-157966000D01*
X185961000Y-161566000D02*
X178711000Y-161566000D01*
X178711000Y-161566000D02*
X178711000Y-157966000D01*
X75760000Y-108250000D02*
X75760000Y-105390000D01*
X77680000Y-108250000D02*
X75760000Y-108250000D01*
X77680000Y-105390000D02*
X77680000Y-108250000D01*
X163405000Y-143490000D02*
X163405000Y-146350000D01*
X163405000Y-146350000D02*
X161485000Y-146350000D01*
X161485000Y-146350000D02*
X161485000Y-143490000D01*
X49105000Y-162540000D02*
X49105000Y-165400000D01*
X47185000Y-165400000D02*
X47185000Y-162540000D01*
X49105000Y-165400000D02*
X47185000Y-165400000D01*
X144355000Y-105390000D02*
X144355000Y-108250000D01*
X144355000Y-108250000D02*
X142435000Y-108250000D01*
X142435000Y-108250000D02*
X142435000Y-105390000D01*
X87205000Y-86340000D02*
X87205000Y-89200000D01*
X85285000Y-89200000D02*
X85285000Y-86340000D01*
X87205000Y-89200000D02*
X85285000Y-89200000D01*
X180855252Y-149887000D02*
X180332748Y-149887000D01*
X180855252Y-151357000D02*
X180332748Y-151357000D01*
X163405000Y-127300000D02*
X161485000Y-127300000D01*
X163405000Y-124440000D02*
X163405000Y-127300000D01*
X161485000Y-127300000D02*
X161485000Y-124440000D01*
X106255000Y-105390000D02*
X106255000Y-108250000D01*
X106255000Y-108250000D02*
X104335000Y-108250000D01*
X104335000Y-108250000D02*
X104335000Y-105390000D01*
X49105000Y-105390000D02*
X49105000Y-108250000D01*
X47185000Y-108250000D02*
X47185000Y-105390000D01*
X49105000Y-108250000D02*
X47185000Y-108250000D01*
X182455000Y-105390000D02*
X182455000Y-108250000D01*
X182455000Y-108250000D02*
X180535000Y-108250000D01*
X180535000Y-108250000D02*
X180535000Y-105390000D01*
X163405000Y-89200000D02*
X161485000Y-89200000D01*
X163405000Y-86340000D02*
X163405000Y-89200000D01*
X161485000Y-89200000D02*
X161485000Y-86340000D01*
X146712000Y-173220748D02*
X146712000Y-173743252D01*
X148182000Y-173220748D02*
X148182000Y-173743252D01*
X153316000Y-173254936D02*
X153316000Y-173709064D01*
X154786000Y-173254936D02*
X154786000Y-173709064D01*
X144355000Y-143490000D02*
X144355000Y-146350000D01*
X142435000Y-146350000D02*
X142435000Y-143490000D01*
X144355000Y-146350000D02*
X142435000Y-146350000D01*
X125305000Y-124440000D02*
X125305000Y-127300000D01*
X123385000Y-127300000D02*
X123385000Y-124440000D01*
X125305000Y-127300000D02*
X123385000Y-127300000D01*
X180855252Y-152046000D02*
X180332748Y-152046000D01*
X180855252Y-153516000D02*
X180332748Y-153516000D01*
X152580000Y-173220748D02*
X152580000Y-173743252D01*
X151110000Y-173220748D02*
X151110000Y-173743252D01*
X75760000Y-146350000D02*
X75760000Y-143490000D01*
X77680000Y-146350000D02*
X75760000Y-146350000D01*
X77680000Y-143490000D02*
X77680000Y-146350000D01*
X106255000Y-89200000D02*
X104335000Y-89200000D01*
X106255000Y-86340000D02*
X106255000Y-89200000D01*
X104335000Y-89200000D02*
X104335000Y-86340000D01*
X49105000Y-89200000D02*
X47185000Y-89200000D01*
X49105000Y-86340000D02*
X49105000Y-89200000D01*
X47185000Y-89200000D02*
X47185000Y-86340000D01*
X68155000Y-86340000D02*
X68155000Y-89200000D01*
X68155000Y-89200000D02*
X66235000Y-89200000D01*
X66235000Y-89200000D02*
X66235000Y-86340000D01*
X186335936Y-152173000D02*
X186790064Y-152173000D01*
X186335936Y-153643000D02*
X186790064Y-153643000D01*
X197110000Y-166890000D02*
X197110000Y-165400000D01*
X197110000Y-166890000D02*
X195910000Y-166890000D01*
X197110000Y-176200000D02*
X198450000Y-176200000D01*
X197110000Y-165400000D02*
X198450000Y-165400000D01*
X201170000Y-165400000D02*
X202910000Y-165400000D01*
X202910000Y-176200000D02*
X201170000Y-176200000D01*
X202910000Y-165400000D02*
X202910000Y-176200000D01*
X197110000Y-174710000D02*
X197110000Y-176200000D01*
%LPC*%
D13*
X185420000Y-64262000D03*
D14*
X135645000Y-135600000D03*
D15*
X130145000Y-135600000D03*
D16*
X135365000Y-131400000D03*
D14*
X124645000Y-135600000D03*
D17*
X130145000Y-141500000D03*
X125145000Y-139400000D03*
D16*
X78215000Y-74250000D03*
D14*
X78495000Y-78450000D03*
D15*
X72995000Y-78450000D03*
D14*
X67495000Y-78450000D03*
D17*
X72995000Y-84350000D03*
X67995000Y-82250000D03*
D14*
X192795000Y-78450000D03*
D16*
X192515000Y-74250000D03*
D15*
X187295000Y-78450000D03*
D14*
X181795000Y-78450000D03*
D17*
X187295000Y-84350000D03*
X182295000Y-82250000D03*
D14*
X162745000Y-78450000D03*
D15*
X168245000Y-78450000D03*
D14*
X173745000Y-78450000D03*
D16*
X173465000Y-74250000D03*
D17*
X168245000Y-84350000D03*
X163245000Y-82250000D03*
D14*
X116595000Y-154650000D03*
D16*
X116315000Y-150450000D03*
D14*
X105595000Y-154650000D03*
D15*
X111095000Y-154650000D03*
D17*
X111095000Y-160550000D03*
X106095000Y-158450000D03*
D14*
X59445000Y-135600000D03*
D16*
X59165000Y-131400000D03*
D15*
X53945000Y-135600000D03*
D14*
X48445000Y-135600000D03*
D17*
X53945000Y-141500000D03*
X48945000Y-139400000D03*
D14*
X181795000Y-135600000D03*
D16*
X192515000Y-131400000D03*
D14*
X192795000Y-135600000D03*
D15*
X187295000Y-135600000D03*
D17*
X187295000Y-141500000D03*
X182295000Y-139400000D03*
D16*
X154415000Y-131400000D03*
D14*
X154695000Y-135600000D03*
X143695000Y-135600000D03*
D15*
X149195000Y-135600000D03*
D17*
X149195000Y-141500000D03*
X144195000Y-139400000D03*
D13*
X185420000Y-173990000D03*
D15*
X53945000Y-78450000D03*
D16*
X59165000Y-74250000D03*
D14*
X59445000Y-78450000D03*
X48445000Y-78450000D03*
D17*
X53945000Y-84350000D03*
X48945000Y-82250000D03*
D13*
X43180000Y-173990000D03*
D16*
X87740000Y-93300000D03*
D14*
X77020000Y-97500000D03*
X88020000Y-97500000D03*
D15*
X82520000Y-97500000D03*
D17*
X82520000Y-103400000D03*
X77520000Y-101300000D03*
D16*
X116315000Y-93300000D03*
D15*
X111095000Y-97500000D03*
D14*
X116595000Y-97500000D03*
X105595000Y-97500000D03*
D17*
X111095000Y-103400000D03*
X106095000Y-101300000D03*
D13*
X43180000Y-64262000D03*
D16*
X154415000Y-93300000D03*
D14*
X143695000Y-97500000D03*
D15*
X149195000Y-97500000D03*
D14*
X154695000Y-97500000D03*
D17*
X149195000Y-103400000D03*
X144195000Y-101300000D03*
D14*
X59445000Y-116550000D03*
D15*
X53945000Y-116550000D03*
D14*
X48445000Y-116550000D03*
D16*
X59165000Y-112350000D03*
D17*
X53945000Y-122450000D03*
X48945000Y-120350000D03*
D16*
X192515000Y-112350000D03*
D14*
X192795000Y-116550000D03*
D15*
X187295000Y-116550000D03*
D14*
X181795000Y-116550000D03*
D17*
X187295000Y-122450000D03*
X182295000Y-120350000D03*
D15*
X72995000Y-154650000D03*
D16*
X78215000Y-150450000D03*
D14*
X78495000Y-154650000D03*
X67495000Y-154650000D03*
D17*
X72995000Y-160550000D03*
X67995000Y-158450000D03*
D14*
X143695000Y-116550000D03*
D15*
X149195000Y-116550000D03*
D14*
X154695000Y-116550000D03*
D16*
X154415000Y-112350000D03*
D17*
X149195000Y-122450000D03*
X144195000Y-120350000D03*
D14*
X116595000Y-135600000D03*
D15*
X111095000Y-135600000D03*
D16*
X116315000Y-131400000D03*
D14*
X105595000Y-135600000D03*
D17*
X111095000Y-141500000D03*
X106095000Y-139400000D03*
D14*
X97545000Y-154650000D03*
D16*
X97265000Y-150450000D03*
D15*
X92045000Y-154650000D03*
D14*
X86545000Y-154650000D03*
D17*
X92045000Y-160550000D03*
X87045000Y-158450000D03*
D16*
X97265000Y-74250000D03*
D15*
X92045000Y-78450000D03*
D14*
X86545000Y-78450000D03*
X97545000Y-78450000D03*
D17*
X92045000Y-84350000D03*
X87045000Y-82250000D03*
D14*
X59445000Y-97500000D03*
D16*
X59165000Y-93300000D03*
D15*
X53945000Y-97500000D03*
D14*
X48445000Y-97500000D03*
D17*
X53945000Y-103400000D03*
X48945000Y-101300000D03*
D15*
X82520000Y-135600000D03*
D16*
X87740000Y-131400000D03*
D14*
X77020000Y-135600000D03*
X88020000Y-135600000D03*
D17*
X82520000Y-141500000D03*
X77520000Y-139400000D03*
D15*
X82520000Y-116550000D03*
D16*
X87740000Y-112350000D03*
D14*
X88020000Y-116550000D03*
X77020000Y-116550000D03*
D17*
X82520000Y-122450000D03*
X77520000Y-120350000D03*
D15*
X168245000Y-154650000D03*
D14*
X162745000Y-154650000D03*
X173745000Y-154650000D03*
D16*
X173465000Y-150450000D03*
D17*
X168245000Y-160550000D03*
X163245000Y-158450000D03*
D14*
X135645000Y-97500000D03*
D16*
X135365000Y-93300000D03*
D15*
X130145000Y-97500000D03*
D14*
X124645000Y-97500000D03*
D17*
X130145000Y-103400000D03*
X125145000Y-101300000D03*
D16*
X135365000Y-150450000D03*
D14*
X135645000Y-154650000D03*
X124645000Y-154650000D03*
D15*
X130145000Y-154650000D03*
D17*
X130145000Y-160550000D03*
X125145000Y-158450000D03*
D16*
X116315000Y-74250000D03*
D15*
X111095000Y-78450000D03*
D14*
X105595000Y-78450000D03*
X116595000Y-78450000D03*
D17*
X111095000Y-84350000D03*
X106095000Y-82250000D03*
D14*
X116595000Y-116550000D03*
X105595000Y-116550000D03*
D15*
X111095000Y-116550000D03*
D16*
X116315000Y-112350000D03*
D17*
X111095000Y-122450000D03*
X106095000Y-120350000D03*
D14*
X59445000Y-154650000D03*
D16*
X59165000Y-150450000D03*
D14*
X48445000Y-154650000D03*
D15*
X53945000Y-154650000D03*
D17*
X53945000Y-160550000D03*
X48945000Y-158450000D03*
D14*
X181795000Y-97500000D03*
D15*
X187295000Y-97500000D03*
D14*
X192795000Y-97500000D03*
D16*
X192515000Y-93300000D03*
D17*
X187295000Y-103400000D03*
X182295000Y-101300000D03*
D14*
X173745000Y-97500000D03*
D15*
X168245000Y-97500000D03*
D14*
X162745000Y-97500000D03*
D16*
X173465000Y-93300000D03*
D17*
X168245000Y-103400000D03*
X163245000Y-101300000D03*
D16*
X135365000Y-112350000D03*
D15*
X130145000Y-116550000D03*
D14*
X135645000Y-116550000D03*
X124645000Y-116550000D03*
D17*
X130145000Y-122450000D03*
X125145000Y-120350000D03*
D14*
X124645000Y-78450000D03*
X135645000Y-78450000D03*
D15*
X130145000Y-78450000D03*
D16*
X135365000Y-74250000D03*
D17*
X130145000Y-84350000D03*
X125145000Y-82250000D03*
D14*
X154695000Y-78450000D03*
X143695000Y-78450000D03*
D15*
X149195000Y-78450000D03*
D16*
X154415000Y-74250000D03*
D17*
X149195000Y-84350000D03*
X144195000Y-82250000D03*
D14*
X162745000Y-116550000D03*
X173745000Y-116550000D03*
D15*
X168245000Y-116550000D03*
D16*
X173465000Y-112350000D03*
D17*
X168245000Y-122450000D03*
X163245000Y-120350000D03*
D14*
X162745000Y-135600000D03*
D16*
X173465000Y-131400000D03*
D15*
X168245000Y-135600000D03*
D14*
X173745000Y-135600000D03*
D17*
X168245000Y-141500000D03*
X163245000Y-139400000D03*
D18*
X193226000Y-152023000D03*
X193226000Y-157023000D03*
D19*
X192126000Y-153223000D03*
X192126000Y-153873000D03*
X192126000Y-154523000D03*
X192126000Y-155173000D03*
X192126000Y-155823000D03*
D20*
X192176000Y-158248000D03*
D21*
X195976000Y-158398000D03*
D20*
X192176000Y-150798000D03*
D21*
X195976000Y-150648000D03*
D22*
X158369000Y-174519500D03*
X158369000Y-172444500D03*
D23*
X173010000Y-62170000D03*
D24*
X170470000Y-62170000D03*
X173010000Y-64710000D03*
X170470000Y-64710000D03*
X173010000Y-67250000D03*
X170470000Y-67250000D03*
D25*
X124345000Y-164565000D03*
X124345000Y-162515000D03*
X105295000Y-126465000D03*
X105295000Y-124415000D03*
X143395000Y-88365000D03*
X143395000Y-86315000D03*
X162445000Y-107415000D03*
X162445000Y-105365000D03*
D26*
X169470000Y-171280000D03*
X177420000Y-171280000D03*
X169470000Y-175780000D03*
X177420000Y-175780000D03*
D25*
X143395000Y-126465000D03*
X143395000Y-124415000D03*
X105295000Y-145515000D03*
X105295000Y-143465000D03*
X181495000Y-126465000D03*
X181495000Y-124415000D03*
X76720000Y-126465000D03*
X76720000Y-124415000D03*
D22*
X161255000Y-151267500D03*
X161255000Y-149192500D03*
D25*
X124345000Y-107415000D03*
X124345000Y-105365000D03*
D27*
X140055000Y-151080000D03*
X140055000Y-153080000D03*
D25*
X48145000Y-145515000D03*
X48145000Y-143465000D03*
D28*
X153705000Y-153780000D03*
X153705000Y-154580000D03*
X153705000Y-155380000D03*
X153705000Y-156180000D03*
X153705000Y-156980000D03*
X153705000Y-157780000D03*
X153705000Y-158580000D03*
X153705000Y-159380000D03*
X153705000Y-160180000D03*
X153705000Y-160980000D03*
X153705000Y-161780000D03*
D29*
X152005000Y-163480000D03*
X151205000Y-163480000D03*
X150405000Y-163480000D03*
X149605000Y-163480000D03*
X148805000Y-163480000D03*
X148005000Y-163480000D03*
X147205000Y-163480000D03*
X146405000Y-163480000D03*
X145605000Y-163480000D03*
X144805000Y-163480000D03*
X144005000Y-163480000D03*
D28*
X142305000Y-161780000D03*
X142305000Y-160980000D03*
X142305000Y-160180000D03*
X142305000Y-159380000D03*
X142305000Y-158580000D03*
X142305000Y-157780000D03*
X142305000Y-156980000D03*
X142305000Y-156180000D03*
X142305000Y-155380000D03*
X142305000Y-154580000D03*
X142305000Y-153780000D03*
D29*
X144005000Y-152080000D03*
X144805000Y-152080000D03*
X145605000Y-152080000D03*
X146405000Y-152080000D03*
X147205000Y-152080000D03*
X148005000Y-152080000D03*
X148805000Y-152080000D03*
X149605000Y-152080000D03*
X150405000Y-152080000D03*
X151205000Y-152080000D03*
X152005000Y-152080000D03*
D25*
X67195000Y-164565000D03*
X67195000Y-162515000D03*
X48145000Y-126465000D03*
X48145000Y-124415000D03*
D22*
X156210000Y-174519500D03*
X156210000Y-172444500D03*
D25*
X105295000Y-164565000D03*
X105295000Y-162515000D03*
X124345000Y-88365000D03*
X124345000Y-86315000D03*
X86245000Y-164565000D03*
X86245000Y-162515000D03*
X162445000Y-164565000D03*
X162445000Y-162515000D03*
D30*
X149606000Y-172444500D03*
X149606000Y-174519500D03*
D25*
X181495000Y-145515000D03*
X181495000Y-143465000D03*
X181495000Y-88365000D03*
X181495000Y-86315000D03*
D31*
X185563000Y-155448000D03*
X187563000Y-155448000D03*
D25*
X124345000Y-145515000D03*
X124345000Y-143465000D03*
D32*
X180661000Y-159766000D03*
X185861000Y-159766000D03*
D25*
X76720000Y-107415000D03*
X76720000Y-105365000D03*
X162445000Y-145515000D03*
X162445000Y-143465000D03*
X48145000Y-164565000D03*
X48145000Y-162515000D03*
X143395000Y-107415000D03*
X143395000Y-105365000D03*
X86245000Y-88365000D03*
X86245000Y-86315000D03*
D33*
X181631500Y-150622000D03*
X179556500Y-150622000D03*
D25*
X162445000Y-126465000D03*
X162445000Y-124415000D03*
X105295000Y-107415000D03*
X105295000Y-105365000D03*
X48145000Y-107415000D03*
X48145000Y-105365000D03*
X181495000Y-107415000D03*
X181495000Y-105365000D03*
X162445000Y-88365000D03*
X162445000Y-86315000D03*
D30*
X147447000Y-172444500D03*
X147447000Y-174519500D03*
D27*
X154051000Y-172482000D03*
X154051000Y-174482000D03*
D25*
X143395000Y-145515000D03*
X143395000Y-143465000D03*
X124345000Y-126465000D03*
X124345000Y-124415000D03*
D33*
X181631500Y-152781000D03*
X179556500Y-152781000D03*
D30*
X151845000Y-172444500D03*
X151845000Y-174519500D03*
D25*
X76720000Y-145515000D03*
X76720000Y-143465000D03*
X105295000Y-88365000D03*
X105295000Y-86315000D03*
X48145000Y-88365000D03*
X48145000Y-86315000D03*
X67195000Y-88365000D03*
X67195000Y-86315000D03*
D31*
X185563000Y-152908000D03*
X187563000Y-152908000D03*
D34*
X196560000Y-167300000D03*
X196560000Y-167800000D03*
X196560000Y-168300000D03*
X196560000Y-168800000D03*
X196560000Y-169300000D03*
X196560000Y-169800000D03*
X196560000Y-170300000D03*
X196560000Y-170800000D03*
X196560000Y-171300000D03*
X196560000Y-171800000D03*
X196560000Y-172300000D03*
X196560000Y-172800000D03*
X196560000Y-173300000D03*
X196560000Y-173800000D03*
X196560000Y-174300000D03*
D35*
X199810000Y-165400000D03*
X199810000Y-176200000D03*
M02*
