%TF.GenerationSoftware,KiCad,Pcbnew,(6.0.10)*%
%TF.CreationDate,2023-02-02T17:49:13-08:00*%
%TF.ProjectId,netrazr_rev2-Right,6e657472-617a-4725-9f72-6576322d5269,2*%
%TF.SameCoordinates,Original*%
%TF.FileFunction,Soldermask,Bot*%
%TF.FilePolarity,Negative*%
%FSLAX46Y46*%
G04 Gerber Fmt 4.6, Leading zero omitted, Abs format (unit mm)*
G04 Created by KiCad (PCBNEW (6.0.10)) date 2023-02-02 17:49:13*
%MOMM*%
%LPD*%
G01*
G04 APERTURE LIST*
G04 Aperture macros list*
%AMRoundRect*
0 Rectangle with rounded corners*
0 $1 Rounding radius*
0 $2 $3 $4 $5 $6 $7 $8 $9 X,Y pos of 4 corners*
0 Add a 4 corners polygon primitive as box body*
4,1,4,$2,$3,$4,$5,$6,$7,$8,$9,$2,$3,0*
0 Add four circle primitives for the rounded corners*
1,1,$1+$1,$2,$3*
1,1,$1+$1,$4,$5*
1,1,$1+$1,$6,$7*
1,1,$1+$1,$8,$9*
0 Add four rect primitives between the rounded corners*
20,1,$1+$1,$2,$3,$4,$5,0*
20,1,$1+$1,$4,$5,$6,$7,0*
20,1,$1+$1,$6,$7,$8,$9,0*
20,1,$1+$1,$8,$9,$2,$3,0*%
G04 Aperture macros list end*
%ADD10C,3.531000*%
%ADD11C,1.803800*%
%ADD12C,1.092600*%
%ADD13C,2.134000*%
%ADD14C,3.802000*%
%ADD15RoundRect,0.301000X0.450000X-0.325000X0.450000X0.325000X-0.450000X0.325000X-0.450000X-0.325000X0*%
%ADD16RoundRect,0.051000X0.650000X-0.150000X0.650000X0.150000X-0.650000X0.150000X-0.650000X-0.150000X0*%
%ADD17RoundRect,0.051000X1.100000X-0.900000X1.100000X0.900000X-1.100000X0.900000X-1.100000X-0.900000X0*%
G04 APERTURE END LIST*
D10*
X291365000Y-154650000D03*
D11*
X296865000Y-154650000D03*
X285865000Y-154650000D03*
D12*
X296585000Y-150450000D03*
D13*
X291365000Y-160550000D03*
X286365000Y-158450000D03*
D12*
X239435000Y-131400000D03*
D10*
X234215000Y-135600000D03*
D11*
X239715000Y-135600000D03*
X228715000Y-135600000D03*
D13*
X234215000Y-141500000D03*
X229215000Y-139400000D03*
D11*
X362065000Y-97500000D03*
D10*
X367565000Y-97500000D03*
D12*
X372785000Y-93300000D03*
D11*
X373065000Y-97500000D03*
D13*
X367565000Y-103400000D03*
X362565000Y-101300000D03*
D10*
X329465000Y-154650000D03*
D11*
X323965000Y-154650000D03*
D12*
X334685000Y-150450000D03*
D11*
X334965000Y-154650000D03*
D13*
X329465000Y-160550000D03*
X324465000Y-158450000D03*
D10*
X253265000Y-116550000D03*
D11*
X258765000Y-116550000D03*
D12*
X258485000Y-112350000D03*
D11*
X247765000Y-116550000D03*
D13*
X253265000Y-122450000D03*
X248265000Y-120350000D03*
D12*
X315635000Y-74250000D03*
D11*
X304915000Y-78450000D03*
X315915000Y-78450000D03*
D10*
X310415000Y-78450000D03*
D13*
X310415000Y-84350000D03*
X305415000Y-82250000D03*
D14*
X375920000Y-64262000D03*
D10*
X234215000Y-97500000D03*
D11*
X239715000Y-97500000D03*
D12*
X239435000Y-93300000D03*
D11*
X228715000Y-97500000D03*
D13*
X234215000Y-103400000D03*
X229215000Y-101300000D03*
D11*
X323965000Y-135600000D03*
X334965000Y-135600000D03*
D10*
X329465000Y-135600000D03*
D12*
X334685000Y-131400000D03*
D13*
X329465000Y-141500000D03*
X324465000Y-139400000D03*
D11*
X354015000Y-135600000D03*
D12*
X353735000Y-131400000D03*
D10*
X348515000Y-135600000D03*
D11*
X343015000Y-135600000D03*
D13*
X348515000Y-141500000D03*
X343515000Y-139400000D03*
D11*
X266815000Y-135600000D03*
D10*
X272315000Y-135600000D03*
D11*
X277815000Y-135600000D03*
D12*
X277535000Y-131400000D03*
D13*
X272315000Y-141500000D03*
X267315000Y-139400000D03*
D11*
X315915000Y-97500000D03*
D12*
X315635000Y-93300000D03*
D11*
X304915000Y-97500000D03*
D10*
X310415000Y-97500000D03*
D13*
X310415000Y-103400000D03*
X305415000Y-101300000D03*
D11*
X315915000Y-116550000D03*
D12*
X315635000Y-112350000D03*
D10*
X310415000Y-116550000D03*
D11*
X304915000Y-116550000D03*
D13*
X310415000Y-122450000D03*
X305415000Y-120350000D03*
D10*
X291365000Y-97500000D03*
D11*
X285865000Y-97500000D03*
X296865000Y-97500000D03*
D12*
X296585000Y-93300000D03*
D13*
X291365000Y-103400000D03*
X286365000Y-101300000D03*
D12*
X296585000Y-131400000D03*
D11*
X285865000Y-135600000D03*
D10*
X291365000Y-135600000D03*
D11*
X296865000Y-135600000D03*
D13*
X291365000Y-141500000D03*
X286365000Y-139400000D03*
D11*
X247765000Y-97500000D03*
X258765000Y-97500000D03*
D12*
X258485000Y-93300000D03*
D10*
X253265000Y-97500000D03*
D13*
X253265000Y-103400000D03*
X248265000Y-101300000D03*
D12*
X258485000Y-150450000D03*
D10*
X253265000Y-154650000D03*
D11*
X247765000Y-154650000D03*
X258765000Y-154650000D03*
D13*
X253265000Y-160550000D03*
X248265000Y-158450000D03*
D11*
X354015000Y-78450000D03*
D12*
X353735000Y-74250000D03*
D11*
X343015000Y-78450000D03*
D10*
X348515000Y-78450000D03*
D13*
X348515000Y-84350000D03*
X343515000Y-82250000D03*
D14*
X375920000Y-173990000D03*
D11*
X323965000Y-97500000D03*
D10*
X329465000Y-97500000D03*
D12*
X334685000Y-93300000D03*
D11*
X334965000Y-97500000D03*
D13*
X329465000Y-103400000D03*
X324465000Y-101300000D03*
D11*
X334965000Y-116550000D03*
D10*
X329465000Y-116550000D03*
D12*
X334685000Y-112350000D03*
D11*
X323965000Y-116550000D03*
D13*
X329465000Y-122450000D03*
X324465000Y-120350000D03*
D11*
X277815000Y-116550000D03*
D12*
X277535000Y-112350000D03*
D11*
X266815000Y-116550000D03*
D10*
X272315000Y-116550000D03*
D13*
X272315000Y-122450000D03*
X267315000Y-120350000D03*
D12*
X239435000Y-112350000D03*
D11*
X239715000Y-116550000D03*
D10*
X234215000Y-116550000D03*
D11*
X228715000Y-116550000D03*
D13*
X234215000Y-122450000D03*
X229215000Y-120350000D03*
D11*
X266815000Y-78450000D03*
X277815000Y-78450000D03*
D12*
X277535000Y-74250000D03*
D10*
X272315000Y-78450000D03*
D13*
X272315000Y-84350000D03*
X267315000Y-82250000D03*
D11*
X266815000Y-97500000D03*
X277815000Y-97500000D03*
D12*
X277535000Y-93300000D03*
D10*
X272315000Y-97500000D03*
D13*
X272315000Y-103400000D03*
X267315000Y-101300000D03*
D11*
X343015000Y-97500000D03*
X354015000Y-97500000D03*
D10*
X348515000Y-97500000D03*
D12*
X353735000Y-93300000D03*
D13*
X348515000Y-103400000D03*
X343515000Y-101300000D03*
D10*
X367565000Y-135600000D03*
D12*
X372785000Y-131400000D03*
D11*
X362065000Y-135600000D03*
X373065000Y-135600000D03*
D13*
X367565000Y-141500000D03*
X362565000Y-139400000D03*
D12*
X296585000Y-112350000D03*
D11*
X296865000Y-116550000D03*
D10*
X291365000Y-116550000D03*
D11*
X285865000Y-116550000D03*
D13*
X291365000Y-122450000D03*
X286365000Y-120350000D03*
D11*
X296865000Y-78450000D03*
D10*
X291365000Y-78450000D03*
D12*
X296585000Y-74250000D03*
D11*
X285865000Y-78450000D03*
D13*
X291365000Y-84350000D03*
X286365000Y-82250000D03*
D10*
X367565000Y-154650000D03*
D12*
X372785000Y-150450000D03*
D11*
X362065000Y-154650000D03*
X373065000Y-154650000D03*
D13*
X367565000Y-160550000D03*
X362565000Y-158450000D03*
D10*
X310415000Y-135600000D03*
D12*
X315635000Y-131400000D03*
D11*
X304915000Y-135600000D03*
X315915000Y-135600000D03*
D13*
X310415000Y-141500000D03*
X305415000Y-139400000D03*
D14*
X236093000Y-64262000D03*
D11*
X362065000Y-78450000D03*
D12*
X372785000Y-74250000D03*
D11*
X373065000Y-78450000D03*
D10*
X367565000Y-78450000D03*
D13*
X367565000Y-84350000D03*
X362565000Y-82250000D03*
D11*
X239715000Y-78450000D03*
X228715000Y-78450000D03*
D12*
X239435000Y-74250000D03*
D10*
X234215000Y-78450000D03*
D13*
X234215000Y-84350000D03*
X229215000Y-82250000D03*
D11*
X247765000Y-135600000D03*
D10*
X253265000Y-135600000D03*
D12*
X258485000Y-131400000D03*
D11*
X258765000Y-135600000D03*
D13*
X253265000Y-141500000D03*
X248265000Y-139400000D03*
D11*
X323965000Y-78450000D03*
X334965000Y-78450000D03*
D12*
X334685000Y-74250000D03*
D10*
X329465000Y-78450000D03*
D13*
X329465000Y-84350000D03*
X324465000Y-82250000D03*
D12*
X363260000Y-112350000D03*
D11*
X352540000Y-116550000D03*
D10*
X358040000Y-116550000D03*
D11*
X363540000Y-116550000D03*
D13*
X358040000Y-122450000D03*
X353040000Y-120350000D03*
D14*
X236093000Y-173990000D03*
D12*
X258485000Y-74250000D03*
D11*
X258765000Y-78450000D03*
X247765000Y-78450000D03*
D10*
X253265000Y-78450000D03*
D13*
X253265000Y-84350000D03*
X248265000Y-82250000D03*
D11*
X304915000Y-154650000D03*
D10*
X310415000Y-154650000D03*
D11*
X315915000Y-154650000D03*
D12*
X315635000Y-150450000D03*
D13*
X310415000Y-160550000D03*
X305415000Y-158450000D03*
D11*
X343015000Y-154650000D03*
D12*
X353735000Y-150450000D03*
D10*
X348515000Y-154650000D03*
D11*
X354015000Y-154650000D03*
D13*
X348515000Y-160550000D03*
X343515000Y-158450000D03*
D15*
X304615000Y-88365000D03*
X304615000Y-86315000D03*
X266515000Y-88365000D03*
X266515000Y-86315000D03*
X361765000Y-164565000D03*
X361765000Y-162515000D03*
X247465000Y-164565000D03*
X247465000Y-162515000D03*
X323665000Y-126465000D03*
X323665000Y-124415000D03*
X228415000Y-88365000D03*
X228415000Y-86315000D03*
X361765000Y-107415000D03*
X361765000Y-105365000D03*
X285565000Y-126465000D03*
X285565000Y-124415000D03*
X266515000Y-126465000D03*
X266515000Y-124415000D03*
X361765000Y-88365000D03*
X361765000Y-86315000D03*
X323665000Y-88365000D03*
X323665000Y-86315000D03*
X228415000Y-107415000D03*
X228415000Y-105365000D03*
X304615000Y-145515000D03*
X304615000Y-143465000D03*
X266515000Y-145515000D03*
X266515000Y-143465000D03*
X247465000Y-145515000D03*
X247465000Y-143465000D03*
X228415000Y-145515000D03*
X228415000Y-143465000D03*
X247465000Y-107415000D03*
X247465000Y-105365000D03*
X323665000Y-164565000D03*
X323665000Y-162515000D03*
X285565000Y-164565000D03*
X285565000Y-162515000D03*
X342715000Y-145515000D03*
X342715000Y-143465000D03*
X352240000Y-126465000D03*
X352240000Y-124415000D03*
X323665000Y-145515000D03*
X323665000Y-143465000D03*
X342715000Y-88365000D03*
X342715000Y-86315000D03*
X304615000Y-126465000D03*
X304615000Y-124415000D03*
X304615000Y-164565000D03*
X304615000Y-162515000D03*
X266515000Y-107415000D03*
X266515000Y-105365000D03*
X247465000Y-126465000D03*
X247465000Y-124415000D03*
X285565000Y-145515000D03*
X285565000Y-143465000D03*
D16*
X223680000Y-174300000D03*
X223680000Y-173800000D03*
X223680000Y-173300000D03*
X223680000Y-172800000D03*
X223680000Y-172300000D03*
X223680000Y-171800000D03*
X223680000Y-171300000D03*
X223680000Y-170800000D03*
X223680000Y-170300000D03*
X223680000Y-169800000D03*
X223680000Y-169300000D03*
X223680000Y-168800000D03*
X223680000Y-168300000D03*
X223680000Y-167800000D03*
X223680000Y-167300000D03*
D17*
X220430000Y-165400000D03*
X220430000Y-176200000D03*
D15*
X342715000Y-107415000D03*
X342715000Y-105365000D03*
X304615000Y-107415000D03*
X304615000Y-105365000D03*
X323665000Y-107415000D03*
X323665000Y-105365000D03*
X228415000Y-126465000D03*
X228415000Y-124415000D03*
X285565000Y-88365000D03*
X285565000Y-86315000D03*
X285565000Y-107415000D03*
X285565000Y-105365000D03*
X247465000Y-88365000D03*
X247465000Y-86315000D03*
X361765000Y-145515000D03*
X361765000Y-143465000D03*
X342715000Y-164565000D03*
X342715000Y-162515000D03*
M02*
