M48
; DRILL file {KiCad (6.0.10)} date Thu Feb  2 17:50:03 2023
; FORMAT={-:-/ absolute / metric / decimal}
; #@! TF.CreationDate,2023-02-02T17:50:03-08:00
; #@! TF.GenerationSoftware,Kicad,Pcbnew,(6.0.10)
; #@! TF.FileFunction,Plated,1,2,PTH
FMAT,2
METRIC
; #@! TA.AperFunction,Plated,PTH,ViaDrill
T1C0.400
; #@! TA.AperFunction,Plated,PTH,ComponentDrill
T2C1.270
%
G90
G05
T1
X229.4Y-161.0
X239.782Y-169.296
X240.886Y-168.579
X241.461Y-167.762
X241.826Y-166.832
X259.964Y-164.719
X262.255Y-164.719
T2
X229.215Y-82.25
X229.215Y-101.3
X229.215Y-120.35
X229.215Y-139.4
X234.215Y-84.35
X234.215Y-103.4
X234.215Y-122.45
X234.215Y-141.5
X248.265Y-82.25
X248.265Y-101.3
X248.265Y-120.35
X248.265Y-139.4
X248.265Y-158.45
X253.265Y-84.35
X253.265Y-103.4
X253.265Y-122.45
X253.265Y-141.5
X253.265Y-160.55
X267.315Y-82.25
X267.315Y-101.3
X267.315Y-120.35
X267.315Y-139.4
X272.315Y-84.35
X272.315Y-103.4
X272.315Y-122.45
X272.315Y-141.5
X286.365Y-82.25
X286.365Y-101.3
X286.365Y-120.35
X286.365Y-139.4
X286.365Y-158.45
X291.365Y-84.35
X291.365Y-103.4
X291.365Y-122.45
X291.365Y-141.5
X291.365Y-160.55
X305.415Y-82.25
X305.415Y-101.3
X305.415Y-120.35
X305.415Y-139.4
X305.415Y-158.45
X310.415Y-84.35
X310.415Y-103.4
X310.415Y-122.45
X310.415Y-141.5
X310.415Y-160.55
X324.465Y-82.25
X324.465Y-101.3
X324.465Y-120.35
X324.465Y-139.4
X324.465Y-158.45
X329.465Y-84.35
X329.465Y-103.4
X329.465Y-122.45
X329.465Y-141.5
X329.465Y-160.55
X343.515Y-82.25
X343.515Y-101.3
X343.515Y-139.4
X343.515Y-158.45
X348.515Y-84.35
X348.515Y-103.4
X348.515Y-141.5
X348.515Y-160.55
X353.04Y-120.35
X358.04Y-122.45
X362.565Y-82.25
X362.565Y-101.3
X362.565Y-139.4
X362.565Y-158.45
X367.565Y-84.35
X367.565Y-103.4
X367.565Y-141.5
X367.565Y-160.55
T0
M30
