%TF.GenerationSoftware,KiCad,Pcbnew,(6.0.10)*%
%TF.CreationDate,2023-02-02T17:49:13-08:00*%
%TF.ProjectId,netrazr_rev2-Right,6e657472-617a-4725-9f72-6576322d5269,2*%
%TF.SameCoordinates,Original*%
%TF.FileFunction,Soldermask,Top*%
%TF.FilePolarity,Negative*%
%FSLAX46Y46*%
G04 Gerber Fmt 4.6, Leading zero omitted, Abs format (unit mm)*
G04 Created by KiCad (PCBNEW (6.0.10)) date 2023-02-02 17:49:13*
%MOMM*%
%LPD*%
G01*
G04 APERTURE LIST*
%ADD10C,3.531000*%
%ADD11C,1.803800*%
%ADD12C,1.092600*%
%ADD13C,2.134000*%
%ADD14C,3.802000*%
G04 APERTURE END LIST*
D10*
X291365000Y-154650000D03*
D11*
X296865000Y-154650000D03*
X285865000Y-154650000D03*
D12*
X296585000Y-150450000D03*
D13*
X291365000Y-160550000D03*
X286365000Y-158450000D03*
D12*
X239435000Y-131400000D03*
D10*
X234215000Y-135600000D03*
D11*
X239715000Y-135600000D03*
X228715000Y-135600000D03*
D13*
X234215000Y-141500000D03*
X229215000Y-139400000D03*
D11*
X362065000Y-97500000D03*
D10*
X367565000Y-97500000D03*
D12*
X372785000Y-93300000D03*
D11*
X373065000Y-97500000D03*
D13*
X367565000Y-103400000D03*
X362565000Y-101300000D03*
D10*
X329465000Y-154650000D03*
D11*
X323965000Y-154650000D03*
D12*
X334685000Y-150450000D03*
D11*
X334965000Y-154650000D03*
D13*
X329465000Y-160550000D03*
X324465000Y-158450000D03*
D10*
X253265000Y-116550000D03*
D11*
X258765000Y-116550000D03*
D12*
X258485000Y-112350000D03*
D11*
X247765000Y-116550000D03*
D13*
X253265000Y-122450000D03*
X248265000Y-120350000D03*
D12*
X315635000Y-74250000D03*
D11*
X304915000Y-78450000D03*
X315915000Y-78450000D03*
D10*
X310415000Y-78450000D03*
D13*
X310415000Y-84350000D03*
X305415000Y-82250000D03*
D14*
X375920000Y-64262000D03*
D10*
X234215000Y-97500000D03*
D11*
X239715000Y-97500000D03*
D12*
X239435000Y-93300000D03*
D11*
X228715000Y-97500000D03*
D13*
X234215000Y-103400000D03*
X229215000Y-101300000D03*
D11*
X323965000Y-135600000D03*
X334965000Y-135600000D03*
D10*
X329465000Y-135600000D03*
D12*
X334685000Y-131400000D03*
D13*
X329465000Y-141500000D03*
X324465000Y-139400000D03*
D11*
X354015000Y-135600000D03*
D12*
X353735000Y-131400000D03*
D10*
X348515000Y-135600000D03*
D11*
X343015000Y-135600000D03*
D13*
X348515000Y-141500000D03*
X343515000Y-139400000D03*
D11*
X266815000Y-135600000D03*
D10*
X272315000Y-135600000D03*
D11*
X277815000Y-135600000D03*
D12*
X277535000Y-131400000D03*
D13*
X272315000Y-141500000D03*
X267315000Y-139400000D03*
D11*
X315915000Y-97500000D03*
D12*
X315635000Y-93300000D03*
D11*
X304915000Y-97500000D03*
D10*
X310415000Y-97500000D03*
D13*
X310415000Y-103400000D03*
X305415000Y-101300000D03*
D11*
X315915000Y-116550000D03*
D12*
X315635000Y-112350000D03*
D10*
X310415000Y-116550000D03*
D11*
X304915000Y-116550000D03*
D13*
X310415000Y-122450000D03*
X305415000Y-120350000D03*
D10*
X291365000Y-97500000D03*
D11*
X285865000Y-97500000D03*
X296865000Y-97500000D03*
D12*
X296585000Y-93300000D03*
D13*
X291365000Y-103400000D03*
X286365000Y-101300000D03*
D12*
X296585000Y-131400000D03*
D11*
X285865000Y-135600000D03*
D10*
X291365000Y-135600000D03*
D11*
X296865000Y-135600000D03*
D13*
X291365000Y-141500000D03*
X286365000Y-139400000D03*
D11*
X247765000Y-97500000D03*
X258765000Y-97500000D03*
D12*
X258485000Y-93300000D03*
D10*
X253265000Y-97500000D03*
D13*
X253265000Y-103400000D03*
X248265000Y-101300000D03*
D12*
X258485000Y-150450000D03*
D10*
X253265000Y-154650000D03*
D11*
X247765000Y-154650000D03*
X258765000Y-154650000D03*
D13*
X253265000Y-160550000D03*
X248265000Y-158450000D03*
D11*
X354015000Y-78450000D03*
D12*
X353735000Y-74250000D03*
D11*
X343015000Y-78450000D03*
D10*
X348515000Y-78450000D03*
D13*
X348515000Y-84350000D03*
X343515000Y-82250000D03*
D14*
X375920000Y-173990000D03*
D11*
X323965000Y-97500000D03*
D10*
X329465000Y-97500000D03*
D12*
X334685000Y-93300000D03*
D11*
X334965000Y-97500000D03*
D13*
X329465000Y-103400000D03*
X324465000Y-101300000D03*
D11*
X334965000Y-116550000D03*
D10*
X329465000Y-116550000D03*
D12*
X334685000Y-112350000D03*
D11*
X323965000Y-116550000D03*
D13*
X329465000Y-122450000D03*
X324465000Y-120350000D03*
D11*
X277815000Y-116550000D03*
D12*
X277535000Y-112350000D03*
D11*
X266815000Y-116550000D03*
D10*
X272315000Y-116550000D03*
D13*
X272315000Y-122450000D03*
X267315000Y-120350000D03*
D12*
X239435000Y-112350000D03*
D11*
X239715000Y-116550000D03*
D10*
X234215000Y-116550000D03*
D11*
X228715000Y-116550000D03*
D13*
X234215000Y-122450000D03*
X229215000Y-120350000D03*
D11*
X266815000Y-78450000D03*
X277815000Y-78450000D03*
D12*
X277535000Y-74250000D03*
D10*
X272315000Y-78450000D03*
D13*
X272315000Y-84350000D03*
X267315000Y-82250000D03*
D11*
X266815000Y-97500000D03*
X277815000Y-97500000D03*
D12*
X277535000Y-93300000D03*
D10*
X272315000Y-97500000D03*
D13*
X272315000Y-103400000D03*
X267315000Y-101300000D03*
D11*
X343015000Y-97500000D03*
X354015000Y-97500000D03*
D10*
X348515000Y-97500000D03*
D12*
X353735000Y-93300000D03*
D13*
X348515000Y-103400000D03*
X343515000Y-101300000D03*
D10*
X367565000Y-135600000D03*
D12*
X372785000Y-131400000D03*
D11*
X362065000Y-135600000D03*
X373065000Y-135600000D03*
D13*
X367565000Y-141500000D03*
X362565000Y-139400000D03*
D12*
X296585000Y-112350000D03*
D11*
X296865000Y-116550000D03*
D10*
X291365000Y-116550000D03*
D11*
X285865000Y-116550000D03*
D13*
X291365000Y-122450000D03*
X286365000Y-120350000D03*
D11*
X296865000Y-78450000D03*
D10*
X291365000Y-78450000D03*
D12*
X296585000Y-74250000D03*
D11*
X285865000Y-78450000D03*
D13*
X291365000Y-84350000D03*
X286365000Y-82250000D03*
D10*
X367565000Y-154650000D03*
D12*
X372785000Y-150450000D03*
D11*
X362065000Y-154650000D03*
X373065000Y-154650000D03*
D13*
X367565000Y-160550000D03*
X362565000Y-158450000D03*
D10*
X310415000Y-135600000D03*
D12*
X315635000Y-131400000D03*
D11*
X304915000Y-135600000D03*
X315915000Y-135600000D03*
D13*
X310415000Y-141500000D03*
X305415000Y-139400000D03*
D14*
X236093000Y-64262000D03*
D11*
X362065000Y-78450000D03*
D12*
X372785000Y-74250000D03*
D11*
X373065000Y-78450000D03*
D10*
X367565000Y-78450000D03*
D13*
X367565000Y-84350000D03*
X362565000Y-82250000D03*
D11*
X239715000Y-78450000D03*
X228715000Y-78450000D03*
D12*
X239435000Y-74250000D03*
D10*
X234215000Y-78450000D03*
D13*
X234215000Y-84350000D03*
X229215000Y-82250000D03*
D11*
X247765000Y-135600000D03*
D10*
X253265000Y-135600000D03*
D12*
X258485000Y-131400000D03*
D11*
X258765000Y-135600000D03*
D13*
X253265000Y-141500000D03*
X248265000Y-139400000D03*
D11*
X323965000Y-78450000D03*
X334965000Y-78450000D03*
D12*
X334685000Y-74250000D03*
D10*
X329465000Y-78450000D03*
D13*
X329465000Y-84350000D03*
X324465000Y-82250000D03*
D12*
X363260000Y-112350000D03*
D11*
X352540000Y-116550000D03*
D10*
X358040000Y-116550000D03*
D11*
X363540000Y-116550000D03*
D13*
X358040000Y-122450000D03*
X353040000Y-120350000D03*
D14*
X236093000Y-173990000D03*
D12*
X258485000Y-74250000D03*
D11*
X258765000Y-78450000D03*
X247765000Y-78450000D03*
D10*
X253265000Y-78450000D03*
D13*
X253265000Y-84350000D03*
X248265000Y-82250000D03*
D11*
X304915000Y-154650000D03*
D10*
X310415000Y-154650000D03*
D11*
X315915000Y-154650000D03*
D12*
X315635000Y-150450000D03*
D13*
X310415000Y-160550000D03*
X305415000Y-158450000D03*
D11*
X343015000Y-154650000D03*
D12*
X353735000Y-150450000D03*
D10*
X348515000Y-154650000D03*
D11*
X354015000Y-154650000D03*
D13*
X348515000Y-160550000D03*
X343515000Y-158450000D03*
M02*
