M48
; DRILL file {KiCad (6.0.10)} date Thu Feb  2 17:50:03 2023
; FORMAT={-:-/ absolute / metric / decimal}
; #@! TF.CreationDate,2023-02-02T17:50:03-08:00
; #@! TF.GenerationSoftware,Kicad,Pcbnew,(6.0.10)
; #@! TF.FileFunction,NonPlated,1,2,NPTH
FMAT,2
METRIC
; #@! TA.AperFunction,NonPlated,NPTH,ComponentDrill
T1C0.991
; #@! TA.AperFunction,NonPlated,NPTH,ComponentDrill
T2C1.702
; #@! TA.AperFunction,NonPlated,NPTH,ComponentDrill
T3C3.429
; #@! TA.AperFunction,NonPlated,NPTH,ComponentDrill
T4C3.700
%
G90
G05
T1
X239.435Y-74.25
X239.435Y-93.3
X239.435Y-112.35
X239.435Y-131.4
X258.485Y-74.25
X258.485Y-93.3
X258.485Y-112.35
X258.485Y-131.4
X258.485Y-150.45
X277.535Y-74.25
X277.535Y-93.3
X277.535Y-112.35
X277.535Y-131.4
X296.585Y-74.25
X296.585Y-93.3
X296.585Y-112.35
X296.585Y-131.4
X296.585Y-150.45
X315.635Y-74.25
X315.635Y-93.3
X315.635Y-112.35
X315.635Y-131.4
X315.635Y-150.45
X334.685Y-74.25
X334.685Y-93.3
X334.685Y-112.35
X334.685Y-131.4
X334.685Y-150.45
X353.735Y-74.25
X353.735Y-93.3
X353.735Y-131.4
X353.735Y-150.45
X363.26Y-112.35
X372.785Y-74.25
X372.785Y-93.3
X372.785Y-131.4
X372.785Y-150.45
T2
X228.715Y-78.45
X228.715Y-97.5
X228.715Y-116.55
X228.715Y-135.6
X239.715Y-78.45
X239.715Y-97.5
X239.715Y-116.55
X239.715Y-135.6
X247.765Y-78.45
X247.765Y-97.5
X247.765Y-116.55
X247.765Y-135.6
X247.765Y-154.65
X258.765Y-78.45
X258.765Y-97.5
X258.765Y-116.55
X258.765Y-135.6
X258.765Y-154.65
X266.815Y-78.45
X266.815Y-97.5
X266.815Y-116.55
X266.815Y-135.6
X277.815Y-78.45
X277.815Y-97.5
X277.815Y-116.55
X277.815Y-135.6
X285.865Y-78.45
X285.865Y-97.5
X285.865Y-116.55
X285.865Y-135.6
X285.865Y-154.65
X296.865Y-78.45
X296.865Y-97.5
X296.865Y-116.55
X296.865Y-135.6
X296.865Y-154.65
X304.915Y-78.45
X304.915Y-97.5
X304.915Y-116.55
X304.915Y-135.6
X304.915Y-154.65
X315.915Y-78.45
X315.915Y-97.5
X315.915Y-116.55
X315.915Y-135.6
X315.915Y-154.65
X323.965Y-78.45
X323.965Y-97.5
X323.965Y-116.55
X323.965Y-135.6
X323.965Y-154.65
X334.965Y-78.45
X334.965Y-97.5
X334.965Y-116.55
X334.965Y-135.6
X334.965Y-154.65
X343.015Y-78.45
X343.015Y-97.5
X343.015Y-135.6
X343.015Y-154.65
X352.54Y-116.55
X354.015Y-78.45
X354.015Y-97.5
X354.015Y-135.6
X354.015Y-154.65
X362.065Y-78.45
X362.065Y-97.5
X362.065Y-135.6
X362.065Y-154.65
X363.54Y-116.55
X373.065Y-78.45
X373.065Y-97.5
X373.065Y-135.6
X373.065Y-154.65
T3
X234.215Y-78.45
X234.215Y-97.5
X234.215Y-116.55
X234.215Y-135.6
X253.265Y-78.45
X253.265Y-97.5
X253.265Y-116.55
X253.265Y-135.6
X253.265Y-154.65
X272.315Y-78.45
X272.315Y-97.5
X272.315Y-116.55
X272.315Y-135.6
X291.365Y-78.45
X291.365Y-97.5
X291.365Y-116.55
X291.365Y-135.6
X291.365Y-154.65
X310.415Y-78.45
X310.415Y-97.5
X310.415Y-116.55
X310.415Y-135.6
X310.415Y-154.65
X329.465Y-78.45
X329.465Y-97.5
X329.465Y-116.55
X329.465Y-135.6
X329.465Y-154.65
X348.515Y-78.45
X348.515Y-97.5
X348.515Y-135.6
X348.515Y-154.65
X358.04Y-116.55
X367.565Y-78.45
X367.565Y-97.5
X367.565Y-135.6
X367.565Y-154.65
T4
X236.093Y-64.262
X236.093Y-173.99
X375.92Y-64.262
X375.92Y-173.99
T0
M30
