%TF.GenerationSoftware,KiCad,Pcbnew,(6.0.10)*%
%TF.CreationDate,2023-02-02T17:50:39-08:00*%
%TF.ProjectId,netrazr_rev2-Right,6e657472-617a-4725-9f72-6576322d5269,2*%
%TF.SameCoordinates,Original*%
%TF.FileFunction,Drillmap*%
%TF.FilePolarity,Positive*%
%FSLAX45Y45*%
G04 Gerber Fmt 4.5, Leading zero omitted, Abs format (unit mm)*
G04 Created by KiCad (PCBNEW (6.0.10)) date 2023-02-02 17:50:39*
%MOMM*%
%LPD*%
G01*
G04 APERTURE LIST*
%ADD10C,0.050000*%
%ADD11C,0.200000*%
%ADD12C,0.040000*%
%ADD13C,0.127000*%
G04 APERTURE END LIST*
D10*
X21666200Y-15985700D02*
X22072600Y-15985700D01*
X38344000Y-6028900D02*
G75*
G03*
X38255100Y-5940000I-88900J0D01*
G01*
X38255100Y-17878000D02*
G75*
G03*
X38344000Y-17789100I0J88900D01*
G01*
X21666200Y-15985700D02*
G75*
G03*
X21577300Y-16074600I0J-88900D01*
G01*
X38344000Y-17789100D02*
X38344000Y-6028900D01*
X21577300Y-16074600D02*
X21580000Y-17789100D01*
X22072600Y-15985700D02*
X22072600Y-6028900D01*
X21668900Y-17878000D02*
X38255100Y-17878000D01*
X38255100Y-5940000D02*
X22161500Y-5940000D01*
X22161500Y-5940000D02*
G75*
G03*
X22072600Y-6028900I0J-88900D01*
G01*
X21580000Y-17789100D02*
G75*
G03*
X21668900Y-17878000I88900J0D01*
G01*
D11*
D12*
X22920000Y-16080000D02*
X22960000Y-16120000D01*
X22960000Y-16080000D02*
X22920000Y-16120000D01*
X23958248Y-16909605D02*
X23998248Y-16949605D01*
X23998248Y-16909605D02*
X23958248Y-16949605D01*
X24068562Y-16837950D02*
X24108562Y-16877950D01*
X24108562Y-16837950D02*
X24068562Y-16877950D01*
X24126067Y-16756200D02*
X24166067Y-16796200D01*
X24166067Y-16756200D02*
X24126067Y-16796200D01*
X24162618Y-16663172D02*
X24202618Y-16703172D01*
X24202618Y-16663172D02*
X24162618Y-16703172D01*
X25976450Y-16451900D02*
X26016450Y-16491900D01*
X26016450Y-16451900D02*
X25976450Y-16491900D01*
X26205500Y-16451900D02*
X26245500Y-16491900D01*
X26245500Y-16451900D02*
X26205500Y-16491900D01*
D13*
X22985000Y-8225000D02*
G75*
G03*
X22985000Y-8225000I-63500J0D01*
G01*
X22985000Y-10130000D02*
G75*
G03*
X22985000Y-10130000I-63500J0D01*
G01*
X22985000Y-12035000D02*
G75*
G03*
X22985000Y-12035000I-63500J0D01*
G01*
X22985000Y-13940000D02*
G75*
G03*
X22985000Y-13940000I-63500J0D01*
G01*
X23485000Y-8435000D02*
G75*
G03*
X23485000Y-8435000I-63500J0D01*
G01*
X23485000Y-10340000D02*
G75*
G03*
X23485000Y-10340000I-63500J0D01*
G01*
X23485000Y-12245000D02*
G75*
G03*
X23485000Y-12245000I-63500J0D01*
G01*
X23485000Y-14150000D02*
G75*
G03*
X23485000Y-14150000I-63500J0D01*
G01*
X24890000Y-8225000D02*
G75*
G03*
X24890000Y-8225000I-63500J0D01*
G01*
X24890000Y-10130000D02*
G75*
G03*
X24890000Y-10130000I-63500J0D01*
G01*
X24890000Y-12035000D02*
G75*
G03*
X24890000Y-12035000I-63500J0D01*
G01*
X24890000Y-13940000D02*
G75*
G03*
X24890000Y-13940000I-63500J0D01*
G01*
X24890000Y-15845000D02*
G75*
G03*
X24890000Y-15845000I-63500J0D01*
G01*
X25390000Y-8435000D02*
G75*
G03*
X25390000Y-8435000I-63500J0D01*
G01*
X25390000Y-10340000D02*
G75*
G03*
X25390000Y-10340000I-63500J0D01*
G01*
X25390000Y-12245000D02*
G75*
G03*
X25390000Y-12245000I-63500J0D01*
G01*
X25390000Y-14150000D02*
G75*
G03*
X25390000Y-14150000I-63500J0D01*
G01*
X25390000Y-16055000D02*
G75*
G03*
X25390000Y-16055000I-63500J0D01*
G01*
X26795000Y-8225000D02*
G75*
G03*
X26795000Y-8225000I-63500J0D01*
G01*
X26795000Y-10130000D02*
G75*
G03*
X26795000Y-10130000I-63500J0D01*
G01*
X26795000Y-12035000D02*
G75*
G03*
X26795000Y-12035000I-63500J0D01*
G01*
X26795000Y-13940000D02*
G75*
G03*
X26795000Y-13940000I-63500J0D01*
G01*
X27295000Y-8435000D02*
G75*
G03*
X27295000Y-8435000I-63500J0D01*
G01*
X27295000Y-10340000D02*
G75*
G03*
X27295000Y-10340000I-63500J0D01*
G01*
X27295000Y-12245000D02*
G75*
G03*
X27295000Y-12245000I-63500J0D01*
G01*
X27295000Y-14150000D02*
G75*
G03*
X27295000Y-14150000I-63500J0D01*
G01*
X28700000Y-8225000D02*
G75*
G03*
X28700000Y-8225000I-63500J0D01*
G01*
X28700000Y-10130000D02*
G75*
G03*
X28700000Y-10130000I-63500J0D01*
G01*
X28700000Y-12035000D02*
G75*
G03*
X28700000Y-12035000I-63500J0D01*
G01*
X28700000Y-13940000D02*
G75*
G03*
X28700000Y-13940000I-63500J0D01*
G01*
X28700000Y-15845000D02*
G75*
G03*
X28700000Y-15845000I-63500J0D01*
G01*
X29200000Y-8435000D02*
G75*
G03*
X29200000Y-8435000I-63500J0D01*
G01*
X29200000Y-10340000D02*
G75*
G03*
X29200000Y-10340000I-63500J0D01*
G01*
X29200000Y-12245000D02*
G75*
G03*
X29200000Y-12245000I-63500J0D01*
G01*
X29200000Y-14150000D02*
G75*
G03*
X29200000Y-14150000I-63500J0D01*
G01*
X29200000Y-16055000D02*
G75*
G03*
X29200000Y-16055000I-63500J0D01*
G01*
X30605000Y-8225000D02*
G75*
G03*
X30605000Y-8225000I-63500J0D01*
G01*
X30605000Y-10130000D02*
G75*
G03*
X30605000Y-10130000I-63500J0D01*
G01*
X30605000Y-12035000D02*
G75*
G03*
X30605000Y-12035000I-63500J0D01*
G01*
X30605000Y-13940000D02*
G75*
G03*
X30605000Y-13940000I-63500J0D01*
G01*
X30605000Y-15845000D02*
G75*
G03*
X30605000Y-15845000I-63500J0D01*
G01*
X31105000Y-8435000D02*
G75*
G03*
X31105000Y-8435000I-63500J0D01*
G01*
X31105000Y-10340000D02*
G75*
G03*
X31105000Y-10340000I-63500J0D01*
G01*
X31105000Y-12245000D02*
G75*
G03*
X31105000Y-12245000I-63500J0D01*
G01*
X31105000Y-14150000D02*
G75*
G03*
X31105000Y-14150000I-63500J0D01*
G01*
X31105000Y-16055000D02*
G75*
G03*
X31105000Y-16055000I-63500J0D01*
G01*
X32510000Y-8225000D02*
G75*
G03*
X32510000Y-8225000I-63500J0D01*
G01*
X32510000Y-10130000D02*
G75*
G03*
X32510000Y-10130000I-63500J0D01*
G01*
X32510000Y-12035000D02*
G75*
G03*
X32510000Y-12035000I-63500J0D01*
G01*
X32510000Y-13940000D02*
G75*
G03*
X32510000Y-13940000I-63500J0D01*
G01*
X32510000Y-15845000D02*
G75*
G03*
X32510000Y-15845000I-63500J0D01*
G01*
X33010000Y-8435000D02*
G75*
G03*
X33010000Y-8435000I-63500J0D01*
G01*
X33010000Y-10340000D02*
G75*
G03*
X33010000Y-10340000I-63500J0D01*
G01*
X33010000Y-12245000D02*
G75*
G03*
X33010000Y-12245000I-63500J0D01*
G01*
X33010000Y-14150000D02*
G75*
G03*
X33010000Y-14150000I-63500J0D01*
G01*
X33010000Y-16055000D02*
G75*
G03*
X33010000Y-16055000I-63500J0D01*
G01*
X34415000Y-8225000D02*
G75*
G03*
X34415000Y-8225000I-63500J0D01*
G01*
X34415000Y-10130000D02*
G75*
G03*
X34415000Y-10130000I-63500J0D01*
G01*
X34415000Y-13940000D02*
G75*
G03*
X34415000Y-13940000I-63500J0D01*
G01*
X34415000Y-15845000D02*
G75*
G03*
X34415000Y-15845000I-63500J0D01*
G01*
X34915000Y-8435000D02*
G75*
G03*
X34915000Y-8435000I-63500J0D01*
G01*
X34915000Y-10340000D02*
G75*
G03*
X34915000Y-10340000I-63500J0D01*
G01*
X34915000Y-14150000D02*
G75*
G03*
X34915000Y-14150000I-63500J0D01*
G01*
X34915000Y-16055000D02*
G75*
G03*
X34915000Y-16055000I-63500J0D01*
G01*
X35367500Y-12035000D02*
G75*
G03*
X35367500Y-12035000I-63500J0D01*
G01*
X35867500Y-12245000D02*
G75*
G03*
X35867500Y-12245000I-63500J0D01*
G01*
X36320000Y-8225000D02*
G75*
G03*
X36320000Y-8225000I-63500J0D01*
G01*
X36320000Y-10130000D02*
G75*
G03*
X36320000Y-10130000I-63500J0D01*
G01*
X36320000Y-13940000D02*
G75*
G03*
X36320000Y-13940000I-63500J0D01*
G01*
X36320000Y-15845000D02*
G75*
G03*
X36320000Y-15845000I-63500J0D01*
G01*
X36820000Y-8435000D02*
G75*
G03*
X36820000Y-8435000I-63500J0D01*
G01*
X36820000Y-10340000D02*
G75*
G03*
X36820000Y-10340000I-63500J0D01*
G01*
X36820000Y-14150000D02*
G75*
G03*
X36820000Y-14150000I-63500J0D01*
G01*
X36820000Y-16055000D02*
G75*
G03*
X36820000Y-16055000I-63500J0D01*
G01*
D11*
X21832419Y-18190976D02*
X21832419Y-17990976D01*
X21880038Y-17990976D01*
X21908610Y-18000500D01*
X21927657Y-18019548D01*
X21937181Y-18038595D01*
X21946705Y-18076690D01*
X21946705Y-18105262D01*
X21937181Y-18143357D01*
X21927657Y-18162405D01*
X21908610Y-18181452D01*
X21880038Y-18190976D01*
X21832419Y-18190976D01*
X22032419Y-18190976D02*
X22032419Y-18057643D01*
X22032419Y-18095738D02*
X22041943Y-18076690D01*
X22051467Y-18067167D01*
X22070514Y-18057643D01*
X22089562Y-18057643D01*
X22156229Y-18190976D02*
X22156229Y-18057643D01*
X22156229Y-17990976D02*
X22146705Y-18000500D01*
X22156229Y-18010024D01*
X22165752Y-18000500D01*
X22156229Y-17990976D01*
X22156229Y-18010024D01*
X22280038Y-18190976D02*
X22260990Y-18181452D01*
X22251467Y-18162405D01*
X22251467Y-17990976D01*
X22384800Y-18190976D02*
X22365752Y-18181452D01*
X22356229Y-18162405D01*
X22356229Y-17990976D01*
X22613371Y-18190976D02*
X22613371Y-17990976D01*
X22680038Y-18133833D01*
X22746705Y-17990976D01*
X22746705Y-18190976D01*
X22927657Y-18190976D02*
X22927657Y-18086214D01*
X22918133Y-18067167D01*
X22899086Y-18057643D01*
X22860990Y-18057643D01*
X22841943Y-18067167D01*
X22927657Y-18181452D02*
X22908609Y-18190976D01*
X22860990Y-18190976D01*
X22841943Y-18181452D01*
X22832419Y-18162405D01*
X22832419Y-18143357D01*
X22841943Y-18124310D01*
X22860990Y-18114786D01*
X22908609Y-18114786D01*
X22927657Y-18105262D01*
X23022895Y-18057643D02*
X23022895Y-18257643D01*
X23022895Y-18067167D02*
X23041943Y-18057643D01*
X23080038Y-18057643D01*
X23099086Y-18067167D01*
X23108609Y-18076690D01*
X23118133Y-18095738D01*
X23118133Y-18152881D01*
X23108609Y-18171929D01*
X23099086Y-18181452D01*
X23080038Y-18190976D01*
X23041943Y-18190976D01*
X23022895Y-18181452D01*
X23203848Y-18171929D02*
X23213371Y-18181452D01*
X23203848Y-18190976D01*
X23194324Y-18181452D01*
X23203848Y-18171929D01*
X23203848Y-18190976D01*
X23203848Y-18067167D02*
X23213371Y-18076690D01*
X23203848Y-18086214D01*
X23194324Y-18076690D01*
X23203848Y-18067167D01*
X23203848Y-18086214D01*
D12*
X21534800Y-18500500D02*
X21574800Y-18540500D01*
X21574800Y-18500500D02*
X21534800Y-18540500D01*
D11*
X21870514Y-18410976D02*
X21889562Y-18410976D01*
X21908610Y-18420500D01*
X21918133Y-18430024D01*
X21927657Y-18449071D01*
X21937181Y-18487167D01*
X21937181Y-18534786D01*
X21927657Y-18572881D01*
X21918133Y-18591929D01*
X21908610Y-18601452D01*
X21889562Y-18610976D01*
X21870514Y-18610976D01*
X21851467Y-18601452D01*
X21841943Y-18591929D01*
X21832419Y-18572881D01*
X21822895Y-18534786D01*
X21822895Y-18487167D01*
X21832419Y-18449071D01*
X21841943Y-18430024D01*
X21851467Y-18420500D01*
X21870514Y-18410976D01*
X22022895Y-18591929D02*
X22032419Y-18601452D01*
X22022895Y-18610976D01*
X22013371Y-18601452D01*
X22022895Y-18591929D01*
X22022895Y-18610976D01*
X22203848Y-18477643D02*
X22203848Y-18610976D01*
X22156229Y-18401452D02*
X22108610Y-18544310D01*
X22232419Y-18544310D01*
X22346705Y-18410976D02*
X22365752Y-18410976D01*
X22384800Y-18420500D01*
X22394324Y-18430024D01*
X22403848Y-18449071D01*
X22413371Y-18487167D01*
X22413371Y-18534786D01*
X22403848Y-18572881D01*
X22394324Y-18591929D01*
X22384800Y-18601452D01*
X22365752Y-18610976D01*
X22346705Y-18610976D01*
X22327657Y-18601452D01*
X22318133Y-18591929D01*
X22308610Y-18572881D01*
X22299086Y-18534786D01*
X22299086Y-18487167D01*
X22308610Y-18449071D01*
X22318133Y-18430024D01*
X22327657Y-18420500D01*
X22346705Y-18410976D01*
X22537181Y-18410976D02*
X22556228Y-18410976D01*
X22575276Y-18420500D01*
X22584800Y-18430024D01*
X22594324Y-18449071D01*
X22603848Y-18487167D01*
X22603848Y-18534786D01*
X22594324Y-18572881D01*
X22584800Y-18591929D01*
X22575276Y-18601452D01*
X22556228Y-18610976D01*
X22537181Y-18610976D01*
X22518133Y-18601452D01*
X22508609Y-18591929D01*
X22499086Y-18572881D01*
X22489562Y-18534786D01*
X22489562Y-18487167D01*
X22499086Y-18449071D01*
X22508609Y-18430024D01*
X22518133Y-18420500D01*
X22537181Y-18410976D01*
X22689562Y-18610976D02*
X22689562Y-18477643D01*
X22689562Y-18496690D02*
X22699086Y-18487167D01*
X22718133Y-18477643D01*
X22746705Y-18477643D01*
X22765752Y-18487167D01*
X22775276Y-18506214D01*
X22775276Y-18610976D01*
X22775276Y-18506214D02*
X22784800Y-18487167D01*
X22803848Y-18477643D01*
X22832419Y-18477643D01*
X22851467Y-18487167D01*
X22860990Y-18506214D01*
X22860990Y-18610976D01*
X22956228Y-18610976D02*
X22956228Y-18477643D01*
X22956228Y-18496690D02*
X22965752Y-18487167D01*
X22984800Y-18477643D01*
X23013371Y-18477643D01*
X23032419Y-18487167D01*
X23041943Y-18506214D01*
X23041943Y-18610976D01*
X23041943Y-18506214D02*
X23051467Y-18487167D01*
X23070514Y-18477643D01*
X23099086Y-18477643D01*
X23118133Y-18487167D01*
X23127657Y-18506214D01*
X23127657Y-18610976D01*
X23518133Y-18401452D02*
X23346705Y-18658595D01*
X23775276Y-18410976D02*
X23794324Y-18410976D01*
X23813371Y-18420500D01*
X23822895Y-18430024D01*
X23832419Y-18449071D01*
X23841943Y-18487167D01*
X23841943Y-18534786D01*
X23832419Y-18572881D01*
X23822895Y-18591929D01*
X23813371Y-18601452D01*
X23794324Y-18610976D01*
X23775276Y-18610976D01*
X23756228Y-18601452D01*
X23746705Y-18591929D01*
X23737181Y-18572881D01*
X23727657Y-18534786D01*
X23727657Y-18487167D01*
X23737181Y-18449071D01*
X23746705Y-18430024D01*
X23756228Y-18420500D01*
X23775276Y-18410976D01*
X23927657Y-18591929D02*
X23937181Y-18601452D01*
X23927657Y-18610976D01*
X23918133Y-18601452D01*
X23927657Y-18591929D01*
X23927657Y-18610976D01*
X24060990Y-18410976D02*
X24080038Y-18410976D01*
X24099086Y-18420500D01*
X24108609Y-18430024D01*
X24118133Y-18449071D01*
X24127657Y-18487167D01*
X24127657Y-18534786D01*
X24118133Y-18572881D01*
X24108609Y-18591929D01*
X24099086Y-18601452D01*
X24080038Y-18610976D01*
X24060990Y-18610976D01*
X24041943Y-18601452D01*
X24032419Y-18591929D01*
X24022895Y-18572881D01*
X24013371Y-18534786D01*
X24013371Y-18487167D01*
X24022895Y-18449071D01*
X24032419Y-18430024D01*
X24041943Y-18420500D01*
X24060990Y-18410976D01*
X24318133Y-18610976D02*
X24203848Y-18610976D01*
X24260990Y-18610976D02*
X24260990Y-18410976D01*
X24241943Y-18439548D01*
X24222895Y-18458595D01*
X24203848Y-18468119D01*
X24499086Y-18410976D02*
X24403848Y-18410976D01*
X24394324Y-18506214D01*
X24403848Y-18496690D01*
X24422895Y-18487167D01*
X24470514Y-18487167D01*
X24489562Y-18496690D01*
X24499086Y-18506214D01*
X24508609Y-18525262D01*
X24508609Y-18572881D01*
X24499086Y-18591929D01*
X24489562Y-18601452D01*
X24470514Y-18610976D01*
X24422895Y-18610976D01*
X24403848Y-18601452D01*
X24394324Y-18591929D01*
X24575276Y-18410976D02*
X24708609Y-18410976D01*
X24622895Y-18610976D01*
X24775276Y-18410976D02*
X24775276Y-18449071D01*
X24851467Y-18410976D02*
X24851467Y-18449071D01*
X25146705Y-18687167D02*
X25137181Y-18677643D01*
X25118133Y-18649071D01*
X25108609Y-18630024D01*
X25099086Y-18601452D01*
X25089562Y-18553833D01*
X25089562Y-18515738D01*
X25099086Y-18468119D01*
X25108609Y-18439548D01*
X25118133Y-18420500D01*
X25137181Y-18391929D01*
X25146705Y-18382405D01*
X25203848Y-18410976D02*
X25337181Y-18410976D01*
X25251467Y-18610976D01*
X25565752Y-18610976D02*
X25565752Y-18410976D01*
X25651467Y-18610976D02*
X25651467Y-18506214D01*
X25641943Y-18487167D01*
X25622895Y-18477643D01*
X25594324Y-18477643D01*
X25575276Y-18487167D01*
X25565752Y-18496690D01*
X25775276Y-18610976D02*
X25756228Y-18601452D01*
X25746705Y-18591929D01*
X25737181Y-18572881D01*
X25737181Y-18515738D01*
X25746705Y-18496690D01*
X25756228Y-18487167D01*
X25775276Y-18477643D01*
X25803848Y-18477643D01*
X25822895Y-18487167D01*
X25832419Y-18496690D01*
X25841943Y-18515738D01*
X25841943Y-18572881D01*
X25832419Y-18591929D01*
X25822895Y-18601452D01*
X25803848Y-18610976D01*
X25775276Y-18610976D01*
X25956228Y-18610976D02*
X25937181Y-18601452D01*
X25927657Y-18582405D01*
X25927657Y-18410976D01*
X26108609Y-18601452D02*
X26089562Y-18610976D01*
X26051467Y-18610976D01*
X26032419Y-18601452D01*
X26022895Y-18582405D01*
X26022895Y-18506214D01*
X26032419Y-18487167D01*
X26051467Y-18477643D01*
X26089562Y-18477643D01*
X26108609Y-18487167D01*
X26118133Y-18506214D01*
X26118133Y-18525262D01*
X26022895Y-18544310D01*
X26194324Y-18601452D02*
X26213371Y-18610976D01*
X26251467Y-18610976D01*
X26270514Y-18601452D01*
X26280038Y-18582405D01*
X26280038Y-18572881D01*
X26270514Y-18553833D01*
X26251467Y-18544310D01*
X26222895Y-18544310D01*
X26203848Y-18534786D01*
X26194324Y-18515738D01*
X26194324Y-18506214D01*
X26203848Y-18487167D01*
X26222895Y-18477643D01*
X26251467Y-18477643D01*
X26270514Y-18487167D01*
X26346705Y-18687167D02*
X26356228Y-18677643D01*
X26375276Y-18649071D01*
X26384800Y-18630024D01*
X26394324Y-18601452D01*
X26403848Y-18553833D01*
X26403848Y-18515738D01*
X26394324Y-18468119D01*
X26384800Y-18439548D01*
X26375276Y-18420500D01*
X26356228Y-18391929D01*
X26346705Y-18382405D01*
D13*
X21574800Y-18784500D02*
G75*
G03*
X21574800Y-18784500I-63500J0D01*
G01*
D11*
X21937181Y-18874976D02*
X21822895Y-18874976D01*
X21880038Y-18874976D02*
X21880038Y-18674976D01*
X21860990Y-18703548D01*
X21841943Y-18722595D01*
X21822895Y-18732119D01*
X22022895Y-18855929D02*
X22032419Y-18865452D01*
X22022895Y-18874976D01*
X22013371Y-18865452D01*
X22022895Y-18855929D01*
X22022895Y-18874976D01*
X22108610Y-18694024D02*
X22118133Y-18684500D01*
X22137181Y-18674976D01*
X22184800Y-18674976D01*
X22203848Y-18684500D01*
X22213371Y-18694024D01*
X22222895Y-18713071D01*
X22222895Y-18732119D01*
X22213371Y-18760690D01*
X22099086Y-18874976D01*
X22222895Y-18874976D01*
X22289562Y-18674976D02*
X22422895Y-18674976D01*
X22337181Y-18874976D01*
X22537181Y-18674976D02*
X22556228Y-18674976D01*
X22575276Y-18684500D01*
X22584800Y-18694024D01*
X22594324Y-18713071D01*
X22603848Y-18751167D01*
X22603848Y-18798786D01*
X22594324Y-18836881D01*
X22584800Y-18855929D01*
X22575276Y-18865452D01*
X22556228Y-18874976D01*
X22537181Y-18874976D01*
X22518133Y-18865452D01*
X22508609Y-18855929D01*
X22499086Y-18836881D01*
X22489562Y-18798786D01*
X22489562Y-18751167D01*
X22499086Y-18713071D01*
X22508609Y-18694024D01*
X22518133Y-18684500D01*
X22537181Y-18674976D01*
X22689562Y-18874976D02*
X22689562Y-18741643D01*
X22689562Y-18760690D02*
X22699086Y-18751167D01*
X22718133Y-18741643D01*
X22746705Y-18741643D01*
X22765752Y-18751167D01*
X22775276Y-18770214D01*
X22775276Y-18874976D01*
X22775276Y-18770214D02*
X22784800Y-18751167D01*
X22803848Y-18741643D01*
X22832419Y-18741643D01*
X22851467Y-18751167D01*
X22860990Y-18770214D01*
X22860990Y-18874976D01*
X22956228Y-18874976D02*
X22956228Y-18741643D01*
X22956228Y-18760690D02*
X22965752Y-18751167D01*
X22984800Y-18741643D01*
X23013371Y-18741643D01*
X23032419Y-18751167D01*
X23041943Y-18770214D01*
X23041943Y-18874976D01*
X23041943Y-18770214D02*
X23051467Y-18751167D01*
X23070514Y-18741643D01*
X23099086Y-18741643D01*
X23118133Y-18751167D01*
X23127657Y-18770214D01*
X23127657Y-18874976D01*
X23518133Y-18665452D02*
X23346705Y-18922595D01*
X23775276Y-18674976D02*
X23794324Y-18674976D01*
X23813371Y-18684500D01*
X23822895Y-18694024D01*
X23832419Y-18713071D01*
X23841943Y-18751167D01*
X23841943Y-18798786D01*
X23832419Y-18836881D01*
X23822895Y-18855929D01*
X23813371Y-18865452D01*
X23794324Y-18874976D01*
X23775276Y-18874976D01*
X23756228Y-18865452D01*
X23746705Y-18855929D01*
X23737181Y-18836881D01*
X23727657Y-18798786D01*
X23727657Y-18751167D01*
X23737181Y-18713071D01*
X23746705Y-18694024D01*
X23756228Y-18684500D01*
X23775276Y-18674976D01*
X23927657Y-18855929D02*
X23937181Y-18865452D01*
X23927657Y-18874976D01*
X23918133Y-18865452D01*
X23927657Y-18855929D01*
X23927657Y-18874976D01*
X24060990Y-18674976D02*
X24080038Y-18674976D01*
X24099086Y-18684500D01*
X24108609Y-18694024D01*
X24118133Y-18713071D01*
X24127657Y-18751167D01*
X24127657Y-18798786D01*
X24118133Y-18836881D01*
X24108609Y-18855929D01*
X24099086Y-18865452D01*
X24080038Y-18874976D01*
X24060990Y-18874976D01*
X24041943Y-18865452D01*
X24032419Y-18855929D01*
X24022895Y-18836881D01*
X24013371Y-18798786D01*
X24013371Y-18751167D01*
X24022895Y-18713071D01*
X24032419Y-18694024D01*
X24041943Y-18684500D01*
X24060990Y-18674976D01*
X24308609Y-18674976D02*
X24213371Y-18674976D01*
X24203848Y-18770214D01*
X24213371Y-18760690D01*
X24232419Y-18751167D01*
X24280038Y-18751167D01*
X24299086Y-18760690D01*
X24308609Y-18770214D01*
X24318133Y-18789262D01*
X24318133Y-18836881D01*
X24308609Y-18855929D01*
X24299086Y-18865452D01*
X24280038Y-18874976D01*
X24232419Y-18874976D01*
X24213371Y-18865452D01*
X24203848Y-18855929D01*
X24441943Y-18674976D02*
X24460990Y-18674976D01*
X24480038Y-18684500D01*
X24489562Y-18694024D01*
X24499086Y-18713071D01*
X24508609Y-18751167D01*
X24508609Y-18798786D01*
X24499086Y-18836881D01*
X24489562Y-18855929D01*
X24480038Y-18865452D01*
X24460990Y-18874976D01*
X24441943Y-18874976D01*
X24422895Y-18865452D01*
X24413371Y-18855929D01*
X24403848Y-18836881D01*
X24394324Y-18798786D01*
X24394324Y-18751167D01*
X24403848Y-18713071D01*
X24413371Y-18694024D01*
X24422895Y-18684500D01*
X24441943Y-18674976D01*
X24632419Y-18674976D02*
X24651467Y-18674976D01*
X24670514Y-18684500D01*
X24680038Y-18694024D01*
X24689562Y-18713071D01*
X24699086Y-18751167D01*
X24699086Y-18798786D01*
X24689562Y-18836881D01*
X24680038Y-18855929D01*
X24670514Y-18865452D01*
X24651467Y-18874976D01*
X24632419Y-18874976D01*
X24613371Y-18865452D01*
X24603848Y-18855929D01*
X24594324Y-18836881D01*
X24584800Y-18798786D01*
X24584800Y-18751167D01*
X24594324Y-18713071D01*
X24603848Y-18694024D01*
X24613371Y-18684500D01*
X24632419Y-18674976D01*
X24775276Y-18674976D02*
X24775276Y-18713071D01*
X24851467Y-18674976D02*
X24851467Y-18713071D01*
X25146705Y-18951167D02*
X25137181Y-18941643D01*
X25118133Y-18913071D01*
X25108609Y-18894024D01*
X25099086Y-18865452D01*
X25089562Y-18817833D01*
X25089562Y-18779738D01*
X25099086Y-18732119D01*
X25108609Y-18703548D01*
X25118133Y-18684500D01*
X25137181Y-18655929D01*
X25146705Y-18646405D01*
X25203848Y-18674976D02*
X25337181Y-18674976D01*
X25251467Y-18874976D01*
X25499086Y-18741643D02*
X25499086Y-18874976D01*
X25451467Y-18665452D02*
X25403848Y-18808310D01*
X25527657Y-18808310D01*
X25756228Y-18874976D02*
X25756228Y-18674976D01*
X25841943Y-18874976D02*
X25841943Y-18770214D01*
X25832419Y-18751167D01*
X25813371Y-18741643D01*
X25784800Y-18741643D01*
X25765752Y-18751167D01*
X25756228Y-18760690D01*
X25965752Y-18874976D02*
X25946705Y-18865452D01*
X25937181Y-18855929D01*
X25927657Y-18836881D01*
X25927657Y-18779738D01*
X25937181Y-18760690D01*
X25946705Y-18751167D01*
X25965752Y-18741643D01*
X25994324Y-18741643D01*
X26013371Y-18751167D01*
X26022895Y-18760690D01*
X26032419Y-18779738D01*
X26032419Y-18836881D01*
X26022895Y-18855929D01*
X26013371Y-18865452D01*
X25994324Y-18874976D01*
X25965752Y-18874976D01*
X26146705Y-18874976D02*
X26127657Y-18865452D01*
X26118133Y-18846405D01*
X26118133Y-18674976D01*
X26299086Y-18865452D02*
X26280038Y-18874976D01*
X26241943Y-18874976D01*
X26222895Y-18865452D01*
X26213371Y-18846405D01*
X26213371Y-18770214D01*
X26222895Y-18751167D01*
X26241943Y-18741643D01*
X26280038Y-18741643D01*
X26299086Y-18751167D01*
X26308609Y-18770214D01*
X26308609Y-18789262D01*
X26213371Y-18808310D01*
X26384800Y-18865452D02*
X26403848Y-18874976D01*
X26441943Y-18874976D01*
X26460990Y-18865452D01*
X26470514Y-18846405D01*
X26470514Y-18836881D01*
X26460990Y-18817833D01*
X26441943Y-18808310D01*
X26413371Y-18808310D01*
X26394324Y-18798786D01*
X26384800Y-18779738D01*
X26384800Y-18770214D01*
X26394324Y-18751167D01*
X26413371Y-18741643D01*
X26441943Y-18741643D01*
X26460990Y-18751167D01*
X26537181Y-18951167D02*
X26546705Y-18941643D01*
X26565752Y-18913071D01*
X26575276Y-18894024D01*
X26584800Y-18865452D01*
X26594324Y-18817833D01*
X26594324Y-18779738D01*
X26584800Y-18732119D01*
X26575276Y-18703548D01*
X26565752Y-18684500D01*
X26546705Y-18655929D01*
X26537181Y-18646405D01*
M02*
